<?xml version="1.0" encoding="utf-8"?>
<svg version="1.1" id="Layer_1" xmlns="http://www.w3.org/2000/svg" xmlns:xlink="http://www.w3.org/1999/xlink" x="0px" y="0px"
	 viewBox="0 0 394 121.5" style="enable-background:new 0 0 394 121.5;" xml:space="preserve">
<path id="red-bg-3" fill="#CC091E" class="transparent" d="M394,121.5V61.6c0,28.8-33.2,57.4-101,59.8h-0.7c-0.3,0-0.5,0-0.4,0.1"/>
<path id="red-bg-2" fill="#CC091E" class="transparent" d="M292.3,0.1c0.1,0.1,0.3,0.1,0.5,0.1h0.1C359.1,2.8,393.3,31.7,394,60.7V0.1H292.3z"/>
<path id="white-bg" class="white" fill="#fff" d="M292.9,0.2h-0.1c-0.2,0-0.4,0-0.5-0.1c-4,0-66.4,0-132.5,0l0,0c31.4,0,56.9,1.5,76.3,4.5
	c19.4,3,35.4,7.3,48,12.8c12.6,5.6,21.8,12.1,27.5,19.5c5.7,7.4,8.5,15.2,8.5,23.5c0,13-4.2,23-12.7,30.2
	c-8.4,7.1-20.2,13.1-35.2,17.9s-31.1,8.1-48.4,9.7c-23.1,2.1-44,3.2-62.8,3.3c65.2,0,126.3,0,130.9,0c-0.1,0,0.1-0.1,0.4-0.1h0.7
	c67.8-2.4,101-31,101-59.8v-0.9C393.3,31.7,359.1,2.8,292.9,0.2z"/>
<path id="red-bg-1" fill="#CC091E" class="black" d="M0,0.1h159.8c31.4,0,56.9,1.5,76.3,4.5s35.4,7.3,48,12.8c12.6,5.6,21.8,12.1,27.5,19.5
	s8.5,15.2,8.5,23.5c0,13-4.2,23-12.7,30.2c-8.4,7.1-20.2,13.1-35.2,17.9s-31.1,8.1-48.4,9.7c-23.6,2.2-45,3.3-64.1,3.3H0V0.1z"/>
<g id="r">
	<path fill="#CC091E" class="black" d="M308.5,14.2h3.6c0.4,0.1,0.7,0.2,0.9,0.4c0.2,0.2,0.3,0.5,0.3,0.9c0,0.3-0.1,0.6-0.2,0.8
		c-0.2,0.2-0.4,0.4-0.7,0.4c-0.3,0.1-1,0.1-2.1,0.1h-1.8L308.5,14.2L308.5,14.2z M308.5,22.9v-4.4h0.5c0.5,0,0.9,0,1.2,0.1
		c0.3,0.1,0.5,0.2,0.7,0.4c0.2,0.2,0.6,0.7,1.3,1.5l1.7,2.3h2.8l-1.4-2.1c-0.6-0.8-1-1.4-1.3-1.7c-0.3-0.3-0.8-0.6-1.3-0.9
		c1-0.1,1.8-0.5,2.3-1s0.8-1.2,0.8-2c0-0.6-0.2-1.2-0.5-1.7s-0.8-0.8-1.4-1s-1.5-0.3-2.7-0.3h-5v10.5h2.3V22.9z"/>
	<path fill="#CC091E" class="black" d="M318.9,16.8c0,4.6-3.7,8.3-8.3,8.3c-4.6,0-8.3-3.7-8.3-8.3s3.7-8.3,8.3-8.3C315.1,8.5,318.9,12.2,318.9,16.8z
		 M300.8,16.8c0,5.3,4.3,9.7,9.7,9.7s9.7-4.3,9.7-9.7c0-5.3-4.3-9.7-9.7-9.7S300.8,11.5,300.8,16.8z"/>
</g>
<path id="laser" fill="#fff" class="white" d="M213.7,62.9c-0.3,0.3-0.7,0.5-1.1,0.6H13.9c-0.8,0-1.6-0.7-1.6-1.5c0-0.9,0.7-1.6,1.5-1.6h198.6
	c0.5,0,1,0.2,1.3,0.6h2.2l-7.4-2c-0.5-0.1-0.8-0.7-0.7-1.2s0.7-0.8,1.2-0.7l7.5,2.1l-13.1-7.6c-0.5-0.3-0.6-0.9-0.4-1.3
	c0.3-0.5,0.9-0.6,1.3-0.3l12.9,7.5l-2.5-2.6c-0.4-0.4-0.4-1,0-1.4s1-0.4,1.4,0l3.6,3.6l-11.4-20.4c-0.3-0.5-0.1-1.1,0.4-1.3
	c0.5-0.3,1.1-0.1,1.3,0.4l10.4,18.6l-1.1-4.4c-0.1-0.5,0.2-1,0.7-1.2c0.5-0.1,1,0.2,1.2,0.7l1.1,4.3v-9.6c0-0.5,0.4-1,1-1
	c0.5,0,1,0.4,1,1v10.4l0.9-3.5c0.1-0.5,0.7-0.8,1.2-0.7s0.8,0.7,0.7,1.2l-1.1,4.2l7.3-12.5c0.3-0.5,0.8-0.6,1.3-0.4
	c0.5,0.3,0.6,0.8,0.4,1.3l-6.4,10.9l4.9-5c0.4-0.4,1-0.4,1.4-0.1c0.4,0.4,0.4,1,0.1,1.4l-5.6,5.8l11.5-6.8c0.5-0.3,1-0.1,1.3,0.3
	c0.3,0.5,0.1,1-0.3,1.3l-12.5,7.4l6.7-1.7c0.5-0.1,1,0.2,1.2,0.7c0.1,0.5-0.2,1-0.7,1.2l-4.7,1.2h9.8c0.5,0,1,0.4,1,0.9
	s-0.4,1-0.9,1h-11.4l7.5,2c0.5,0.1,0.8,0.7,0.7,1.2s-0.7,0.8-1.2,0.7l-6.8-1.9l13.6,7.9c0.5,0.3,0.6,0.9,0.3,1.3
	c-0.3,0.5-0.9,0.6-1.3,0.3l-14.4-8.3l4.7,4.8c0.4,0.4,0.4,1,0,1.4s-1,0.4-1.4,0l-3.4-3.5l4.8,8.5c0.3,0.5,0.1,1.1-0.4,1.3
	c-0.5,0.3-1.1,0.1-1.3-0.4l-5.6-9.9l1,3.8c0.1,0.5-0.2,1-0.7,1.2c-0.5,0.1-1-0.2-1.2-0.7l-0.9-3.5V85c0,0.5-0.4,1-1,1
	c-0.5,0-1-0.4-1-1V69.7l-1.6,6c-0.1,0.5-0.7,0.8-1.2,0.7c-0.5-0.1-0.8-0.7-0.7-1.2l1.6-6.3l-8.1,14.2c-0.3,0.5-0.8,0.6-1.3,0.4
	c-0.5-0.3-0.6-0.8-0.4-1.3l8.3-14.3l-4.4,4.5c-0.4,0.4-1,0.4-1.4,0.1c-0.4-0.4-0.4-1-0.1-1.4l4.5-4.6l-19.1,11.3
	c-0.4,0.3-1.1,0.1-1.3-0.3c-0.3-0.5-0.1-1.1,0.3-1.3l19.1-11.3l-3.7,0.9c-0.5,0.1-1-0.2-1.2-0.7c-0.1-0.5,0.2-1,0.7-1.2l3.9-1
	L213.7,62.9L213.7,62.9z"/>
<path id="dendera" fill="#fff" class="white" d="M177.5,40.9c0,1.4-0.1,2.4-0.2,2.9c-0.2,0.8-0.7,1.4-1.4,2c-1,0.7-2,1.1-3.1,1.1
	c-1,0-1.8-0.3-2.4-0.9c-0.6-0.6-0.9-1.3-0.9-2.2c0-0.8,0.4-1.5,1.2-2.1c0.5-0.3,1.6-0.7,3.3-1c1.7-0.4,2.9-0.7,3.7-0.9L177.5,40.9
	L177.5,40.9z M170.9,32.7c0.6-0.4,1.4-0.6,2.5-0.6c1.6,0,2.7,0.2,3.2,0.7c0.6,0.5,0.9,1.3,0.9,2.5v0.6c-1.1,0.5-3,0.9-5.8,1.5
	c-2.1,0.4-3.7,0.9-4.8,1.4s-2,1.3-2.6,2.3s-0.9,2.1-0.9,3.4c0,1.9,0.7,3.5,2,4.8s3.2,1.9,5.5,1.9c1.3,0,2.6-0.2,3.7-0.7
	c1.2-0.5,2.3-1.2,3.3-2.2c0,0.1,0.1,0.3,0.2,0.7c0.2,0.8,0.4,1.4,0.6,1.8h5.9c-0.5-1.1-0.9-2.1-1.1-3c-0.2-0.9-0.3-2.4-0.3-4.4
	l0.1-7c0-2.6-0.3-4.4-0.8-5.3c-0.5-1-1.5-1.8-2.8-2.4s-3.3-1-6-1c-2.9,0-5.2,0.5-6.7,1.6c-1.5,1-2.5,2.7-3.2,4.8l5.5,1
	C169.8,33.8,170.3,33.1,170.9,32.7L170.9,32.7z M153.7,43.6c0-3.8,0.2-6.4,0.5-7.6c0.3-1.2,0.8-2,1.4-2.5c0.6-0.5,1.3-0.7,2.1-0.7
	c0.9,0,1.8,0.3,2.8,1l1.9-5.2c-1.3-0.8-2.6-1.1-4-1.1c-1,0-1.8,0.2-2.6,0.7s-1.6,1.5-2.6,3V28h-5.6v22.5h6v-6.9H153.7z M128.1,37.4
	c0-1.6,0.4-2.9,1.3-3.9s1.9-1.4,3.2-1.4c1.2,0,2.3,0.4,3.1,1.3c0.9,0.9,1.3,2.2,1.3,3.9L128.1,37.4L128.1,37.4z M135.3,45.8
	c-0.6,0.5-1.4,0.8-2.4,0.8c-1.4,0-2.5-0.5-3.5-1.5c-0.9-1-1.4-2.4-1.5-4.1H143c0.1-4.6-0.9-8-2.8-10.2c-2-2.2-4.6-3.3-8-3.3
	c-3,0-5.5,1.1-7.5,3.2s-3,5-3,8.8c0,3.1,0.8,5.7,2.2,7.8c1.9,2.6,4.8,3.8,8.8,3.8c2.5,0,4.6-0.6,6.2-1.7c1.7-1.1,2.9-2.8,3.6-5l-6-1
	C136.4,44.5,135.9,45.3,135.3,45.8L135.3,45.8z M103,33.8c1-1.1,2.2-1.7,3.6-1.7c1.5,0,2.7,0.6,3.6,1.7c0.9,1.1,1.4,3,1.4,5.6
	c0,2.3-0.5,4.1-1.5,5.2c-1,1.2-2.1,1.8-3.5,1.8c-1.7,0-3.1-0.8-4.1-2.3c-0.7-1.1-1-2.8-1-5.2C101.6,36.6,102.1,34.9,103,33.8z
	 M117.6,19.4h-6v11.2c-1.9-2.1-4.1-3.1-6.6-3.1c-2.8,0-5.1,1-6.9,3s-2.7,4.9-2.7,8.7c0,3.7,0.9,6.6,2.8,8.7c1.9,2.1,4.1,3.1,6.7,3.1
	c1.3,0,2.6-0.3,3.8-0.9c1.3-0.6,2.4-1.6,3.3-2.9v3.3h5.6C117.6,50.5,117.6,19.4,117.6,19.4z M90.7,36.5c0-1.7-0.1-3.1-0.3-4
	c-0.2-0.9-0.6-1.8-1.2-2.5s-1.4-1.3-2.5-1.8s-2.3-0.7-3.6-0.7c-3,0-5.5,1.3-7.5,3.8V28H70v22.5h6V40.3c0-2.5,0.2-4.2,0.5-5.2
	c0.3-0.9,0.9-1.7,1.7-2.3c0.8-0.5,1.7-0.7,2.8-0.7c0.8,0,1.5,0.2,2.1,0.6c0.6,0.4,1,1,1.3,1.7s0.4,2.3,0.4,4.7v11.5h6L90.7,36.5z
	 M50.2,37.4c0-1.6,0.4-2.9,1.3-3.9s1.9-1.4,3.2-1.4c1.2,0,2.3,0.4,3.1,1.3c0.9,0.9,1.3,2.2,1.3,3.9L50.2,37.4z M57.4,45.8
	c-0.6,0.5-1.4,0.8-2.4,0.8c-1.4,0-2.5-0.5-3.5-1.5c-0.9-1-1.4-2.4-1.5-4.1h15.1c0.1-4.6-0.9-8-2.8-10.2c-2-2.2-4.6-3.3-8-3.3
	c-3,0-5.5,1.1-7.5,3.2s-3,5-3,8.8c0,3.1,0.8,5.7,2.2,7.8c1.9,2.6,4.8,3.8,8.8,3.8c2.5,0,4.6-0.6,6.2-1.7c1.7-1.1,2.9-2.8,3.6-5l-6-1
	C58.5,44.5,58,45.3,57.4,45.8z M23.2,24.7c2.6,0,4.3,0.1,5.2,0.3c1.2,0.3,2.2,0.7,2.9,1.5c0.8,0.7,1.4,1.7,1.8,3s0.6,3.1,0.6,5.5
	s-0.2,4.3-0.6,5.7c-0.4,1.4-1,2.4-1.7,3s-1.5,1-2.6,1.3c-0.8,0.2-2.1,0.3-3.8,0.3h-4.7V24.7C20.3,24.7,23.2,24.7,23.2,24.7z
	 M14.1,50.6H26c2.3,0,4.2-0.2,5.6-0.7c1.9-0.6,3.3-1.4,4.4-2.5c1.5-1.4,2.6-3.2,3.4-5.5c0.6-1.9,1-4.1,1-6.6c0-2.9-0.3-5.4-1-7.4
	s-1.7-3.7-3-5c-1.3-1.4-2.9-2.4-4.7-2.9c-1.4-0.4-3.4-0.6-6-0.6H14.1V50.6z"/>
</svg>