<?xml version="1.0" encoding="utf-8" ?>
<svg version="1.0" xmlns="http://www.w3.org/2000/svg" xmlns:xlink="http://www.w3.org/1999/xlink"
x="0px" y="0px" viewBox="0 0 308 46" enable-background="new 0 0 308 46" xml:space="preserve">
    <g>
        <path class="white" fill="#1d1d1b" d="M10,13.2v7.9h12.8v7.4H10v8.6h14.5v7.7H0.5V5.5h24.1v7.7L10,13.2z"
        />
        <path class="white" fill="#1d1d1b" d="M35.2,43.9c-2.1-0.9-3.8-2.2-5-3.8c-1.2-1.6-1.9-3.4-2.1-5.5h9.5c0.1,1.1,0.6,2,1.5,2.6c0.9,0.7,2,1,3.3,1
        c1.2,0,2.1-0.2,2.8-0.7s1-1.1,1-1.8c0-0.9-0.5-1.6-1.4-2s-2.5-0.9-4.5-1.4c-2.2-0.5-4.1-1.1-5.6-1.6s-2.8-1.5-3.9-2.7
        s-1.6-2.9-1.6-5.1c0-1.8,0.5-3.4,1.5-4.9c1-1.5,2.4-2.6,4.4-3.5c1.9-0.9,4.2-1.3,6.9-1.3c3.9,0,7,1,9.3,2.9s3.6,4.5,3.9,7.7h-8.9
        c-0.2-1.1-0.6-1.9-1.4-2.6c-0.8-0.6-1.9-1-3.2-1c-1.1,0-2,0.2-2.6,0.6c-0.6,0.4-0.9,1-0.9,1.8c0,0.9,0.5,1.6,1.4,2s2.4,0.9,4.5,1.3
        c2.3,0.6,4.2,1.2,5.7,1.8c1.5,0.6,2.7,1.5,3.8,2.8c1.1,1.3,1.7,3,1.7,5.2c0,1.8-0.5,3.5-1.5,4.9s-2.5,2.6-4.4,3.4s-4.2,1.2-6.7,1.2
        C39.8,45.3,37.4,44.8,35.2,43.9z" />
        <path class="white" fill="#1d1d1b" d="M77.4,36.7v8.1h-4.9c-3.5,0-6.2-0.8-8.1-2.5s-2.9-4.5-2.9-8.3V21.6h-3.8v-7.9h3.8V6h9.6v7.6h6.3v7.9h-6.3
        v12.5c0,0.9,0.2,1.6,0.7,2s1.2,0.6,2.2,0.6L77.4,36.7L77.4,36.7z" />
        <path class="white" fill="#1d1d1b" d="M110.2,16.8c2.2,2.4,3.3,5.6,3.3,9.8v18.3h-9.5v-17c0-2.1-0.5-3.7-1.6-4.9s-2.5-1.7-4.4-1.7
        s-3.3,0.6-4.4,1.7s-1.6,2.8-1.6,4.9v17h-9.6V3.4h9.6v14.4c1-1.4,2.3-2.5,4-3.3s3.6-1.2,5.7-1.2C105.2,13.3,108,14.5,110.2,16.8
        L110.2,16.8z" />
        <path class="white" fill="#1d1d1b" d="M148.7,31.5H127c0.2,1.9,0.8,3.4,1.9,4.4c1.1,1,2.4,1.5,4.1,1.5c2.4,0,4.1-1,5-3h10.2
        c-0.5,2-1.5,3.9-2.8,5.5s-3.1,2.9-5.1,3.9s-4.4,1.4-6.9,1.4c-3.1,0-5.8-0.7-8.2-2s-4.3-3.2-5.6-5.6s-2-5.3-2-8.5s0.7-6.1,2-8.5
        c1.3-2.4,3.2-4.3,5.6-5.6s5.1-2,8.2-2c3,0,5.7,0.6,8.1,1.9c2.4,1.3,4.2,3.1,5.5,5.4c1.3,2.4,2,5.1,2,8.2
        C148.9,29.6,148.8,30.6,148.7,31.5L148.7,31.5z M139.1,26.2c0-1.6-0.6-3-1.7-3.9s-2.5-1.5-4.2-1.5c-1.6,0-3,0.5-4.1,1.4
        s-1.8,2.3-2,4H139.1z" />
        <path class="white" fill="#1d1d1b" d="M170.3,36.7v8.1h-4.9c-3.5,0-6.2-0.8-8.1-2.5s-2.9-4.5-2.9-8.3V21.6h-3.8v-7.9h3.8V6h9.6v7.6h6.3v7.9H164
        v12.5c0,0.9,0.2,1.6,0.7,2s1.2,0.6,2.2,0.6L170.3,36.7L170.3,36.7z" />
        <path class="white" fill="#1d1d1b" d="M175.8,8.9c-1.1-1-1.6-2.2-1.6-3.7c0-1.5,0.5-2.7,1.6-3.7c1.1-1,2.4-1.5,4.1-1.5c1.6,0,3,0.5,4.1,1.5
        c1.1,1,1.6,2.2,1.6,3.7c0,1.5-0.5,2.7-1.6,3.7c-1.1,1-2.4,1.5-4.1,1.5C178.2,10.4,176.9,9.9,175.8,8.9z M184.7,13.6v31.3h-9.6V13.6
        L184.7,13.6z" />
        <path class="white" fill="#1d1d1b" d="M191,20.7c1.3-2.4,3.2-4.3,5.5-5.6s5.1-2,8.1-2c3.9,0,7.2,1,9.8,3.1s4.4,5,5.2,8.7h-10.2
        c-0.9-2.4-2.5-3.6-5-3.6c-1.8,0-3.2,0.7-4.2,2c-1.1,1.4-1.6,3.3-1.6,5.9s0.5,4.5,1.6,5.9c1,1.4,2.4,2,4.2,2c2.5,0,4.1-1.2,5-3.6
        h10.2c-0.8,3.7-2.6,6.5-5.2,8.6s-5.9,3.1-9.8,3.1c-3.1,0-5.8-0.7-8.1-2s-4.2-3.2-5.5-5.6c-1.3-2.4-2-5.3-2-8.5S189.6,23.1,191,20.7
        L191,20.7z" />
        <path class="white" fill="#1d1d1b" d="M230,43.3c-2.4-1.3-4.4-3.2-5.8-5.6s-2.1-5.3-2.1-8.5c0-3.2,0.7-6,2.1-8.5s3.4-4.3,5.8-5.6s5.2-2,8.3-2
        s5.8,0.6,8.3,2c2.5,1.3,4.4,3.2,5.8,5.6s2.1,5.3,2.1,8.5s-0.7,6-2.2,8.5c-1.4,2.5-3.4,4.3-5.9,5.6s-5.3,2-8.3,2
        C235.2,45.3,232.4,44.6,230,43.3L230,43.3z M242.9,35c1.3-1.3,1.9-3.3,1.9-5.8s-0.6-4.4-1.9-5.8c-1.3-1.3-2.8-2-4.6-2
        c-1.9,0-3.4,0.7-4.6,2s-1.9,3.3-1.9,5.8c0,2.5,0.6,4.4,1.8,5.8c1.2,1.3,2.7,2,4.6,2C240.1,37,241.6,36.3,242.9,35z"
        />
        <path class="white" fill="#1d1d1b" d="M286.7,16.8c2.2,2.4,3.3,5.6,3.3,9.8v18.3h-9.5v-17c0-2.1-0.5-3.7-1.6-4.9s-2.5-1.7-4.4-1.7
        s-3.3,0.6-4.4,1.7s-1.6,2.8-1.6,4.9v17h-9.6V13.6h9.6v4.1c1-1.4,2.3-2.5,3.9-3.3c1.6-0.8,3.5-1.2,5.5-1.2
        C281.6,13.3,284.5,14.5,286.7,16.8L286.7,16.8z" />
    </g>
    <path fill="#ff838a" d="M296.9,43.6c-1.1-1.1-1.7-2.5-1.7-4.2c0-1.7,0.6-3.1,1.7-4.3s2.5-1.7,4.3-1.7c1.7,0,3.1,0.6,4.3,1.7
    s1.7,2.6,1.7,4.3c0,1.7-0.6,3.1-1.7,4.2s-2.5,1.7-4.3,1.7C299.5,45.3,298,44.7,296.9,43.6z"
    />
</svg>