<?xml version="1.0" encoding="utf-8"?>
<svg xmlns="http://www.w3.org/2000/svg" viewBox="0 0 236.16 65.66">
    <path class="white" fill="#3f1b00" d="M260.39,116.8a8.1,8.1,0,0,0,.83,3.78,5.46,5.46,0,0,0,2.27,2.27,7.55,7.55,0,0,0,6.63,0,5.45,5.45,0,0,0,2.27-2.27,8.1,8.1,0,0,0,.83-3.78V105H283a21.76,21.76,0,0,0,8.1-1.44,16.44,16.44,0,0,0,5.94-4,17.43,17.43,0,0,0,3.64-6,22.84,22.84,0,0,0,1.24-7.63A22,22,0,0,0,300.84,79a17.79,17.79,0,0,0-2.89-5.37,17.2,17.2,0,0,0-4.3-3.83,19.21,19.21,0,0,0-5.27-2.31,21.85,21.85,0,0,0-5.81-.77H266.81a6.73,6.73,0,0,0-3.14.75,5.87,5.87,0,0,0-2.35,2.16,6.62,6.62,0,0,0-.92,3.5V116.8h0Zm12.83-38.65h6.89a10.37,10.37,0,0,1,4.45.88,6.63,6.63,0,0,1,3,2.61,8.2,8.2,0,0,1,1.07,4.26,7.44,7.44,0,0,1-3.84,6.57,9.62,9.62,0,0,1-4.63,1.11h-6.89V78.15Z"
    transform="translate(-169.16 -57.96)" />
    <path class="white" fill="#3f1b00" d="M305.85,116.8a8.1,8.1,0,0,0,.83,3.78,5.46,5.46,0,0,0,2.27,2.27,7.55,7.55,0,0,0,6.63,0,5.45,5.45,0,0,0,2.27-2.27,8.1,8.1,0,0,0,.83-3.78V100.57h0.16l15.76,19.88a14.14,14.14,0,0,0,1.54,1.7,5.24,5.24,0,0,0,1.85,1.08,8.23,8.23,0,0,0,2.71.38,6.85,6.85,0,0,0,3.1-.67,5.93,5.93,0,0,0,2-1.61,6.7,6.7,0,0,0,1.11-2,5.12,5.12,0,0,0,.34-1.7,6,6,0,0,0-.7-2.86,12.42,12.42,0,0,0-2-2.68l-11.17-12a17,17,0,0,0,7-2.93,14.5,14.5,0,0,0,4.54-5.44,17.2,17.2,0,0,0,1.61-7.47A18.07,18.07,0,0,0,344.21,75a15.86,15.86,0,0,0-6.55-6.09,21.91,21.91,0,0,0-10-2.19H312.27a6.73,6.73,0,0,0-3.14.75,5.87,5.87,0,0,0-2.35,2.16,6.63,6.63,0,0,0-.92,3.5V116.8h0Zm12.83-38.17h8.47a7.42,7.42,0,0,1,3.33.74,5.62,5.62,0,0,1,2.35,2.09,6.1,6.1,0,0,1,.9,3.27,6.79,6.79,0,0,1-.77,3.22,5.8,5.8,0,0,1-2.24,2.27,7.26,7.26,0,0,1-3.56.84h-8.47V78.63Z"
    transform="translate(-169.16 -57.96)" />
    <path class="white" fill="#3f1b00" d="M351.87,82.79a38.31,38.31,0,0,0,0,24.31c5,13.77,20.13,18.66,32.94,15.59l19.3-18a37.77,37.77,0,0,0,1.22-9.74,35.91,35.91,0,0,0-2-12.16c-7.59-20.25-43.3-22.5-51.48,0h0Zm25.75,2.47a9.83,9.83,0,1,1-9.83,9.83A9.83,9.83,0,0,1,377.62,85.26Z"
    transform="translate(-169.16 -57.96)" />
    <path fill="#fbba00" d="M172.56,117.19a7,7,0,0,0,.79,3.25,5.94,5.94,0,0,0,2.16,2.3,6.39,6.39,0,0,0,6.44,0,5.94,5.94,0,0,0,2.16-2.3,7,7,0,0,0,.79-3.25V86.94a7,7,0,0,0-.79-3.25,5.94,5.94,0,0,0-2.16-2.3,6.39,6.39,0,0,0-6.44,0,5.94,5.94,0,0,0-2.16,2.3,6.94,6.94,0,0,0-.79,3.25v30.25Z"
    transform="translate(-169.16 -57.96)" />
    <path fill="#fbba00" d="M169.16,67.53a9.48,9.48,0,0,0,1.32,4.86,9.56,9.56,0,0,0,16.51,0,9.61,9.61,0,0,0-3.43-13.14,9.56,9.56,0,0,0-13.08,3.43A9.44,9.44,0,0,0,169.16,67.53Z"
    transform="translate(-169.16 -57.96)" />
    <path fill="#fbba00" d="M188.72,101.27a25.78,25.78,0,0,0,1.49,8.74,21.57,21.57,0,0,0,4.24,7.09,19.22,19.22,0,0,0,6.56,4.77,21,21,0,0,0,8.54,1.74,20.81,20.81,0,0,0,3.41-.3,24.88,24.88,0,0,0,3.87-.92,17.13,17.13,0,0,0,3.63-1.65,8.87,8.87,0,0,0,2.69-2.42,5.59,5.59,0,0,0,1.06-3.26,5.49,5.49,0,0,0-.69-2.57,5.87,5.87,0,0,0-1.8-2.06,4.57,4.57,0,0,0-2.59-.83,4.79,4.79,0,0,0-1.52.33l-2,.74a19.14,19.14,0,0,1-2.61.74,18,18,0,0,1-3.48.33,8,8,0,0,1-3.63-.83,7.54,7.54,0,0,1-2.65-2.26,10.31,10.31,0,0,1-1.64-3.33,15,15,0,0,1,0-8.08,9.9,9.9,0,0,1,1.69-3.33,7.9,7.9,0,0,1,2.86-2.26,9.77,9.77,0,0,1,4.08-.83,13.31,13.31,0,0,1,3,.32,14,14,0,0,1,2.07.71c0.59,0.26,1.19.5,1.77,0.71a6.79,6.79,0,0,0,2,.32,4.72,4.72,0,0,0,2.59-.77,5.12,5.12,0,0,0,1.8-2,6.49,6.49,0,0,0,.69-3,5.93,5.93,0,0,0-1-3.38,7.86,7.86,0,0,0-2.57-2.34,14.87,14.87,0,0,0-3.54-1.47,26.73,26.73,0,0,0-3.89-.77,33.47,33.47,0,0,0-3.66-.21A20.83,20.83,0,0,0,201,80.68a19.22,19.22,0,0,0-6.56,4.77,21.57,21.57,0,0,0-4.24,7.09A25.78,25.78,0,0,0,188.72,101.27Z"
    transform="translate(-169.16 -57.96)" />
    <path fill="#fbba00" d="M234.18,117.19a7,7,0,0,0,.79,3.25,5.94,5.94,0,0,0,2.16,2.3,6.39,6.39,0,0,0,6.44,0,5.94,5.94,0,0,0,2.16-2.3,7,7,0,0,0,.79-3.25V92.4h3.41a9.14,9.14,0,0,0,3.45-.59,4.76,4.76,0,0,0,2.24-1.87,6.9,6.9,0,0,0,0-6.47,4.76,4.76,0,0,0-2.24-1.87,9.14,9.14,0,0,0-3.45-.59h-3.41V72.92a6.94,6.94,0,0,0-.79-3.25,5.94,5.94,0,0,0-2.16-2.3,6.39,6.39,0,0,0-6.44,0,5.94,5.94,0,0,0-2.16,2.3,7,7,0,0,0-.79,3.25V81h-1.43a9.14,9.14,0,0,0-3.45.59,4.76,4.76,0,0,0-2.24,1.87,6.9,6.9,0,0,0,0,6.47,4.76,4.76,0,0,0,2.24,1.87,9.14,9.14,0,0,0,3.45.59h1.43v24.79Z"
    transform="translate(-169.16 -57.96)" />
</svg>