<?xml version="1.0" encoding="utf-8"?>
<svg version="1.0" xmlns="http://www.w3.org/2000/svg" xmlns:xlink="http://www.w3.org/1999/xlink" x="0px" y="0px"
	 viewBox="0 0 148.3 28.8" enable-background="new 0 0 148.3 28.8" xml:space="preserve">
<polygon class="white" fill="#E95525" points="30.1,9.4 30.1,0.7 39.1,0.7 "/>
<polygon class="white" fill="#E95525" points="30.1,28.1 30.1,12.2 39.1,3.5 39.1,28.1 "/>
<g>
	<defs>
		<rect id="SVGID_1_" width="148.3" height="28.8"/>
	</defs>
	<clipPath id="SVGID_2_">
		<use xlink:href="#SVGID_1_"  overflow="visible"/>
	</clipPath>
	<path class="white" clip-path="url(#SVGID_2_)" fill="#E95525" d="M113.4,28.1h-7.9V0.7h10.7l3.8,13.7c0.1,0.2,0.2,0.6,0.3,1.3
		c0.1,0.7,0.4,1.6,0.6,2.7c0.2-0.9,0.3-1.7,0.5-2.4c0.1-0.7,0.3-1.2,0.4-1.5l3.9-13.7h10.7v27.4h-7.9l0.1-13.5c0-0.8,0-1.6,0-2.4
		c0-0.8,0-1.6,0-2.4c-0.3,1.4-0.7,3-1.1,4.6l-0.1,0.2L124,28.1h-6.1L114.4,15c-0.2-0.6-0.3-1.3-0.5-2c-0.2-0.8-0.4-1.8-0.6-3.1
		c0,1.2,0.1,2.2,0.1,3c0,0.8,0,1.5,0,2V28.1z"/>
	<path class="white" clip-path="url(#SVGID_2_)" fill="#E95525" d="M73.9,14.4c0-4.5,1.3-8,3.8-10.6c2.5-2.6,6-3.9,10.4-3.9
		c4.4,0,7.8,1.3,10.4,3.9c2.5,2.6,3.8,6.1,3.8,10.6c0,4.5-1.3,8-3.8,10.5c-2.5,2.6-6,3.9-10.4,3.9c-4.4,0-7.9-1.3-10.4-3.9
		C75.1,22.4,73.9,18.9,73.9,14.4 M82.7,14.4c0,2.6,0.4,4.5,1.3,5.7c0.9,1.2,2.2,1.8,4.1,1.8c1.8,0,3.2-0.6,4-1.8
		c0.9-1.2,1.3-3.1,1.3-5.7c0-2.6-0.4-4.5-1.3-5.7c-0.9-1.2-2.2-1.8-4-1.8c-1.8,0-3.2,0.6-4.1,1.8C83.2,9.9,82.7,11.8,82.7,14.4"/>
	<path class="white" clip-path="url(#SVGID_2_)" fill="#E95525" d="M61.9,17.5h8.3c-0.2,3.6-1.5,6.4-3.8,8.4c-2.3,2-5.4,3-9.3,3
		c-4.4,0-7.8-1.3-10.3-3.9c-2.5-2.6-3.8-6.1-3.8-10.6c0-4.5,1.2-8,3.7-10.6C49.2,1.3,52.6,0,56.9,0c4,0,7.1,1,9.3,2.9
		c2.3,1.9,3.5,4.6,3.8,8.2h-8.4c-0.1-1.4-0.6-2.5-1.4-3.2c-0.8-0.7-1.9-1.1-3.3-1.1c-1.7,0-3,0.6-3.9,1.9c-0.9,1.3-1.3,3.2-1.3,5.7
		c0,2.5,0.5,4.4,1.4,5.7c0.9,1.3,2.3,1.9,4,1.9c1.4,0,2.4-0.4,3.2-1.2C61.3,20,61.7,18.9,61.9,17.5"/>
	<path class="white" clip-path="url(#SVGID_2_)" fill="#E95525" d="M0,28.1V0.7h8.3L16,13.4c0.2,0.4,0.5,0.9,0.8,1.5c0.3,0.7,0.5,1.4,0.8,2.4
		c-0.1-0.5-0.1-1-0.2-1.6c0-0.6-0.1-1.3-0.1-2.1V0.7h8.4v27.4h-8.4L9.7,15.4c-0.2-0.4-0.5-0.9-0.8-1.6c-0.3-0.7-0.6-1.5-0.8-2.3
		c0.1,0.5,0.1,1,0.2,1.5c0,0.5,0.1,1.3,0.1,2.2v12.8H0z"/>
	<path class="white" clip-path="url(#SVGID_2_)" fill="#E95525" d="M147.4,21.1c0.3,0.6,0.6,1.1,0.7,1.6c0.1,0.5,0.2,1.1,0.2,1.7
		c0,1-0.2,1.8-0.5,2.3c-0.3,0.5-0.8,0.8-1.3,0.8c-0.3,0-0.6-0.1-0.9-0.3c-0.3-0.2-0.5-0.5-0.6-0.8c-0.2-0.3-0.3-0.7-0.4-1.1
		c-0.1-0.3-0.1-0.8-0.2-1.4c-0.1-1.2-0.2-2.2-0.4-2.7c-0.1,0-0.2,0-0.3,0c-0.4,0-0.8,0.1-0.9,0.4c-0.2,0.4-0.4,1-0.4,1.7
		c0,0.7,0.1,1.3,0.3,1.6c0.2,0.3,0.5,0.6,0.9,0.8l-0.1,1.5c-0.5-0.1-0.8-0.4-1.1-0.7c-0.3-0.3-0.5-0.8-0.6-1.4
		c-0.2-0.6-0.2-1.3-0.2-2.1c0-0.8,0.1-1.4,0.2-1.9c0.1-0.5,0.3-0.8,0.5-1.1c0.2-0.2,0.4-0.4,0.7-0.5c0.2-0.1,0.5-0.1,1-0.1h1.4
		c1,0,1.6,0,1.9-0.1c0.3-0.1,0.5-0.2,0.8-0.4v1.6C147.9,21,147.7,21.1,147.4,21.1 M144.9,21.2c0.2,0.6,0.3,1.4,0.4,2.5
		c0.1,0.6,0.1,1.1,0.2,1.3c0.1,0.3,0.2,0.5,0.4,0.6c0.2,0.1,0.3,0.2,0.5,0.2c0.3,0,0.5-0.2,0.7-0.5c0.2-0.3,0.3-0.8,0.3-1.4
		c0-0.6-0.1-1.1-0.3-1.6c-0.2-0.5-0.4-0.8-0.7-1c-0.2-0.2-0.6-0.2-1.1-0.2H144.9z M148.1,16.9h-1.2v-1.8h1.2V16.9z M146.2,13.1
		l-0.2-1.5c0.4-0.1,0.8-0.3,1-0.7c0.2-0.4,0.3-0.9,0.3-1.6c0-0.7-0.1-1.2-0.3-1.6c-0.2-0.3-0.4-0.5-0.7-0.5c-0.2,0-0.4,0.2-0.6,0.5
		c-0.1,0.2-0.2,0.7-0.4,1.6c-0.2,1.1-0.4,1.9-0.5,2.3c-0.1,0.4-0.3,0.8-0.6,1c-0.3,0.2-0.5,0.3-0.9,0.3c-0.3,0-0.6-0.1-0.8-0.3
		c-0.2-0.2-0.4-0.4-0.6-0.8c-0.1-0.2-0.2-0.6-0.3-1c-0.1-0.4-0.1-0.9-0.1-1.3c0-0.7,0.1-1.3,0.2-1.9c0.1-0.5,0.3-0.9,0.6-1.2
		c0.2-0.3,0.6-0.4,1-0.5l0.1,1.5c-0.3,0.1-0.6,0.3-0.8,0.6c-0.2,0.3-0.3,0.8-0.3,1.4c0,0.7,0.1,1.2,0.2,1.5c0.2,0.3,0.4,0.5,0.6,0.5
		c0.1,0,0.3-0.1,0.4-0.2c0.1-0.1,0.2-0.3,0.3-0.6c0-0.2,0.1-0.6,0.3-1.4c0.2-1.1,0.4-1.8,0.5-2.3c0.1-0.4,0.3-0.8,0.6-1
		c0.2-0.2,0.6-0.4,0.9-0.4c0.4,0,0.7,0.2,1,0.4c0.3,0.3,0.6,0.7,0.7,1.3c0.2,0.6,0.3,1.2,0.3,1.9c0,1.2-0.2,2.1-0.5,2.7
		C147.4,12.5,146.9,12.9,146.2,13.1 M148.1,3.3h-1.2V1.5h1.2V3.3z"/>
</g>
</svg>