<?xml version="1.0" encoding="utf-8"?>
<svg version="1.0" xmlns="http://www.w3.org/2000/svg" xmlns:xlink="http://www.w3.org/1999/xlink" x="0px" y="0px"
	 viewBox="0 0 180 180" enable-background="new 0 0 180 180" xml:space="preserve">
<path class="white" fill="#007bc0" d="M180,45v135H0V0h180v24.7h-9.8V45H180z M66,97.3c-0.3-7.3-4.3-11.1-10.4-10.8c-5.8,0.3-9,4.3-9,11.4
	c0,13.7,0,27.3-0.1,41c0,2.3-0.3,4.7-1.1,6.8c-1.8,4.2-5.4,5.8-9.8,5c-4.1-0.7-6.6-3.4-7.1-7.4c-0.5-4.4,1.3-7.8,5.9-9.2
	c1.4-0.4,2.9-0.9,4.3-1.4c5.4-2,7.6-5.8,6.6-11.2c-0.9-4.7-5.7-8-10.9-7.5c-11.4,0.9-21.3,9-24.3,20c-3.3,11.9-0.6,22.2,8.8,30.2
	c9.1,7.8,19.5,8.7,30.3,4c11.2-4.9,16.8-13.7,17-25.9C66.3,135.1,66.3,105.1,66,97.3z M39.3,47.5c0.1-3.3,0-6.7,0.7-9.9
	c1-4.7,4.3-6.9,9.2-6.6c4.2,0.3,7.7,3.4,8.2,8c0.5,4.3-1.8,7.3-5.8,8.9c-1.5,0.6-3.1,1.1-4.7,1.7c-5.6,2.2-7.7,6.1-6.2,11.3
	c1.5,5.2,6.1,7.9,11.6,7C67.4,65.4,77.6,52.3,76.6,38c-1.1-14.8-12.1-25.7-27.9-26.3C34,11.2,21.5,21.4,20.7,35.9
	c-0.9,16.9-0.7,33.9-0.7,50.9c0,5.8,4.8,9.8,10.1,9.5C35.7,96,39.3,92,39.3,86C39.4,78.6,39.2,53,39.3,47.5z M113,11
	c-13.6,0.4-24.6,9.4-27.4,22.9c-2.8,13.3,3.9,26.9,16.1,32.1c6.6,2.8,13.4,3.9,20.2,0.4c4.1-2.1,6.3-5.6,5.4-10.2
	c-0.9-4.7-4.2-6.9-8.9-7.3c-2.2-0.2-4.3,0-6.5-0.3c-4.3-0.5-7.5-4.3-7.4-8.6c0-4.6,3.4-8.3,7.9-8.7c2.2-0.2,4.3,0.1,6.5-0.1
	c4.4-0.4,7.6-2.6,8.5-7.1c0.9-4.6-0.6-8.4-4.9-10.4C119.5,12.3,116.2,11.8,113,11z M122,151.2c0,3.3,0,6.7,0,10c0,0.7,0.2,1.3,0.3,2
	c1,5.6,4.8,9,9.8,8.7c5.2-0.2,8.9-3.6,9.4-9.2c0.4-4.8,0-9.6,0.1-14.4c0.3-10.5,1.6-12,11.6-14.6c5.7-1.5,8.4-4.7,8.1-9.7
	c-0.3-5.2-4.2-9-9.9-9.4c-9.2-0.7-16.5,3.1-22.4,9.8C122.1,132.2,121.7,141.6,122,151.2z M105.2,127.1c-0.1-7.6-4.4-12.5-10.7-12.4
	c-6.1,0-10.5,4.7-10.6,12.1c-0.2,10.8-0.2,21.6,0,32.5c0.1,7.2,4.6,12.1,10.7,12.1c6,0,10.4-5,10.6-12.2
	C105.3,153.8,105.3,132.5,105.2,127.1z M94.3,75.6c-9.1,0-16.4,7.1-16.3,16c0.1,8.6,7.2,15.8,16,15.8c9.2,0.1,16.4-6.8,16.4-15.8
	C110.5,82.5,103.5,75.6,94.3,75.6z"/>
</svg>