<?xml version="1.0" encoding="utf-8"?>
<svg version="1.0" xmlns="http://www.w3.org/2000/svg" xmlns:xlink="http://www.w3.org/1999/xlink" x="0px" y="0px"
	 viewBox="0 0 302.9 133.3" enable-background="new 0 0 302.9 133.3" xml:space="preserve">
	<path class="white" fill="#1F2024" d="M252.5,133.2c-3.3,0-10.4,0-10.4,0l2.4-15.6c0,0-7.1,10.3-10.6,15.5c-3.4,0-9.9,0-9.9,0l-7.1-15.3
		c0,0-1.6,9.9-2.4,15.2c-3.4,0-6.8,0-10.7,0c1.6-11.8,3.5-22.8,5.2-34.7c3.4,0,6.6,0,10.5,0c3.3,8.1,7,15.9,10.7,25
		c5.8-8.9,11.2-16.6,16.7-25c3.4,0,11,0,11,0S253.5,126.9,252.5,133.2z"/>
	<path class="white" fill="#1F2024" d="M90.4,104.9c2.1,5.6,0.8,11.8-6.5,17c1.6,4.4,3,7.2,4.4,11.2c0.1,0.2-12.8,0.1-12.8,0
		c-1.8-3.7-3.3-6.9-5.1-10.7c-3.4,0-11.2,0-11.2,0l-1.7,10.8c0,0-7.1,0-11.1,0c1.2-11.8,3.4-23.3,5-35c7.7,0,15,0,22.3,0
		c1.7,0,3.3,0,5,0C83.8,98.3,87.9,100.1,90.4,104.9z M77.9,106.5c-5.4,0-16.4,0-16.4,0l-1,6.5c0,0,11.5,0.3,17.2,0.1
		c1.2,0.1,3.4-1.6,2.8-4.2C80,107.6,79,106.5,77.9,106.5z"/>
	<path class="white" fill="#1F2024" d="M114.6,133.1c-3.2,0-6.5,0.1-9.7,0c-5.3-0.1-8.9-2.6-9.5-7.6c-1-8,0.3-15.6,5.3-22.4
		c2.4-3.3,5.6-4.6,9.4-4.8c6-0.3,12-0.2,17.9,0c6,0.2,9.7,4.1,9.9,10c0.2,5.1-0.5,10-1.9,14.9c-0.8,2.6-2,5-4,6.9
		c-2.2,2.1-4.7,3.2-7.8,3.2C121.1,133.1,117.9,133.1,114.6,133.1C114.6,133.1,114.6,133.1,114.6,133.1z M121.6,124.5
		c3.5,0,6.1-7,5.7-12.9c-0.2-3.2-1.7-4.8-5.1-5c-2.4-0.1-4.9,0.1-7.3-0.1c-4.3-0.2-7.1,2.6-8,6.1c-0.9,3.1-1.2,6.2-0.9,9.2
		c0.7,1.3,1.2,2.7,2.9,2.7C113,124.5,117.2,124.5,121.6,124.5z"/>
	<path class="white" fill="#1F2024" d="M286.5,133.2l1.8-10.2c0,0-6.3,0-9.2-0.1c-3-0.1-5.9,0-9,0c-0.6,3.5-1.7,10.3-1.7,10.3l-10.5,0
		c0,0,0.4-3.9,0.7-5.8c0.9-5,1.5-10.1,2.2-15.2c0.2-1.3,0.4-2.6,0.8-3.9c1.9-6.2,6.1-9.9,12.5-10.1c5.8-0.2,11.6-0.3,17.5,0
		c6.7,0.3,9.5,3.5,9.3,10.2c-0.2,6.6-1.9,13-2.7,19.6c-0.2,1.6-0.9,5.3-0.9,5.3L286.5,133.2z M288.2,106.4c-5.2,0-7.8,0-12.7,0
		c-2.4,0-2.9,2.7-3.7,7.6c5.9,0,12,0,18.1,0C291.1,108.3,290.3,106.4,288.2,106.4z"/>
	<path class="white" fill="#1F2024" d="M13.3,122.2l-1.9,11H0l5.3-35c0,0,19.2,0,27.4,0c10.9-0.1,14.3,6.5,10.8,16.2c-1.8,4.9-5.9,7.5-11.2,7.8
		c-3,0.2-6,0.1-9,0.1C20.3,122.3,13.3,122.2,13.3,122.2z M31.9,106.5c-5.4,0-16.1,0-16.1,0l-1,6.6c0,0,11.7,0,17.1,0
		c2.1,0,2.9-1.8,3-3.7C35,107.6,33.4,106.5,31.9,106.5z"/>
	<path class="white" fill="#1F2024" d="M186.9,98.1c-0.5,2.9-1.5,8.2-1.5,8.2s-7,0-10.6,0c-4.3,0-8.7-0.1-13,0c-3.5,0.1-4.5,1-5.3,4.8
		c9.3,0,27.3,0,27.3,0l-1.4,8.1l-27.5,0.2l-2.2,13.7h-12.3c0,0,3.6-19.8,4.4-23.7c1.5-7.2,6.2-11.2,13.6-11.3
		C167.6,98,176.9,98.1,186.9,98.1z"/>
	<path class="white" fill="#1F2024" d="M186.9,133.2c0,0,3.7-23.4,5.5-34.9c4,0,7.4,0,11.4,0c-1.6,11.7-3.3,23.2-5.2,34.9H186.9z"/>
	<path fill="#E51E1D" d="M187.6,58.3c3.4-3.6,6.8-7.4,10.3-10.9c2.1-2.1,4.5-4,6.9-5.7c8.2-6,16.6-4.3,24.7,0.1
		c7.6,4.1,14.2,9.7,21.1,14.9c11.7,8.8,23.8,16.8,37.1,22.9c4.8,2.2,9.7,4.1,15.1,6.3c-4.7,0.2-8.7,0.1-12.8-0.5
		c-5.1-0.8-10.1-1.3-15.2-2.1c-11.1-1.8-21.8-5.1-32.3-9.1c-5.2-2-10.5-3.7-15.9-5.3c-16.2-4.5-33.6,5.7-38.8,18.3
		c-5.2-0.6-9.8-3.2-14.9-4.4c-2.7-6.6-5.7-13-9.5-19.1c-8.5-13.6-20.7-22-36.4-25.3C117,36.3,107.2,37,97.8,42
		C88,47,79.1,53.2,70,59.3c-12.1,8.1-24,16.5-37.4,22.4c-4.8,2.1-9.8,3.8-14.9,5.2c-1.5,0.4-3.3,0.2-5.9,0.4
		c4.3-2.6,8.4-3.1,12.1-4.6c10.7-4.3,20.4-10.2,29.6-16.9C64,58.2,73.4,49.5,82.8,40.8c10.4-9.6,20.2-19.8,31.7-28.1
		c6.5-4.7,13.1-9,21-10.9c11-2.7,22.1-2.7,32.6,1.7c10.4,4.3,16.2,12.8,18.5,23.6c1.8,8.7,1.8,17.4,0.2,26.2
		c-0.3,1.4-0.2,2.9-0.3,4.4C186.9,57.9,187.3,58.1,187.6,58.3z"/>
</svg>