<?xml version="1.0" encoding="utf-8"?>
<svg version="1.0" xmlns="http://www.w3.org/2000/svg" xmlns:xlink="http://www.w3.org/1999/xlink" x="0px" y="0px"
	 viewBox="0 0 828 81.2" enable-background="new 0 0 828 81.2" xml:space="preserve">
	<path class="white" fill="#00519c" d="M479.9,13.5l-17.1,54.1h13.4l3-9.7h18.1l3,9.7h13.5l-17.2-54.1H479.9z M482.5,47.2l5.8-18.9l5.8,18.9H482.5
		z M621.5,25l0.7-11.4h-34.8v54.1h34.8V56.2h-21.9V45.6h16.2V34.5h-16.2V25H621.5z M670.8,45.2l-19.3-31.7h-12.9v54.1h12.6V36
		l19.3,31.7h12.9V13.5h-12.6V45.2z M778.7,38.8l-10.1-25.3h-14l17.5,39.5v14.6h12.9V53.1l17.5-39.5h-13.8L778.7,38.8z M548.4,48
		h10.8c-0.8,6.6-5.2,9.4-10.5,9.4c-8.4,0-13.4-6.8-13.4-16.8c0-10,5-16.5,13.4-16.5c4.8,0,9,2.8,10.8,5.1l9.1-7.4
		c-3.9-4.5-10.1-9.1-19.9-9.1c-16.6,0-26.3,10.9-26.3,27.9c0,17,9.7,27.9,26.3,27.9c11.9,0,23.1-7.4,23.1-23.2v-8.2h-23.4V48z
		 M724.5,57.1c-7.8,0-12.6-6.5-12.6-16.5c0-10,4.8-16.5,12.6-16.5c5.1,0,8.1,2.5,10.2,5.9l10.6-6.5c-4.5-6.2-10.3-10.9-20.7-10.9
		c-15.7,0-25.6,10.9-25.6,27.9c0,17,9.9,27.9,25.6,27.9c11,0,17.8-5.1,22.1-13.5l-11.2-5.3C733.5,54.3,729.6,57.1,724.5,57.1z
		 M823.7,0v81.2h4.3V0H823.7z"/>
	<path class="white" fill="#e1003b" d="M81.8,25.4H95v42.2h12.9V25.4h13.2V13.5H81.8V25.4z M216,13.5h-19.5v54.1H216c17.5,0,26.8-8.9,26.8-27.1
		C242.8,22.4,233.5,13.5,216,13.5z M215.2,56.2h-5.9V25h5.9c9.1,0,14.6,5.2,14.6,15.6C229.9,51,224.3,56.2,215.2,56.2z M292.4,25
		l0.7-11.4h-34.8v54.1h34.8V56.2h-21.8V45.6h16.2V34.5h-16.2V25H292.4z M341.7,45.2l-19.3-31.7h-12.9v54.1h12.6V36l19.3,31.7h12.9
		V13.5h-12.6V45.2z M368.5,25.4h13.2v42.2h12.9V25.4h13.2V13.5h-39.4V25.4z M166.1,45.3c0,8-2.7,11.7-9.1,11.7
		c-6.5,0-9.1-3.7-9.1-11.7V13.5h-12.9v31.8c0,15.8,6.5,23.2,22.1,23.2c15.5,0,22.1-7.4,22.1-23.2V13.5h-12.9V45.3z M53.4,34.4
		l-3.9-0.9c-5.2-1.2-6.6-3-6.6-5.7c0-2.5,2.2-4.3,6.2-4.3c4.3,0,10.2,2.5,13.5,5.1l6.1-8.8c-5.8-4.6-12.7-7.1-19.5-7.1
		c-12,0-19.3,6.2-19.3,15.5c0,9.1,3.6,14.2,15.6,16.9l3.9,0.9c5.1,1.2,6.9,3.1,6.9,5.8c0,3.7-2.6,5.9-7.5,5.9
		c-4.5,0-10.4-2.2-14.1-5.5l-6.1,8.8c4.8,4.5,12.9,7.6,19.9,7.6c13.4,0,20.7-6.7,20.7-17.1C69.3,42.7,65.3,37.2,53.4,34.4z M433.3,0
		v81.2h4.3V0H433.3z M0,81.2h4.3V0H0V81.2z"/>
</svg>