<?xml version="1.0" encoding="utf-8"?>
<svg version="1.0" xmlns="http://www.w3.org/2000/svg" xmlns:xlink="http://www.w3.org/1999/xlink" x="0px" y="0px"
	 viewBox="0 0 119.2 25.6" enable-background="new 0 0 119.2 25.6" xml:space="preserve">
	<path class="white" fill="#FFC629" d="M56.9,24.7v0.7h-1.1v-6.7h1.1v2.6c0.4-0.5,0.9-0.9,1.7-0.9c1.2,0,2.3,0.9,2.3,2.5v0c0,1.6-1.1,2.5-2.3,2.5
		C57.8,25.6,57.3,25.2,56.9,24.7 M59.8,23.1L59.8,23.1c0-0.9-0.7-1.6-1.4-1.6c-0.8,0-1.5,0.6-1.5,1.5v0c0,0.9,0.7,1.5,1.5,1.5
		C59.1,24.6,59.8,24,59.8,23.1"/>
	<path class="white" fill="#FFC629" d="M61.8,23.1L61.8,23.1c0-1.4,1-2.5,2.4-2.5c1.6,0,2.4,1.2,2.4,2.6c0,0.1,0,0.2,0,0.3H63
		c0.1,0.8,0.7,1.2,1.4,1.2c0.6,0,1-0.2,1.3-0.6l0.7,0.6c-0.5,0.5-1.1,0.9-2,0.9C62.9,25.6,61.8,24.5,61.8,23.1 M65.5,22.7
		c-0.1-0.7-0.5-1.3-1.3-1.3c-0.7,0-1.2,0.5-1.3,1.3H65.5z"/>
	<path class="white" fill="#FFC629" d="M70.4,23.1L70.4,23.1c0-1.4,1.1-2.5,2.6-2.5c0.9,0,1.5,0.3,2,0.8l-0.7,0.7c-0.3-0.4-0.7-0.6-1.3-0.6
		c-0.8,0-1.4,0.7-1.4,1.5v0c0,0.9,0.6,1.6,1.5,1.6c0.5,0,0.9-0.2,1.3-0.6l0.7,0.7c-0.5,0.5-1.1,0.9-2,0.9
		C71.5,25.6,70.4,24.4,70.4,23.1"/>
	<path class="white" fill="#FFC629" d="M75.6,23.1L75.6,23.1c0-1.4,1.1-2.5,2.7-2.5s2.6,1.1,2.6,2.5v0c0,1.4-1.1,2.5-2.7,2.5
		C76.7,25.6,75.6,24.4,75.6,23.1 M79.8,23.1L79.8,23.1c0-0.9-0.6-1.6-1.5-1.6c-0.9,0-1.5,0.7-1.5,1.5v0c0,0.8,0.6,1.6,1.5,1.6
		C79.2,24.6,79.8,23.9,79.8,23.1"/>
	<path class="white" fill="#FFC629" d="M82.1,20.6h1.1v0.7c0.3-0.5,0.8-0.9,1.6-0.9c1.1,0,1.8,0.7,1.8,1.9v3.1h-1.1v-2.7c0-0.7-0.4-1.2-1.1-1.2
		c-0.7,0-1.1,0.4-1.1,1.2v2.7h-1.1V20.6z"/>
	<path class="white" fill="#FFC629" d="M87.9,20.6h1.1v0.7c0.3-0.5,0.8-0.9,1.6-0.9c1.1,0,1.8,0.7,1.8,1.9v3.1h-1.1v-2.7c0-0.7-0.4-1.2-1.1-1.2
		c-0.7,0-1.1,0.4-1.1,1.2v2.7h-1.1V20.6z"/>
	<path class="white" fill="#FFC629" d="M93.5,23.1L93.5,23.1c0-1.4,1-2.5,2.4-2.5c1.6,0,2.4,1.2,2.4,2.6c0,0.1,0,0.2,0,0.3h-3.7
		c0.1,0.8,0.7,1.2,1.4,1.2c0.6,0,1-0.2,1.3-0.6l0.7,0.6c-0.5,0.5-1.1,0.9-2,0.9C94.6,25.6,93.5,24.5,93.5,23.1 M97.2,22.7
		c-0.1-0.7-0.5-1.3-1.3-1.3c-0.7,0-1.2,0.5-1.3,1.3H97.2z"/>
	<path class="white" fill="#FFC629" d="M99.2,23.1L99.2,23.1c0-1.4,1.1-2.5,2.6-2.5c0.9,0,1.5,0.3,2,0.8l-0.7,0.7c-0.3-0.4-0.7-0.6-1.3-0.6
		c-0.8,0-1.4,0.7-1.4,1.5v0c0,0.9,0.6,1.6,1.5,1.6c0.5,0,0.9-0.2,1.3-0.6l0.7,0.7c-0.5,0.5-1.1,0.9-2,0.9
		C100.3,25.6,99.2,24.4,99.2,23.1"/>
	<path class="white" fill="#FFC629" d="M105.1,24.1v-2.5h-0.6v-0.9h0.6v-1.3h1.1v1.3h1.3v0.9h-1.3v2.4c0,0.4,0.2,0.6,0.6,0.6
		c0.3,0,0.5-0.1,0.7-0.2v0.9c-0.3,0.2-0.6,0.2-1,0.2C105.7,25.5,105.1,25.2,105.1,24.1"/>
	<path class="white" fill="#FFC629" d="M108.3,23.1L108.3,23.1c0-1.4,1-2.5,2.4-2.5c1.6,0,2.4,1.2,2.4,2.6c0,0.1,0,0.2,0,0.3h-3.7
		c0.1,0.8,0.7,1.2,1.4,1.2c0.6,0,1-0.2,1.3-0.6l0.7,0.6c-0.5,0.5-1.1,0.9-2,0.9C109.4,25.6,108.3,24.5,108.3,23.1 M112,22.7
		c-0.1-0.7-0.5-1.3-1.3-1.3c-0.7,0-1.2,0.5-1.3,1.3H112z"/>
	<path class="white" fill="#FFC629" d="M114,23.1L114,23.1c0-1.6,1.1-2.5,2.3-2.5c0.8,0,1.3,0.4,1.7,0.9v-2.6h1.1v6.7H118v-0.8
		c-0.4,0.5-0.9,0.9-1.7,0.9C115.2,25.6,114,24.6,114,23.1 M118.1,23.1L118.1,23.1c0-0.9-0.7-1.6-1.4-1.6c-0.8,0-1.4,0.6-1.4,1.5v0
		c0,0.9,0.7,1.5,1.4,1.5C117.4,24.6,118.1,24,118.1,23.1"/>
	<path class="white" fill="#FFC629" d="M56.8,6.1h12.5v3H56.8V6.1z M86.5,7.7L86.5,7.7c0-4.2,3.4-7.7,8.1-7.7c4.7,0,8.1,3.4,8.1,7.6v0
		c0,4.2-3.4,7.6-8.1,7.6C89.9,15.2,86.5,11.8,86.5,7.7 M99.2,7.7L99.2,7.7c0-2.6-1.9-4.7-4.6-4.7C91.9,3,90,5.1,90,7.6v0
		c0,2.5,1.9,4.6,4.6,4.6C97.3,12.2,99.2,10.2,99.2,7.7"/>
	<path class="white" fill="#002F87" d="M70.9,7.7L70.9,7.7c0-4.2,3.3-7.7,7.9-7.7c2.9,0,4.6,0.9,6,2.3l-2.1,2.4c-1.2-1-2.4-1.7-3.9-1.7
		c-2.6,0-4.4,2.1-4.4,4.6v0c0,2.5,1.8,4.6,4.4,4.6c1.7,0,2.8-0.7,4-1.7l2.1,2.1c-1.6,1.6-3.3,2.6-6.2,2.6
		C74.2,15.2,70.9,11.9,70.9,7.7 M105.7,0.3h3.1l7.1,9.1V0.3h3.3V15h-2.8L109,5.6V15h-3.3V0.3z M54,6.4V3.7h-2.7V0.8h-3.3v2.9h-0.4
		c-2-0.1-4.3,0.7-4.9,2.3V3.7h-3.3V15c0,0.7-0.5,1.2-1.2,1.2c-0.7,0-1.3-0.5-1.3-1.2V8.4c0-1.5-0.4-2.8-1.3-3.6
		c-0.8-0.8-2.1-1.3-3.9-1.3c-1.2,0-2.4,0.2-3.5,0.6c-0.6-0.4-1.4-0.6-2.4-0.6c-1.6,0-2.8,0.6-3.8,1.8c-0.6-1.1-1.8-1.8-3.3-1.8
		c-1.7,0-2.7,0.9-3.4,1.8V3.7h-2.3l-8-0.2v0c-2.3,0-4.2,1.3-4.2,3.6v0c0,2.2,1.8,2.9,3.5,3.4c1.3,0.4,2.4,0.6,2.4,1.3v0
		c0,0.5-0.4,0.8-1.4,0.8c-1.1,0-2.4-0.5-3.7-1.3L0,13.5c1.5,1.2,3.4,1.7,5,1.7c2.5,0,4.5-1.1,4.5-3.6v0c0-2.1-1.9-2.8-3.5-3.3
		C4.7,7.7,3.6,7.5,3.6,6.8v0c0-0.4,0.4-0.6,1.2-0.6c0.1,0,0.1,0,0.2,0l3,0.1c0,0,0,0,0.1,0l0,0l3.8,0.1V15h3.3V8.7
		c0-1.5,0.8-2.3,2-2.3c1.2,0,1.9,0.8,1.9,2.3V15h3.3V8.7c0-1.5,0.8-2.3,2-2.3c0.7,0,1.3,0.3,1.6,0.8c0.1,0.1,0.3,0.3,0.6,0.2
		c0.3-0.1,0.8-0.3,1.3-0.5l0,0c0.1,0,0.1,0,0.2-0.1c0.4-0.1,0.9-0.3,1.4-0.4c0.5-0.1,1-0.2,1.6-0.2c1.7,0,2.5,0.7,2.5,2.1v0.2
		c-0.8-0.3-1.7-0.5-2.8-0.5c-2.8,0-4.7,1.1-4.7,3.6v0c0,2.2,1.8,3.5,4,3.5c1.6,0,2.7-0.6,3.5-1.4V15h0c0,0,0,0,0,0
		c0,2.4,2,4.4,4.5,4.4c2.5,0,4.5-2,4.5-4.4c0,0,0,0,0,0h0v-4.2c0-2.7,2.6-4.4,4.8-4.4h0.2h0.4v5.3c0,2.6,1.4,3.4,3.4,3.4
		c1.1,0,1.9-0.3,2.6-0.7V12c-0.5,0.3-1,0.4-1.6,0.4c-0.7,0-1.1-0.4-1.1-1.1V6.4H54z M31.1,13c-1.1,0-1.8-0.5-1.8-1.4v0
		c0-1,0.9-1.6,2.3-1.6c0.8,0,1.5,0.2,2.1,0.4V11C33.7,12.2,32.6,13,31.1,13"/>
</svg>