<?xml version="1.0" encoding="utf-8" ?>
<svg version="1.0" xmlns="http://www.w3.org/2000/svg" xmlns:xlink="http://www.w3.org/1999/xlink"
x="0px" y="0px" viewBox="0 0 1593.5 328" enable-background="new 0 0 1593.5 328" xml:space="preserve">
    <defs>
        <filter id="opacityMaskFilter" filterUnits="userSpaceOnUse" x="0" y="0" width="1593.5"
        height="328">
            <feColorMatrix type="matrix" values="1 0 0 0 0  0 1 0 0 0  0 0 1 0 0  0 0 0 1 0"
            />
        </filter>
    </defs>
    <mask maskUnits="userSpaceOnUse" x="0" y="0" width="1593.5" height="328" id="mask0_1_2_1_">
        <path fill="#FFFFFF" filter="url(#opacityMaskFilter)" d="M-263.2-874.8h2120v2120h-2120V-874.8z"
        />
    </mask>
    <g mask="url(#mask0_1_2_1_)">
        <path class="white" fill="#001D38" d="M562.3,101H430.1v27.6h51.3v139.3H511V128.6h51.3V101z" />
        <path class="white" fill="#001D38" d="M562.3,194.1v73.7h27.6v-73.7c0-21.7,11-30.1,27.3-30.1v-25.5C584.5,138.5,562.3,156.6,562.3,194.1z"
        />
        <path class="white" fill="#001D38" d="M636.3,267.9h27.6v-126h-27.6V267.9z" />
        <path fill="#0099DD" d="M650.4,86.2c-10.7,0-18.6,8.2-18.6,18.9c0,10.7,7.9,18.9,18.6,18.9c10.7,0,18.6-8.2,18.6-18.9
        C669,94.4,661.1,86.2,650.4,86.2z" />
        <path class="white" fill="#001D38" d="M750.4,245.7c-23.7,0-39.8-17.1-39.8-40.8s16.1-40.8,39.8-40.8c24,0,40.1,17.1,40.1,40.8
        S774.4,245.7,750.4,245.7z M750.2,138.5c-39.3,0-67.1,26.5-67.1,67.4v115.8h27.6v-74c8.9,15.1,25.3,23.5,44.4,23.5
        c31.6,0,63.3-22.7,63.3-65.3C818.3,166.1,790.2,138.5,750.2,138.5z" />
        <path class="white" fill="#001D38" d="M899.5,245.7c-24,0-40.1-17.1-40.1-40.8s16.1-40.8,40.1-40.8c24,0,39.8,17.1,39.8,40.8
        S923.4,245.7,899.5,245.7z M899.5,138.5c-39.8,0-67.9,28.1-67.9,66.3s28.1,66.3,67.9,66.3c39.8,0,67.9-28.1,67.9-66.3
        S939.3,138.5,899.5,138.5z" />
        <path class="white" fill="#001D38" d="M1121,138.5c-19.4,0-34.9,8.2-43.9,23.7c-8.9-15.6-24.8-23.7-43.9-23.7c-29.8,0-52.6,17.9-52.6,56.9v72.5
        h27.6v-72.5c0-21.9,11.5-31.4,27.5-31.4c15.8,0,27.8,9.9,27.8,31.4v72.5h27.5v-72.5c0-21.4,11.5-31.4,27.3-31.4
        c16.1,0,27.5,9.4,27.5,31.4v72.5h27.6v-72.5C1173.5,156.4,1150.8,138.5,1121,138.5z"
        />
        <path class="white" fill="#001D38" d="M1254.7,245.7c-24,0-40.1-17.1-40.1-40.8s16.1-40.8,40.1-40.8c24,0,39.8,17.1,39.8,40.8
        S1278.7,245.7,1254.7,245.7z M1254.9,138.5c-40.1,0-68.1,27.6-68.1,67.6c0,42.4,31.6,65.1,63.3,65.1c20.9,0,38.8-10,46.7-29.3v26
        h25.3v-62C1322,165.3,1294.5,138.5,1254.9,138.5z" />
        <path class="white" fill="#001D38" d="M1368.8,101h-27.6v118.6c0,34.7,20.7,51.5,51,51.5h3.8v-25.5h-3.8c-14,0-23.5-7.7-23.5-26v-52.8h27.3v-25
        h-27.3V101z" />
        <path class="white" fill="#001D38" d="M1415.3,267.9h27.6v-126h-27.6V267.9z" />
        <path fill="#0099DD" d="M1429.3,86.2c-10.7,0-18.6,8.2-18.6,18.9c0,10.7,7.9,18.9,18.6,18.9c10.7,0,18.6-8.2,18.6-18.9
        C1447.9,94.4,1440,86.2,1429.3,86.2z" />
        <path class="white" fill="#001D38" d="M1528.2,245.7c-24,0-40.1-17.1-40.1-40.8s16.1-40.8,40.1-40.8c18.1,0,31.6,9.7,37.5,24.2h27.8
        c-6.4-29.3-31.4-49.7-65.3-49.7c-39.8,0-67.9,28.1-67.9,66.3s28.1,66.3,67.9,66.3c33.9,0,58.9-20.4,65.3-49.7h-27.8
        C1559.8,236,1546.3,245.7,1528.2,245.7z" />
        <path fill="#0099DD" d="M326.4,63.1h-48.1c8.3,8.2,13.8,20.1,13.8,35.5c0,15.9-7.4,26.9-13.4,33.2l17.7,17.7
        c1.7,1.7,2.6,3.9,2.6,6.3v77.1c0,2.4-2,4.4-4.4,4.4h-40.9h-40.9c-2.4,0-4.4-2-4.4-4.4v-77.1c0-2.3,0.9-4.6,2.6-6.3l23.5-23.5
        c2.7,3.9,4.9,8.2,5.9,13.5c-1.7,2.6-2.8,5.7-2.8,9c0,8.9,7.2,16,16,16c8.9,0,16-7.2,16-16c0-4.3-1.7-8.1-4.4-11
        c-2.1-2.2-4.8-3.8-7.9-4.6c1.2,4.5,1.9,9.4,1.9,15c0,3.1-2.5,5.7-5.7,5.7c-3.1,0-5.7-2.5-5.7-5.7c0-5.1-0.7-9.6-1.9-13.5
        c-1.6-5.1-3.9-9.4-6.8-13.2c-3.1-4.3-6.8-8-10.4-11.7c-7.8-8-15.9-16.2-16.2-28.7c-0.2-7.4,2-13.2,5.4-17.7h-75.4v-20
        c0-6.2,5.1-11.3,11.3-11.3h63.7c6.3,0,11.3,5.1,11.3,11.3v24.7c-3,2.9-5.2,7-5,12.7c0.2,8,5.8,13.7,13,21c3.4,3.4,7,7.2,10.4,11.5
        l3.1-3.1c0.6-0.6,1.3-1,2.1-1.2c1.4-0.3,3,0,4.1,1.2l13.9,13.9c4.6-4.9,10.1-13.3,10.1-25.2c0-17.7-8.8-28.8-20-34V43.1
        c0-23.7-19.3-43.1-43.1-43.1H154C130.3,0,111,19.3,111,43.1v20H45.3C20.3,63.1,0,83.4,0,108.4v174.3c0,25,20.3,45.3,45.3,45.3
        h281.1c25,0,45.3-20.3,45.3-45.3V108.4C371.7,83.4,351.5,63.1,326.4,63.1z" />
    </g>
</svg>