<?xml version="1.0" encoding="utf-8"?>
<svg version="1.0" xmlns="http://www.w3.org/2000/svg" xmlns:xlink="http://www.w3.org/1999/xlink" x="0px" y="0px"
	 viewBox="0 0 126.5 41" enable-background="new 0 0 126.5 41" xml:space="preserve">
	<g>
		<path class="white" fill-rule="evenodd" clip-rule="evenodd" fill="#DFDD00" d="M22.9,2.7c0,1.5-1.2,2.7-2.7,2.7s-2.7-1.2-2.7-2.7
			c0-1.5,1.2-2.7,2.7-2.7S22.9,1.2,22.9,2.7"/>
		<path class="white" fill-rule="evenodd" clip-rule="evenodd" fill="#DFDD00" d="M22.9,38.3c0,1.5-1.2,2.7-2.7,2.7s-2.7-1.2-2.7-2.7
			c0-1.5,1.2-2.7,2.7-2.7S22.9,36.8,22.9,38.3"/>
		<path class="white" fill-rule="evenodd" clip-rule="evenodd" fill="#DFDD00" d="M16.6,2.8c0.5,1.4-0.2,2.9-1.6,3.4c-1.4,0.5-2.9-0.2-3.4-1.6
			c-0.5-1.4,0.2-2.9,1.6-3.4C14.6,0.7,16.1,1.4,16.6,2.8"/>
		<path class="white" fill-rule="evenodd" clip-rule="evenodd" fill="#DFDD00" d="M15.3,31.3c0.3,0.9-0.1,1.9-1,2.2c-0.9,0.3-1.9-0.1-2.2-1
			c-0.3-0.9,0.1-1.9,1-2.2C13.9,30,14.9,30.5,15.3,31.3"/>
		<path class="white" fill-rule="evenodd" clip-rule="evenodd" fill="#DFDD00" d="M28.5,8.4c0.3,0.9-0.1,1.9-1,2.2c-0.9,0.3-1.9-0.1-2.2-1
			c-0.3-0.9,0.1-1.9,1-2.2C27.2,7,28.2,7.5,28.5,8.4"/>
		<path class="white" fill-rule="evenodd" clip-rule="evenodd" fill="#DFDD00" d="M19.3,32.4c0.6,0.7,0.5,1.8-0.2,2.4c-0.7,0.6-1.8,0.5-2.4-0.2
			c-0.6-0.7-0.5-1.8,0.2-2.4C17.6,31.6,18.7,31.7,19.3,32.4"/>
		<path class="white" fill-rule="evenodd" clip-rule="evenodd" fill="#DFDD00" d="M23.9,6.3c0.6,0.7,0.5,1.8-0.2,2.4c-0.7,0.6-1.8,0.5-2.4-0.2
			c-0.6-0.7-0.5-1.8,0.2-2.4C22.2,5.4,23.2,5.5,23.9,6.3"/>
		<path class="white" fill-rule="evenodd" clip-rule="evenodd" fill="#DFDD00" d="M21.6,10.5c0.4,0.5,0.3,1.2-0.2,1.6c-0.5,0.4-1.2,0.3-1.6-0.2
			c-0.4-0.5-0.3-1.2,0.2-1.6C20.5,9.9,21.2,10,21.6,10.5"/>
		<path class="white" fill-rule="evenodd" clip-rule="evenodd" fill="#DFDD00" d="M14.3,8.5c0.4,0.5,0.3,1.2-0.2,1.6c-0.5,0.4-1.2,0.3-1.6-0.2
			c-0.4-0.5-0.3-1.2,0.2-1.6C13.3,7.9,14,8,14.3,8.5"/>
		<path class="white" fill-rule="evenodd" clip-rule="evenodd" fill="#DFDD00" d="M11,28c0.4,0.5,0.3,1.2-0.2,1.6c-0.5,0.4-1.2,0.3-1.6-0.2
			c-0.4-0.5-0.3-1.2,0.2-1.6C9.9,27.4,10.6,27.5,11,28"/>
		<path class="white" fill-rule="evenodd" clip-rule="evenodd" fill="#DFDD00" d="M27.7,31.1c0.4,0.5,0.3,1.2-0.2,1.6c-0.5,0.4-1.2,0.3-1.6-0.2
			c-0.4-0.5-0.3-1.2,0.2-1.6C26.6,30.5,27.3,30.6,27.7,31.1"/>
		<path class="white" fill-rule="evenodd" clip-rule="evenodd" fill="#DFDD00" d="M31,11.5c0.4,0.5,0.3,1.2-0.2,1.6c-0.5,0.4-1.2,0.3-1.6-0.2
			c-0.4-0.5-0.3-1.2,0.2-1.6C30,10.9,30.7,11,31,11.5"/>
		<path class="white" fill-rule="evenodd" clip-rule="evenodd" fill="#DFDD00" d="M14.4,19.6c0.2,0.3,0.2,0.8-0.2,1c-0.3,0.2-0.8,0.2-1-0.2
			c-0.2-0.3-0.2-0.8,0.2-1C13.8,19.2,14.2,19.3,14.4,19.6"/>
		<path class="white" fill-rule="evenodd" clip-rule="evenodd" fill="#DFDD00" d="M27.3,20.1c0.2,0.3,0.2,0.8-0.2,1c-0.3,0.2-0.8,0.2-1-0.2
			c-0.2-0.3-0.2-0.8,0.2-1C26.7,19.7,27.1,19.7,27.3,20.1"/>
		<path class="white" fill-rule="evenodd" clip-rule="evenodd" fill="#DFDD00" d="M16.8,25c0.4,0,0.7,0.2,0.8,0.6c0,0.4-0.2,0.7-0.6,0.8
			c-0.4,0-0.7-0.2-0.8-0.6C16.2,25.4,16.4,25.1,16.8,25"/>
		<path class="white" fill-rule="evenodd" clip-rule="evenodd" fill="#DFDD00" d="M23.6,14.1c0.4,0,0.7,0.2,0.8,0.6c0,0.4-0.2,0.7-0.6,0.8
			c-0.4,0-0.7-0.2-0.8-0.6C23,14.5,23.3,14.1,23.6,14.1"/>
		<path class="white" fill-rule="evenodd" clip-rule="evenodd" fill="#DFDD00" d="M19.7,26.1c0.3-0.2,0.8-0.2,1,0.2c0.2,0.3,0.2,0.8-0.2,1
			c-0.3,0.2-0.8,0.2-1-0.2C19.3,26.8,19.4,26.3,19.7,26.1"/>
		<path class="white" fill-rule="evenodd" clip-rule="evenodd" fill="#DFDD00" d="M20.1,13.3c0.3-0.2,0.8-0.2,1,0.2c0.2,0.3,0.2,0.8-0.2,1
			c-0.3,0.2-0.8,0.2-1-0.2C19.7,13.9,19.8,13.5,20.1,13.3"/>
		<path class="white" fill-rule="evenodd" clip-rule="evenodd" fill="#DFDD00" d="M18.1,23.7c0.2-0.1,0.5,0.1,0.6,0.3c0.1,0.2-0.1,0.5-0.3,0.6
			c-0.2,0.1-0.5-0.1-0.6-0.3C17.7,24,17.8,23.8,18.1,23.7"/>
		<path class="white" fill-rule="evenodd" clip-rule="evenodd" fill="#DFDD00" d="M21.3,16c0.2-0.1,0.5,0.1,0.6,0.3c0.1,0.2-0.1,0.5-0.3,0.6
			c-0.2,0.1-0.5-0.1-0.6-0.3C20.9,16.3,21,16.1,21.3,16"/>
		<path class="white" fill-rule="evenodd" clip-rule="evenodd" fill="#DFDD00" d="M20.4,24.1c0.2-0.2,0.4-0.2,0.6-0.1c0.2,0.2,0.2,0.4,0.1,0.6
			c-0.2,0.2-0.4,0.2-0.6,0.1C20.3,24.6,20.3,24.3,20.4,24.1"/>
		<path class="white" fill-rule="evenodd" clip-rule="evenodd" fill="#DFDD00" d="M18.5,15.9c0.2-0.2,0.4-0.2,0.6-0.1c0.2,0.2,0.2,0.4,0.1,0.6
			c-0.2,0.2-0.4,0.2-0.6,0.1C18.4,16.4,18.3,16.1,18.5,15.9"/>
		<path class="white" fill-rule="evenodd" clip-rule="evenodd" fill="#DFDD00" d="M23.2,11.2c0.2-0.2,0.4-0.2,0.6-0.1c0.2,0.2,0.2,0.4,0.1,0.6
			c-0.2,0.2-0.4,0.2-0.6,0.1C23,11.7,23,11.4,23.2,11.2"/>
		<path class="white" fill-rule="evenodd" clip-rule="evenodd" fill="#DFDD00" d="M11.3,16.8c0.2-0.2,0.4-0.2,0.6-0.1c0.2,0.2,0.2,0.4,0.1,0.6
			c-0.2,0.2-0.4,0.2-0.6,0.1C11.2,17.3,11.1,17,11.3,16.8"/>
		<path class="white" fill-rule="evenodd" clip-rule="evenodd" fill="#DFDD00" d="M16.5,28.7c0.2-0.2,0.4-0.2,0.6-0.1c0.2,0.2,0.2,0.4,0.1,0.6
			c-0.2,0.2-0.4,0.2-0.6,0.1C16.4,29.2,16.4,28.9,16.5,28.7"/>
		<path class="white" fill-rule="evenodd" clip-rule="evenodd" fill="#DFDD00" d="M28.6,23.6c0.2-0.2,0.4-0.2,0.6-0.1c0.2,0.2,0.2,0.4,0.1,0.6
			c-0.2,0.2-0.4,0.2-0.6,0.1C28.5,24.1,28.5,23.8,28.6,23.6"/>
		<path class="white" fill-rule="evenodd" clip-rule="evenodd" fill="#DFDD00" d="M22.5,23c0-0.3,0.2-0.5,0.5-0.4c0.3,0,0.5,0.2,0.4,0.5
			c0,0.3-0.2,0.5-0.5,0.4C22.7,23.5,22.5,23.2,22.5,23"/>
		<path class="white" fill-rule="evenodd" clip-rule="evenodd" fill="#DFDD00" d="M16.2,17.6c0-0.3,0.2-0.5,0.5-0.4c0.3,0,0.5,0.2,0.4,0.5
			c0,0.3-0.2,0.4-0.5,0.4C16.4,18,16.2,17.8,16.2,17.6"/>
		<path class="white" fill-rule="evenodd" clip-rule="evenodd" fill="#DFDD00" d="M21.4,21.4c0-0.1,0.1-0.2,0.2-0.3c0.1,0,0.2,0.1,0.3,0.2
			c0,0.1-0.1,0.2-0.2,0.3C21.6,21.6,21.5,21.5,21.4,21.4"/>
		<path class="white" fill-rule="evenodd" clip-rule="evenodd" fill="#DFDD00" d="M17.7,19.5c0-0.1,0.1-0.2,0.2-0.3c0.1,0,0.2,0.1,0.3,0.2
			c0,0.1-0.1,0.2-0.2,0.3C17.9,19.7,17.8,19.6,17.7,19.5"/>
		<path class="white" fill-rule="evenodd" clip-rule="evenodd" fill="#DFDD00" d="M21.5,19.5c-0.1,0-0.2-0.2-0.1-0.3c0-0.1,0.2-0.2,0.3-0.1
			c0.1,0,0.2,0.2,0.1,0.3C21.7,19.4,21.6,19.5,21.5,19.5"/>
		<path class="white" fill-rule="evenodd" clip-rule="evenodd" fill="#DFDD00" d="M18,21.7c-0.1,0-0.2-0.2-0.1-0.3c0-0.1,0.2-0.2,0.3-0.1
			c0.1,0,0.2,0.2,0.1,0.3C18.2,21.7,18.1,21.7,18,21.7"/>
		<path class="white" fill-rule="evenodd" clip-rule="evenodd" fill="#DFDD00" d="M19.9,18.5c-0.1,0.1-0.2,0.1-0.3,0c-0.1-0.1-0.1-0.2,0-0.3
			c0.1-0.1,0.2-0.1,0.3,0C20,18.2,20,18.4,19.9,18.5"/>
		<path class="white" fill-rule="evenodd" clip-rule="evenodd" fill="#DFDD00" d="M25.9,17.3c-0.1,0.1-0.2,0.1-0.3,0c-0.1-0.1-0.1-0.2,0-0.3
			c0.1-0.1,0.2-0.1,0.3,0C26,17.1,26,17.2,25.9,17.3"/>
		<path class="white" fill-rule="evenodd" clip-rule="evenodd" fill="#DFDD00" d="M17.2,15.1c-0.1,0.1-0.2,0.1-0.3,0c-0.1-0.1-0.1-0.2,0-0.3
			c0.1-0.1,0.2-0.1,0.3,0C17.3,14.9,17.3,15,17.2,15.1"/>
		<path class="white" fill-rule="evenodd" clip-rule="evenodd" fill="#DFDD00" d="M23.7,25.9c-0.1,0.1-0.2,0.1-0.3,0c-0.1-0.1-0.1-0.2,0-0.3
			c0.1-0.1,0.2-0.1,0.3,0C23.8,25.7,23.8,25.8,23.7,25.9"/>
		<path class="white" fill-rule="evenodd" clip-rule="evenodd" fill="#DFDD00" d="M14.6,23.6c-0.1,0.1-0.2,0.1-0.3,0c-0.1-0.1-0.1-0.2,0-0.3
			c0.1-0.1,0.2-0.1,0.3,0C14.8,23.4,14.7,23.6,14.6,23.6"/>
		<path class="white" fill-rule="evenodd" clip-rule="evenodd" fill="#DFDD00" d="M20.1,22.6c-0.1,0.1-0.2,0.1-0.3,0c-0.1-0.1-0.1-0.2,0-0.3
			c0.1-0.1,0.2-0.1,0.3,0C20.2,22.4,20.2,22.5,20.1,22.6"/>
		<path class="white" fill-rule="evenodd" clip-rule="evenodd" fill="#DFDD00" d="M23.6,20.9c-0.1-0.2-0.1-0.5,0.1-0.6c0.2-0.1,0.5-0.1,0.6,0.1
			c0.1,0.2,0.1,0.5-0.1,0.6C24,21.1,23.7,21.1,23.6,20.9"/>
		<path class="white" fill-rule="evenodd" clip-rule="evenodd" fill="#DFDD00" d="M15.3,20.2c-0.1-0.2-0.1-0.5,0.1-0.6c0.2-0.1,0.5-0.1,0.6,0.1
			c0.1,0.2,0.1,0.5-0.1,0.6C15.7,20.5,15.4,20.4,15.3,20.2"/>
		<path class="white" fill-rule="evenodd" clip-rule="evenodd" fill="#DFDD00" d="M23.2,18.5c-0.2-0.1-0.4-0.4-0.3-0.6c0.1-0.2,0.4-0.4,0.6-0.3
			c0.2,0.1,0.4,0.4,0.3,0.6C23.7,18.5,23.5,18.6,23.2,18.5"/>
		<path class="white" fill-rule="evenodd" clip-rule="evenodd" fill="#DFDD00" d="M16.1,22.9c-0.2-0.1-0.4-0.4-0.3-0.6c0.1-0.2,0.4-0.4,0.6-0.3
			c0.2,0.1,0.4,0.4,0.3,0.6C16.6,22.9,16.3,23,16.1,22.9"/>
		<path class="white" fill-rule="evenodd" clip-rule="evenodd" fill="#DFDD00" d="M25.1,23.7c0-0.4,0.2-0.7,0.6-0.8c0.4,0,0.7,0.2,0.8,0.6
			c0,0.4-0.2,0.7-0.6,0.8C25.5,24.4,25.1,24.1,25.1,23.7"/>
		<path class="white" fill-rule="evenodd" clip-rule="evenodd" fill="#DFDD00" d="M14.1,16.9c0-0.4,0.2-0.7,0.6-0.8c0.4,0,0.7,0.2,0.8,0.6
			c0,0.4-0.2,0.7-0.6,0.8C14.5,17.6,14.2,17.3,14.1,16.9"/>
		<path class="white" fill-rule="evenodd" clip-rule="evenodd" fill="#DFDD00" d="M20.5,29.1c0.4,0.5,0.3,1.2-0.2,1.6c-0.5,0.4-1.2,0.3-1.6-0.2
			c-0.4-0.5-0.3-1.2,0.2-1.6C19.5,28.5,20.2,28.6,20.5,29.1"/>
		<path class="white" fill-rule="evenodd" clip-rule="evenodd" fill="#DFDD00" d="M18.4,10.6c0.5,0.4,0.6,1.1,0.2,1.6c-0.4,0.5-1.1,0.6-1.6,0.2
			c-0.5-0.4-0.6-1.1-0.2-1.6C17.2,10.3,17.9,10.2,18.4,10.6"/>
		<path class="white" fill-rule="evenodd" clip-rule="evenodd" fill="#DFDD00" d="M23.2,28.5c0.5,0.4,0.6,1.1,0.2,1.6c-0.4,0.5-1.1,0.6-1.6,0.2
			c-0.5-0.4-0.6-1.1-0.2-1.6C22,28.3,22.7,28.2,23.2,28.5"/>
		<path class="white" fill-rule="evenodd" clip-rule="evenodd" fill="#DFDD00" d="M15.4,11.6c0.6,0.2,0.9,0.8,0.7,1.4c-0.2,0.6-0.8,0.9-1.4,0.7
			c-0.6-0.2-0.9-0.8-0.7-1.4C14.2,11.7,14.9,11.4,15.4,11.6"/>
		<path class="white" fill-rule="evenodd" clip-rule="evenodd" fill="#DFDD00" d="M25.6,27.2c0.6,0.2,0.9,0.8,0.7,1.4c-0.2,0.6-0.8,0.9-1.4,0.7
			c-0.6-0.2-0.9-0.8-0.7-1.4C24.3,27.3,25,27,25.6,27.2"/>
		<path class="white" fill-rule="evenodd" clip-rule="evenodd" fill="#DFDD00" d="M12.9,13.5c0.6,0,1.1,0.5,1.1,1.1c0,0.6-0.5,1.1-1.1,1.1
			c-0.6,0-1.1-0.5-1.1-1.1C11.8,14,12.3,13.5,12.9,13.5"/>
		<path class="white" fill-rule="evenodd" clip-rule="evenodd" fill="#DFDD00" d="M27.4,25.2c0.6,0,1.1,0.5,1.1,1.1c0,0.6-0.5,1.1-1.1,1.1
			c-0.6,0-1.1-0.5-1.1-1.1C26.3,25.7,26.8,25.2,27.4,25.2"/>
		<path class="white" fill-rule="evenodd" clip-rule="evenodd" fill="#DFDD00" d="M10.2,19c0.5-0.4,1.2-0.3,1.6,0.2c0.4,0.5,0.2,1.2-0.2,1.6
			c-0.5,0.4-1.2,0.3-1.6-0.2C9.6,20.1,9.7,19.4,10.2,19"/>
		<path class="white" fill-rule="evenodd" clip-rule="evenodd" fill="#DFDD00" d="M28.8,20.1c0.5-0.4,1.2-0.3,1.6,0.2c0.4,0.5,0.3,1.2-0.2,1.6
			c-0.5,0.4-1.2,0.3-1.6-0.2C28.2,21.1,28.3,20.4,28.8,20.1"/>
		<path class="white" fill-rule="evenodd" clip-rule="evenodd" fill="#DFDD00" d="M10.2,22.2c0.4-0.5,1.1-0.6,1.6-0.2c0.5,0.4,0.6,1.1,0.2,1.6
			c-0.4,0.5-1.1,0.6-1.6,0.2C10,23.4,9.9,22.7,10.2,22.2"/>
		<path class="white" fill-rule="evenodd" clip-rule="evenodd" fill="#DFDD00" d="M28.3,17.4c0.4-0.5,1.1-0.6,1.6-0.2c0.5,0.4,0.6,1.1,0.2,1.6
			c-0.4,0.5-1.1,0.6-1.6,0.2C28,18.6,27.9,17.9,28.3,17.4"/>
		<path class="white" fill-rule="evenodd" clip-rule="evenodd" fill="#DFDD00" d="M11.3,25.2c0.2-0.6,0.8-0.9,1.4-0.7c0.6,0.2,0.9,0.8,0.7,1.4
			c-0.2,0.6-0.8,0.9-1.4,0.7C11.4,26.4,11.1,25.7,11.3,25.2"/>
		<path class="white" fill-rule="evenodd" clip-rule="evenodd" fill="#DFDD00" d="M26.9,15.1c0.2-0.6,0.8-0.9,1.4-0.7c0.6,0.2,0.9,0.8,0.7,1.4
			c-0.2,0.6-0.8,0.9-1.4,0.7C27.1,16.3,26.7,15.6,26.9,15.1"/>
		<path class="white" fill-rule="evenodd" clip-rule="evenodd" fill="#DFDD00" d="M13.2,27.7c0-0.6,0.5-1.1,1.1-1.1c0.6,0,1.1,0.5,1.1,1.1
			c0,0.6-0.5,1.1-1.1,1.1C13.7,28.8,13.2,28.3,13.2,27.7"/>
		<path class="white" fill-rule="evenodd" clip-rule="evenodd" fill="#DFDD00" d="M24.9,13.2c0-0.6,0.5-1.1,1.1-1.1c0.6,0,1.1,0.5,1.1,1.1
			c0,0.6-0.5,1.1-1.1,1.1C25.4,14.4,24.9,13.9,24.9,13.2"/>
		<path class="white" fill-rule="evenodd" clip-rule="evenodd" fill="#DFDD00" d="M23.4,32c0.8,0.5,1.1,1.5,0.6,2.4c-0.5,0.8-1.5,1.1-2.4,0.6
			c-0.8-0.5-1.1-1.5-0.6-2.4C21.5,31.8,22.6,31.5,23.4,32"/>
		<path class="white" fill-rule="evenodd" clip-rule="evenodd" fill="#DFDD00" d="M18.8,5.9c0.8,0.5,1.1,1.5,0.6,2.4c-0.5,0.8-1.5,1.1-2.4,0.6
			c-0.8-0.5-1.1-1.5-0.6-2.4C16.9,5.7,18,5.4,18.8,5.9"/>
		<path class="white" fill-rule="evenodd" clip-rule="evenodd" fill="#DFDD00" d="M30.1,27.3c0.9-0.2,1.8,0.5,2,1.4c0.2,0.9-0.5,1.8-1.4,2
			c-0.9,0.2-1.8-0.5-2-1.4C28.6,28.3,29.2,27.4,30.1,27.3"/>
		<path class="white" fill-rule="evenodd" clip-rule="evenodd" fill="#DFDD00" d="M9.8,10.2c0.9-0.2,1.8,0.5,2,1.4c0.2,0.9-0.5,1.8-1.4,2
			c-0.9,0.2-1.8-0.5-2-1.4C8.2,11.3,8.8,10.4,9.8,10.2"/>
		<path class="white" fill-rule="evenodd" clip-rule="evenodd" fill="#DFDD00" d="M31.9,23.5c0.8-0.5,1.9-0.2,2.4,0.6c0.5,0.8,0.2,1.9-0.6,2.4
			c-0.8,0.5-1.9,0.2-2.4-0.6C30.7,25,31,23.9,31.9,23.5"/>
		<path class="white" fill-rule="evenodd" clip-rule="evenodd" fill="#DFDD00" d="M6.9,14.4c0.8-0.5,1.9-0.2,2.4,0.6c0.5,0.8,0.2,1.9-0.6,2.4
			c-0.8,0.5-1.9,0.2-2.4-0.6C5.8,16,6.1,14.9,6.9,14.4"/>
		<path class="white" fill-rule="evenodd" clip-rule="evenodd" fill="#DFDD00" d="M32.2,19.3c0.6-0.7,1.7-0.8,2.4-0.2c0.7,0.6,0.8,1.7,0.2,2.4
			c-0.6,0.7-1.7,0.8-2.4,0.2C31.7,21.1,31.6,20.1,32.2,19.3"/>
		<path class="white" fill-rule="evenodd" clip-rule="evenodd" fill="#DFDD00" d="M5.6,19.4c0.6-0.7,1.7-0.8,2.4-0.2c0.7,0.6,0.8,1.7,0.2,2.4
			c-0.6,0.7-1.7,0.8-2.4,0.2C5.1,21.2,5,20.1,5.6,19.4"/>
		<path class="white" fill-rule="evenodd" clip-rule="evenodd" fill="#DFDD00" d="M31.1,15.3c0.3-0.9,1.3-1.4,2.2-1c0.9,0.3,1.4,1.3,1,2.2
			c-0.3,0.9-1.3,1.4-2.2,1C31.2,17.2,30.8,16.2,31.1,15.3"/>
		<path class="white" fill-rule="evenodd" clip-rule="evenodd" fill="#DFDD00" d="M6.1,24.4c0.3-0.9,1.3-1.4,2.2-1c0.9,0.3,1.4,1.3,1,2.2
			c-0.3,0.9-1.3,1.4-2.2,1C6.3,26.3,5.8,25.3,6.1,24.4"/>
		<path class="white" fill-rule="evenodd" clip-rule="evenodd" fill="#DFDD00" d="M28.8,36.3c0.5,1.4-0.2,2.9-1.6,3.4c-1.4,0.5-2.9-0.2-3.4-1.6
			c-0.5-1.4,0.2-2.9,1.6-3.4C26.8,34.2,28.3,34.9,28.8,36.3"/>
		<path class="white" fill-rule="evenodd" clip-rule="evenodd" fill="#DFDD00" d="M10.8,5.1c0.9,1.1,0.8,2.8-0.3,3.7C9.4,9.8,7.7,9.7,6.7,8.5
			C5.8,7.4,5.9,5.7,7.1,4.8C8.2,3.8,9.9,4,10.8,5.1"/>
		<path class="white" fill-rule="evenodd" clip-rule="evenodd" fill="#DFDD00" d="M33.7,32.4c0.9,1.1,0.8,2.8-0.3,3.7c-1.1,0.9-2.8,0.8-3.8-0.3
			c-0.9-1.1-0.8-2.8,0.3-3.7C31.1,31.1,32.8,31.3,33.7,32.4"/>
		<path class="white" fill-rule="evenodd" clip-rule="evenodd" fill="#DFDD00" d="M6.1,9.3c1.3,0.7,1.7,2.4,1,3.6c-0.7,1.3-2.4,1.7-3.6,1
			c-1.3-0.7-1.7-2.4-1-3.6C3.2,9,4.8,8.5,6.1,9.3"/>
		<path class="white" fill-rule="evenodd" clip-rule="evenodd" fill="#DFDD00" d="M37,27.1c1.3,0.7,1.7,2.4,1,3.6c-0.7,1.3-2.4,1.7-3.6,1
			c-1.3-0.7-1.7-2.4-1-3.6C34.1,26.8,35.8,26.4,37,27.1"/>
		<path class="white" fill-rule="evenodd" clip-rule="evenodd" fill="#DFDD00" d="M3.1,14.8c1.4,0.3,2.4,1.6,2.2,3.1C5,19.3,3.7,20.3,2.2,20
			c-1.4-0.3-2.4-1.6-2.2-3.1C0.3,15.5,1.7,14.5,3.1,14.8"/>
		<path class="white" fill-rule="evenodd" clip-rule="evenodd" fill="#DFDD00" d="M38.3,21c1.4,0.3,2.4,1.6,2.2,3.1c-0.3,1.4-1.6,2.4-3.1,2.2
			c-1.4-0.3-2.4-1.6-2.2-3.1C35.4,21.7,36.8,20.7,38.3,21"/>
		<path class="white" fill-rule="evenodd" clip-rule="evenodd" fill="#DFDD00" d="M2.2,21c1.4-0.3,2.8,0.7,3.1,2.2c0.3,1.4-0.7,2.8-2.2,3.1
			C1.7,26.4,0.3,25.5,0,24C-0.2,22.6,0.8,21.2,2.2,21"/>
		<path class="white" fill-rule="evenodd" clip-rule="evenodd" fill="#DFDD00" d="M37.4,14.8c1.4-0.3,2.8,0.7,3.1,2.2c0.3,1.4-0.7,2.8-2.2,3.1
			c-1.4,0.3-2.8-0.7-3.1-2.2C34.9,16.4,35.9,15,37.4,14.8"/>
		<path class="white" fill-rule="evenodd" clip-rule="evenodd" fill="#DFDD00" d="M3.5,27.1c1.3-0.7,2.9-0.3,3.6,1c0.7,1.3,0.3,2.9-1,3.6
			c-1.3,0.7-2.9,0.3-3.6-1C1.7,29.4,2.2,27.8,3.5,27.1"/>
		<path class="white" fill-rule="evenodd" clip-rule="evenodd" fill="#DFDD00" d="M34.4,9.3c1.3-0.7,2.9-0.3,3.6,1c0.7,1.3,0.3,2.9-1,3.6
			c-1.3,0.7-2.9,0.3-3.6-1C32.6,11.6,33.1,10,34.4,9.3"/>
		<path class="white" fill-rule="evenodd" clip-rule="evenodd" fill="#DFDD00" d="M6.7,32.4c0.9-1.1,2.6-1.3,3.8-0.3c1.1,0.9,1.3,2.6,0.3,3.7
			c-0.9,1.1-2.6,1.3-3.8,0.3C5.9,35.2,5.8,33.5,6.7,32.4"/>
		<path class="white" fill-rule="evenodd" clip-rule="evenodd" fill="#DFDD00" d="M29.7,5.1c0.9-1.1,2.6-1.3,3.7-0.3c1.1,0.9,1.3,2.6,0.3,3.7
			c-0.9,1.1-2.6,1.3-3.8,0.3C28.9,7.9,28.7,6.2,29.7,5.1"/>
		<path class="white" fill-rule="evenodd" clip-rule="evenodd" fill="#DFDD00" d="M11.6,36.3c0.5-1.4,2-2.1,3.4-1.6c1.4,0.5,2.1,2,1.6,3.4
			c-0.5,1.4-2,2.1-3.4,1.6C11.8,39.2,11.1,37.7,11.6,36.3"/>
		<path class="white" fill-rule="evenodd" clip-rule="evenodd" fill="#DFDD00" d="M23.8,2.8c0.5-1.4,2-2.1,3.4-1.6c1.4,0.5,2.1,2,1.6,3.4
			c-0.5,1.4-2,2.1-3.4,1.6C24,5.7,23.3,4.2,23.8,2.8"/>
	</g>
	<g>
		<path class="white" fill="#55565A" d="M93.9,33.1c0,0.5,0,1.4,0,1.4H79.3c0,0,0-1.1,0-1.4c0.7,0,1.3-0.2,1.9-0.3c0.3,0,0.6-0.2,0.9-0.3
			c0.8-0.3,1.2-0.9,1.2-1.8c0-1.5,0-14.5,0-19.6c0-0.6,0.1-1.2-0.2-1.5c-1.2-1.3-2.7-1.1-3.9-1.6c0-0.4,0-1.2,0-1.2s0.4-0.1,0.6-0.1
			c5.1,0,10.2-0.1,15.3,0c2.1,0,4.1,0.2,6.1,0.9c0.8,0.3,1.5,0.7,2.2,1.2c1.2,1,1.9,2.3,2,3.8c0.1,1.7-0.2,3.3-1.2,4.7
			c-0.6,1-1.6,1.6-2.6,2.1c-0.9,0.5-1.9,0.8-2.9,1.2c0.2,0.9,8.2,10.4,9,11.2c0.9,0.9,1.9,1,3,1.2c1,0.1,2.1,0,3.1-0.2
			c0.9-0.2,1.5-0.9,1.5-1.9c0-0.3,0-0.6,0-0.8c0-6.2,0-12.4,0-18.6c0-0.3,0-0.6,0-0.8c0-0.8-0.5-1.5-1.3-1.7
			c-0.6-0.2-1.2-0.5-1.8-0.5c-0.4,0-0.7-0.1-1-0.4c-0.1-0.4,0-1.3,0-1.3h15.2c0,0,0,0.9,0,1.3c-0.5,0.3-1.1,0.3-1.7,0.4
			c-0.2,0-0.4,0-0.6,0.1c-1.5,0.4-1.8,0.8-1.8,2.3c0,6.5,0,13,0,19.6c0,0.3,0,0.6,0,0.9c0.5,0.9,1.3,1.4,2.4,1.5
			c0.6,0,1.1,0.1,1.7,0.2c0,0.4,0,1.4,0,1.4h-26c0,0-5.7-8.5-9.1-12.5C91,22,90.7,22,90.3,22.1c0,3.1,0,6.3,0,9.4
			c0.5,0.9,1.4,1.3,2.4,1.4C93,33,93.4,33.1,93.9,33.1z M90.3,20.3c1.3,0.1,2.4,0.1,3.5-0.2c1.9-0.5,3.3-1.6,3.8-3.7
			c0.3-1.1,0.2-2.1,0.2-3.2C97.7,11,96.6,9.6,94.7,9c-1.4-0.5-2.9-0.5-4.4-0.4C90.3,12.5,90.3,16.4,90.3,20.3z"/>
		<path class="white" fill="#55565A" fill-rule="evenodd" clip-rule="evenodd" d="M78.6,8.4c-0.4,0-0.8,0.1-1.2,0.2c-0.4,0.1-0.8,0.3-1.2,0.5
			c-0.6,0.3-1,0.7-1.3,1c-0.3,0.4-0.6,0.9-0.9,1.5c-0.4,0.9-1,2.2-1.7,4c-0.7,1.7-1.6,3.7-2.5,5.9c-0.8,2-1.7,4.2-2.7,6.5
			c-1,2.4-1.9,4.6-2.8,6.8h-4c-1.8-4.5-3.7-9-5.6-13.7c-1.9-4.6-3.2-7.9-4-9.7c-0.3-0.7-0.6-1.1-0.9-1.5c-0.3-0.3-0.7-0.7-1.3-1
			c-0.4-0.2-0.8-0.4-1.2-0.5c-0.3-0.1-0.8-0.2-1.4-0.3V6.8h15.1v1.5c-1.4,0.2-2.4,0.4-2.9,0.5c-0.5,0.2-0.8,0.4-0.8,0.7
			c0,0.1,0,0.3,0.1,0.5c0,0.2,0.1,0.4,0.2,0.7c0.4,1.2,1.2,3,2.3,5.6c1.1,2.6,2.7,6.6,4.9,11.9c1.3-3.3,2.4-6,3.3-8.3
			c0.9-2.2,1.6-4.2,2.3-6c0.3-0.8,0.6-1.6,0.8-2.3c0.2-0.7,0.3-1.3,0.3-1.6c0-0.4-0.3-0.8-0.9-1c-0.6-0.3-1.7-0.5-3.3-0.6V6.8h11.3"
			/>
	</g>
</svg>