<?xml version="1.0" standalone="no"?>
<!DOCTYPE svg PUBLIC "-//W3C//DTD SVG 1.1//EN" "http://www.w3.org/Graphics/SVG/1.1/DTD/svg11.dtd" >
<svg xmlns="http://www.w3.org/2000/svg" xmlns:xlink="http://www.w3.org/1999/xlink" version="1.1">
<metadata></metadata>
<defs>
<font id="source_sans_proXLtIt" horiz-adv-x="492" >
<font-face units-per-em="1000" ascent="750" descent="-250" />
<missing-glyph horiz-adv-x="203" />
<glyph horiz-adv-x="0" />
<glyph horiz-adv-x="333" />
<glyph unicode=" "  horiz-adv-x="203" />
<glyph unicode="&#x09;" horiz-adv-x="203" />
<glyph unicode="&#xa0;" horiz-adv-x="203" />
<glyph unicode="!" horiz-adv-x="261" d="M99 186l91 471l13 69h30l-13 -69l-95 -471h-26zM76 -13q-10 0 -17 4.5t-10.5 12t-3.5 15.5q0 19 14 34.5t32 15.5q28 0 28 -34q0 -19 -13 -33.5t-30 -14.5z" />
<glyph unicode="&#x22;" horiz-adv-x="349" d="M145 516l26 141l13 69h30l-13 -69l-33 -141h-23zM276 516l26 141l13 69h31l-13 -69l-33 -141h-24z" />
<glyph unicode="#" horiz-adv-x="494" d="M45 0l74 235h-89l9 31h88l59 192h-91l9 30h93l67 214h30l-67 -214h157l67 214h31l-67 -214h88l-8 -30h-89l-58 -192h90l-8 -31h-93l-73 -235h-31l74 235h-158l-73 -235h-31zM158 266h160l58 192h-160z" />
<glyph unicode="$" d="M160 -119l21 108q-47 8 -87 34.5t-67 60.5l23 22q27 -39 68.5 -65t91.5 -26q71 0 119.5 45.5t48.5 116.5q0 38 -13 69.5t-34.5 53.5t-47 42t-51 39t-46.5 39.5t-34.5 49t-13.5 61.5q0 75 51.5 124t129.5 49l21 106h30l-22 -109q37 -7 71 -31.5t54 -56.5l-24 -19 q-54 82 -131 82q-64 0 -107 -38.5t-43 -99.5q0 -32 13.5 -58.5t34.5 -46t46.5 -38t51.5 -39t47 -43.5t34 -56.5t13 -72.5q0 -83 -55.5 -140t-141.5 -57l-21 -106h-30z" />
<glyph unicode="%" horiz-adv-x="820" d="M192 279q-58 0 -88.5 44t-30.5 113q0 47 12.5 96.5t34.5 93.5t59.5 72t81.5 28q30 0 53.5 -12.5t37.5 -34.5t21 -50t7 -61q0 -47 -12 -96.5t-34.5 -93t-59.5 -71.5t-82 -28zM194 305q49 0 86 44t53.5 101t16.5 112q0 62 -22 100t-69 38q-48 0 -85 -44t-53.5 -101.5 t-16.5 -111.5q0 -62 22 -100t68 -38zM140 -13l532 739h32l-531 -739h-33zM588 -13q-59 0 -89 44.5t-30 113.5q0 47 12 96.5t34.5 93t59.5 71.5t82 28q58 0 88 -44t30 -114q0 -47 -12 -96.5t-34.5 -93t-59.5 -71.5t-81 -28zM590 13q48 0 85 44t53.5 101t16.5 112 q0 62 -22 100t-69 38q-48 0 -85 -44t-53.5 -101t-16.5 -112q0 -62 22 -100t69 -38z" />
<glyph unicode="&#x26;" horiz-adv-x="585" d="M176 -13q-69 0 -114 43t-45 115q0 42 15 78.5t45.5 68t59 53t71.5 49.5q-18 67 -18 127q0 90 49 147.5t115 57.5q46 0 69.5 -27.5t23.5 -67.5q0 -19 -4 -36.5t-9.5 -32t-18 -31t-20 -27t-26.5 -26.5t-28 -23.5t-32.5 -24t-32 -22t-34.5 -22.5q46 -154 144 -265 q84 86 160 247h31q-79 -167 -173 -266q31 -33 58.5 -55t53.5 -34l-15 -26q-61 27 -120 92q-99 -92 -205 -92zM220 525q0 -54 15 -112q36 22 56 35.5t47.5 36.5t42 41.5t25.5 44t11 52.5q0 32 -16 53.5t-49 21.5q-57 0 -94.5 -49.5t-37.5 -123.5zM184 15q85 0 179 84 q-102 120 -147 269q-31 -20 -51.5 -36t-44 -38t-38 -42.5t-23.5 -46.5t-9 -54q0 -61 37.5 -98.5t96.5 -37.5z" />
<glyph unicode="'" horiz-adv-x="218" d="M145 516l26 141l13 69h30l-13 -69l-33 -141h-23z" />
<glyph unicode="(" horiz-adv-x="280" d="M138 -188q-60 153 -60 333t62.5 332t187.5 311l20 -15q-240 -290 -240 -635q0 -84 13.5 -170.5t38.5 -148.5z" />
<glyph unicode=")" horiz-adv-x="282" d="M-39 -188l-19 15q239 291 239 635q0 55 -5.5 111.5t-17.5 111.5t-28 97l21 6q61 -153 61 -332q0 -180 -63 -332t-188 -312z" />
<glyph unicode="*" horiz-adv-x="403" d="M192 527l-17 15l69 87l-88 47l8 22l100 -35l21 106l24 -2l-9 -106l102 15l4 -24l-104 -28l41 -97l-21 -13l-50 91z" />
<glyph unicode="+" d="M246 119v224h-194v29h194v218h30v-218h195v-29h-195v-224h-30z" />
<glyph unicode="," horiz-adv-x="218" d="M-28 -158l-9 26q43 20 71 52.5t33 70.5h-7q-14 0 -23 9t-9 24q0 17 12.5 31t30.5 14q17 0 26 -12.5t9 -32.5q0 -59 -38 -108.5t-96 -73.5z" />
<glyph unicode="-" horiz-adv-x="304" d="M39 255l6 30h223l-7 -30h-222z" />
<glyph unicode="." horiz-adv-x="218" d="M54 -13q-9 0 -16 4.5t-10.5 12t-3.5 15.5q0 19 14 34.5t31 15.5q28 0 28 -34q0 -19 -13 -33.5t-30 -14.5z" />
<glyph unicode="/" horiz-adv-x="378" d="M-80 -173l523 940h30l-523 -940h-30z" />
<glyph unicode="0" d="M201 -13q-51 0 -86.5 33.5t-50 82.5t-14.5 109q0 66 12.5 135.5t37 133t57 113.5t75 80t88.5 30q50 0 85.5 -34.5t50.5 -84t15 -108.5q0 -82 -20.5 -169t-55 -158.5t-86 -117t-108.5 -45.5zM201 15q49 0 95 44.5t77 112.5t49.5 147.5t18.5 151.5q0 55 -12.5 100t-41 75 t-69.5 30q-50 0 -95.5 -45t-76 -113.5t-48.5 -148.5t-18 -151q0 -55 11.5 -99t40 -74t69.5 -30z" />
<glyph unicode="1" d="M35 0l6 28h156l121 601h-121l4 21q83 11 134 41h26l-134 -663h151l-4 -28h-339z" />
<glyph unicode="2" d="M-9 0l3 22l42 36q55 48 81 70.5t69.5 60.5t62.5 56.5t50 48.5t44 46.5t32.5 41t27 41t17 37.5t12 40t2.5 40q0 59 -35 97.5t-101 38.5q-84 0 -164 -80l-20 24q49 42 93 63t93 21q78 0 121 -44t43 -114q0 -39 -8 -73.5t-35 -75t-50.5 -70t-81 -83.5t-97 -89t-128.5 -111 q-12 -10 -19 -16h350l-4 -28h-400z" />
<glyph unicode="3" d="M188 -13q-67 0 -115 34.5t-77 80.5l23 17q71 -104 173 -104q89 0 147 52.5t58 129.5q0 67 -56 109t-168 42l6 28q69 0 121.5 16t81 42.5t42.5 55t14 56.5q0 60 -32 95t-97 35q-38 0 -82.5 -18t-73.5 -47l-19 24q84 69 177 69q79 0 118.5 -40.5t39.5 -110.5 q0 -67 -46 -120t-125 -72v-5q59 -16 94.5 -56t35.5 -97q0 -95 -67.5 -155.5t-172.5 -60.5z" />
<glyph unicode="4" d="M298 0h-30l42 210h-301l2 17l404 464h21l-90 -453h99l-7 -28h-98zM58 238h257l54 270q4 19 16 67t15 58h-5q-24 -31 -86 -104z" />
<glyph unicode="5" d="M184 -13q-123 0 -186 112l24 18q13 -22 24.5 -36.5t31.5 -31t48.5 -25.5t63.5 -9q85 0 147.5 65t62.5 164q0 79 -40.5 119.5t-108.5 40.5q-25 0 -47.5 -5.5t-39 -12.5t-41.5 -21l-19 15l86 311h287l-6 -28h-259l-72 -259q53 28 111 28q52 0 92 -20t63.5 -61.5t23.5 -99.5 q0 -117 -72 -190.5t-174 -73.5z" />
<glyph unicode="6" d="M229 -13q-80 0 -126.5 63t-46.5 162q0 138 40 251t109.5 177t155.5 64q87 0 134 -82l-26 -17q-39 71 -110 71q-96 0 -170.5 -101.5t-95.5 -254.5q39 43 86.5 65.5t90.5 22.5q78 0 122 -49.5t44 -129.5q0 -102 -60.5 -172t-146.5 -70zM231 15q69 0 122 61.5t53 141.5 q0 74 -35.5 117t-102.5 43q-38 0 -88.5 -24t-90.5 -79q-3 -36 -3 -57q0 -89 39 -146t106 -57z" />
<glyph unicode="7" d="M147 0q48 219 122.5 371t216.5 292h-363l7 28h401l-4 -21q-80 -77 -138 -154.5t-97 -162t-64 -165.5t-47 -188h-34z" />
<glyph unicode="8" d="M229 -13q-80 0 -136 47.5t-56 131.5q0 140 170 221v4q-32 31 -47 61.5t-15 72.5q0 81 53.5 130t129.5 49q67 0 112.5 -41.5t45.5 -116.5q0 -67 -36.5 -115t-103.5 -88v-4q99 -68 99 -153q0 -90 -62.5 -144.5t-153.5 -54.5zM320 356q59 34 97.5 81.5t38.5 106.5 q0 62 -38 97t-92 35q-61 0 -106 -41t-45 -108q0 -62 35.5 -99t109.5 -72zM229 15q74 0 130 45t56 119q0 27 -10.5 51t-23.5 40.5t-39.5 35.5t-44 29t-52.5 28q-4 2 -5.5 3t-5 2.5t-5.5 3.5q-52 -28 -85 -54t-55 -64.5t-22 -85.5q0 -72 48 -112.5t114 -40.5z" />
<glyph unicode="9" d="M253 313q38 0 88 24.5t91 78.5q2 37 2 57q0 89 -39 146t-106 57q-68 0 -121.5 -61t-53.5 -142q0 -74 36 -117t103 -43zM160 -13q-88 0 -134 82l26 17q39 -71 110 -71q38 0 74 17.5t67 50t56 76.5t42.5 98.5t26.5 114.5q-39 -44 -86.5 -66.5t-90.5 -22.5q-78 0 -122.5 50 t-44.5 129q0 67 28 123t75.5 87.5t104.5 31.5q79 0 125.5 -62.5t46.5 -161.5q0 -139 -39.5 -252t-109.5 -177t-155 -64z" />
<glyph unicode=":" horiz-adv-x="218" d="M130 417q-14 0 -22.5 9.5t-8.5 22.5q0 18 14 34t32 16q28 0 28 -35q0 -18 -13 -32.5t-30 -14.5zM54 -13q-9 0 -16 4.5t-10.5 12t-3.5 15.5q0 19 14 34.5t31 15.5q28 0 28 -34q0 -19 -13 -33.5t-30 -14.5z" />
<glyph unicode=";" horiz-adv-x="218" d="M130 417q-14 0 -22.5 9.5t-8.5 22.5q0 18 14 34t32 16q28 0 28 -35q0 -18 -13 -32.5t-30 -14.5zM-28 -158l-9 26q43 20 71 52.5t33 70.5h-7q-14 0 -23 9t-9 24q0 17 12.5 31t30.5 14q17 0 26 -12.5t9 -32.5q0 -59 -38 -108.5t-96 -73.5z" />
<glyph unicode="&#x3c;" d="M471 168l-421 173v31l421 172v-30l-249 -101l-131 -54v-5l131 -54l249 -101v-31z" />
<glyph unicode="=" d="M52 449v28h419v-28h-419zM52 235v29h419v-29h-419z" />
<glyph unicode="&#x3e;" d="M52 168v31l248 101l132 54v5l-132 54l-248 101v30l421 -172v-31z" />
<glyph unicode="?" horiz-adv-x="410" d="M156 190q1 39 14.5 74t34 62t45 52.5t48.5 49.5t44 48t32.5 54t12.5 62q0 55 -29.5 85.5t-81.5 30.5q-37 0 -74 -18t-64 -48l-19 21q18 20 42 36.5t55.5 27t62.5 10.5q64 0 101 -37t37 -102q0 -36 -12.5 -69t-32.5 -59.5t-44 -52t-49 -50.5t-45.5 -51t-34.5 -59t-15 -69z M136 -13q-14 0 -22 9.5t-8 22.5q0 12 6 23.5t17 19t22 7.5q28 0 28 -34q0 -19 -12.5 -33.5t-30.5 -14.5z" />
<glyph unicode="@" horiz-adv-x="833" d="M356 -153q-136 0 -221 90t-85 240q0 105 38 199t101 159t144.5 103t165.5 38q139 0 216.5 -84.5t77.5 -224.5t-60.5 -224.5t-140.5 -84.5q-38 0 -61 22.5t-30 59.5h-2q-66 -73 -125 -73q-48 0 -82.5 36.5t-34.5 101.5q0 36 10 72.5t29 67.5t44 55.5t57 39t65 14.5 q51 0 82 -57h2l13 48h26l-51 -229q-8 -37 -6 -66t19.5 -46.5t48.5 -17.5q65 0 115.5 76t50.5 199q0 132 -69 209.5t-196 77.5q-62 0 -123.5 -22.5t-114 -65t-93 -99t-63.5 -128.5t-23 -149q0 -143 77 -226t202 -83q90 0 159 41l13 -24q-78 -45 -175 -45zM376 95q60 0 119 78 l43 192q-33 61 -78 61q-48 0 -89 -34t-62.5 -83t-21.5 -97q0 -39 12.5 -66t32 -39t44.5 -12z" />
<glyph unicode="A" horiz-adv-x="518" d="M220 428l-77 -143h259l-18 143q-3 30 -13 114.5t-15 133.5h-4q-19 -40 -39.5 -78t-51.5 -95t-41 -75zM-50 0l396 713h32l91 -713h-33l-31 257h-278l-140 -257h-37z" />
<glyph unicode="B" horiz-adv-x="611" d="M43 0l143 713h168q98 0 151.5 -41t53.5 -113q0 -31 -10 -58.5t-27 -47.5t-38.5 -36t-43.5 -24.5t-43 -12.5v-4q58 -13 97.5 -51.5t39.5 -102.5q0 -110 -76.5 -166t-209.5 -56h-205zM153 393h128q119 0 182.5 45t63.5 119q0 128 -190 128h-125zM80 28h149q272 0 272 191 q0 64 -53.5 105t-147.5 41h-151z" />
<glyph unicode="C" horiz-adv-x="578" d="M300 -13q-115 0 -176 77.5t-61 201.5q0 62 15 127t46 124.5t73 106t100.5 74.5t123.5 28q102 0 164 -100l-26 -17q-50 89 -140 89q-60 0 -113 -26.5t-91 -70.5t-65.5 -99.5t-41 -114.5t-13.5 -115q0 -115 52 -186t155 -71q50 0 91.5 17.5t83.5 53.5l20 -21 q-48 -39 -94.5 -58.5t-102.5 -19.5z" />
<glyph unicode="D" horiz-adv-x="617" d="M43 0l143 713h112q143 0 217.5 -74.5t74.5 -202.5q0 -73 -15.5 -138t-46.5 -119.5t-76 -94.5t-107 -62t-135 -22h-167zM80 28h132q81 0 147.5 33t109 89t65.5 129t23 155q0 115 -66 183t-195 68h-84z" />
<glyph unicode="E" horiz-adv-x="522" d="M43 0l143 713h369l-6 -28h-337l-59 -292h285l-6 -28h-283l-69 -337h348l-7 -28h-378z" />
<glyph unicode="F" horiz-adv-x="483" d="M43 0l143 713h369l-6 -28h-337l-61 -305h285l-6 -28h-283l-71 -352h-33z" />
<glyph unicode="G" horiz-adv-x="615" d="M311 -13q-122 0 -185 76t-63 203q0 64 15 128.5t46 124t74 106t104 74t130 27.5q102 0 164 -100l-26 -17q-50 89 -140 89q-63 0 -118 -26.5t-94 -70.5t-67 -99.5t-42 -114.5t-14 -115q0 -54 12 -99.5t37.5 -81.5t68.5 -56t100 -20q94 0 156 58l47 240h-170l6 28h203 l-58 -283q-82 -71 -186 -71z" />
<glyph unicode="H" horiz-adv-x="645" d="M43 0l143 713h32l-65 -320h385l65 320h32l-143 -713h-32l74 365h-385l-73 -365h-33z" />
<glyph unicode="I" horiz-adv-x="235" d="M43 0l143 713h32l-142 -713h-33z" />
<glyph unicode="J" horiz-adv-x="462" d="M158 -13q-118 0 -156 110l28 13q29 -95 130 -95q41 0 73.5 21.5t53.5 59t31 88.5l105 529h33l-106 -532q-17 -90 -67 -142t-125 -52z" />
<glyph unicode="K" horiz-adv-x="563" d="M43 0l143 713h32l-80 -400h2l428 400h41l-272 -259l164 -454h-34l-156 432l-181 -168l-54 -264h-33z" />
<glyph unicode="L" horiz-adv-x="466" d="M43 0l143 713h32l-136 -685h324l-6 -28h-357z" />
<glyph unicode="M" horiz-adv-x="730" d="M43 0l143 713h54l71 -430l28 -162h4l85 162l237 430h54l-142 -713h-33l100 497q3 13 18 83t23 103h-5l-84 -154l-244 -447h-37l-77 447l-26 154h-5q-5 -30 -16 -93.5t-16 -92.5l-99 -497h-33z" />
<glyph unicode="N" horiz-adv-x="648" d="M43 0l143 713h36l199 -525l52 -143h4q24 147 35 203l93 465h32l-142 -713h-35l-196 523l-54 149h-5q-12 -79 -37 -201l-92 -471h-33z" />
<glyph unicode="O" horiz-adv-x="660" d="M296 -13q-76 0 -128 38.5t-76.5 104t-24.5 153.5q0 48 10 99t29 100.5t48.5 93.5t65.5 77.5t83 53t99 19.5q113 0 171 -80.5t58 -215.5q0 -48 -10.5 -99t-29 -100.5t-48 -93.5t-65.5 -77.5t-83 -53t-99 -19.5zM298 15q47 0 89.5 18.5t75 50.5t58.5 73t43 87t25.5 92.5 t8.5 89.5q0 126 -48.5 199t-149.5 73q-56 0 -106 -26.5t-84.5 -69.5t-60 -97.5t-38 -110t-12.5 -107.5q0 -126 49 -199t150 -73z" />
<glyph unicode="P" horiz-adv-x="565" d="M43 0l143 713h181q208 0 208 -162q0 -115 -79 -174t-220 -59h-138l-62 -318h-33zM145 346h125q135 0 203.5 51t68.5 152q0 71 -48 103.5t-146 32.5h-136z" />
<glyph unicode="Q" horiz-adv-x="660" d="M298 15q47 0 89.5 18.5t75 50.5t58.5 73t43 87t25.5 92.5t8.5 89.5q0 126 -48.5 199t-149.5 73q-56 0 -106 -26.5t-84.5 -69.5t-60 -97.5t-38 -110t-12.5 -107.5q0 -126 49 -199t150 -73zM475 -162q-79 0 -136 38t-74 113q-66 8 -111 47.5t-66 102t-21 144.5q0 48 10 99 t29 100.5t48.5 93.5t65.5 77.5t83 53t99 19.5q113 0 171 -80.5t58 -215.5q0 -41 -7.5 -84.5t-22 -86.5t-35 -83t-49 -74.5t-61.5 -60t-74 -40t-85 -14.5q14 -58 62 -88.5t118 -30.5q24 0 50 7l4 -31q-29 -6 -56 -6z" />
<glyph unicode="R" horiz-adv-x="563" d="M43 0l143 713h173q205 0 205 -154q0 -93 -65.5 -153.5t-169.5 -69.5l140 -336h-37l-137 335h-152l-67 -335h-33zM149 363h132q119 0 184.5 51.5t65.5 142.5q0 68 -47 98t-145 30h-127z" />
<glyph unicode="S" horiz-adv-x="527" d="M244 -13q-150 0 -225 119l26 17q71 -108 203 -108q54 0 98 21.5t69.5 61.5t25.5 92q0 87 -93 140l-95 57q-113 66 -113 159q0 74 56 127t143 53q42 0 79.5 -13.5t64.5 -34t46 -47.5l-24 -20q-66 87 -172 87q-47 0 -84.5 -22t-56.5 -55.5t-19 -69.5q0 -48 25.5 -80 t69.5 -56l93 -54q112 -65 112 -167q0 -92 -65 -149.5t-164 -57.5z" />
<glyph unicode="T" horiz-adv-x="531" d="M194 0l136 683h-222l6 30h478l-7 -30h-222l-136 -683h-33z" />
<glyph unicode="U" horiz-adv-x="641" d="M97 283l87 430h32l-84 -421q-11 -44 -11 -89q0 -60 19 -101.5t58 -64t96 -22.5q75 0 133 59t83 183l90 456h33l-93 -465q-27 -136 -94.5 -198.5t-156.5 -62.5q-94 0 -147 54.5t-53 152.5q0 43 8 89z" />
<glyph unicode="V" horiz-adv-x="486" d="M158 0l-67 713h30l39 -432q16 -144 24 -240h4q82 164 123 240l227 432h32l-376 -713h-36z" />
<glyph unicode="W" horiz-adv-x="784" d="M119 0l-2 713h32v-432q-1 -39 -1 -117t-1 -116h4q74 155 108 233l203 432h37l15 -432q4 -78 9 -233h4q65 155 99 233l182 432h34l-306 -713h-41l-18 510q0 29 -1 84t-1 84h-4q-10 -26 -21.5 -52.5t-28 -63t-24.5 -52.5l-237 -510h-41z" />
<glyph unicode="X" horiz-adv-x="481" d="M-39 0l281 372l-123 341h32l80 -227q4 -11 14.5 -41.5t18.5 -49.5h2q30 35 75 97l164 221h35l-264 -348l134 -365h-32l-84 235q-13 35 -39 108h-2q-6 -7 -87 -114l-170 -229h-35z" />
<glyph unicode="Y" horiz-adv-x="455" d="M151 0l60 295l-118 418h32l64 -232q31 -114 42 -154h3q15 21 34 49t38 55.5t34 49.5l163 232h35l-295 -418l-59 -295h-33z" />
<glyph unicode="Z" horiz-adv-x="542" d="M2 0l4 19l519 666h-361l7 28h399l-4 -20l-516 -665h399l-6 -28h-441z" />
<glyph unicode="[" horiz-adv-x="282" d="M19 -164l186 929h156l-2 -24h-134l-175 -881h131l-6 -24h-156z" />
<glyph unicode="\" horiz-adv-x="378" d="M257 -173l-160 940h26l160 -940h-26z" />
<glyph unicode="]" horiz-adv-x="282" d="M-69 -164l4 24h132l179 881h-134l5 24h157l-185 -929h-158z" />
<glyph unicode="^" horiz-adv-x="494" d="M99 313l156 411h26l155 -411h-28l-86 229l-52 143h-2l-52 -143l-86 -229h-31z" />
<glyph unicode="_" horiz-adv-x="522" d="M-28 -121l6 30h495l-6 -30h-495z" />
<glyph unicode="`" horiz-adv-x="544" d="M393 616l-123 172l28 20l117 -177z" />
<glyph unicode="a" horiz-adv-x="565" d="M201 -13q-70 0 -110.5 48.5t-40.5 137.5q0 58 15 113t42.5 98.5t62.5 76.5t76.5 50.5t83.5 17.5q90 0 137 -86h4l19 73h26l-103 -516h-26l13 84h-5q-93 -97 -194 -97zM203 15q102 0 205 117l56 270q-57 99 -136 99q-63 0 -121 -47t-92.5 -121.5t-34.5 -153.5 q0 -81 32.5 -122.5t90.5 -41.5z" />
<glyph unicode="b" horiz-adv-x="563" d="M73 0h-25l155 780h30l-47 -234l-22 -105h2q110 88 197 88q69 0 110 -48.5t41 -137.5q0 -72 -24 -138.5t-63 -114t-90 -75.5t-104 -28q-89 0 -136 86h-4zM361 501q-30 0 -66 -13t-71 -35.5t-66 -50.5l-59 -288q58 -99 136 -99q64 0 122 47t92.5 121.5t34.5 153.5 q0 80 -32.5 122t-90.5 42z" />
<glyph unicode="c" horiz-adv-x="462" d="M227 -13q-84 0 -131.5 53.5t-47.5 149.5q0 74 24 138.5t62.5 107.5t88 68t99.5 25q41 0 71.5 -15.5t57.5 -46.5l-21 -22q-25 30 -49.5 43t-60.5 13q-60 0 -116 -41.5t-91 -112.5t-35 -150q0 -182 151 -182q68 0 140 56l18 -23q-79 -61 -160 -61z" />
<glyph unicode="d" horiz-adv-x="568" d="M471 443l21 103l48 234h30l-157 -780h-26l13 84h-5q-93 -97 -194 -97q-70 0 -110.5 48.5t-40.5 137.5q0 58 15 113t42.5 98.5t62.5 76.5t76.5 50.5t83.5 17.5q90 0 137 -86h4zM203 15q102 0 205 117l56 270q-57 99 -136 99q-63 0 -121 -47t-92.5 -121.5t-34.5 -153.5 q0 -81 32.5 -122.5t90.5 -41.5z" />
<glyph unicode="e" horiz-adv-x="505" d="M48 199q0 71 23 134t60 105t85 66.5t97 24.5q79 0 116.5 -48.5t37.5 -132.5q0 -43 -13 -87h-370q-22 -122 25 -184t135 -62q62 0 134 52l15 -24q-76 -56 -151 -56q-91 0 -142.5 55t-51.5 157zM91 289h339q6 33 6 65q0 62 -30 104.5t-95 42.5q-73 0 -136 -60t-84 -152z " />
<glyph unicode="f" horiz-adv-x="265" d="M82 488l4 24l70 4l25 130q16 73 51.5 110t82.5 37q40 0 76 -24l-15 -24q-31 20 -63 20q-38 0 -64.5 -34t-36.5 -85l-26 -130h116l-6 -28h-117l-97 -488h-30l97 488h-67z" />
<glyph unicode="g" horiz-adv-x="559" d="M179 -253q-89 0 -173 72l20 23q71 -67 155 -67q77 0 123.5 51t64.5 142l26 125q-101 -97 -196 -97q-45 0 -78.5 20.5t-52 62.5t-18.5 100q0 70 23.5 135.5t62 112t88.5 74.5t100 28q89 0 136 -86h4l20 73h26l-115 -568q-20 -94 -75 -147.5t-141 -53.5zM201 24 q45 0 99.5 29.5t101.5 80.5l56 268q-31 52 -64 75.5t-72 23.5q-45 0 -89.5 -28t-78 -72t-54 -101.5t-20.5 -113.5q0 -80 31.5 -121t89.5 -41z" />
<glyph unicode="h" horiz-adv-x="537" d="M48 0l155 780h30l-60 -300l-13 -50h4q59 50 103 74.5t87 24.5q64 0 93.5 -33.5t29.5 -91.5q0 -29 -8 -69l-67 -335h-30l66 330q9 44 9 70q0 34 -10 56t-31.5 33.5t-55.5 11.5q-77 0 -194 -114l-78 -387h-30z" />
<glyph unicode="i" horiz-adv-x="231" d="M48 0l103 516h30l-103 -516h-30zM194 648q-13 0 -21.5 8.5t-8.5 21.5q0 19 12 31t27 12q13 0 21.5 -9t8.5 -23q0 -17 -11.5 -29t-27.5 -12z" />
<glyph unicode="j" horiz-adv-x="231" d="M-65 -253q-32 0 -62 18l13 25q22 -15 51 -15q61 0 87 113l127 628h30l-125 -622q-31 -147 -121 -147zM194 648q-13 0 -21.5 8.5t-8.5 21.5q0 19 12 31t27 12q13 0 21.5 -9t8.5 -23q0 -17 -11.5 -29t-27.5 -12z" />
<glyph unicode="k" horiz-adv-x="470" d="M48 0l155 780h30l-116 -590h2l322 326h39l-201 -207l125 -309h-32l-117 287l-149 -151l-28 -136h-30z" />
<glyph unicode="l" horiz-adv-x="244" d="M93 -13q-17 0 -28 10t-11 29q0 6 4 28l145 726h30l-144 -728q-3 -11 -3 -22q0 -15 16 -15q6 0 17 4l4 -25q-16 -7 -30 -7z" />
<glyph unicode="m" horiz-adv-x="838" d="M48 0l103 516h26l-13 -84h4q101 97 173 97q61 0 89 -30.5t30 -79.5q114 110 190 110q42 0 69.5 -16t39.5 -43.5t12 -65.5q0 -29 -9 -69l-66 -335h-31l67 330q9 44 9 70q0 51 -23 76t-72 25q-18 0 -45 -11.5t-64 -38.5t-73 -64l-77 -387h-31l67 330q9 44 9 70 q0 25 -5.5 44t-17 31.5t-29.5 19t-43 6.5q-29 0 -79 -29.5t-102 -84.5l-78 -387h-30z" />
<glyph unicode="n" horiz-adv-x="544" d="M48 0l103 516h26l-13 -84h4q22 18 39 31.5t36.5 26.5t37 21t36.5 13t37 5q64 0 93.5 -33.5t29.5 -91.5q0 -29 -8 -69l-67 -335h-30l66 330q9 44 9 70q0 34 -10 56t-31.5 33.5t-55.5 11.5q-77 0 -194 -114l-78 -387h-30z" />
<glyph unicode="o" horiz-adv-x="540" d="M220 -13q-78 0 -124 53.5t-46 149.5q0 94 38 172.5t100 122.5t132 44q78 0 124 -53.5t46 -149.5q0 -93 -38 -172t-100 -123t-132 -44zM222 15q58 0 113 41.5t90 112.5t35 151q0 59 -16.5 99.5t-48.5 61t-77 20.5q-58 0 -113 -41t-90 -112.5t-35 -150.5q0 -89 37 -135.5 t105 -46.5z" />
<glyph unicode="p" horiz-adv-x="561" d="M91 73l-24 -118l-37 -195h-30l151 756h26l-13 -75h4q110 88 195 88q69 0 110 -48.5t41 -137.5q0 -72 -24 -138.5t-63 -114t-90 -75.5t-104 -28q-88 0 -140 86h-2zM361 501q-30 0 -65.5 -13t-71 -36t-66.5 -52l-59 -290q57 -95 136 -95q64 0 122 47t92.5 121.5t34.5 153.5 q0 80 -32.5 122t-90.5 42z" />
<glyph unicode="q" horiz-adv-x="565" d="M374 -45l26 131h-3q-95 -99 -196 -99q-70 0 -110.5 48.5t-40.5 137.5q0 58 15 113t42.5 98.5t62.5 76.5t76.5 50.5t83.5 17.5q90 0 137 -86h4l19 73h26l-151 -756h-30zM203 15q46 0 101.5 31t103.5 86l56 270q-57 99 -136 99q-63 0 -121 -47t-92.5 -121.5t-34.5 -153.5 q0 -81 32.5 -122.5t90.5 -41.5z" />
<glyph unicode="r" horiz-adv-x="332" d="M48 0l103 516h26l-17 -97h4q79 110 162 110q22 0 46 -8l-13 -31q-18 9 -39 9q-43 0 -90.5 -40.5t-82.5 -110.5l-69 -348h-30z" />
<glyph unicode="s" horiz-adv-x="414" d="M171 -13q-53 0 -100.5 28.5t-70.5 66.5l24 17q22 -36 62 -60t89 -24q57 0 98.5 35t41.5 82q0 34 -20 59.5t-79 56.5q-73 39 -101.5 69.5t-28.5 69.5q0 63 46.5 102.5t111.5 39.5q81 0 138 -60l-21 -22q-50 54 -119 54q-34 0 -63 -14.5t-45.5 -39.5t-16.5 -54 q0 -35 24.5 -58.5t72.5 -49.5q43 -23 70.5 -43.5t40 -38.5t17 -32t4.5 -33q0 -68 -49.5 -109.5t-125.5 -41.5z" />
<glyph unicode="t" horiz-adv-x="313" d="M184 -13q-38 0 -62 14t-33 35t-9 48q0 15 4 50l74 354h-82l4 24l84 4l35 149h26l-31 -149h143l-7 -28h-142l-74 -356q-4 -26 -4 -41q0 -39 17 -57.5t59 -18.5q26 0 65 20l10 -24q-42 -24 -77 -24z" />
<glyph unicode="u" horiz-adv-x="555" d="M505 516l-103 -516h-26l13 86h-5q-56 -49 -99 -74t-86 -25q-64 0 -93.5 33.5t-29.5 91.5q0 29 8 69l67 335h30l-67 -330q-8 -43 -8 -69q0 -52 23 -77t74 -25q77 0 194 115l78 386h30z" />
<glyph unicode="v" horiz-adv-x="440" d="M147 0l-84 516h30l54 -337q3 -20 7.5 -48.5t8.5 -55.5t8 -47h4q41 78 82 151l184 337h32l-285 -516h-41z" />
<glyph unicode="w" horiz-adv-x="727" d="M121 0l-48 516h31l30 -350q4 -47 13 -138h4q13 27 36 79t27 59l162 350h43l26 -350q1 -24 4.5 -70t4.5 -68h4q7 14 29 62.5t36 75.5l166 350h30l-246 -516h-45l-24 337q-2 25 -4.5 77t-4.5 76h-4q-5 -10 -30 -67t-39 -86l-156 -337h-45z" />
<glyph unicode="x" horiz-adv-x="410" d="M-52 0l244 272l-103 244h32l56 -136q5 -11 11.5 -28.5t12 -31t11.5 -26.5h4q52 56 78 86l121 136h34l-220 -250l112 -266h-32l-58 147q-19 47 -44 99h-4q-27 -34 -86 -97l-132 -149h-37z" />
<glyph unicode="y" horiz-adv-x="440" d="M-43 -240q-23 0 -48 11l13 26q18 -9 37 -9q91 0 166 154l24 47l-86 527h30l54 -337q13 -76 24 -153h4q26 50 82 153l184 337h32l-324 -587q-18 -35 -35 -61t-41 -52.5t-53.5 -41t-62.5 -14.5z" />
<glyph unicode="z" horiz-adv-x="414" d="M-11 0l2 19l402 469h-274l6 28h313l-2 -19l-401 -469h315l-7 -28h-354z" />
<glyph unicode="{" horiz-adv-x="280" d="M140 -164q-46 0 -67 18.5t-21 61.5q0 38 31 158t31 155q0 12 -2.5 21t-10 18t-23.5 14t-39 5l6 26q52 0 75 24.5t31 64.5q5 27 12 69t14 83t13 72q16 80 45.5 109.5t88.5 29.5h35l-5 -24h-34q-48 0 -71 -28.5t-35 -90.5q-7 -34 -18 -105.5t-17 -103.5 q-10 -49 -27.5 -76.5t-49.5 -36.5v-4q36 -16 36 -58q0 -40 -30 -160t-30 -156q0 -32 15 -47t54 -15h32l-6 -24h-33z" />
<glyph unicode="|" horiz-adv-x="228" d="M108 -270v1080h28v-1080h-28z" />
<glyph unicode="}" horiz-adv-x="282" d="M-69 -164l4 24h35q48 0 71 27.5t35 88.5q6 34 17 105.5t17 104.5q11 50 28 77.5t50 36.5v5q-37 14 -37 58q0 38 30.5 157.5t30.5 155.5q0 34 -15 49.5t-54 15.5h-33l7 24h32q23 0 39.5 -5t27.5 -14.5t16.5 -24.5t5.5 -36q0 -39 -31.5 -160t-31.5 -156q0 -56 76 -56 l-7 -26q-51 0 -74.5 -24.5t-31.5 -63.5q-5 -28 -17.5 -107t-21.5 -120q-15 -79 -45 -107.5t-89 -28.5h-34z" />
<glyph unicode="~" d="M350 294q-26 0 -54 15.5t-47.5 34t-43.5 34t-43 15.5q-48 0 -84 -69l-24 13q20 41 49 62.5t59 21.5q21 0 43 -10t40 -24.5t35.5 -29.5t35.5 -25t34 -10q48 0 84 69l24 -13q-21 -41 -49.5 -62.5t-58.5 -21.5z" />
<glyph unicode="&#xa1;" horiz-adv-x="261" d="M26 -210l13 70l95 470h26l-91 -470l-13 -70h-30zM168 447q-28 0 -28 35q0 11 6 22t16 18t22 7q14 0 22 -9.5t8 -22.5q0 -9 -4 -18t-10 -16t-14.5 -11.5t-17.5 -4.5z" />
<glyph unicode="&#xa2;" d="M121 318q0 -77 30.5 -124t90.5 -55l85 436q-36 -3 -72 -23t-66 -52.5t-49 -80.5t-19 -101zM212 -11l25 123q-70 9 -109 60.5t-39 138.5q0 64 21.5 119t57 91.5t79 58t87.5 23.5l22 116h31l-24 -117q69 -9 119 -68l-22 -22q-16 20 -30 31.5t-32 19.5t-41 10l-86 -435 q69 3 144 56l15 -26q-24 -15 -34 -20.5t-33.5 -17t-47 -16t-49.5 -4.5l-24 -121h-30z" />
<glyph unicode="&#xa3;" d="M9 0l4 17q80 42 120 114t40 158q0 20 -1 31h-103l7 23l95 5q-9 115 -9 129q0 106 53 166.5t141 60.5t136 -88l-25 -18q-13 23 -29 40t-38 27.5t-46 10.5q-47 0 -84 -24.5t-57.5 -68.5t-20.5 -99q0 -10 9 -136h177l-6 -28h-169v-24q0 -163 -117 -264v-4h301l-5 -28h-373z " />
<glyph unicode="&#xa5;" d="M177 0l37 184h-175l6 26h175l15 84h-175l7 26h162l-106 371h30l61 -220q26 -95 39 -151h4q75 115 102 151l142 220h33l-249 -371h162l-6 -26h-175l-15 -84h175l-7 -26h-175l-37 -184h-30z" />
<glyph unicode="&#xa7;" horiz-adv-x="490" d="M97 380q0 -38 24 -67.5t55 -45.5t70.5 -39t60.5 -44q54 20 78.5 47t24.5 78q0 38 -23 69.5t-52.5 49t-69 42t-59.5 44.5q-109 -42 -109 -134zM188 -48q-86 0 -160 74l22 24q62 -69 140 -69q50 0 85.5 32t35.5 80q0 25 -10.5 46t-27.5 35t-39 28t-45 25t-45 25.5t-39 30.5 t-27.5 39.5t-10.5 51.5q0 113 122 161q-18 29 -18 61t11 58t30 43.5t44.5 27t54.5 9.5q78 0 147 -73l-24 -22q-56 67 -125 67q-28 0 -52 -12t-40 -36t-16 -55q0 -30 17.5 -55t44.5 -41t58 -36t57.5 -38.5t44.5 -49t18 -68.5q0 -60 -28.5 -94t-89.5 -58q18 -27 18 -64 q0 -60 -44.5 -103.5t-108.5 -43.5z" />
<glyph unicode="&#xa8;" horiz-adv-x="544" d="M274 650q-13 0 -20.5 7.5t-7.5 20.5q0 18 10.5 29.5t24.5 11.5q28 0 28 -30q0 -16 -10.5 -27.5t-24.5 -11.5zM454 650q-13 0 -20.5 7.5t-7.5 20.5q0 18 10.5 29.5t23.5 11.5q28 0 28 -30q0 -16 -10.5 -27.5t-23.5 -11.5z" />
<glyph unicode="&#xa9;" horiz-adv-x="712" d="M322 -13q-82 0 -145.5 37.5t-98.5 105t-35 155.5q0 76 27.5 150.5t76 134.5t121.5 97t158 37q124 0 201 -82.5t77 -215.5q0 -76 -27.5 -150.5t-75.5 -134.5t-121.5 -97t-157.5 -37zM324 13q77 0 144.5 35.5t112 92t70 125t25.5 136.5q0 126 -69 201t-184 75 q-77 0 -144.5 -35.5t-112 -91.5t-70 -125t-25.5 -137q0 -126 69 -201t184 -75zM348 134q-68 0 -108.5 40.5t-40.5 119.5q0 39 9 74.5t24.5 63t36.5 50.5t45 38t49 23t50 8q36 0 58.5 -13.5t42.5 -40.5l-22 -20q-8 12 -16 19.5t-18 14t-21.5 9.5t-26.5 3q-65 0 -123 -65 t-58 -158q0 -68 32 -103t89 -35q23 0 47.5 8.5t39 17.5t40.5 26l15 -24q-16 -11 -25.5 -17.5t-25 -15t-28.5 -13t-30 -7.5t-35 -3z" />
<glyph unicode="&#xaa;" horiz-adv-x="373" d="M99 559q0 96 58 165t132 69q60 0 87 -54h4l13 45h22l-67 -341h-24l11 56h-5q-61 -65 -129 -65q-31 0 -53.5 14t-35.5 42.5t-13 68.5zM203 460q31 0 67.5 22t68.5 58l33 164q-35 63 -85 63q-60 0 -110 -63.5t-50 -139.5q0 -35 10.5 -58.5t27 -34.5t38.5 -11z" />
<glyph unicode="&#xab;" horiz-adv-x="401" d="M153 80l-110 179l7 35l170 168l18 -17l-160 -173l97 -179zM300 80l-110 179l7 35l170 168l17 -17l-159 -173l97 -179z" />
<glyph unicode="&#xac;" d="M441 119v224h-389v29h419v-253h-30z" />
<glyph unicode="&#xad;" horiz-adv-x="304" d="M39 255l6 30h223l-7 -30h-222z" />
<glyph unicode="&#xae;" horiz-adv-x="406" d="M238 359q-70 0 -118.5 48.5t-48.5 126.5q0 90 61 159t147 69q69 0 117.5 -49t48.5 -125q0 -60 -27.5 -112.5t-76 -84.5t-103.5 -32zM240 384q71 0 124 59t53 140q0 68 -38.5 111t-102.5 43q-72 0 -124.5 -59.5t-52.5 -139.5q0 -68 38 -111t103 -43zM175 451l45 223h59 q31 0 47.5 -16t16.5 -47q0 -25 -15 -44t-39 -27l33 -89h-30l-28 83h-44l-17 -83h-28zM227 559h28q18 0 31.5 6t21 17t7.5 27q0 39 -41 39h-32z" />
<glyph unicode="&#xaf;" horiz-adv-x="544" d="M235 657l5 28h250l-4 -28h-251z" />
<glyph unicode="&#xb0;" horiz-adv-x="306" d="M214 492q-43 0 -71.5 30t-28.5 76q0 58 36 99.5t88 41.5q27 0 50 -13.5t36 -37.5t13 -55q0 -57 -36 -99t-87 -42zM216 518q40 0 66.5 34t26.5 77q0 36 -20 60t-54 24q-40 0 -66 -34t-26 -76q0 -37 20 -61t53 -24z" />
<glyph unicode="&#xb1;" d="M246 119v224h-194v29h194v218h30v-218h195v-29h-195v-224h-30zM52 0v28h419v-28h-419z" />
<glyph unicode="&#xb4;" horiz-adv-x="544" d="M322 626l-17 20l166 153l21 -26z" />
<glyph unicode="&#xb5;" horiz-adv-x="550" d="M177 516l-67 -330q-8 -43 -8 -69q0 -52 23 -77t74 -25q77 0 194 115l78 386h30l-104 -516h-25l12 86h-4q-57 -49 -100 -74t-86 -25q-88 0 -112 76l-19 -108l-33 -171h-30l147 732h30z" />
<glyph unicode="&#xb6;" horiz-adv-x="514" d="M311 -86l160 799h30l-160 -799h-30zM324 268q-104 0 -173 48t-69 135q0 43 11 80t30 65t45.5 50.5t57.5 37t65 22t70 7.5h56l-91 -445h-2z" />
<glyph unicode="&#xb7;" horiz-adv-x="218" d="M119 315q-14 0 -22 9.5t-8 23.5q0 18 13.5 33.5t31.5 15.5q28 0 28 -34q0 -18 -13 -33t-30 -15z" />
<glyph unicode="&#xb8;" horiz-adv-x="544" d="M99 -233l-2 26q33 0 58.5 5.5t42 14t25 20t8.5 24.5q0 24 -18 35.5t-55 14.5l60 95h30l-45 -75q36 -10 48.5 -23.5t12.5 -37.5q0 -45 -45 -71.5t-120 -27.5z" />
<glyph unicode="&#xba;" horiz-adv-x="367" d="M186 434q-55 0 -86 35.5t-31 98.5q0 98 57 161.5t129 63.5q55 0 86 -35.5t31 -98.5q0 -98 -57 -161.5t-129 -63.5zM188 460q60 0 107.5 58.5t47.5 135.5q0 36 -10.5 61t-30.5 38.5t-49 13.5q-40 0 -76 -27t-58 -72t-22 -96q0 -53 23.5 -82.5t67.5 -29.5z" />
<glyph unicode="&#xbb;" horiz-adv-x="401" d="M39 80l-17 17l159 173l-97 179l22 13l110 -179l-6 -35zM186 80l-18 17l160 173l-97 179l22 13l110 -179l-7 -35z" />
<glyph unicode="&#xbf;" horiz-adv-x="410" d="M132 -218q-43 0 -74.5 16.5t-47.5 47.5t-16 74q0 36 12 69.5t32 59.5t44.5 51.5l49 51t45 51.5t34.5 59t16 68l28 -2q-1 -38 -14.5 -73t-34 -62t-45 -52.5t-49 -49.5t-44 -48.5t-32 -54.5t-12.5 -61q0 -55 29 -86t81 -31q38 0 74.5 18.5t63.5 48.5l20 -22 q-28 -31 -71 -52t-89 -21zM259 449q-28 0 -28 35q0 18 13 32.5t30 14.5q10 0 17 -4.5t10.5 -11.5t3.5 -16q0 -18 -14 -34t-32 -16z" />
<glyph unicode="&#xc0;" horiz-adv-x="518" d="M220 428l-77 -143h259l-18 143q-3 30 -13 114.5t-15 133.5h-4q-19 -40 -39.5 -78t-51.5 -95t-41 -75zM-50 0l396 713h32l91 -713h-33l-31 257h-278l-140 -257h-37zM382 762l-118 132l25 22l111 -138z" />
<glyph unicode="&#xc1;" horiz-adv-x="518" d="M220 428l-77 -143h259l-18 143q-3 30 -13 114.5t-15 133.5h-4q-19 -40 -39.5 -78t-51.5 -95t-41 -75zM-50 0l396 713h32l91 -713h-33l-31 257h-278l-140 -257h-37zM350 773l-13 18l151 118l20 -28z" />
<glyph unicode="&#xc2;" horiz-adv-x="518" d="M220 428l-77 -143h259l-18 143q-3 30 -13 114.5t-15 133.5h-4q-19 -40 -39.5 -78t-51.5 -95t-41 -75zM-50 0l396 713h32l91 -713h-33l-31 257h-278l-140 -257h-37zM240 766l-15 17l147 123h30l103 -123l-17 -15l-101 108h-5z" />
<glyph unicode="&#xc3;" horiz-adv-x="518" d="M220 428l-77 -143h259l-18 143q-3 30 -13 114.5t-15 133.5h-4q-19 -40 -39.5 -78t-51.5 -95t-41 -75zM-50 0l396 713h32l91 -713h-33l-31 257h-278l-140 -257h-37zM447 780q-20 0 -37 9t-29 22.5t-23 27t-25.5 22.5t-30.5 9q-10 0 -19.5 -4t-18 -11.5t-16 -18.5 t-13.5 -24.5t-10 -29.5l-24 2q8 50 37.5 82.5t70.5 32.5q17 0 32 -7t25 -17t20.5 -22t19.5 -22t21.5 -16.5t26.5 -6.5q16 0 31 11t26.5 30.5t19.5 46.5l24 -2q-8 -50 -37.5 -82t-70.5 -32z" />
<glyph unicode="&#xc4;" horiz-adv-x="518" d="M220 428l-77 -143h259l-18 143q-3 30 -13 114.5t-15 133.5h-4q-19 -40 -39.5 -78t-51.5 -95t-41 -75zM-50 0l396 713h32l91 -713h-33l-31 257h-278l-140 -257h-37zM276 784q-12 0 -20 7.5t-8 20.5q0 12 5 21.5t13 14.5t17 5q28 0 28 -30q0 -11 -5 -20t-13 -14t-17 -5z M456 784q-13 0 -20.5 7.5t-7.5 20.5q0 17 10.5 29t23.5 12q28 0 28 -30q0 -16 -10.5 -27.5t-23.5 -11.5z" />
<glyph unicode="&#xc5;" horiz-adv-x="518" d="M220 428l-77 -143h259l-18 143q-3 30 -13 114.5t-15 133.5h-4q-19 -40 -39.5 -78t-51.5 -95t-41 -75zM-50 0l396 713h32l91 -713h-33l-31 257h-278l-140 -257h-37zM365 758q-33 0 -55.5 21t-22.5 59q0 41 29 69t71 28q15 0 29 -5t25 -14.5t17 -25t6 -35.5 q0 -40 -28.5 -68.5t-70.5 -28.5zM367 782q29 0 50 20.5t21 50.5q0 19 -6 32t-18 20t-30 7q-14 0 -27 -5.5t-22.5 -15t-15.5 -23t-6 -28.5q0 -13 4 -24t11 -18.5t17 -11.5t22 -4z" />
<glyph unicode="&#xc6;" horiz-adv-x="835" d="M315 423l-111 -151h222l82 411h-5zM-35 0l530 713h373l-6 -28h-322l-58 -292h270l-7 -28h-268l-69 -337h333l-7 -28h-362l48 244h-236l-180 -244h-39z" />
<glyph unicode="&#xc7;" horiz-adv-x="578" d="M164 -233l-2 26q43 1 73.5 9.5t45.5 22.5t15 32q0 12 -4.5 21t-14 15t-23 9t-32.5 5l52 81q-103 10 -157 85.5t-54 192.5q0 62 15 127t46 124.5t73 106t100.5 74.5t123.5 28q102 0 164 -100l-26 -17q-50 89 -140 89q-60 0 -113 -26.5t-91 -70.5t-65.5 -99.5t-41 -114.5 t-13.5 -115q0 -115 52 -186t155 -71q50 0 91.5 17.5t83.5 53.5l20 -21q-95 -78 -192 -78l-37 -60q24 -7 37.5 -15.5t18 -19t4.5 -26.5q0 -45 -44.5 -71.5t-119.5 -27.5z" />
<glyph unicode="&#xc8;" horiz-adv-x="522" d="M43 0l143 713h369l-6 -28h-337l-59 -292h285l-6 -28h-283l-69 -337h348l-7 -28h-378zM402 762l-119 132l26 22l110 -138z" />
<glyph unicode="&#xc9;" horiz-adv-x="522" d="M43 0l143 713h369l-6 -28h-337l-59 -292h285l-6 -28h-283l-69 -337h348l-7 -28h-378zM369 773l-13 18l152 118l19 -28z" />
<glyph unicode="&#xca;" horiz-adv-x="522" d="M43 0l143 713h369l-6 -28h-337l-59 -292h285l-6 -28h-283l-69 -337h348l-7 -28h-378zM259 766l-15 17l147 123h30l104 -123l-17 -15l-102 108h-4z" />
<glyph unicode="&#xcb;" horiz-adv-x="522" d="M43 0l143 713h369l-6 -28h-337l-59 -292h285l-6 -28h-283l-69 -337h348l-7 -28h-378zM296 784q-13 0 -20.5 7.5t-7.5 20.5q0 17 10.5 29t23.5 12q28 0 28 -30q0 -16 -10.5 -27.5t-23.5 -11.5zM475 784q-13 0 -20.5 7.5t-7.5 20.5q0 17 10.5 29t24.5 12q28 0 28 -30 q0 -16 -11 -27.5t-24 -11.5z" />
<glyph unicode="&#xcc;" horiz-adv-x="235" d="M43 0l143 713h32l-142 -713h-33zM229 762l-119 132l26 22l110 -138z" />
<glyph unicode="&#xcd;" horiz-adv-x="235" d="M43 0l143 713h32l-142 -713h-33zM197 773l-13 18l151 118l19 -28z" />
<glyph unicode="&#xce;" horiz-adv-x="235" d="M43 0l143 713h32l-142 -713h-33zM86 766l-15 17l147 123h30l104 -123l-17 -15l-102 108h-4z" />
<glyph unicode="&#xcf;" horiz-adv-x="235" d="M43 0l143 713h32l-142 -713h-33zM123 784q-13 0 -20.5 7.5t-7.5 20.5q0 17 10.5 29t24.5 12q28 0 28 -30q0 -16 -11 -27.5t-24 -11.5zM302 784q-13 0 -20.5 7.5t-7.5 20.5q0 12 5 21.5t13 14.5t17 5q28 0 28 -30q0 -16 -10.5 -27.5t-24.5 -11.5z" />
<glyph unicode="&#xd0;" horiz-adv-x="637" d="M58 365l7 26l76 2l64 320h113q143 0 217 -74.5t74 -202.5q0 -91 -24.5 -170t-71 -138.5t-119.5 -93.5t-165 -34h-166l73 365h-78zM99 28h132q81 0 147.5 33t109 89t66 129t23.5 155q0 115 -66.5 183t-195.5 68h-84l-58 -292h183l-6 -28h-183z" />
<glyph unicode="&#xd1;" horiz-adv-x="648" d="M43 0l143 713h36l199 -525l52 -143h4q24 147 35 203l93 465h32l-142 -713h-35l-196 523l-54 149h-5q-12 -79 -37 -201l-92 -471h-33zM503 780q-20 0 -37 9t-29 22.5t-23 27t-25 22.5t-30 9q-25 0 -46 -24t-32 -64l-24 2q8 50 37.5 82.5t70.5 32.5q17 0 32 -7t25 -17 t20.5 -22t19.5 -22t21.5 -16.5t26.5 -6.5q24 0 44 23.5t34 64.5l23 -2q-8 -50 -37.5 -82t-70.5 -32z" />
<glyph unicode="&#xd2;" horiz-adv-x="660" d="M296 -13q-76 0 -128 38.5t-76.5 104t-24.5 153.5q0 48 10 99t29 100.5t48.5 93.5t65.5 77.5t83 53t99 19.5q113 0 171 -80.5t58 -215.5q0 -48 -10.5 -99t-29 -100.5t-48 -93.5t-65.5 -77.5t-83 -53t-99 -19.5zM298 15q47 0 89.5 18.5t75 50.5t58.5 73t43 87t25.5 92.5 t8.5 89.5q0 126 -48.5 199t-149.5 73q-56 0 -106 -26.5t-84.5 -69.5t-60 -97.5t-38 -110t-12.5 -107.5q0 -126 49 -199t150 -73zM449 762l-119 132l26 22l111 -138z" />
<glyph unicode="&#xd3;" horiz-adv-x="660" d="M296 -13q-76 0 -128 38.5t-76.5 104t-24.5 153.5q0 48 10 99t29 100.5t48.5 93.5t65.5 77.5t83 53t99 19.5q113 0 171 -80.5t58 -215.5q0 -48 -10.5 -99t-29 -100.5t-48 -93.5t-65.5 -77.5t-83 -53t-99 -19.5zM298 15q47 0 89.5 18.5t75 50.5t58.5 73t43 87t25.5 92.5 t8.5 89.5q0 126 -48.5 199t-149.5 73q-56 0 -106 -26.5t-84.5 -69.5t-60 -97.5t-38 -110t-12.5 -107.5q0 -126 49 -199t150 -73zM417 773l-13 18l151 118l20 -28z" />
<glyph unicode="&#xd4;" horiz-adv-x="660" d="M296 -13q-76 0 -128 38.5t-76.5 104t-24.5 153.5q0 48 10 99t29 100.5t48.5 93.5t65.5 77.5t83 53t99 19.5q113 0 171 -80.5t58 -215.5q0 -48 -10.5 -99t-29 -100.5t-48 -93.5t-65.5 -77.5t-83 -53t-99 -19.5zM298 15q47 0 89.5 18.5t75 50.5t58.5 73t43 87t25.5 92.5 t8.5 89.5q0 126 -48.5 199t-149.5 73q-56 0 -106 -26.5t-84.5 -69.5t-60 -97.5t-38 -110t-12.5 -107.5q0 -126 49 -199t150 -73zM307 766l-15 17l146 123h31l103 -123l-17 -15l-101 108h-5z" />
<glyph unicode="&#xd5;" horiz-adv-x="660" d="M296 -13q-76 0 -128 38.5t-76.5 104t-24.5 153.5q0 48 10 99t29 100.5t48.5 93.5t65.5 77.5t83 53t99 19.5q113 0 171 -80.5t58 -215.5q0 -48 -10.5 -99t-29 -100.5t-48 -93.5t-65.5 -77.5t-83 -53t-99 -19.5zM298 15q47 0 89.5 18.5t75 50.5t58.5 73t43 87t25.5 92.5 t8.5 89.5q0 126 -48.5 199t-149.5 73q-56 0 -106 -26.5t-84.5 -69.5t-60 -97.5t-38 -110t-12.5 -107.5q0 -126 49 -199t150 -73zM514 780q-20 0 -37 9t-29 22.5t-23.5 27t-25.5 22.5t-30 9q-8 0 -16 -2.5t-15.5 -8t-14 -13.5t-12.5 -17.5t-11 -21.5t-8 -25l-24 2 q8 50 37.5 82.5t70.5 32.5q17 0 32 -7t25 -17t20.5 -22t19.5 -22t21.5 -16.5t26.5 -6.5q16 0 30.5 11t26.5 30.5t20 46.5l24 -2q-8 -50 -37.5 -82t-70.5 -32z" />
<glyph unicode="&#xd6;" horiz-adv-x="660" d="M296 -13q-76 0 -128 38.5t-76.5 104t-24.5 153.5q0 48 10 99t29 100.5t48.5 93.5t65.5 77.5t83 53t99 19.5q113 0 171 -80.5t58 -215.5q0 -48 -10.5 -99t-29 -100.5t-48 -93.5t-65.5 -77.5t-83 -53t-99 -19.5zM298 15q47 0 89.5 18.5t75 50.5t58.5 73t43 87t25.5 92.5 t8.5 89.5q0 126 -48.5 199t-149.5 73q-56 0 -106 -26.5t-84.5 -69.5t-60 -97.5t-38 -110t-12.5 -107.5q0 -126 49 -199t150 -73zM343 784q-13 0 -20.5 7.5t-7.5 20.5q0 17 10.5 29t24.5 12q28 0 28 -30q0 -16 -10.5 -27.5t-24.5 -11.5zM523 784q-13 0 -20.5 7.5t-7.5 20.5 q0 17 10.5 29t23.5 12q28 0 28 -30q0 -16 -10.5 -27.5t-23.5 -11.5z" />
<glyph unicode="&#xd8;" horiz-adv-x="660" d="M296 -13q-118 0 -178 91l-92 -102l-24 20l101 109q-36 73 -36 178q0 48 10 99t29 100.5t48.5 93.5t65.5 77.5t83 53t99 19.5q121 0 181 -95l93 101l17 -19l-97 -107q35 -71 35 -176q0 -48 -10.5 -99t-29 -100.5t-48 -93.5t-65.5 -77.5t-83 -53t-99 -19.5zM99 287 q0 -92 26 -156l436 475q-51 92 -161 92q-56 0 -106 -26.5t-84.5 -69.5t-60 -97.5t-38 -110t-12.5 -107.5zM298 15q47 0 89.5 18.5t75 50.5t58.5 73t43 87t25.5 92.5t8.5 89.5q0 93 -25 154l-434 -478q52 -87 159 -87z" />
<glyph unicode="&#xd9;" horiz-adv-x="641" d="M97 283l87 430h32l-84 -421q-11 -44 -11 -89q0 -60 19 -101.5t58 -64t96 -22.5q75 0 133 59t83 183l90 456h33l-93 -465q-27 -136 -94.5 -198.5t-156.5 -62.5q-94 0 -147 54.5t-53 152.5q0 43 8 89zM436 762l-118 132l25 22l111 -138z" />
<glyph unicode="&#xda;" horiz-adv-x="641" d="M97 283l87 430h32l-84 -421q-11 -44 -11 -89q0 -60 19 -101.5t58 -64t96 -22.5q75 0 133 59t83 183l90 456h33l-93 -465q-27 -136 -94.5 -198.5t-156.5 -62.5q-94 0 -147 54.5t-53 152.5q0 43 8 89zM404 773l-13 18l151 118l20 -28z" />
<glyph unicode="&#xdb;" horiz-adv-x="641" d="M97 283l87 430h32l-84 -421q-11 -44 -11 -89q0 -60 19 -101.5t58 -64t96 -22.5q75 0 133 59t83 183l90 456h33l-93 -465q-27 -136 -94.5 -198.5t-156.5 -62.5q-94 0 -147 54.5t-53 152.5q0 43 8 89zM294 766l-15 17l147 123h30l103 -123l-17 -15l-101 108h-5z" />
<glyph unicode="&#xdc;" horiz-adv-x="641" d="M97 283l87 430h32l-84 -421q-11 -44 -11 -89q0 -60 19 -101.5t58 -64t96 -22.5q75 0 133 59t83 183l90 456h33l-93 -465q-27 -136 -94.5 -198.5t-156.5 -62.5q-94 0 -147 54.5t-53 152.5q0 43 8 89zM330 784q-12 0 -20 7.5t-8 20.5q0 12 5 21.5t13 14.5t17 5q28 0 28 -30 q0 -16 -10.5 -27.5t-24.5 -11.5zM510 784q-13 0 -20.5 7.5t-7.5 20.5q0 17 10.5 29t23.5 12q28 0 28 -30q0 -16 -10.5 -27.5t-23.5 -11.5z" />
<glyph unicode="&#xdd;" horiz-adv-x="455" d="M151 0l60 295l-118 418h32l64 -232q31 -114 42 -154h3q15 21 34 49t38 55.5t34 49.5l163 232h35l-295 -418l-59 -295h-33zM302 773l-13 18l152 118l19 -28z" />
<glyph unicode="&#xde;" horiz-adv-x="578" d="M43 0l143 713h32l-26 -134h147q207 0 207 -162q0 -115 -78.5 -174t-219.5 -59h-136l-36 -184h-33zM119 212h123q134 0 203 51t69 152q0 71 -48.5 103.5t-145.5 32.5h-134z" />
<glyph unicode="&#xdf;" horiz-adv-x="552" d="M335 -13q-80 0 -145 58l20 22q62 -52 127 -52q53 0 91.5 34t38.5 85q0 35 -18 63.5t-44 48.5t-51.5 39t-43.5 44t-18 55t11.5 56t29.5 44t38.5 39t38.5 39.5t29.5 45.5t11.5 57q0 45 -22 72.5t-68 27.5q-61 0 -106.5 -55t-62.5 -138l-114 -572h-30l116 583q19 90 72 150 t127 60q56 0 87.5 -33.5t31.5 -94.5q0 -40 -16.5 -73.5t-40 -56.5t-47 -44.5t-40 -46.5t-16.5 -53t18 -52t43.5 -42t51.5 -38t44 -50t18 -69q0 -42 -20.5 -76.5t-58 -55.5t-83.5 -21z" />
<glyph unicode="&#xe0;" horiz-adv-x="565" d="M201 -13q-70 0 -110.5 48.5t-40.5 137.5q0 58 15 113t42.5 98.5t62.5 76.5t76.5 50.5t83.5 17.5q90 0 137 -86h4l19 73h26l-103 -516h-26l13 84h-5q-93 -97 -194 -97zM203 15q102 0 205 117l56 270q-57 99 -136 99q-63 0 -121 -47t-92.5 -121.5t-34.5 -153.5 q0 -81 32.5 -122.5t90.5 -41.5zM389 616l-123 172l28 20l116 -177z" />
<glyph unicode="&#xe1;" horiz-adv-x="565" d="M201 -13q-70 0 -110.5 48.5t-40.5 137.5q0 58 15 113t42.5 98.5t62.5 76.5t76.5 50.5t83.5 17.5q90 0 137 -86h4l19 73h26l-103 -516h-26l13 84h-5q-93 -97 -194 -97zM203 15q102 0 205 117l56 270q-57 99 -136 99q-63 0 -121 -47t-92.5 -121.5t-34.5 -153.5 q0 -81 32.5 -122.5t90.5 -41.5zM318 626l-18 20l167 153l21 -26z" />
<glyph unicode="&#xe2;" horiz-adv-x="565" d="M201 -13q-70 0 -110.5 48.5t-40.5 137.5q0 58 15 113t42.5 98.5t62.5 76.5t76.5 50.5t83.5 17.5q90 0 137 -86h4l19 73h26l-103 -516h-26l13 84h-5q-93 -97 -194 -97zM203 15q102 0 205 117l56 270q-57 99 -136 99q-63 0 -121 -47t-92.5 -121.5t-34.5 -153.5 q0 -81 32.5 -122.5t90.5 -41.5zM229 620l-19 17l155 158h30l100 -160l-22 -15l-93 142h-4z" />
<glyph unicode="&#xe3;" horiz-adv-x="565" d="M201 -13q-70 0 -110.5 48.5t-40.5 137.5q0 58 15 113t42.5 98.5t62.5 76.5t76.5 50.5t83.5 17.5q90 0 137 -86h4l19 73h26l-103 -516h-26l13 84h-5q-93 -97 -194 -97zM203 15q102 0 205 117l56 270q-57 99 -136 99q-63 0 -121 -47t-92.5 -121.5t-34.5 -153.5 q0 -81 32.5 -122.5t90.5 -41.5zM441 626q-26 0 -46 17.5t-30.5 38t-28 38t-38.5 17.5q-54 0 -78 -108l-28 2q32 131 110 131q18 0 33 -8t24.5 -20t19 -26.5t18 -26.5t21 -20.5t27.5 -8.5q53 0 78 108l28 -2q-33 -132 -110 -132z" />
<glyph unicode="&#xe4;" horiz-adv-x="565" d="M201 -13q-70 0 -110.5 48.5t-40.5 137.5q0 58 15 113t42.5 98.5t62.5 76.5t76.5 50.5t83.5 17.5q90 0 137 -86h4l19 73h26l-103 -516h-26l13 84h-5q-93 -97 -194 -97zM203 15q102 0 205 117l56 270q-57 99 -136 99q-63 0 -121 -47t-92.5 -121.5t-34.5 -153.5 q0 -81 32.5 -122.5t90.5 -41.5zM270 650q-13 0 -20.5 7.5t-7.5 20.5q0 18 10.5 29.5t23.5 11.5q29 0 29 -30q0 -16 -11 -27.5t-24 -11.5zM449 650q-13 0 -20.5 7.5t-7.5 20.5q0 18 10.5 29.5t24.5 11.5q28 0 28 -30q0 -10 -5 -19.5t-13 -14.5t-17 -5z" />
<glyph unicode="&#xe5;" horiz-adv-x="565" d="M201 -13q-70 0 -110.5 48.5t-40.5 137.5q0 58 15 113t42.5 98.5t62.5 76.5t76.5 50.5t83.5 17.5q90 0 137 -86h4l19 73h26l-103 -516h-26l13 84h-5q-93 -97 -194 -97zM203 15q102 0 205 117l56 270q-57 99 -136 99q-63 0 -121 -47t-92.5 -121.5t-34.5 -153.5 q0 -81 32.5 -122.5t90.5 -41.5zM354 592q-37 0 -61.5 21.5t-24.5 60.5q0 47 30 82t76 35q37 0 61.5 -22t24.5 -61q0 -47 -30 -81.5t-76 -34.5zM356 616q32 0 55 26.5t23 63.5q0 14 -4.5 25t-12.5 19t-19.5 12.5t-25.5 4.5q-16 0 -30.5 -7.5t-25 -19.5t-16.5 -29t-6 -35 t7.5 -32t21.5 -21t33 -7z" />
<glyph unicode="&#xe6;" horiz-adv-x="827" d="M43 110q0 53 25 91.5t73 62.5t111.5 37t147.5 17q8 37 8 66q0 58 -24.5 87.5t-81.5 29.5q-70 0 -155 -52l-13 26q91 54 171 54q60 0 95 -32t38 -95q38 59 90.5 93t106.5 34q79 0 116 -48.5t37 -132.5q0 -43 -13 -87h-354q-21 -106 20 -176t123 -70q64 0 136 52l15 -24 q-76 -56 -153 -56q-37 0 -70.5 15t-57.5 41.5t-34 60.5q-117 -117 -229 -117q-54 0 -91 32.5t-37 90.5zM428 289h324q6 33 6 65q0 62 -30.5 104.5t-94.5 42.5q-65 0 -125 -60.5t-80 -151.5zM395 289q-150 -3 -236 -46t-86 -126q0 -49 29.5 -75.5t74.5 -26.5t101.5 29.5 t112.5 87.5q-11 76 4 157z" />
<glyph unicode="&#xe7;" horiz-adv-x="462" d="M89 -233l-3 26q33 0 58.5 5.5t42 14t25 20t8.5 24.5q0 24 -17.5 35.5t-55.5 14.5l52 82q-47 6 -81 31t-52 68.5t-18 101.5q0 74 24 138.5t62.5 107.5t88 68t99.5 25q41 0 71.5 -15.5t57.5 -46.5l-21 -22q-25 30 -49.5 43t-60.5 13q-60 0 -116 -41.5t-91 -112.5t-35 -150 q0 -182 151 -182q68 0 140 56l18 -23q-79 -61 -158 -61l-37 -60q36 -10 48.5 -23.5t12.5 -37.5q0 -45 -45 -71.5t-119 -27.5z" />
<glyph unicode="&#xe8;" horiz-adv-x="505" d="M48 199q0 71 23 134t60 105t85 66.5t97 24.5q79 0 116.5 -48.5t37.5 -132.5q0 -43 -13 -87h-370q-22 -122 25 -184t135 -62q62 0 134 52l15 -24q-76 -56 -151 -56q-91 0 -142.5 55t-51.5 157zM91 289h339q6 33 6 65q0 62 -30 104.5t-95 42.5q-73 0 -136 -60t-84 -152z M367 616l-123 172l28 20l117 -177z" />
<glyph unicode="&#xe9;" horiz-adv-x="505" d="M48 199q0 71 23 134t60 105t85 66.5t97 24.5q79 0 116.5 -48.5t37.5 -132.5q0 -43 -13 -87h-370q-22 -122 25 -184t135 -62q62 0 134 52l15 -24q-76 -56 -151 -56q-91 0 -142.5 55t-51.5 157zM91 289h339q6 33 6 65q0 62 -30 104.5t-95 42.5q-73 0 -136 -60t-84 -152z M296 626l-17 20l166 153l22 -26z" />
<glyph unicode="&#xea;" horiz-adv-x="505" d="M48 199q0 71 23 134t60 105t85 66.5t97 24.5q79 0 116.5 -48.5t37.5 -132.5q0 -43 -13 -87h-370q-22 -122 25 -184t135 -62q62 0 134 52l15 -24q-76 -56 -151 -56q-91 0 -142.5 55t-51.5 157zM91 289h339q6 33 6 65q0 62 -30 104.5t-95 42.5q-73 0 -136 -60t-84 -152z M207 620l-19 17l155 158h31l99 -160l-22 -15l-92 142h-5z" />
<glyph unicode="&#xeb;" horiz-adv-x="505" d="M48 199q0 71 23 134t60 105t85 66.5t97 24.5q79 0 116.5 -48.5t37.5 -132.5q0 -43 -13 -87h-370q-22 -122 25 -184t135 -62q62 0 134 52l15 -24q-76 -56 -151 -56q-91 0 -142.5 55t-51.5 157zM91 289h339q6 33 6 65q0 62 -30 104.5t-95 42.5q-73 0 -136 -60t-84 -152z M248 650q-13 0 -20.5 7.5t-7.5 20.5q0 18 10.5 29.5t24.5 11.5q28 0 28 -30q0 -16 -10.5 -27.5t-24.5 -11.5zM428 650q-13 0 -20.5 7.5t-7.5 20.5q0 18 10.5 29.5t23.5 11.5q28 0 28 -30q0 -16 -10.5 -27.5t-23.5 -11.5z" />
<glyph unicode="&#xec;" horiz-adv-x="231" d="M48 0l103 516h30l-103 -516h-30zM229 616l-123 172l28 20l117 -177z" />
<glyph unicode="&#xed;" horiz-adv-x="231" d="M48 0l103 516h30l-103 -516h-30zM158 626l-18 20l167 153l21 -26z" />
<glyph unicode="&#xee;" horiz-adv-x="231" d="M48 0l103 516h30l-103 -516h-30zM69 620l-19 17l155 158h30l100 -160l-22 -15l-93 142h-4z" />
<glyph unicode="&#xef;" horiz-adv-x="231" d="M48 0l103 516h30l-103 -516h-30zM110 650q-13 0 -20.5 7.5t-7.5 20.5q0 18 10.5 29.5t24.5 11.5q28 0 28 -30q0 -16 -11 -27.5t-24 -11.5zM289 650q-13 0 -20.5 7.5t-7.5 20.5q0 18 10.5 29.5t24.5 11.5q28 0 28 -30q0 -16 -10.5 -27.5t-24.5 -11.5z" />
<glyph unicode="&#xf0;" horiz-adv-x="555" d="M227 -13q-50 0 -90 26t-61.5 69t-21.5 95q0 78 30.5 145.5t89.5 110t133 42.5q81 0 147 -87q-7 149 -79 249l-161 -69l-9 24l155 66q-45 54 -116 100l17 22q73 -46 126 -110l157 67l9 -24l-151 -65q82 -115 82 -281q0 -105 -32 -191.5t-91 -137.5t-134 -51zM233 15 q62 0 112 46t77.5 120t31.5 161q-69 105 -149 105q-64 0 -115.5 -38.5t-78.5 -99t-27 -128.5q0 -69 40.5 -117.5t108.5 -48.5z" />
<glyph unicode="&#xf1;" horiz-adv-x="544" d="M48 0l103 516h26l-13 -84h4q22 18 39 31.5t36.5 26.5t37 21t36.5 13t37 5q64 0 93.5 -33.5t29.5 -91.5q0 -29 -8 -69l-67 -335h-30l66 330q9 44 9 70q0 34 -10 56t-31.5 33.5t-55.5 11.5q-77 0 -194 -114l-78 -387h-30zM447 626q-26 0 -45.5 17.5t-30.5 38t-28 38 t-38 17.5q-55 0 -78 -108l-28 2q32 131 110 131q26 0 45.5 -17t30.5 -37.5t28 -38t38 -17.5q54 0 78 108l28 -2q-33 -132 -110 -132z" />
<glyph unicode="&#xf2;" horiz-adv-x="540" d="M220 -13q-78 0 -124 53.5t-46 149.5q0 94 38 172.5t100 122.5t132 44q78 0 124 -53.5t46 -149.5q0 -93 -38 -172t-100 -123t-132 -44zM222 15q58 0 113 41.5t90 112.5t35 151q0 59 -16.5 99.5t-48.5 61t-77 20.5q-58 0 -113 -41t-90 -112.5t-35 -150.5q0 -89 37 -135.5 t105 -46.5zM393 616l-123 172l28 20l117 -177z" />
<glyph unicode="&#xf3;" horiz-adv-x="540" d="M220 -13q-78 0 -124 53.5t-46 149.5q0 94 38 172.5t100 122.5t132 44q78 0 124 -53.5t46 -149.5q0 -93 -38 -172t-100 -123t-132 -44zM222 15q58 0 113 41.5t90 112.5t35 151q0 59 -16.5 99.5t-48.5 61t-77 20.5q-58 0 -113 -41t-90 -112.5t-35 -150.5q0 -89 37 -135.5 t105 -46.5zM322 626l-17 20l166 153l21 -26z" />
<glyph unicode="&#xf4;" horiz-adv-x="540" d="M220 -13q-78 0 -124 53.5t-46 149.5q0 94 38 172.5t100 122.5t132 44q78 0 124 -53.5t46 -149.5q0 -93 -38 -172t-100 -123t-132 -44zM222 15q58 0 113 41.5t90 112.5t35 151q0 59 -16.5 99.5t-48.5 61t-77 20.5q-58 0 -113 -41t-90 -112.5t-35 -150.5q0 -89 37 -135.5 t105 -46.5zM233 620l-19 17l155 158h31l99 -160l-22 -15l-93 142h-4z" />
<glyph unicode="&#xf5;" horiz-adv-x="540" d="M220 -13q-78 0 -124 53.5t-46 149.5q0 94 38 172.5t100 122.5t132 44q78 0 124 -53.5t46 -149.5q0 -93 -38 -172t-100 -123t-132 -44zM222 15q58 0 113 41.5t90 112.5t35 151q0 59 -16.5 99.5t-48.5 61t-77 20.5q-58 0 -113 -41t-90 -112.5t-35 -150.5q0 -89 37 -135.5 t105 -46.5zM445 626q-26 0 -46 17.5t-30.5 38t-27.5 38t-39 17.5q-54 0 -77 -108l-28 2q31 131 110 131q25 0 45 -17t31 -37.5t28 -38t38 -17.5q54 0 78 108l28 -2q-33 -132 -110 -132z" />
<glyph unicode="&#xf6;" horiz-adv-x="540" d="M220 -13q-78 0 -124 53.5t-46 149.5q0 94 38 172.5t100 122.5t132 44q78 0 124 -53.5t46 -149.5q0 -93 -38 -172t-100 -123t-132 -44zM222 15q58 0 113 41.5t90 112.5t35 151q0 59 -16.5 99.5t-48.5 61t-77 20.5q-58 0 -113 -41t-90 -112.5t-35 -150.5q0 -89 37 -135.5 t105 -46.5zM274 650q-13 0 -20.5 7.5t-7.5 20.5q0 18 10.5 29.5t24.5 11.5q28 0 28 -30q0 -16 -10.5 -27.5t-24.5 -11.5zM454 650q-13 0 -20.5 7.5t-7.5 20.5q0 18 10.5 29.5t23.5 11.5q28 0 28 -30q0 -16 -10.5 -27.5t-23.5 -11.5z" />
<glyph unicode="&#xf7;" d="M52 343v29h419v-29h-419zM261.5 123q-14.5 0 -23.5 11t-9 26t9 24.5t23.5 9.5t23.5 -9.5t9 -24.5t-9 -26t-23.5 -11zM261.5 516q-14.5 0 -23.5 11t-9 26t9 25t23.5 10t23.5 -10t9 -25t-9 -26t-23.5 -11z" />
<glyph unicode="&#xf8;" horiz-adv-x="540" d="M220 -13q-85 0 -130 62l-71 -73l-19 20l75 76q-25 48 -25 118q0 94 38 172.5t100 122.5t132 44q89 0 135 -66l72 75l19 -20l-77 -80q21 -48 21 -112q0 -93 -38 -172t-100 -123t-132 -44zM80 197q0 -62 17 -101l336 345q-38 60 -115 60q-58 0 -113 -41t-90 -112.5 t-35 -150.5zM222 15q58 0 113 41.5t90 112.5t35 151q0 54 -15 95l-334 -345q36 -55 111 -55z" />
<glyph unicode="&#xf9;" horiz-adv-x="555" d="M505 516l-103 -516h-26l13 86h-5q-56 -49 -99 -74t-86 -25q-64 0 -93.5 33.5t-29.5 91.5q0 29 8 69l67 335h30l-67 -330q-8 -43 -8 -69q0 -52 23 -77t74 -25q77 0 194 115l78 386h30zM382 616l-123 172l28 20l117 -177z" />
<glyph unicode="&#xfa;" horiz-adv-x="555" d="M505 516l-103 -516h-26l13 86h-5q-56 -49 -99 -74t-86 -25q-64 0 -93.5 33.5t-29.5 91.5q0 29 8 69l67 335h30l-67 -330q-8 -43 -8 -69q0 -52 23 -77t74 -25q77 0 194 115l78 386h30zM311 626l-17 20l166 153l22 -26z" />
<glyph unicode="&#xfb;" horiz-adv-x="555" d="M505 516l-103 -516h-26l13 86h-5q-56 -49 -99 -74t-86 -25q-64 0 -93.5 33.5t-29.5 91.5q0 29 8 69l67 335h30l-67 -330q-8 -43 -8 -69q0 -52 23 -77t74 -25q77 0 194 115l78 386h30zM222 620l-19 17l156 158h30l99 -160l-21 -15l-93 142h-5z" />
<glyph unicode="&#xfc;" horiz-adv-x="555" d="M505 516l-103 -516h-26l13 86h-5q-56 -49 -99 -74t-86 -25q-64 0 -93.5 33.5t-29.5 91.5q0 29 8 69l67 335h30l-67 -330q-8 -43 -8 -69q0 -52 23 -77t74 -25q77 0 194 115l78 386h30zM264 650q-13 0 -21 7.5t-8 20.5q0 18 11 29.5t24 11.5q28 0 28 -30q0 -16 -10.5 -27.5 t-23.5 -11.5zM443 650q-13 0 -20.5 7.5t-7.5 20.5q0 18 10.5 29.5t23.5 11.5q28 0 28 -30q0 -16 -10.5 -27.5t-23.5 -11.5z" />
<glyph unicode="&#xfd;" horiz-adv-x="440" d="M-43 -240q-23 0 -48 11l13 26q18 -9 37 -9q91 0 166 154l24 47l-86 527h30l54 -337q13 -76 24 -153h4q26 50 82 153l184 337h32l-324 -587q-18 -35 -35 -61t-41 -52.5t-53.5 -41t-62.5 -14.5zM246 626l-17 20l166 153l22 -26z" />
<glyph unicode="&#xfe;" horiz-adv-x="561" d="M0 -240l203 1020h30l-47 -234l-22 -105h2q110 88 197 88q69 0 110 -48.5t41 -137.5q0 -72 -24 -138.5t-63 -114t-90 -75.5t-104 -28q-86 0 -140 86h-2l-24 -118l-37 -195h-30zM235 15q64 0 122 47t92.5 121.5t34.5 153.5q0 80 -32.5 122t-90.5 42q-30 0 -66 -13 t-71 -35.5t-66 -50.5l-59 -292q57 -95 136 -95z" />
<glyph unicode="&#xff;" horiz-adv-x="440" d="M-43 -240q-23 0 -48 11l13 26q18 -9 37 -9q91 0 166 154l24 47l-86 527h30l54 -337q13 -76 24 -153h4q26 50 82 153l184 337h32l-324 -587q-18 -35 -35 -61t-41 -52.5t-53.5 -41t-62.5 -14.5zM199 650q-13 0 -20.5 7.5t-7.5 20.5q0 18 10.5 29.5t23.5 11.5q28 0 28 -30 q0 -16 -10.5 -27.5t-23.5 -11.5zM378 650q-13 0 -20.5 7.5t-7.5 20.5q0 18 10.5 29.5t23.5 11.5q29 0 29 -30q0 -16 -11 -27.5t-24 -11.5z" />
<glyph unicode="&#x100;" horiz-adv-x="518" d="M220 428l-77 -143h259l-18 143q-3 30 -13 114.5t-15 133.5h-4q-19 -40 -39.5 -78t-51.5 -95t-41 -75zM-50 0l396 713h32l91 -713h-33l-31 257h-278l-140 -257h-37zM240 795l6 28h249l-7 -28h-248z" />
<glyph unicode="&#x101;" horiz-adv-x="565" d="M201 -13q-70 0 -110.5 48.5t-40.5 137.5q0 58 15 113t42.5 98.5t62.5 76.5t76.5 50.5t83.5 17.5q90 0 137 -86h4l19 73h26l-103 -516h-26l13 84h-5q-93 -97 -194 -97zM203 15q102 0 205 117l56 270q-57 99 -136 99q-63 0 -121 -47t-92.5 -121.5t-34.5 -153.5 q0 -81 32.5 -122.5t90.5 -41.5zM231 657l4 28h251l-4 -28h-251z" />
<glyph unicode="&#x102;" horiz-adv-x="518" d="M220 428l-77 -143h259l-18 143q-3 30 -13 114.5t-15 133.5h-4q-19 -40 -39.5 -78t-51.5 -95t-41 -75zM-50 0l396 713h32l91 -713h-33l-31 257h-278l-140 -257h-37zM356 769q-32 0 -56.5 12t-37.5 32t-18.5 42t-3.5 46l28 4q-3 -46 20.5 -77t74.5 -31q50 0 84 30.5 t50 77.5l28 -4q-15 -52 -59 -92t-110 -40z" />
<glyph unicode="&#x103;" horiz-adv-x="565" d="M201 -13q-70 0 -110.5 48.5t-40.5 137.5q0 58 15 113t42.5 98.5t62.5 76.5t76.5 50.5t83.5 17.5q90 0 137 -86h4l19 73h26l-103 -516h-26l13 84h-5q-93 -97 -194 -97zM203 15q102 0 205 117l56 270q-57 99 -136 99q-63 0 -121 -47t-92.5 -121.5t-34.5 -153.5 q0 -81 32.5 -122.5t90.5 -41.5zM350 616q-38 0 -65 14.5t-40 39t-18 50.5t-5 53l29 5q-4 -53 22.5 -93.5t82.5 -40.5q29 0 54.5 11.5t44.5 31.5t32.5 43t22.5 48l28 -5q-8 -27 -22.5 -53t-37 -50.5t-56 -39t-72.5 -14.5z" />
<glyph unicode="&#x104;" horiz-adv-x="518" d="M408 -218q-32 0 -51.5 17t-19.5 50q0 39 29.5 80t71.5 71h-2l-31 257h-278l-140 -257h-37l396 713h32l91 -713q-100 -76 -100 -145q0 -20 11.5 -32.5t29.5 -12.5q23 0 46 13l11 -24q-32 -17 -59 -17zM220 428l-77 -143h259l-18 143q-3 30 -13 114.5t-15 133.5h-4 q-19 -40 -39.5 -78t-51.5 -95t-41 -75z" />
<glyph unicode="&#x105;" horiz-adv-x="565" d="M328 -218q-21 0 -36.5 7t-25 22.5t-9.5 37.5q0 44 38 88.5t94 73.5l11 75h-3q-95 -99 -196 -99q-70 0 -110.5 48.5t-40.5 137.5q0 58 15 113t42.5 98.5t62.5 76.5t76.5 50.5t83.5 17.5q46 0 81.5 -24t57.5 -64h2l19 75h26l-103 -516q-58 -33 -91 -70.5t-33 -74.5 q0 -20 11.5 -32.5t29.5 -12.5q23 0 46 13l11 -24q-31 -17 -59 -17zM203 15q46 0 101.5 31t103.5 86l56 272q-29 52 -62 74.5t-74 22.5q-63 0 -121 -47t-92.5 -121.5t-34.5 -153.5q0 -81 32.5 -122.5t90.5 -41.5z" />
<glyph unicode="&#x106;" horiz-adv-x="578" d="M300 -13q-115 0 -176 77.5t-61 201.5q0 62 15 127t46 124.5t73 106t100.5 74.5t123.5 28q102 0 164 -100l-26 -17q-50 89 -140 89q-60 0 -113 -26.5t-91 -70.5t-65.5 -99.5t-41 -114.5t-13.5 -115q0 -115 52 -186t155 -71q50 0 91.5 17.5t83.5 53.5l20 -21 q-48 -39 -94.5 -58.5t-102.5 -19.5zM417 773l-13 18l151 118l20 -28z" />
<glyph unicode="&#x107;" horiz-adv-x="462" d="M227 -13q-84 0 -131.5 53.5t-47.5 149.5q0 74 24 138.5t62.5 107.5t88 68t99.5 25q41 0 71.5 -15.5t57.5 -46.5l-21 -22q-25 30 -49.5 43t-60.5 13q-60 0 -116 -41.5t-91 -112.5t-35 -150q0 -182 151 -182q68 0 140 56l18 -23q-79 -61 -160 -61zM305 626l-18 20l167 153 l21 -26z" />
<glyph unicode="&#x108;" horiz-adv-x="578" d="M300 -13q-115 0 -176 77.5t-61 201.5q0 62 15 127t46 124.5t73 106t100.5 74.5t123.5 28q102 0 164 -100l-26 -17q-50 89 -140 89q-60 0 -113 -26.5t-91 -70.5t-65.5 -99.5t-41 -114.5t-13.5 -115q0 -115 52 -186t155 -71q50 0 91.5 17.5t83.5 53.5l20 -21 q-48 -39 -94.5 -58.5t-102.5 -19.5zM307 766l-15 17l146 123h31l103 -123l-17 -15l-101 108h-5z" />
<glyph unicode="&#x109;" horiz-adv-x="462" d="M227 -13q-84 0 -131.5 53.5t-47.5 149.5q0 74 24 138.5t62.5 107.5t88 68t99.5 25q41 0 71.5 -15.5t57.5 -46.5l-21 -22q-25 30 -49.5 43t-60.5 13q-60 0 -116 -41.5t-91 -112.5t-35 -150q0 -182 151 -182q68 0 140 56l18 -23q-79 -61 -160 -61zM216 620l-19 17l155 158 h30l100 -160l-22 -15l-93 142h-4z" />
<glyph unicode="&#x10a;" horiz-adv-x="578" d="M300 -13q-115 0 -176 77.5t-61 201.5q0 62 15 127t46 124.5t73 106t100.5 74.5t123.5 28q102 0 164 -100l-26 -17q-50 89 -140 89q-60 0 -113 -26.5t-91 -70.5t-65.5 -99.5t-41 -114.5t-13.5 -115q0 -115 52 -186t155 -71q50 0 91.5 17.5t83.5 53.5l20 -21 q-48 -39 -94.5 -58.5t-102.5 -19.5zM432 784q-13 0 -21.5 8.5t-8.5 21.5q0 19 11.5 31.5t27.5 12.5q13 0 21.5 -9t8.5 -24q0 -17 -12 -29t-27 -12z" />
<glyph unicode="&#x10b;" horiz-adv-x="462" d="M227 -13q-84 0 -131.5 53.5t-47.5 149.5q0 74 24 138.5t62.5 107.5t88 68t99.5 25q41 0 71.5 -15.5t57.5 -46.5l-21 -22q-25 30 -49.5 43t-60.5 13q-60 0 -116 -41.5t-91 -112.5t-35 -150q0 -182 151 -182q68 0 140 56l18 -23q-79 -61 -160 -61zM343 648q-13 0 -21.5 8.5 t-8.5 21.5q0 19 12 31t27 12q13 0 21.5 -9t8.5 -23q0 -17 -11.5 -29t-27.5 -12z" />
<glyph unicode="&#x10c;" horiz-adv-x="578" d="M300 -13q-115 0 -176 77.5t-61 201.5q0 62 15 127t46 124.5t73 106t100.5 74.5t123.5 28q102 0 164 -100l-26 -17q-50 89 -140 89q-60 0 -113 -26.5t-91 -70.5t-65.5 -99.5t-41 -114.5t-13.5 -115q0 -115 52 -186t155 -71q50 0 91.5 17.5t83.5 53.5l20 -21 q-48 -39 -94.5 -58.5t-102.5 -19.5zM410 767l-103 123l17 15l102 -108h4l142 110l16 -17l-147 -123h-31z" />
<glyph unicode="&#x10d;" horiz-adv-x="462" d="M227 -13q-84 0 -131.5 53.5t-47.5 149.5q0 74 24 138.5t62.5 107.5t88 68t99.5 25q41 0 71.5 -15.5t57.5 -46.5l-21 -22q-25 30 -49.5 43t-60.5 13q-60 0 -116 -41.5t-91 -112.5t-35 -150q0 -182 151 -182q68 0 140 56l18 -23q-79 -61 -160 -61zM320 618l-100 160l22 15 l93 -143h4l147 143l19 -18l-155 -157h-30z" />
<glyph unicode="&#x10e;" horiz-adv-x="617" d="M43 0l143 713h112q143 0 217.5 -74.5t74.5 -202.5q0 -73 -15.5 -138t-46.5 -119.5t-76 -94.5t-107 -62t-135 -22h-167zM80 28h132q81 0 147.5 33t109 89t65.5 129t23 155q0 115 -66 183t-195 68h-84zM372 767l-104 123l17 15l102 -108h4l143 110l15 -17l-147 -123h-30z " />
<glyph unicode="&#x10f;" horiz-adv-x="561" d="M471 443l21 103l48 234h30l-157 -780h-26l13 84h-5q-93 -97 -194 -97q-70 0 -110.5 48.5t-40.5 137.5q0 58 15 113t42.5 98.5t62.5 76.5t76.5 50.5t83.5 17.5q90 0 137 -86h4zM203 15q102 0 205 117l56 270q-57 99 -136 99q-63 0 -121 -47t-92.5 -121.5t-34.5 -153.5 q0 -81 32.5 -122.5t90.5 -41.5zM592 592l43 220h30l-8 -52l-41 -168h-24z" />
<glyph unicode="&#x110;" horiz-adv-x="637" d="M58 365l7 26l76 2l64 320h113q143 0 217 -74.5t74 -202.5q0 -91 -24.5 -170t-71 -138.5t-119.5 -93.5t-165 -34h-166l73 365h-78zM99 28h132q81 0 147.5 33t109 89t66 129t23.5 155q0 115 -66.5 183t-195.5 68h-84l-58 -292h183l-6 -28h-183z" />
<glyph unicode="&#x111;" horiz-adv-x="563" d="M201 -13q-70 0 -110.5 48.5t-40.5 137.5q0 86 39.5 164t104 124.5t134.5 46.5q91 0 134 -87h5l21 104l22 106h-180l7 28h178l25 121h30l-25 -121h81l-6 -24l-80 -4l-127 -631h-26l13 84h-5q-93 -97 -194 -97zM203 15q102 0 205 117l52 248q-54 100 -134 100 q-47 0 -93 -27.5t-79 -70.5t-53.5 -97t-20.5 -106q0 -81 32.5 -122.5t90.5 -41.5z" />
<glyph unicode="&#x112;" horiz-adv-x="522" d="M43 0l143 713h369l-6 -28h-337l-59 -292h285l-6 -28h-283l-69 -337h348l-7 -28h-378zM259 795l7 28h248l-6 -28h-249z" />
<glyph unicode="&#x113;" horiz-adv-x="505" d="M48 199q0 71 23 134t60 105t85 66.5t97 24.5q79 0 116.5 -48.5t37.5 -132.5q0 -43 -13 -87h-370q-22 -122 25 -184t135 -62q62 0 134 52l15 -24q-76 -56 -151 -56q-91 0 -142.5 55t-51.5 157zM91 289h339q6 33 6 65q0 62 -30 104.5t-95 42.5q-73 0 -136 -60t-84 -152z M210 657l4 28h250l-4 -28h-250z" />
<glyph unicode="&#x116;" horiz-adv-x="522" d="M43 0l143 713h369l-6 -28h-337l-59 -292h285l-6 -28h-283l-69 -337h348l-7 -28h-378zM384 784q-12 0 -21 8.5t-9 21.5q0 19 12 31.5t27 12.5q13 0 21.5 -9t8.5 -24q0 -17 -11.5 -29t-27.5 -12z" />
<glyph unicode="&#x117;" horiz-adv-x="505" d="M48 199q0 71 23 134t60 105t85 66.5t97 24.5q79 0 116.5 -48.5t37.5 -132.5q0 -43 -13 -87h-370q-22 -122 25 -184t135 -62q62 0 134 52l15 -24q-76 -56 -151 -56q-91 0 -142.5 55t-51.5 157zM91 289h339q6 33 6 65q0 62 -30 104.5t-95 42.5q-73 0 -136 -60t-84 -152z M335 648q-13 0 -21.5 8.5t-8.5 21.5q0 19 11.5 31t26.5 12q14 0 22.5 -9t8.5 -23q0 -17 -12 -29t-27 -12z" />
<glyph unicode="&#x118;" horiz-adv-x="522" d="M43 0l143 713h369l-6 -28h-337l-59 -292h285l-6 -28h-283l-69 -337h348l-7 -28q-48 -5 -90 -53.5t-42 -91.5q0 -20 11.5 -32.5t29.5 -12.5q23 0 46 13l11 -24q-31 -17 -59 -17q-21 0 -36.5 7t-25 22.5t-9.5 37.5q0 39 30 81.5t69 69.5h-313z" />
<glyph unicode="&#x119;" horiz-adv-x="505" d="M201 -151q0 20 8 41.5t22 40t29 34t32 29.5q-26 -7 -50 -7q-91 0 -142.5 55t-51.5 157q0 71 23 134t60 105t85 66.5t97 24.5q79 0 116.5 -48.5t37.5 -132.5q0 -43 -13 -87h-370q-22 -122 25 -184t135 -62q62 0 134 52l15 -24q-160 -108 -160 -188q0 -20 11.5 -32.5 t29.5 -12.5q23 0 46 13l10 -24q-31 -17 -58 -17q-32 0 -51.5 17t-19.5 50zM91 289h339q6 33 6 65q0 62 -30 104.5t-95 42.5q-73 0 -136 -60t-84 -152z" />
<glyph unicode="&#x11a;" horiz-adv-x="522" d="M43 0l143 713h369l-6 -28h-337l-59 -292h285l-6 -28h-283l-69 -337h348l-7 -28h-378zM363 767l-104 123l17 15l102 -108h4l143 110l15 -17l-147 -123h-30z" />
<glyph unicode="&#x11b;" horiz-adv-x="505" d="M48 199q0 71 23 134t60 105t85 66.5t97 24.5q79 0 116.5 -48.5t37.5 -132.5q0 -43 -13 -87h-370q-22 -122 25 -184t135 -62q62 0 134 52l15 -24q-76 -56 -151 -56q-91 0 -142.5 55t-51.5 157zM91 289h339q6 33 6 65q0 62 -30 104.5t-95 42.5q-73 0 -136 -60t-84 -152z M311 618l-99 160l21 15l93 -143h4l147 143l20 -18l-156 -157h-30z" />
<glyph unicode="&#x11c;" horiz-adv-x="615" d="M311 -13q-122 0 -185 76t-63 203q0 64 15 128.5t46 124t74 106t104 74t130 27.5q102 0 164 -100l-26 -17q-50 89 -140 89q-63 0 -118 -26.5t-94 -70.5t-67 -99.5t-42 -114.5t-14 -115q0 -54 12 -99.5t37.5 -81.5t68.5 -56t100 -20q94 0 156 58l47 240h-170l6 28h203 l-58 -283q-82 -71 -186 -71zM307 766l-15 17l146 123h31l103 -123l-17 -15l-101 108h-5z" />
<glyph unicode="&#x11d;" horiz-adv-x="559" d="M179 -253q-89 0 -173 72l20 23q71 -67 155 -67q77 0 123.5 51t64.5 142l26 125q-101 -97 -196 -97q-45 0 -78.5 20.5t-52 62.5t-18.5 100q0 70 23.5 135.5t62 112t88.5 74.5t100 28q89 0 136 -86h4l20 73h26l-115 -568q-20 -94 -75 -147.5t-141 -53.5zM201 24 q45 0 99.5 29.5t101.5 80.5l56 268q-31 52 -64 75.5t-72 23.5q-45 0 -89.5 -28t-78 -72t-54 -101.5t-20.5 -113.5q0 -80 31.5 -121t89.5 -41zM227 620l-20 17l156 158h30l99 -160l-21 -15l-93 142h-4z" />
<glyph unicode="&#x11e;" horiz-adv-x="615" d="M311 -13q-122 0 -185 76t-63 203q0 64 15 128.5t46 124t74 106t104 74t130 27.5q102 0 164 -100l-26 -17q-50 89 -140 89q-63 0 -118 -26.5t-94 -70.5t-67 -99.5t-42 -114.5t-14 -115q0 -54 12 -99.5t37.5 -81.5t68.5 -56t100 -20q94 0 156 58l47 240h-170l6 28h203 l-58 -283q-82 -71 -186 -71zM423 769q-32 0 -56.5 12t-37.5 32t-18.5 42t-3.5 46l28 4q-3 -46 20.5 -77t74.5 -31q50 0 84 30.5t50 77.5l28 -4q-6 -19 -15 -37t-24 -35.5t-33.5 -30.5t-43.5 -21t-53 -8z" />
<glyph unicode="&#x11f;" horiz-adv-x="559" d="M179 -253q-89 0 -173 72l20 23q71 -67 155 -67q77 0 123.5 51t64.5 142l26 125q-101 -97 -196 -97q-45 0 -78.5 20.5t-52 62.5t-18.5 100q0 70 23.5 135.5t62 112t88.5 74.5t100 28q89 0 136 -86h4l20 73h26l-115 -568q-20 -94 -75 -147.5t-141 -53.5zM201 24 q45 0 99.5 29.5t101.5 80.5l56 268q-31 52 -64 75.5t-72 23.5q-45 0 -89.5 -28t-78 -72t-54 -101.5t-20.5 -113.5q0 -80 31.5 -121t89.5 -41zM348 616q-38 0 -65 14.5t-40 39t-18.5 50.5t-4.5 53l28 5q-3 -53 23.5 -93.5t82.5 -40.5q29 0 54.5 11.5t44.5 31.5t32.5 43 t22.5 48l28 -5q-8 -27 -22.5 -53t-37 -50.5t-56 -39t-72.5 -14.5z" />
<glyph unicode="&#x120;" horiz-adv-x="615" d="M311 -13q-122 0 -185 76t-63 203q0 64 15 128.5t46 124t74 106t104 74t130 27.5q102 0 164 -100l-26 -17q-50 89 -140 89q-63 0 -118 -26.5t-94 -70.5t-67 -99.5t-42 -114.5t-14 -115q0 -54 12 -99.5t37.5 -81.5t68.5 -56t100 -20q94 0 156 58l47 240h-170l6 28h203 l-58 -283q-82 -71 -186 -71zM432 784q-13 0 -21.5 8.5t-8.5 21.5q0 19 11.5 31.5t27.5 12.5q13 0 21.5 -9t8.5 -24q0 -17 -12 -29t-27 -12z" />
<glyph unicode="&#x121;" horiz-adv-x="559" d="M179 -253q-89 0 -173 72l20 23q71 -67 155 -67q77 0 123.5 51t64.5 142l26 125q-101 -97 -196 -97q-45 0 -78.5 20.5t-52 62.5t-18.5 100q0 70 23.5 135.5t62 112t88.5 74.5t100 28q89 0 136 -86h4l20 73h26l-115 -568q-20 -94 -75 -147.5t-141 -53.5zM201 24 q45 0 99.5 29.5t101.5 80.5l56 268q-31 52 -64 75.5t-72 23.5q-45 0 -89.5 -28t-78 -72t-54 -101.5t-20.5 -113.5q0 -80 31.5 -121t89.5 -41zM354 648q-13 0 -21.5 8.5t-8.5 21.5t5.5 23t14.5 15t19 5q13 0 21.5 -9t8.5 -23q0 -17 -12 -29t-27 -12z" />
<glyph unicode="&#x122;" horiz-adv-x="615" d="M311 -13q-122 0 -185 76t-63 203q0 64 15 128.5t46 124t74 106t104 74t130 27.5q102 0 164 -100l-26 -17q-50 89 -140 89q-63 0 -118 -26.5t-94 -70.5t-67 -99.5t-42 -114.5t-14 -115q0 -54 12 -99.5t37.5 -81.5t68.5 -56t100 -20q94 0 156 58l47 240h-170l6 28h203 l-58 -283q-82 -71 -186 -71zM184 -225l-3 26q65 2 99.5 19.5t34.5 45.5q0 24 -17.5 35t-55.5 15l11 26q29 -4 47.5 -9.5t29 -14t14.5 -18.5t4 -25q0 -46 -45 -72t-119 -28z" />
<glyph unicode="&#x123;" horiz-adv-x="559" d="M179 -253q-89 0 -173 72l20 23q71 -67 155 -67q77 0 123.5 51t64.5 142l26 125q-101 -97 -196 -97q-45 0 -78.5 20.5t-52 62.5t-18.5 100q0 70 23.5 135.5t62 112t88.5 74.5t100 28q89 0 136 -86h4l20 73h26l-115 -568q-20 -94 -75 -147.5t-141 -53.5zM201 24 q45 0 99.5 29.5t101.5 80.5l56 268q-31 52 -64 75.5t-72 23.5q-45 0 -89.5 -28t-78 -72t-54 -101.5t-20.5 -113.5q0 -80 31.5 -121t89.5 -41zM391 629q-39 5 -59.5 13.5t-28 21t-7.5 32.5q0 30 21 52t57.5 34t85.5 13l2 -26q-43 -1 -73.5 -10t-45.5 -23t-15 -32 q0 -23 18 -34.5t56 -15.5z" />
<glyph unicode="&#x124;" horiz-adv-x="645" d="M43 0l143 713h32l-65 -320h385l65 320h32l-143 -713h-32l74 365h-385l-73 -365h-33zM287 766l-15 17l147 123h30l104 -123l-17 -15l-102 108h-4z" />
<glyph unicode="&#x125;" horiz-adv-x="537" d="M48 0l155 780h30l-60 -300l-13 -50h4q59 50 103 74.5t87 24.5q64 0 93.5 -33.5t29.5 -91.5q0 -29 -8 -69l-67 -335h-30l66 330q9 44 9 70q0 34 -10 56t-31.5 33.5t-55.5 11.5q-77 0 -194 -114l-78 -387h-30zM99 811l-15 17l147 123h30l104 -123l-17 -15l-102 108h-4z" />
<glyph unicode="&#x126;" horiz-adv-x="680" d="M86 536l7 26l78 2l30 149h32l-30 -149h385l30 149h32l-30 -149h80l-7 -28h-78l-107 -536h-33l74 365h-385l-73 -365h-33l107 536h-79zM168 393h385l29 143h-384z" />
<glyph unicode="&#x127;" horiz-adv-x="537" d="M48 0l125 631h-78l4 23l80 5l24 121h30l-25 -121h202l-6 -28h-201l-35 -173l-12 -50h4q59 50 103 75t87 25q63 0 93 -33.5t30 -92.5q0 -28 -9 -69l-62 -313h-30l62 309q9 43 9 69q0 51 -23 76.5t-74 25.5q-77 0 -195 -115l-73 -365h-30z" />
<glyph unicode="&#x12a;" horiz-adv-x="235" d="M43 0l143 713h32l-142 -713h-33zM86 795l7 28h248l-6 -28h-249z" />
<glyph unicode="&#x12b;" horiz-adv-x="231" d="M48 0l103 516h30l-103 -516h-30zM71 657l5 28h250l-4 -28h-251z" />
<glyph unicode="&#x12e;" horiz-adv-x="235" d="M24 -218q-15 0 -27.5 4t-22 12t-14.5 21t-5 30q0 38 28 80t62 71h-2l143 713h32l-142 -713q-89 -80 -89 -145q0 -20 11.5 -32.5t29.5 -12.5q23 0 45 13l11 -20q-12 -9 -30 -15t-30 -6z" />
<glyph unicode="&#x12f;" horiz-adv-x="231" d="M24 -218q-32 0 -52 17t-20 50q0 39 30 81.5t68 69.5h-2l103 516h30l-103 -516q-93 -82 -93 -145q0 -20 11.5 -32.5t29.5 -12.5q23 0 45 13l11 -24q-31 -17 -58 -17zM194 648q-13 0 -21.5 8.5t-8.5 21.5q0 19 12 31t27 12q13 0 21.5 -9t8.5 -23q0 -17 -11.5 -29t-27.5 -12 z" />
<glyph unicode="&#x130;" horiz-adv-x="235" d="M43 0l143 713h32l-142 -713h-33zM212 784q-13 0 -22 8.5t-9 21.5q0 19 12 31.5t27 12.5q13 0 22 -9t9 -24q0 -11 -6 -21t-15 -15t-18 -5z" />
<glyph unicode="&#x131;" horiz-adv-x="231" d="M48 0l103 516h30l-103 -516h-30z" />
<glyph unicode="&#x134;" horiz-adv-x="462" d="M158 -13q-118 0 -156 110l28 13q29 -95 130 -95q41 0 73.5 21.5t53.5 59t31 88.5l105 529h33l-106 -532q-17 -90 -67 -142t-125 -52zM324 766l-15 17l147 123h30l104 -123l-18 -15l-101 108h-4z" />
<glyph unicode="&#x135;" horiz-adv-x="231" d="M-65 -253q-32 0 -62 18l13 25q22 -15 51 -15q61 0 87 113l127 628h30l-125 -622q-31 -147 -121 -147zM63 620l-20 17l156 158h30l99 -160l-21 -15l-93 142h-4z" />
<glyph unicode="&#x136;" horiz-adv-x="563" d="M43 0l143 713h32l-80 -400h2l428 400h41l-272 -259l164 -454h-34l-156 432l-181 -168l-54 -264h-33zM158 -225l-2 26q64 2 98.5 19.5t34.5 45.5q0 24 -17.5 35t-55.5 15l11 26q56 -8 75.5 -23t19.5 -44q0 -46 -45 -72t-119 -28z" />
<glyph unicode="&#x137;" horiz-adv-x="470" d="M48 0l155 780h30l-116 -590h2l322 326h39l-201 -207l125 -309h-32l-117 287l-149 -151l-28 -136h-30zM95 -225l-2 26q64 2 99 19.5t35 45.5q0 16 -8.5 26.5t-24.5 16t-41 7.5l11 26q56 -8 75.5 -23t19.5 -44q0 -30 -21 -52.5t-57.5 -34.5t-85.5 -13z" />
<glyph unicode="&#x139;" horiz-adv-x="466" d="M43 0l143 713h32l-136 -685h324l-6 -28h-357zM197 773l-13 18l151 118l19 -28z" />
<glyph unicode="&#x13a;" horiz-adv-x="244" d="M93 -13q-17 0 -28 10t-11 29q0 6 4 28l145 726h30l-144 -728q-3 -11 -3 -22q0 -15 16 -15q6 0 17 4l4 -25q-16 -7 -30 -7zM213 827l-13 18l151 118l19 -28z" />
<glyph unicode="&#x13b;" horiz-adv-x="466" d="M43 0l143 713h32l-136 -685h324l-6 -28h-357zM110 -225l-2 26q64 2 99 19.5t35 45.5q0 16 -8.5 26.5t-24 16t-41.5 7.5l11 26q39 -6 59.5 -14.5t28 -20.5t7.5 -32q0 -30 -20.5 -52.5t-57.5 -34.5t-86 -13z" />
<glyph unicode="&#x13c;" horiz-adv-x="244" d="M93 -13q-17 0 -28 10t-11 29q0 6 4 28l145 726h30l-144 -728q-3 -11 -3 -22q0 -15 16 -15q6 0 17 4l4 -25q-16 -7 -30 -7zM-60 -225l-3 26q65 2 99.5 19.5t34.5 45.5q0 24 -17.5 35t-55.5 15l11 26q56 -8 75.5 -23t19.5 -44q0 -46 -45 -72t-119 -28z" />
<glyph unicode="&#x13d;" horiz-adv-x="466" d="M43 0l143 713h32l-136 -685h324l-6 -28h-357zM381 557l43 221h31l-9 -52l-41 -169h-24z" />
<glyph unicode="&#x13e;" horiz-adv-x="226" d="M93 -13q-17 0 -28 10t-11 29q0 6 4 28l145 726h30l-144 -728q-3 -11 -3 -22q0 -15 16 -15q6 0 17 4l4 -25q-16 -7 -30 -7zM257 592l43 220h30l-8 -52l-41 -168h-24z" />
<glyph unicode="&#x13f;" horiz-adv-x="466" d="M43 0l143 713h32l-136 -685h324l-6 -28h-357zM365 315q-9 0 -16 4.5t-10.5 12t-3.5 16.5q0 18 14 33.5t31 15.5q28 0 28 -34q0 -18 -13 -33t-30 -15z" />
<glyph unicode="&#x140;" horiz-adv-x="278" d="M93 -13q-17 0 -28 10t-11 29q0 6 4 28l145 726h30l-144 -728q-3 -11 -3 -22q0 -15 16 -15q6 0 17 4l4 -25q-16 -7 -30 -7zM266 313q-14 0 -22.5 9.5t-8.5 23.5q0 11 6.5 22.5t17 19t22.5 7.5q28 0 28 -34q0 -19 -13 -33.5t-30 -14.5z" />
<glyph unicode="&#x141;" horiz-adv-x="466" d="M9 240l-11 26l109 52l79 395h32l-75 -381l218 104l11 -26l-236 -111l-54 -271h324l-6 -28h-357l57 284z" />
<glyph unicode="&#x142;" horiz-adv-x="244" d="M93 -13q-17 0 -28 10t-11 29q0 6 4 28l71 351l-71 -42l-10 24l87 53l68 340h30l-63 -322l81 50l10 -24l-98 -60l-74 -372q-3 -11 -3 -22q0 -15 16 -15q6 0 17 4l4 -25q-16 -7 -30 -7z" />
<glyph unicode="&#x143;" horiz-adv-x="648" d="M43 0l143 713h36l199 -525l52 -143h4q24 147 35 203l93 465h32l-142 -713h-35l-196 523l-54 149h-5q-12 -79 -37 -201l-92 -471h-33zM406 773l-13 18l151 118l20 -28z" />
<glyph unicode="&#x144;" horiz-adv-x="544" d="M48 0l103 516h26l-13 -84h4q22 18 39 31.5t36.5 26.5t37 21t36.5 13t37 5q64 0 93.5 -33.5t29.5 -91.5q0 -29 -8 -69l-67 -335h-30l66 330q9 44 9 70q0 34 -10 56t-31.5 33.5t-55.5 11.5q-77 0 -194 -114l-78 -387h-30zM324 626l-17 20l166 153l22 -26z" />
<glyph unicode="&#x145;" horiz-adv-x="648" d="M43 0l143 713h36l199 -525l52 -143h4q24 147 35 203l93 465h32l-142 -713h-35l-196 523l-54 149h-5q-12 -79 -37 -201l-92 -471h-33zM151 -233l-2 26q43 1 73.5 9.5t45.5 22.5t15 32q0 24 -18 35.5t-55 14.5l10 26q57 -8 76 -22.5t19 -44.5q0 -45 -44.5 -71.5 t-119.5 -27.5z" />
<glyph unicode="&#x146;" horiz-adv-x="544" d="M48 0l103 516h26l-13 -84h4q22 18 39 31.5t36.5 26.5t37 21t36.5 13t37 5q64 0 93.5 -33.5t29.5 -91.5q0 -29 -8 -69l-67 -335h-30l66 330q9 44 9 70q0 34 -10 56t-31.5 33.5t-55.5 11.5q-77 0 -194 -114l-78 -387h-30zM110 -225l-2 26q64 2 99 19.5t35 45.5 q0 16 -8.5 26.5t-24 16t-41.5 7.5l11 26q39 -6 59.5 -14.5t28 -20.5t7.5 -32q0 -30 -20.5 -52.5t-57.5 -34.5t-86 -13z" />
<glyph unicode="&#x147;" horiz-adv-x="648" d="M43 0l143 713h36l199 -525l52 -143h4q24 147 35 203l93 465h32l-142 -713h-35l-196 523l-54 149h-5q-12 -79 -37 -201l-92 -471h-33zM400 767l-104 123l17 15l102 -108h4l143 110l15 -17l-147 -123h-30z" />
<glyph unicode="&#x148;" horiz-adv-x="544" d="M48 0l103 516h26l-13 -84h4q22 18 39 31.5t36.5 26.5t37 21t36.5 13t37 5q64 0 93.5 -33.5t29.5 -91.5q0 -29 -8 -69l-67 -335h-30l66 330q9 44 9 70q0 34 -10 56t-31.5 33.5t-55.5 11.5q-77 0 -194 -114l-78 -387h-30zM339 618l-99 160l21 15l93 -143h5l146 143l20 -18 l-156 -157h-30z" />
<glyph unicode="&#x150;" horiz-adv-x="660" d="M296 -13q-76 0 -128 38.5t-76.5 104t-24.5 153.5q0 48 10 99t29 100.5t48.5 93.5t65.5 77.5t83 53t99 19.5q113 0 171 -80.5t58 -215.5q0 -48 -10.5 -99t-29 -100.5t-48 -93.5t-65.5 -77.5t-83 -53t-99 -19.5zM298 15q47 0 89.5 18.5t75 50.5t58.5 73t43 87t25.5 92.5 t8.5 89.5q0 126 -48.5 199t-149.5 73q-56 0 -106 -26.5t-84.5 -69.5t-60 -97.5t-38 -110t-12.5 -107.5q0 -126 49 -199t150 -73zM367 771l-19 13l121 147l23 -19zM516 771l-19 13l121 147l24 -19z" />
<glyph unicode="&#x151;" horiz-adv-x="540" d="M220 -13q-78 0 -124 53.5t-46 149.5q0 94 38 172.5t100 122.5t132 44q78 0 124 -53.5t46 -149.5q0 -93 -38 -172t-100 -123t-132 -44zM222 15q58 0 113 41.5t90 112.5t35 151q0 59 -16.5 99.5t-48.5 61t-77 20.5q-58 0 -113 -41t-90 -112.5t-35 -150.5q0 -89 37 -135.5 t105 -46.5zM298 620l-19 13l125 168l24 -19zM436 620l-19 13l125 168l24 -19z" />
<glyph unicode="&#x152;" horiz-adv-x="866" d="M359 0q-144 0 -218 74.5t-74 201.5q0 92 24.5 171t71 138.5t120 93.5t164.5 34h452l-7 -28h-311l-58 -292h259l-7 -28h-257l-69 -337h322l-6 -28h-406zM361 28h58l132 657h-106q-81 0 -147.5 -33t-109 -89.5t-66 -129.5t-23.5 -154q0 -115 66.5 -183t195.5 -68z" />
<glyph unicode="&#x153;" horiz-adv-x="889" d="M220 -13q-78 0 -124 53.5t-46 149.5q0 94 38 172.5t100 122.5t132 44t114 -42t54 -120q34 75 91.5 118.5t118.5 43.5q79 0 116 -48.5t37 -132.5q0 -43 -13 -87h-350q-19 -122 23 -184t118 -62q62 0 133 52l16 -24q-77 -56 -152 -56q-72 0 -117.5 44.5t-54.5 128.5 q-36 -79 -99 -126t-135 -47zM222 15q58 0 113 41.5t90 112.5t35 151q0 59 -16.5 99.5t-48.5 61t-77 20.5q-58 0 -113 -41t-90 -112.5t-35 -150.5q0 -89 37 -135.5t105 -46.5zM495 289h319q7 33 7 65q0 29 -7 54.5t-21 46.5t-39 33.5t-58 12.5q-67 0 -124.5 -60t-76.5 -152z " />
<glyph unicode="&#x154;" horiz-adv-x="563" d="M43 0l143 713h173q205 0 205 -154q0 -93 -65.5 -153.5t-169.5 -69.5l140 -336h-37l-137 335h-152l-67 -335h-33zM149 363h132q119 0 184.5 51.5t65.5 142.5q0 68 -47 98t-145 30h-127zM369 773l-13 18l152 118l19 -28z" />
<glyph unicode="&#x155;" horiz-adv-x="332" d="M48 0l103 516h26l-17 -97h4q79 110 162 110q22 0 46 -8l-13 -31q-18 9 -39 9q-43 0 -90.5 -40.5t-82.5 -110.5l-69 -348h-30zM233 626l-17 20l166 153l22 -26z" />
<glyph unicode="&#x158;" horiz-adv-x="563" d="M43 0l143 713h173q205 0 205 -154q0 -93 -65.5 -153.5t-169.5 -69.5l140 -336h-37l-137 335h-152l-67 -335h-33zM149 363h132q119 0 184.5 51.5t65.5 142.5q0 68 -47 98t-145 30h-127zM363 767l-104 123l17 15l102 -108h4l143 110l15 -17l-147 -123h-30z" />
<glyph unicode="&#x159;" horiz-adv-x="332" d="M48 0l103 516h26l-17 -97h4q79 110 162 110q22 0 46 -8l-13 -31q-18 9 -39 9q-43 0 -90.5 -40.5t-82.5 -110.5l-69 -348h-30zM248 618l-99 160l22 15l93 -143h4l147 143l19 -18l-155 -157h-31z" />
<glyph unicode="&#x15a;" horiz-adv-x="527" d="M244 -13q-150 0 -225 119l26 17q71 -108 203 -108q54 0 98 21.5t69.5 61.5t25.5 92q0 87 -93 140l-95 57q-113 66 -113 159q0 74 56 127t143 53q42 0 79.5 -13.5t64.5 -34t46 -47.5l-24 -20q-66 87 -172 87q-47 0 -84.5 -22t-56.5 -55.5t-19 -69.5q0 -48 25.5 -80 t69.5 -56l93 -54q112 -65 112 -167q0 -92 -65 -149.5t-164 -57.5zM356 771l-13 17l152 119l19 -28z" />
<glyph unicode="&#x15b;" horiz-adv-x="414" d="M171 -13q-53 0 -100.5 28.5t-70.5 66.5l24 17q22 -36 62 -60t89 -24q57 0 98.5 35t41.5 82q0 34 -20 59.5t-79 56.5q-73 39 -101.5 69.5t-28.5 69.5q0 63 46.5 102.5t111.5 39.5q81 0 138 -60l-21 -22q-50 54 -119 54q-34 0 -63 -14.5t-45.5 -39.5t-16.5 -54 q0 -35 24.5 -58.5t72.5 -49.5q43 -23 70.5 -43.5t40 -38.5t17 -32t4.5 -33q0 -68 -49.5 -109.5t-125.5 -41.5zM246 626l-17 20l166 153l22 -26z" />
<glyph unicode="&#x15c;" horiz-adv-x="527" d="M244 -13q-150 0 -225 119l26 17q71 -108 203 -108q54 0 98 21.5t69.5 61.5t25.5 92q0 87 -93 140l-95 57q-113 66 -113 159q0 74 56 127t143 53q42 0 79.5 -13.5t64.5 -34t46 -47.5l-24 -20q-66 87 -172 87q-47 0 -84.5 -22t-56.5 -55.5t-19 -69.5q0 -48 25.5 -80 t69.5 -56l93 -54q112 -65 112 -167q0 -92 -65 -149.5t-164 -57.5zM246 765l-15 17l147 123h30l104 -123l-17 -15l-102 108h-4z" />
<glyph unicode="&#x15d;" horiz-adv-x="414" d="M171 -13q-53 0 -100.5 28.5t-70.5 66.5l24 17q22 -36 62 -60t89 -24q57 0 98.5 35t41.5 82q0 34 -20 59.5t-79 56.5q-73 39 -101.5 69.5t-28.5 69.5q0 63 46.5 102.5t111.5 39.5q81 0 138 -60l-21 -22q-50 54 -119 54q-34 0 -63 -14.5t-45.5 -39.5t-16.5 -54 q0 -35 24.5 -58.5t72.5 -49.5q43 -23 70.5 -43.5t40 -38.5t17 -32t4.5 -33q0 -68 -49.5 -109.5t-125.5 -41.5zM158 620l-20 17l156 158h30l99 -160l-21 -15l-93 142h-4z" />
<glyph unicode="&#x15e;" horiz-adv-x="527" d="M244 -13h-2l-37 -60q36 -10 48.5 -23.5t12.5 -37.5q0 -45 -45 -71.5t-119 -27.5l-3 26q33 0 58.5 5.5t42 14t25 20t8.5 24.5q0 24 -17.5 35.5t-55.5 14.5l52 81q-127 13 -193 118l26 17q71 -108 203 -108q54 0 98 21.5t69.5 61.5t25.5 92q0 87 -93 140l-95 57 q-113 66 -113 159q0 74 56 127t143 53q42 0 79.5 -13.5t64.5 -34t46 -47.5l-24 -20q-66 87 -172 87q-47 0 -84.5 -22t-56.5 -55.5t-19 -69.5q0 -48 25.5 -80t69.5 -56l93 -54q112 -65 112 -167q0 -92 -65 -149.5t-164 -57.5z" />
<glyph unicode="&#x15f;" horiz-adv-x="414" d="M56 -233l-2 26q33 0 58.5 5.5t42 14t25 20t8.5 24.5q0 12 -4.5 21t-14 15t-23 9t-32.5 5l51 80q-51 2 -97 30.5t-68 64.5l24 17q22 -36 62 -60t89 -24q57 0 98.5 35t41.5 82q0 34 -20 59.5t-79 56.5q-73 39 -101.5 69.5t-28.5 69.5q0 63 46.5 102.5t111.5 39.5 q81 0 138 -60l-21 -22q-50 54 -119 54q-34 0 -63 -14.5t-45.5 -39.5t-16.5 -54q0 -35 24.5 -58.5t72.5 -49.5q43 -23 70.5 -43.5t40 -38.5t17 -32t4.5 -33q0 -41 -19.5 -73.5t-53 -52t-76.5 -24.5l-37 -61q35 -10 47.5 -23.5t12.5 -37.5q0 -45 -44.5 -71.5t-119.5 -27.5z " />
<glyph unicode="&#x160;" horiz-adv-x="527" d="M244 -13q-150 0 -225 119l26 17q71 -108 203 -108q54 0 98 21.5t69.5 61.5t25.5 92q0 87 -93 140l-95 57q-113 66 -113 159q0 74 56 127t143 53q42 0 79.5 -13.5t64.5 -34t46 -47.5l-24 -20q-66 87 -172 87q-47 0 -84.5 -22t-56.5 -55.5t-19 -69.5q0 -48 25.5 -80 t69.5 -56l93 -54q112 -65 112 -167q0 -92 -65 -149.5t-164 -57.5zM350 765l-104 123l18 15l101 -108h4l143 110l15 -17l-147 -123h-30z" />
<glyph unicode="&#x161;" horiz-adv-x="414" d="M171 -13q-53 0 -100.5 28.5t-70.5 66.5l24 17q22 -36 62 -60t89 -24q57 0 98.5 35t41.5 82q0 34 -20 59.5t-79 56.5q-73 39 -101.5 69.5t-28.5 69.5q0 63 46.5 102.5t111.5 39.5q81 0 138 -60l-21 -22q-50 54 -119 54q-34 0 -63 -14.5t-45.5 -39.5t-16.5 -54 q0 -35 24.5 -58.5t72.5 -49.5q43 -23 70.5 -43.5t40 -38.5t17 -32t4.5 -33q0 -68 -49.5 -109.5t-125.5 -41.5zM261 618l-99 160l22 15l92 -143h5l147 143l19 -18l-155 -157h-31z" />
<glyph unicode="&#x162;" horiz-adv-x="531" d="M67 -233l-2 26q64 1 99 19t35 45q0 12 -4.5 21t-14 15t-23 9t-32.5 5l61 95h8l136 681h-222l6 30h478l-7 -30h-222l-136 -683h-12l-44 -73q35 -10 47.5 -23.5t12.5 -37.5q0 -45 -45 -71.5t-119 -27.5z" />
<glyph unicode="&#x163;" horiz-adv-x="313" d="M48 -233l-3 26q33 0 58.5 5.5t42 14t25 20t8.5 24.5q0 24 -17.5 35.5t-55.5 14.5l52 82q-41 6 -59.5 32t-18.5 63q0 15 4 50l74 354h-82l4 24l84 4l35 149h26l-31 -149h143l-7 -28h-142l-74 -356q-4 -26 -4 -41q0 -39 17 -57.5t59 -18.5q26 0 65 20l10 -24 q-42 -24 -73 -24l-37 -60q25 -7 38 -15.5t18 -19t5 -26.5q0 -45 -45 -71.5t-119 -27.5z" />
<glyph unicode="&#x164;" horiz-adv-x="531" d="M194 0l136 683h-222l6 30h478l-7 -30h-222l-136 -683h-33zM335 767l-104 123l17 15l102 -108h4l143 110l15 -17l-147 -123h-30z" />
<glyph unicode="&#x165;" horiz-adv-x="313" d="M184 -13q-38 0 -62 14t-33 35t-9 48q0 15 4 50l74 354h-82l4 24l84 4l35 149h26l-31 -149h143l-7 -28h-142l-74 -356q-4 -26 -4 -41q0 -39 17 -57.5t59 -18.5q26 0 65 20l10 -24q-42 -24 -77 -24zM324 592l43 220h30l-8 -52l-41 -168h-24z" />
<glyph unicode="&#x16a;" horiz-adv-x="641" d="M97 283l87 430h32l-84 -421q-11 -44 -11 -89q0 -60 19 -101.5t58 -64t96 -22.5q75 0 133 59t83 183l90 456h33l-93 -465q-27 -136 -94.5 -198.5t-156.5 -62.5q-94 0 -147 54.5t-53 152.5q0 43 8 89zM294 795l6 28h249l-7 -28h-248z" />
<glyph unicode="&#x16b;" horiz-adv-x="555" d="M505 516l-103 -516h-26l13 86h-5q-56 -49 -99 -74t-86 -25q-64 0 -93.5 33.5t-29.5 91.5q0 29 8 69l67 335h30l-67 -330q-8 -43 -8 -69q0 -52 23 -77t74 -25q77 0 194 115l78 386h30zM225 657l4 28h251l-5 -28h-250z" />
<glyph unicode="&#x16c;" horiz-adv-x="641" d="M97 283l87 430h32l-84 -421q-11 -44 -11 -89q0 -60 19 -101.5t58 -64t96 -22.5q75 0 133 59t83 183l90 456h33l-93 -465q-27 -136 -94.5 -198.5t-156.5 -62.5q-94 0 -147 54.5t-53 152.5q0 43 8 89zM410 769q-32 0 -56.5 12t-37.5 32t-18.5 42t-3.5 46l28 4 q-3 -46 20.5 -77t74.5 -31q50 0 84 30.5t50 77.5l28 -4q-15 -52 -59 -92t-110 -40z" />
<glyph unicode="&#x16d;" horiz-adv-x="555" d="M505 516l-103 -516h-26l13 86h-5q-56 -49 -99 -74t-86 -25q-64 0 -93.5 33.5t-29.5 91.5q0 29 8 69l67 335h30l-67 -330q-8 -43 -8 -69q0 -52 23 -77t74 -25q77 0 194 115l78 386h30zM343 616q-37 0 -64 14.5t-40 39t-18.5 50.5t-4.5 53l28 5q-4 -53 23 -93.5t83 -40.5 q38 0 70.5 21t52 49.5t30.5 63.5l28 -5q-8 -27 -22.5 -53t-36.5 -50.5t-55.5 -39t-73.5 -14.5z" />
<glyph unicode="&#x16e;" horiz-adv-x="641" d="M97 283l87 430h32l-84 -421q-11 -44 -11 -89q0 -60 19 -101.5t58 -64t96 -22.5q75 0 133 59t83 183l90 456h33l-93 -465q-27 -136 -94.5 -198.5t-156.5 -62.5q-94 0 -147 54.5t-53 152.5q0 43 8 89zM419 758q-33 0 -55.5 21t-22.5 59q0 41 29 69t71 28q21 0 38 -8.5 t28 -27t11 -44.5q0 -40 -28.5 -68.5t-70.5 -28.5zM421 782q29 0 50 20.5t21 50.5q0 19 -6 32t-18 20t-30 7q-14 0 -27 -5.5t-22.5 -15t-15.5 -23t-6 -28.5q0 -13 4 -24t11 -18.5t17 -11.5t22 -4z" />
<glyph unicode="&#x16f;" horiz-adv-x="555" d="M505 516l-103 -516h-26l13 86h-5q-56 -49 -99 -74t-86 -25q-64 0 -93.5 33.5t-29.5 91.5q0 29 8 69l67 335h30l-67 -330q-8 -43 -8 -69q0 -52 23 -77t74 -25q77 0 194 115l78 386h30zM348 592q-38 0 -62.5 21.5t-24.5 60.5q0 47 30 82t76 35q38 0 62.5 -22t24.5 -61 q0 -47 -30 -81.5t-76 -34.5zM350 616q32 0 55 26.5t23 63.5q0 19 -7.5 32.5t-22 21t-33.5 7.5q-32 0 -55 -27t-23 -64q0 -28 17 -44t46 -16z" />
<glyph unicode="&#x170;" horiz-adv-x="641" d="M97 283l87 430h32l-84 -421q-11 -44 -11 -89q0 -60 19 -101.5t58 -64t96 -22.5q75 0 133 59t83 183l90 456h33l-93 -465q-27 -136 -94.5 -198.5t-156.5 -62.5q-94 0 -147 54.5t-53 152.5q0 43 8 89zM354 771l-19 13l121 147l24 -19zM503 771l-19 13l121 147l24 -19z" />
<glyph unicode="&#x171;" horiz-adv-x="555" d="M505 516l-103 -516h-26l13 86h-5q-56 -49 -99 -74t-86 -25q-64 0 -93.5 33.5t-29.5 91.5q0 29 8 69l67 335h30l-67 -330q-8 -43 -8 -69q0 -52 23 -77t74 -25q77 0 194 115l78 386h30zM287 620l-19 13l125 168l24 -19zM426 620l-20 13l125 168l24 -19z" />
<glyph unicode="&#x172;" horiz-adv-x="641" d="M633 713l-93 -465q-23 -114 -71.5 -172.5t-127.5 -84.5q-61 -20 -94 -59.5t-33 -76.5q0 -20 11.5 -32.5t29.5 -12.5q23 0 45 13l11 -24q-31 -17 -58 -17q-32 0 -52 17t-20 50t25.5 71.5t63.5 66.5q-88 8 -134.5 61.5t-46.5 145.5q0 43 8 89l87 430h32l-84 -421 q-11 -44 -11 -89q0 -60 19 -101.5t58 -64t96 -22.5q75 0 133 59t83 183l90 456h33z" />
<glyph unicode="&#x173;" horiz-adv-x="555" d="M318 -218q-33 0 -52.5 17t-19.5 50q0 44 38 88.5t94 73.5l11 75h-5q-56 -49 -99 -74t-86 -25q-64 0 -93.5 33.5t-29.5 91.5q0 29 8 69l67 335h30l-67 -330q-8 -43 -8 -69q0 -52 23 -77t74 -25q77 0 194 115l78 386h30l-103 -516q-58 -33 -90.5 -70.5t-32.5 -74.5 q0 -20 11.5 -32.5t29.5 -12.5q22 0 45 13l11 -24q-31 -17 -58 -17z" />
<glyph unicode="&#x178;" horiz-adv-x="455" d="M151 0l60 295l-118 418h32l64 -232q31 -114 42 -154h3q15 21 34 49t38 55.5t34 49.5l163 232h35l-295 -418l-59 -295h-33zM229 784q-13 0 -20.5 7.5t-7.5 20.5q0 17 10.5 29t23.5 12q29 0 29 -30q0 -16 -11 -27.5t-24 -11.5zM408 784q-13 0 -20.5 7.5t-7.5 20.5 q0 17 10.5 29t24.5 12q28 0 28 -30q0 -16 -10.5 -27.5t-24.5 -11.5z" />
<glyph unicode="&#x179;" horiz-adv-x="542" d="M2 0l4 19l519 666h-361l7 28h399l-4 -20l-516 -665h399l-6 -28h-441zM359 773l-13 18l151 118l19 -28z" />
<glyph unicode="&#x17a;" horiz-adv-x="414" d="M-11 0l2 19l402 469h-274l6 28h313l-2 -19l-401 -469h315l-7 -28h-354zM261 626l-17 20l166 153l22 -26z" />
<glyph unicode="&#x17b;" horiz-adv-x="542" d="M2 0l4 19l519 666h-361l7 28h399l-4 -20l-516 -665h399l-6 -28h-441zM374 784q-13 0 -22 8.5t-9 21.5q0 19 12 31.5t27 12.5q13 0 22 -9t9 -24q0 -17 -12 -29t-27 -12z" />
<glyph unicode="&#x17c;" horiz-adv-x="414" d="M-11 0l2 19l402 469h-274l6 28h313l-2 -19l-401 -469h315l-7 -28h-354zM300 648q-13 0 -21.5 8.5t-8.5 21.5q0 10 3.5 18t9 13.5t12.5 8.5t14 3q13 0 21.5 -9t8.5 -23q0 -17 -12 -29t-27 -12z" />
<glyph unicode="&#x17d;" horiz-adv-x="542" d="M2 0l4 19l519 666h-361l7 28h399l-4 -20l-516 -665h399l-6 -28h-441zM352 767l-104 123l18 15l101 -108h5l142 110l15 -17l-147 -123h-30z" />
<glyph unicode="&#x17e;" horiz-adv-x="414" d="M-11 0l2 19l402 469h-274l6 28h313l-2 -19l-401 -469h315l-7 -28h-354zM276 618l-99 160l22 15l93 -143h4l147 143l19 -18l-155 -157h-31z" />
<glyph unicode="&#x192;" d="M11 -106q-40 0 -74 22l15 26q30 -20 61 -20q47 0 83 48t60 125l96 311h-103l7 26l69 2h35l27 89q28 90 71.5 146.5t101.5 56.5q40 0 80 -24l-13 -26q-36 22 -69 22q-32 0 -60 -28t-46 -65.5t-33 -86.5l-26 -84h145l-6 -28h-148l-97 -315q-60 -197 -176 -197z" />
<glyph unicode="&#x218;" horiz-adv-x="527" d="M244 -13q-150 0 -225 119l26 17q71 -108 203 -108q54 0 98 21.5t69.5 61.5t25.5 92q0 87 -93 140l-95 57q-113 66 -113 159q0 74 56 127t143 53q42 0 79.5 -13.5t64.5 -34t46 -47.5l-24 -20q-66 87 -172 87q-47 0 -84.5 -22t-56.5 -55.5t-19 -69.5q0 -48 25.5 -80 t69.5 -56l93 -54q112 -65 112 -167q0 -92 -65 -149.5t-164 -57.5zM102 -233l-3 26q33 0 58.5 5.5t42 14t25 20t8.5 24.5q0 24 -17.5 35.5t-55.5 14.5l11 26q56 -8 75.5 -22.5t19.5 -44.5q0 -45 -45 -71.5t-119 -27.5z" />
<glyph unicode="&#x219;" horiz-adv-x="414" d="M171 -13q-53 0 -100.5 28.5t-70.5 66.5l24 17q22 -36 62 -60t89 -24q57 0 98.5 35t41.5 82q0 34 -20 59.5t-79 56.5q-73 39 -101.5 69.5t-28.5 69.5q0 63 46.5 102.5t111.5 39.5q81 0 138 -60l-21 -22q-50 54 -119 54q-34 0 -63 -14.5t-45.5 -39.5t-16.5 -54 q0 -35 24.5 -58.5t72.5 -49.5q43 -23 70.5 -43.5t40 -38.5t17 -32t4.5 -33q0 -68 -49.5 -109.5t-125.5 -41.5zM54 -225l-2 26q43 1 73.5 10t45.5 23t15 32q0 16 -8.5 26.5t-24.5 16t-41 7.5l11 26q56 -8 75.5 -23t19.5 -44q0 -46 -45 -72t-119 -28z" />
<glyph unicode="&#x21a;" horiz-adv-x="531" d="M194 0l136 683h-222l6 30h478l-7 -30h-222l-136 -683h-33zM91 -225l-2 26q64 2 98.5 19.5t34.5 45.5q0 24 -17.5 35t-55.5 15l11 26q56 -8 75.5 -23t19.5 -44q0 -46 -45 -72t-119 -28z" />
<glyph unicode="&#x21b;" horiz-adv-x="313" d="M184 -13q-38 0 -62 14t-33 35t-9 48q0 15 4 50l74 354h-82l4 24l84 4l35 149h26l-31 -149h143l-7 -28h-142l-74 -356q-4 -26 -4 -41q0 -39 17 -57.5t59 -18.5q26 0 65 20l10 -24q-42 -24 -77 -24zM35 -225l-3 26q65 2 99.5 19.5t34.5 45.5q0 24 -17.5 35t-55.5 15l11 26 q56 -8 75.5 -23t19.5 -44q0 -46 -45 -72t-119 -28z" />
<glyph unicode="&#x2c6;" horiz-adv-x="544" d="M233 620l-19 17l155 158h31l99 -160l-22 -15l-93 142h-4z" />
<glyph unicode="&#x2c7;" horiz-adv-x="544" d="M337 618l-99 160l21 15l93 -143h4l147 143l20 -18l-156 -157h-30z" />
<glyph unicode="&#x2d8;" horiz-adv-x="544" d="M354 616q-37 0 -64 14.5t-40 39t-18.5 50.5t-4.5 53l28 5q-4 -53 22.5 -93.5t83.5 -40.5q55 0 94.5 39.5t58.5 94.5l28 -5q-8 -27 -22.5 -53t-37 -50.5t-56 -39t-72.5 -14.5z" />
<glyph unicode="&#x2d9;" horiz-adv-x="544" d="M361 648q-13 0 -22 8.5t-9 21.5q0 19 12 31t27 12q13 0 22 -9t9 -23q0 -17 -12 -29t-27 -12z" />
<glyph unicode="&#x2da;" horiz-adv-x="544" d="M359 592q-38 0 -62.5 21.5t-24.5 60.5q0 47 30 82t76 35q37 0 61.5 -22t24.5 -61q0 -47 -30 -81.5t-75 -34.5zM361 616q31 0 54 26.5t23 63.5q0 14 -4 25t-12 19t-20 12.5t-26 4.5q-32 0 -55 -27t-23 -64q0 -28 17 -44t46 -16z" />
<glyph unicode="&#x2db;" horiz-adv-x="544" d="M199 -218q-32 0 -52 17t-20 50q0 40 31.5 83t74.5 72h37q-33 -22 -57.5 -46.5t-38.5 -51t-14 -51.5q0 -20 11.5 -32.5t29.5 -12.5q23 0 45 13l11 -24q-31 -17 -58 -17z" />
<glyph unicode="&#x2dc;" horiz-adv-x="544" d="M445 626q-26 0 -46 17.5t-30.5 38t-27.5 38t-39 17.5q-54 0 -77 -108l-28 2q31 131 110 131q25 0 45 -17t31 -37.5t28 -38t38 -17.5q54 0 78 108l28 -2q-33 -132 -110 -132z" />
<glyph unicode="&#x2dd;" horiz-adv-x="544" d="M298 620l-19 13l125 168l24 -19zM436 620l-19 13l125 168l24 -19z" />
<glyph unicode="&#x3c0;" horiz-adv-x="563" d="M422 -13q-60 0 -60 61q0 15 14 82t41 189t38 169h-245q-48 -243 -115 -492l-30 4q68 233 116 488h-99l4 24l70 4h427l-6 -28h-93q-30 -122 -62 -271.5t-32 -163.5q0 -38 39 -38q6 0 32 7l1 -26q-26 -9 -40 -9z" />
<glyph unicode="&#x2000;" horiz-adv-x="481" />
<glyph unicode="&#x2001;" horiz-adv-x="963" />
<glyph unicode="&#x2002;" horiz-adv-x="481" />
<glyph unicode="&#x2003;" horiz-adv-x="963" />
<glyph unicode="&#x2004;" horiz-adv-x="321" />
<glyph unicode="&#x2005;" horiz-adv-x="240" />
<glyph unicode="&#x2006;" horiz-adv-x="160" />
<glyph unicode="&#x2007;" horiz-adv-x="160" />
<glyph unicode="&#x2008;" horiz-adv-x="120" />
<glyph unicode="&#x2009;" horiz-adv-x="192" />
<glyph unicode="&#x200a;" horiz-adv-x="53" />
<glyph unicode="&#x2010;" horiz-adv-x="304" d="M39 255l6 30h223l-7 -30h-222z" />
<glyph unicode="&#x2011;" horiz-adv-x="304" d="M39 255l6 30h223l-7 -30h-222z" />
<glyph unicode="&#x2012;" horiz-adv-x="304" d="M39 255l6 30h223l-7 -30h-222z" />
<glyph unicode="&#x2013;" horiz-adv-x="498" d="M39 257l6 28h415l-9 -28h-412z" />
<glyph unicode="&#x2014;" horiz-adv-x="829" d="M39 257l6 28h746l-7 -28h-745z" />
<glyph unicode="&#x2018;" horiz-adv-x="218" d="M168 538q-10 0 -19 5.5t-14 16.5t-5 25q0 37 13.5 70.5t37.5 58.5t57 44l13 -21q-42 -26 -64.5 -59.5t-22.5 -68.5h4q16 0 25.5 -8.5t9.5 -23.5q0 -17 -10 -28t-25 -11z" />
<glyph unicode="&#x2019;" horiz-adv-x="218" d="M136 538l-13 21q42 26 64.5 59.5t22.5 68.5h-5q-15 0 -24.5 8.5t-9.5 23.5q0 17 10 28t24 11q17 0 28 -12.5t11 -34.5q0 -37 -13.5 -70.5t-37.5 -58.5t-57 -44z" />
<glyph unicode="&#x201a;" horiz-adv-x="218" d="M-6 -151l-13 21q41 26 63.5 59.5t22.5 68.5h-4q-10 0 -18 3.5t-12.5 11t-4.5 17.5q0 16 10 27.5t25 11.5q16 0 27.5 -12.5t11.5 -34.5q0 -56 -29 -100.5t-79 -72.5z" />
<glyph unicode="&#x201c;" horiz-adv-x="349" d="M168 538q-10 0 -19 5.5t-14 16.5t-5 25q0 37 13.5 70.5t37.5 58.5t57 44l13 -21q-42 -26 -64.5 -59.5t-22.5 -68.5h4q16 0 25.5 -8.5t9.5 -23.5q0 -17 -10 -28t-25 -11zM300 538q-17 0 -28 12.5t-11 34.5q0 56 29 100.5t79 72.5l13 -21q-41 -26 -63.5 -59.5t-22.5 -68.5 h4q15 0 25 -8.5t10 -23.5q0 -17 -10 -28t-25 -11z" />
<glyph unicode="&#x201d;" horiz-adv-x="349" d="M136 538l-13 21q42 26 64.5 59.5t22.5 68.5h-5q-15 0 -24.5 8.5t-9.5 23.5q0 17 10 28t24 11q17 0 28 -12.5t11 -34.5q0 -37 -13.5 -70.5t-37.5 -58.5t-57 -44zM268 538l-13 21q41 26 63.5 59.5t22.5 68.5h-4q-10 0 -17.5 3.5t-12.5 11t-5 17.5q0 17 10 28t25 11 q17 0 28 -12.5t11 -34.5q0 -37 -13.5 -70.5t-37.5 -58.5t-57 -44z" />
<glyph unicode="&#x201e;" horiz-adv-x="349" d="M-6 -151l-13 21q41 26 63.5 59.5t22.5 68.5h-4q-10 0 -18 3.5t-12.5 11t-4.5 17.5q0 16 10 27.5t25 11.5q16 0 27.5 -12.5t11.5 -34.5q0 -56 -29 -100.5t-79 -72.5zM125 -151l-13 21q42 26 64.5 59.5t22.5 68.5h-5q-15 0 -24.5 8.5t-9.5 23.5q0 16 10 27.5t24 11.5 q17 0 28 -12.5t11 -34.5q0 -37 -13.5 -70.5t-37.5 -59t-57 -43.5z" />
<glyph unicode="&#x2020;" horiz-adv-x="423" d="M123 -86l136 665l-134 -2l7 32l132 -2l30 162h32l-32 -162l132 2l-7 -32l-132 2l-131 -665h-33z" />
<glyph unicode="&#x2021;" horiz-adv-x="423" d="M125 -86l33 162l-132 -3l6 33l132 -2l46 237l49 238l-134 -2l7 32l132 -2l30 162h32l-32 -162l132 2l-7 -32l-132 2l-45 -238l-50 -237l134 2l-6 -33l-132 3l-30 -162h-33z" />
<glyph unicode="&#x2022;" horiz-adv-x="287" d="M136 173q-39 0 -65 28t-26 71q0 50 32 89t83 39q38 0 63 -28t25 -72q0 -51 -31 -89t-81 -38z" />
<glyph unicode="&#x2026;" horiz-adv-x="1021" d="M132 -13q-14 0 -22 9.5t-8 22.5q0 19 13.5 34.5t31.5 15.5q28 0 28 -34q0 -19 -13 -33.5t-30 -14.5zM495 -13q-10 0 -17 4.5t-10.5 12t-3.5 15.5q0 19 14 34.5t32 15.5q28 0 28 -34q0 -19 -13 -33.5t-30 -14.5zM858 -13q-14 0 -22.5 9.5t-8.5 22.5q0 19 14 34.5t32 15.5 q28 0 28 -34q0 -19 -13 -33.5t-30 -14.5z" />
<glyph unicode="&#x202f;" horiz-adv-x="192" />
<glyph unicode="&#x2030;" horiz-adv-x="1185" d="M953 -13q-59 0 -89 44.5t-30 113.5q0 47 12 96.5t34.5 93t59.5 71.5t82 28q58 0 88 -44t30 -114q0 -47 -12 -96.5t-34 -93t-59.5 -71.5t-81.5 -28zM955 13q48 0 85 44t53.5 101t16.5 112q0 30 -5 54t-15.5 43.5t-28.5 30t-41 10.5q-49 0 -86 -44t-53.5 -101t-16.5 -112 q0 -62 22 -100t69 -38zM192 279q-58 0 -88.5 44t-30.5 113q0 47 12.5 96.5t34.5 93.5t59.5 72t81.5 28q30 0 53.5 -12.5t37.5 -34.5t21 -50t7 -61q0 -47 -12 -96.5t-34.5 -93t-59.5 -71.5t-82 -28zM194 305q49 0 86 44t53.5 101t16.5 112q0 62 -22 100t-69 38q-48 0 -85 -44 t-53.5 -101.5t-16.5 -111.5q0 -62 22 -100t68 -38zM140 -13l532 739h32l-531 -739h-33zM588 -13q-59 0 -89 44.5t-30 113.5q0 47 12 96.5t34.5 93t59.5 71.5t82 28q58 0 88 -44t30 -114q0 -47 -12 -96.5t-34.5 -93t-59.5 -71.5t-81 -28zM590 13q48 0 85 44t53.5 101 t16.5 112q0 62 -22 100t-69 38q-48 0 -85 -44t-53.5 -101t-16.5 -112q0 -62 22 -100t69 -38z" />
<glyph unicode="&#x2039;" horiz-adv-x="254" d="M153 80l-110 179l7 35l170 168l18 -17l-160 -173l97 -179z" />
<glyph unicode="&#x203a;" horiz-adv-x="254" d="M39 80l-17 17l159 173l-97 179l22 13l110 -179l-6 -35z" />
<glyph unicode="&#x2044;" horiz-adv-x="82" d="M-225 -13l532 739h32l-531 -739h-33z" />
<glyph unicode="&#x205f;" horiz-adv-x="240" />
<glyph unicode="&#x20ac;" d="M279 -13q-90 0 -140.5 75t-45.5 211h-67l6 22l62 4q3 46 13 90h-59l6 21l59 5q34 128 110 208.5t166 80.5q97 0 147 -104l-26 -15q-22 44 -50 67.5t-73 23.5q-77 0 -144.5 -73t-98.5 -188h305l-6 -26h-306q-10 -55 -13 -90h260l-6 -26h-255q-4 -122 39 -190t119 -68 q78 0 151 71l19 -21q-77 -78 -172 -78z" />
<glyph unicode="&#x2122;" horiz-adv-x="624" d="M143 400l60 302h-117l7 28h261l-6 -28h-115l-60 -302h-30zM341 400l67 330h46l26 -142l15 -96h4l52 96l86 142h46l-67 -330h-31l37 183l26 110h-4l-141 -242h-28l-45 242h-4l-18 -110l-36 -183h-31z" />
<glyph unicode="&#x2202;" horiz-adv-x="522" d="M181 -13q-70 0 -116 45.5t-46 118.5q0 68 30 130.5t87 103.5t128 41q109 0 182 -110q25 90 25 179q0 91 -35.5 143.5t-107.5 52.5q-59 0 -118 -52l-16 22q66 58 136 58q44 0 77 -15.5t53.5 -45t30.5 -68.5t10 -89q0 -125 -41.5 -243t-116.5 -194.5t-162 -76.5zM184 15 q79 1 146.5 76.5t105.5 190.5q-70 115 -175 115q-61 0 -110.5 -36t-75 -91t-25.5 -117q1 -56 38 -97t96 -41z" />
<glyph unicode="&#x2206;" horiz-adv-x="568" d="M-30 0l4 17l385 696h32l89 -696l-5 -17h-505zM233 428l-218 -400h430l-48 400q-3 30 -13 114.5t-15 133.5h-4q-19 -40 -39.5 -78t-51.5 -95t-41 -75z" />
<glyph unicode="&#x220f;" horiz-adv-x="667" d="M112 -130v821h465v-821h-31v793h-403v-793h-31z" />
<glyph unicode="&#x2211;" horiz-adv-x="501" d="M32 -130v28l275 391l-264 374v28h434v-28h-400l1 -4l263 -376l-270 -380l1 -5h438v-28h-478z" />
<glyph unicode="&#x221a;" horiz-adv-x="555" d="M220 -117l-60 478l-82 -35l-5 28l115 54l50 -423l2 -50h4l20 50l380 901h34l-427 -1003h-31z" />
<glyph unicode="&#x221e;" horiz-adv-x="786" d="M564 192q-61 0 -108 34t-100 100h-4q-19 -25 -32.5 -40.5t-37 -37t-51.5 -32.5t-60 -11q-60 0 -103.5 43t-43.5 108q0 68 44 110t109 42q30 0 58 -11.5t51.5 -33t37.5 -38t32 -41.5h5q21 28 34 43t34.5 36t39 32t42 19.5t51.5 8.5q73 0 118.5 -45t45.5 -119 q0 -72 -45.5 -119.5t-116.5 -47.5zM175 231q85 0 164 125q-42 60 -81.5 92t-82.5 32q-51 0 -86 -33.5t-35 -87.5q0 -56 36 -92t85 -36zM566 222q29 0 53.5 10.5t41 28.5t26 42.5t9.5 52.5q0 61 -37.5 101t-99.5 40q-33 0 -66 -19t-60.5 -48t-58.5 -74q34 -47 65.5 -76.5 t62 -43.5t64.5 -14z" />
<glyph unicode="&#x222b;" horiz-adv-x="300" d="M15 -171q-29 0 -39 7l9 26q17 -5 34 -5q25 0 43.5 14.5t32 44t22.5 63t19 84.5q15 74 33.5 279t33.5 278q9 44 16.5 74.5t20 62.5t27 51t35.5 31t48 12q29 0 39 -6l-9 -26q-13 4 -34 4q-44 0 -70.5 -53.5t-44.5 -151.5q-15 -79 -34 -283t-33 -275q-9 -44 -17.5 -75.5 t-21.5 -62.5t-27.5 -50t-35.5 -31t-47 -12z" />
<glyph unicode="&#x2248;" d="M350 400q-26 0 -54 15.5t-47.5 34t-43.5 34t-43 15.5q-48 0 -84 -69l-24 13q20 41 49 62.5t59 21.5q21 0 43 -10t40 -25t35.5 -29.5t35.5 -24.5t34 -10q48 0 84 69l24 -13q-21 -41 -49.5 -62.5t-58.5 -21.5zM350 186q-26 0 -54 15.5t-47.5 34t-43.5 34t-43 15.5 q-48 0 -84 -69l-24 13q20 41 49 62.5t59 21.5q21 0 43 -10t40 -24.5t35.5 -29.5t35.5 -25t34 -10q48 0 84 69l24 -13q-21 -41 -49.5 -62.5t-58.5 -21.5z" />
<glyph unicode="&#x2260;" d="M84 95l89 140h-121v29h136l114 185h-250v28h266l88 141h32l-88 -141h121v-28h-136l-115 -185h251v-29h-266l-88 -140h-33z" />
<glyph unicode="&#x2264;" d="M471 168l-421 173v31l421 172v-30l-249 -101l-131 -54v-5l131 -54l249 -101v-31zM52 0v28h419v-28h-419z" />
<glyph unicode="&#x2265;" d="M52 168v31l248 101l132 54v5l-132 54l-248 101v30l421 -172v-31zM52 0v28h419v-28h-419z" />
<glyph unicode="&#x25ca;" horiz-adv-x="514" d="M252 -11l-172 367l172 368h41l172 -368l-172 -367h-41zM270 15h4l74 153l83 188l-83 186l-74 156h-4l-72 -156l-84 -186l84 -188z" />
<glyph unicode="&#x25fc;" horiz-adv-x="518" d="M0 518h518v-518h-518v518z" />
<glyph unicode="&#xfb01;" horiz-adv-x="496" d="M82 488l4 24l70 4l25 130q16 73 51.5 110t82.5 37q40 0 76 -24l-15 -24q-31 20 -63 20q-38 0 -64.5 -34t-36.5 -85l-26 -130h116l-6 -28h-117l-97 -488h-30l97 488h-67zM313 0l104 516h30l-104 -516h-30zM460 648q-13 0 -21.5 8.5t-8.5 21.5q0 10 3.5 18t8.5 13.5t12 8.5 t15 3q13 0 21.5 -9t8.5 -23q0 -17 -12 -29t-27 -12z" />
<glyph unicode="&#xfb02;" horiz-adv-x="509" d="M82 488l4 24l70 4l25 130q16 73 51.5 110t82.5 37q40 0 76 -24l-15 -24q-31 20 -63 20q-38 0 -64.5 -34t-36.5 -85l-26 -130h116l-6 -28h-117l-97 -488h-30l97 488h-67zM359 -13q-17 0 -28 10t-11 29q0 6 4 28l145 726h30l-145 -728q-2 -11 -2 -22q0 -15 15 -15q7 0 17 4 l5 -25q-16 -7 -30 -7z" />
</font>
</defs>
</svg>
