<?xml version="1.0" standalone="no"?>
<!DOCTYPE svg PUBLIC "-//W3C//DTD SVG 1.1//EN" "http://www.w3.org/Graphics/SVG/1.1/DTD/svg11.dtd" >
<svg xmlns="http://www.w3.org/2000/svg" xmlns:xlink="http://www.w3.org/1999/xlink" version="1.1">
<metadata></metadata>
<defs>
<font id="source_sans_proitalic" horiz-adv-x="513" >
<font-face units-per-em="1000" ascent="750" descent="-250" />
<missing-glyph horiz-adv-x="205" />
<glyph horiz-adv-x="0" />
<glyph horiz-adv-x="333" />
<glyph unicode=" "  horiz-adv-x="205" />
<glyph unicode="&#x09;" horiz-adv-x="205" />
<glyph unicode="&#xa0;" horiz-adv-x="205" />
<glyph unicode="!" horiz-adv-x="301" d="M109 210l72 410l16 98h82l-20 -98l-92 -410h-58zM97 -13q-23 0 -37 15t-14 39q0 18 9.5 35t26 28.5t36.5 11.5q23 0 36 -15.5t13 -39.5q0 -28 -20 -51t-50 -23z" />
<glyph unicode="&#x22;" horiz-adv-x="435" d="M137 456l25 164l16 98h80l-20 -98l-45 -164h-56zM314 456l24 164l16 98h80l-20 -98l-45 -164h-55z" />
<glyph unicode="#" horiz-adv-x="512" d="M41 0l69 219h-84l14 59h87l50 161h-86l15 59h90l63 198h55l-63 -198h134l63 198h55l-62 -198h84l-15 -59h-87l-50 -161h87l-15 -59h-91l-68 -219h-56l70 219h-135l-69 -219h-55zM183 278h136l49 161h-136z" />
<glyph unicode="$" d="M152 -118l21 109q-90 19 -155 97l53 51q17 -23 38 -41t50 -30t59 -12q59 0 96.5 34.5t37.5 89.5q0 24 -8 46t-21 39t-30 32.5t-36 30l-38 29t-36.5 30.5t-30.5 34t-21 41t-8 49q0 39 14 73t39 58t59.5 39t75.5 18l22 105h60l-23 -111q76 -19 126 -87l-53 -49 q-51 74 -121 74q-51 0 -84.5 -30.5t-33.5 -78.5q0 -30 17 -56.5t42.5 -45.5t55 -42.5t55 -46.5t42 -59t16.5 -79q0 -85 -54.5 -142.5t-144.5 -63.5l-21 -105h-60z" />
<glyph unicode="%" horiz-adv-x="846" d="M197 276q-61 0 -96.5 45.5t-35.5 117.5q0 68 22 131.5t68 106.5t105 43q61 0 96.5 -45.5t35.5 -117.5q0 -69 -22.5 -132t-68 -106t-104.5 -43zM202 330q23 0 44 13t35.5 35.5t25.5 51.5t16 60t5 62q0 52 -18 83.5t-55 31.5q-38 0 -68 -35t-44.5 -85.5t-14.5 -103.5 q0 -34 7.5 -58.5t24.5 -39.5t42 -15zM144 -13l518 732h56l-518 -732h-56zM610 -13q-61 0 -96.5 45.5t-35.5 117.5q0 68 22 131.5t68 106.5t105 43q61 0 96.5 -45.5t35.5 -116.5q0 -69 -22.5 -132.5t-68 -106.5t-104.5 -43zM615 41q29 0 53.5 20t40 52.5t24.5 71.5t9 78 q0 52 -18.5 83.5t-55.5 31.5q-38 0 -68 -35t-44.5 -85.5t-14.5 -103.5q0 -52 18.5 -82.5t55.5 -30.5z" />
<glyph unicode="&#x26;" horiz-adv-x="622" d="M193 -13q-80 0 -128.5 44.5t-48.5 119.5q0 41 14 77t41 65t55 50t68 45q-20 63 -20 121q0 89 54.5 147.5t129.5 58.5q38 0 64.5 -15.5t39 -40.5t12.5 -59q0 -31 -12 -60.5t-28 -50.5t-46.5 -46t-51.5 -39t-59 -38q45 -113 132 -204q75 79 137 215h75q-74 -159 -166 -258 q59 -48 109 -65l-34 -67q-65 21 -132 78q-97 -78 -205 -78zM245 514q0 -41 12 -88q36 21 58 37t45.5 37.5t35 45.5t11.5 51q0 26 -13.5 43t-40.5 17q-46 0 -77 -40.5t-31 -102.5zM208 52q71 0 145 57q-89 97 -137 216q-57 -38 -88 -76.5t-31 -86.5q0 -33 14 -57.5t39 -38.5 t58 -14z" />
<glyph unicode="'" horiz-adv-x="258" d="M137 456l25 164l16 98h80l-20 -98l-45 -164h-56z" />
<glyph unicode="(" horiz-adv-x="311" d="M131 -188q-61 162 -61 330q0 179 61.5 330.5t187.5 309.5l48 -27q-229 -290 -229 -621q0 -51 5 -104t15.5 -106t25.5 -92z" />
<glyph unicode=")" horiz-adv-x="313" d="M1 -188l-48 28q228 287 228 620q0 184 -45 302l53 20q61 -162 61 -329q0 -180 -62 -331t-187 -310z" />
<glyph unicode="*" horiz-adv-x="431" d="M188 464l-34 31l74 95l-94 52l19 43l106 -36l27 114l47 -4l-9 -115l110 15l8 -46l-110 -33l40 -104l-42 -24l-56 94z" />
<glyph unicode="+" d="M238 110v213h-187v61h188v209h64v-209h187v-61h-188v-213h-64z" />
<glyph unicode="," horiz-adv-x="258" d="M-21 -175l-12 49q50 19 80.5 51t38.5 71h-3q-24 0 -39.5 13.5t-15.5 37.5q0 28 19 48.5t49 20.5q28 0 43 -19t15 -52q0 -78 -48 -138t-127 -82z" />
<glyph unicode="-" horiz-adv-x="319" d="M37 238l13 63h235l-14 -63h-234z" />
<glyph unicode="." horiz-adv-x="258" d="M75 -13q-23 0 -36.5 15t-13.5 39q0 28 21 51.5t50 23.5q9 0 17 -3t14 -8t10 -11.5t6.5 -15t2.5 -17.5q0 -28 -21 -51t-50 -23z" />
<glyph unicode="/" horiz-adv-x="363" d="M-77 -171l464 931h60l-465 -931h-59z" />
<glyph unicode="0" d="M214 -13q-79 0 -124 64.5t-45 167.5q0 94 23 182t61 152.5t90.5 103.5t107.5 39q78 0 122.5 -66t44.5 -169q0 -126 -38 -235t-102.5 -174t-139.5 -65zM218 52q53 0 100 63t73.5 158t26.5 191q0 75 -24.5 120t-71.5 45q-53 0 -100 -63t-73.5 -158t-26.5 -192 q0 -74 24 -119t72 -45z" />
<glyph unicode="1" d="M28 0l14 68h148l103 512h-121l11 53q91 13 150 50h63l-124 -615h139l-13 -68h-370z" />
<glyph unicode="2" d="M-11 0l9 49q16 14 47 40q52 44 76.5 65t65 56.5t59 53t47.5 46t41 45.5t29 40.5t23.5 41.5t11.5 38.5t5 41.5q0 49 -28.5 80t-82.5 31q-65 0 -140 -68l-42 51q98 85 192 85q85 0 133.5 -47t48.5 -121q0 -25 -5 -49t-11.5 -45t-23 -46t-29 -43.5t-40 -47.5t-45.5 -47 t-57.5 -53.5t-63 -56t-73.5 -64.5q-4 -3 -7 -5h296l-13 -71h-423z" />
<glyph unicode="3" d="M200 -13q-66 0 -120.5 33t-89.5 85l55 43q63 -92 156 -92q73 0 119.5 40t46.5 101q0 38 -19 65t-64 43.5t-115 16.5l13 62q60 0 105.5 12.5t70 34t36.5 45t12 49.5q0 23 -7 41.5t-20 32.5t-34 21.5t-48 7.5q-20 0 -43.5 -6.5t-46.5 -19t-43 -28.5l-42 54q89 68 188 68 q85 0 132 -42.5t47 -114.5q0 -66 -40.5 -115t-118.5 -71v-4q56 -19 87.5 -57.5t31.5 -91.5q0 -96 -70 -154.5t-179 -58.5z" />
<glyph unicode="4" d="M338 0h-77l39 188h-291l9 56l366 439h90l-86 -428h90l-14 -67h-88zM109 255h203l40 202q4 17 10 40.5t12.5 50t10.5 45.5h-4q-62 -85 -82 -111z" />
<glyph unicode="5" d="M197 -13q-126 0 -201 116l53 44q28 -43 63 -67t90 -24q69 0 119 50.5t50 131.5q0 32 -8.5 57t-25 41t-39 24t-50.5 8q-31 0 -54.5 -7.5t-59.5 -27.5l-36 28l86 322h320l-14 -71h-249l-56 -201q45 21 90 21q80 0 129.5 -46.5t49.5 -132.5q0 -119 -76 -192.5t-181 -73.5z " />
<glyph unicode="6" d="M244 -13q-86 0 -137.5 64.5t-51.5 166.5q0 103 24 192t66 151.5t101.5 98.5t126.5 36q95 0 149 -87l-55 -44q-37 62 -98 62q-81 0 -144 -80t-85 -213q34 38 77.5 58.5t81.5 20.5q76 0 120.5 -47.5t44.5 -130.5q0 -101 -63.5 -174.5t-156.5 -73.5zM248 51q58 0 99 53 t41 120q0 59 -28 93.5t-81 34.5q-31 0 -71.5 -21t-74.5 -66q-1 -16 -1 -49q0 -74 31.5 -119.5t84.5 -45.5z" />
<glyph unicode="7" d="M128 0q49 203 119.5 345.5t194.5 266.5h-328l15 71h422l-11 -54q-76 -72 -132 -147t-92.5 -156.5t-58.5 -155t-43 -170.5h-86z" />
<glyph unicode="8" d="M238 -13q-52 0 -96 18.5t-74.5 60t-30.5 99.5q0 72 45 123.5t115 81.5v4q-61 61 -61 135q0 85 58 136t142 51q45 0 82 -17t61.5 -54t24.5 -88q0 -119 -131 -192v-5q38 -25 65 -64.5t27 -89.5q0 -89 -66.5 -144t-160.5 -55zM330 369q102 67 102 157q0 33 -13.5 57.5 t-36.5 37t-52 12.5q-49 0 -84 -32.5t-35 -86.5q0 -27 7.5 -48t24 -38t36.5 -30.5t51 -28.5zM242 48q59 0 102.5 36.5t43.5 97.5q0 23 -9 43.5t-20 34t-36 31t-39.5 25.5t-48.5 26q-58 -32 -90.5 -72.5t-32.5 -96.5q0 -57 37.5 -91t92.5 -34z" />
<glyph unicode="9" d="M262 331q31 0 72 20.5t75 65.5q1 16 1 50q0 74 -31.5 119t-85.5 45q-38 0 -70.5 -25t-50.5 -64.5t-18 -82.5q0 -60 28 -94t80 -34zM168 -13q-94 0 -149 87l56 44q37 -62 98 -62q53 0 99.5 35.5t80 102t47.5 153.5q-22 -25 -50.5 -43t-55 -26t-50.5 -8q-77 0 -122 47 t-45 130q0 102 64 175.5t156 73.5q87 0 138.5 -64.5t51.5 -167.5q0 -137 -41.5 -246t-114.5 -170t-163 -61z" />
<glyph unicode=":" horiz-adv-x="258" d="M143 382q-23 0 -36.5 15t-13.5 38q0 29 21 52t51 23q23 0 36 -15t13 -39q0 -29 -20.5 -51.5t-50.5 -22.5zM75 -13q-23 0 -36.5 15t-13.5 39q0 28 21 51.5t50 23.5q9 0 17 -3t14 -8t10 -11.5t6.5 -15t2.5 -17.5q0 -28 -21 -51t-50 -23z" />
<glyph unicode=";" horiz-adv-x="258" d="M143 382q-23 0 -36.5 15t-13.5 38q0 29 21 52t51 23q23 0 36 -15t13 -39q0 -29 -20.5 -51.5t-50.5 -22.5zM-21 -175l-12 49q50 19 80.5 51t38.5 71h-3q-24 0 -39.5 13.5t-15.5 37.5q0 28 19 48.5t49 20.5q28 0 43 -19t15 -52q0 -78 -48 -138t-127 -82z" />
<glyph unicode="&#x3c;" d="M490 144l-441 178v62l441 179v-70l-217 -85l-134 -52v-4l134 -52l217 -85v-71z" />
<glyph unicode="=" d="M51 437v61h439v-61h-439zM51 209v61h439v-61h-439z" />
<glyph unicode="&#x3e;" d="M51 144v71l219 85l132 52v4l-132 52l-219 85v70l441 -179v-62z" />
<glyph unicode="?" horiz-adv-x="437" d="M155 215q3 50 26 93t53.5 72.5t60.5 57.5t51 61t21 69q0 29 -11 50t-32 32t-49 11q-61 0 -112 -54l-44 49q32 33 75.5 53.5t90.5 20.5q75 0 118.5 -39.5t43.5 -108.5q0 -40 -15.5 -76t-38.5 -61.5t-51 -53.5t-52.5 -52t-42.5 -58.5t-21 -71.5zM151 -13q-23 0 -36.5 15 t-13.5 39q0 28 21 51.5t50 23.5q15 0 26.5 -7.5t17 -19.5t5.5 -28q0 -18 -8.5 -35t-25 -28t-36.5 -11z" />
<glyph unicode="@" horiz-adv-x="870" d="M377 -166q-93 0 -167 39.5t-118 117.5t-44 183q0 107 39 204t103.5 164.5t149.5 107t174 39.5q148 0 232.5 -88t84.5 -229q0 -149 -66 -235.5t-158 -86.5q-38 0 -63.5 22t-33.5 60h-3q-58 -72 -123 -72q-51 0 -87 39t-36 105q0 63 28 121.5t77 96t105 37.5q50 0 78 -55h2 l14 46h55l-54 -232q-12 -52 1.5 -81.5t54.5 -29.5q57 0 104 69.5t47 185.5q0 79 -28 139.5t-89 97t-150 36.5q-72 0 -144 -35t-127.5 -93.5t-90.5 -143t-35 -177.5q0 -138 78.5 -217t195.5 -79q80 0 145 39l24 -49q-86 -46 -175 -46zM399 117q48 0 96 65l39 172 q-26 48 -63 48q-40 0 -74.5 -30.5t-52.5 -74t-18 -85.5q0 -47 20 -71t53 -24z" />
<glyph unicode="A" horiz-adv-x="545" d="M243 403l-62 -119h208l-10 119q-17 197 -19 229h-5q-46 -99 -112 -229zM-57 0l381 702h97l81 -702h-87l-19 219h-248l-113 -219h-92z" />
<glyph unicode="B" horiz-adv-x="623" d="M37 0l141 702h187q102 0 159.5 -40t57.5 -115q0 -35 -13.5 -65.5t-36 -52t-50 -36.5t-56.5 -22l-1 -4q58 -14 93.5 -49.5t35.5 -92.5q0 -113 -80 -169t-212 -56h-225zM200 400h101q97 0 147 36.5t50 98.5q0 102 -153 102h-98zM133 65h122q104 0 161 38t57 117 q0 55 -42 87t-119 32h-124z" />
<glyph unicode="C" horiz-adv-x="588" d="M310 -13q-78 0 -135 36t-85.5 99.5t-28.5 148.5q0 82 26.5 162t73 142.5t115.5 101t148 38.5q57 0 101 -28t71 -76l-58 -44q-47 76 -119 76q-60 0 -112.5 -33t-86.5 -85.5t-53.5 -117t-19.5 -129.5q0 -66 17.5 -113.5t58.5 -76.5t102 -29q74 0 149 63l37 -54 q-92 -81 -201 -81z" />
<glyph unicode="D" horiz-adv-x="633" d="M37 0l141 702h130q145 0 221.5 -71.5t76.5 -202.5q0 -193 -102 -310.5t-278 -117.5h-189zM134 68h92q135 0 215 98t80 257q0 100 -55.5 156t-160.5 56h-58z" />
<glyph unicode="E" horiz-adv-x="538" d="M37 0l141 702h387l-14 -70h-305l-45 -228h258l-15 -70h-256l-54 -263h314l-15 -71h-396z" />
<glyph unicode="F" horiz-adv-x="506" d="M37 0l141 702h387l-14 -70h-305l-48 -244h258l-14 -70h-257l-64 -318h-84z" />
<glyph unicode="G" horiz-adv-x="629" d="M321 -13q-125 0 -192.5 76.5t-67.5 207.5q0 84 26.5 163.5t73.5 142t118.5 100.5t154.5 38q116 0 177 -104l-59 -44q-45 76 -122 76q-64 0 -118.5 -33t-90 -86t-55 -117t-19.5 -129q0 -100 45 -160t141 -60q69 0 120 43l39 193h-145l14 69h220l-61 -304q-86 -72 -199 -72 z" />
<glyph unicode="H" horiz-adv-x="665" d="M37 0l141 702h83l-60 -296h317l60 296h82l-140 -702h-83l67 334h-317l-66 -334h-84z" />
<glyph unicode="I" horiz-adv-x="269" d="M37 0l141 702h83l-140 -702h-84z" />
<glyph unicode="J" horiz-adv-x="487" d="M170 -13q-61 0 -105 29t-67 79l54 46q33 -82 120 -82q52 0 86 39t48 111l98 493h84l-101 -505q-18 -95 -73.5 -152.5t-143.5 -57.5z" />
<glyph unicode="K" horiz-adv-x="598" d="M37 0l141 702h83l-69 -347h3l352 347h94l-263 -270l159 -432h-87l-134 379l-147 -144l-48 -235h-84z" />
<glyph unicode="L" horiz-adv-x="494" d="M37 0l141 702h83l-126 -631h295l-14 -71h-379z" />
<glyph unicode="M" horiz-adv-x="754" d="M37 0l141 702h99l61 -379l24 -145h4l75 145l208 379h100l-140 -702h-80l81 396q20 99 50 206h-4l-85 -156l-206 -372h-47l-65 372l-24 156h-4q-23 -168 -30 -206l-79 -396h-79z" />
<glyph unicode="N" horiz-adv-x="662" d="M37 0l141 702h83l161 -449l45 -147h4q21 168 32 224l74 372h80l-140 -702h-83l-158 448l-46 151h-4q-16 -132 -33 -221l-75 -378h-81z" />
<glyph unicode="O" horiz-adv-x="677" d="M307 -13q-77 0 -132.5 36.5t-83 102.5t-27.5 155q0 80 25.5 158t69.5 139t109 99t138 38q116 0 179 -79.5t63 -213.5q0 -65 -15.5 -128t-46.5 -118t-72 -97.5t-94.5 -67t-112.5 -24.5zM311 59q55 0 103 32.5t80.5 84t51 114t18.5 124.5q0 107 -41 168t-122 61 q-72 0 -131.5 -55t-90 -135.5t-30.5 -164.5q0 -107 40.5 -168t121.5 -61z" />
<glyph unicode="P" horiz-adv-x="588" d="M37 0l141 702h198q67 0 115.5 -17t76.5 -56t28 -98q0 -84 -40 -140.5t-107.5 -82.5t-159.5 -26h-112l-56 -282h-84zM190 350h102q109 0 165.5 43t56.5 127q0 116 -159 116h-108z" />
<glyph unicode="Q" horiz-adv-x="677" d="M311 59q55 0 103 32.5t80.5 84t51 114t18.5 124.5q0 107 -41 168t-122 61q-72 0 -131.5 -55t-90 -135.5t-30.5 -164.5q0 -107 40.5 -168t121.5 -61zM491 -173q-92 0 -155.5 41.5t-89.5 125.5q-88 19 -135 95t-47 192q0 80 25.5 158t69.5 139t109 99t138 38 q116 0 179 -79.5t63 -213.5q0 -104 -39 -200t-112.5 -160.5t-164.5 -73.5q18 -45 62 -68.5t102 -23.5q26 0 59 8l6 -66q-36 -11 -70 -11z" />
<glyph unicode="R" horiz-adv-x="593" d="M37 0l141 702h192q103 0 161.5 -39.5t58.5 -124.5q0 -94 -57 -154.5t-150 -78.5l123 -305h-89l-115 297h-122l-59 -297h-84zM194 365h106q99 0 153 43.5t54 119.5q0 56 -39 82t-118 26h-103z" />
<glyph unicode="S" horiz-adv-x="541" d="M247 -13q-150 0 -234 124l61 46q67 -99 181 -99q65 0 108 36.5t43 95.5q0 36 -22.5 62.5t-65.5 53.5l-82 49q-108 66 -108 165q0 81 62.5 138t156.5 57q60 0 112 -27t87 -72l-55 -49q-64 76 -151 76q-38 0 -67.5 -16.5t-44.5 -42t-15 -54.5q0 -38 22.5 -62.5t68.5 -52.5 l81 -48q35 -21 58 -43t35.5 -53t12.5 -69q0 -94 -68.5 -154.5t-175.5 -60.5z" />
<glyph unicode="T" horiz-adv-x="545" d="M178 0l125 630h-203l13 72h492l-14 -72h-205l-125 -630h-83z" />
<glyph unicode="U" horiz-adv-x="659" d="M95 308l79 394h84l-80 -401q-10 -48 -10 -85q0 -157 142 -157q64 0 110.5 51.5t68.5 161.5l87 430h81l-88 -433q-28 -146 -96 -214t-167 -68q-107 0 -164 56.5t-57 165.5q0 40 10 99z" />
<glyph unicode="V" horiz-adv-x="530" d="M151 0l-63 702h84l29 -390q13 -147 17 -231h5q70 150 111 231l194 390h89l-367 -702h-99z" />
<glyph unicode="W" horiz-adv-x="808" d="M102 0l9 702h86l-11 -386q-2 -31 -5 -108.5t-6 -119.5h5l99 228l176 386h76l9 -386q1 -74 1 -228h5q16 44 47.5 123t41.5 105l151 386h83l-289 -702h-106l-7 429q0 81 3 165h-5q-7 -22 -68 -165l-192 -429h-103z" />
<glyph unicode="X" horiz-adv-x="528" d="M-39 0l270 364l-115 338h89l60 -186q3 -9 12.5 -43.5t16.5 -55.5h3q40 55 71 102l128 183h88l-253 -345l125 -357h-90l-64 197q-4 11 -8.5 26.5t-8.5 27.5t-8.5 27t-7.5 28h-4q-24 -33 -78 -113l-137 -193h-89z" />
<glyph unicode="Y" horiz-adv-x="493" d="M149 0l54 274l-114 428h85l49 -202q7 -28 18 -79t17 -73h4q64 105 96 153l133 201h89l-293 -428l-56 -274h-82z" />
<glyph unicode="Z" horiz-adv-x="547" d="M-1 0l11 50l454 582h-321l15 70h421l-11 -49l-451 -582h354l-16 -71h-456z" />
<glyph unicode="[" horiz-adv-x="312" d="M9 -163l184 921h180l-7 -49h-121l-164 -823h120l-12 -49h-180z" />
<glyph unicode="\" horiz-adv-x="363" d="M217 -171l-123 931h56l125 -931h-58z" />
<glyph unicode="]" horiz-adv-x="313" d="M-52 -163l10 49h119l166 823h-120l9 49h183l-184 -921h-183z" />
<glyph unicode="^" horiz-adv-x="512" d="M89 303l156 414h66l157 -414h-69l-69 190l-49 143h-3l-50 -143l-69 -190h-70z" />
<glyph unicode="_" horiz-adv-x="516" d="M-39 -133l12 54h489l-10 -54h-491z" />
<glyph unicode="`" horiz-adv-x="553" d="M391 610l-142 175l71 53l122 -190z" />
<glyph unicode="a" horiz-adv-x="574" d="M192 -13q-70 0 -110 49t-40 139q0 98 40 181t104.5 130t136.5 47q41 0 73.5 -21t51.5 -57h5l20 65h66l-104 -520h-67l9 77h-5q-39 -41 -86 -65.5t-94 -24.5zM221 56q88 0 164 99l47 232q-42 77 -106 77q-51 0 -97 -38.5t-74.5 -102.5t-28.5 -135q0 -65 25.5 -98.5 t69.5 -33.5z" />
<glyph unicode="b" horiz-adv-x="573" d="M101 0h-68l152 762h83l-42 -203l-24 -103h2q95 77 177 77q69 0 109.5 -49t40.5 -139q0 -98 -40 -181t-104.5 -130t-136.5 -47q-40 0 -73 21t-52 57h-3zM351 464q-37 0 -80.5 -22.5t-80.5 -61.5l-49 -247q41 -77 106 -77q51 0 97 38.5t74 103t28 135.5q0 64 -25 97.5 t-70 33.5z" />
<glyph unicode="c" horiz-adv-x="465" d="M231 -13q-86 0 -138.5 55.5t-52.5 153.5q0 71 24 134t64 107t93 70t109 26q79 0 134 -63l-48 -52q-21 25 -41.5 36t-50.5 11q-78 0 -139.5 -79t-61.5 -185q0 -145 123 -145q56 0 116 46l36 -54q-79 -61 -167 -61z" />
<glyph unicode="d" horiz-adv-x="572" d="M449 457l18 102l40 203h83l-155 -762h-67l9 77h-5q-39 -41 -86 -65.5t-94 -24.5q-70 0 -110 49t-40 139q0 98 40 181t104.5 130t136.5 47q81 0 123 -76h3zM221 56q87 0 164 99l47 232q-42 77 -106 77q-51 0 -97 -38.5t-74.5 -102.5t-28.5 -135q0 -65 25.5 -98.5 t69.5 -33.5z" />
<glyph unicode="e" horiz-adv-x="514" d="M40 204q0 48 11 92.5t30.5 80t46 65.5t57.5 49.5t65 30.5t68 11q83 0 121.5 -51t38.5 -137q0 -48 -18 -102h-338q-7 -49 1 -86t28.5 -59.5t48.5 -34t63 -11.5q56 0 117 45l32 -54q-78 -56 -168 -56q-62 0 -107.5 25t-71 74.5t-25.5 117.5zM131 299h272q6 28 6 53 q0 32 -9 56.5t-32.5 42t-59.5 17.5q-58 0 -108 -47t-69 -122z" />
<glyph unicode="f" horiz-adv-x="301" d="M70 454l11 61l70 5l17 87q11 53 32.5 90t55.5 57.5t77 20.5q48 0 92 -26l-29 -59q-28 18 -58 18q-68 0 -88 -99l-18 -89h105l-13 -66h-106l-91 -454h-81l91 454h-67z" />
<glyph unicode="g" horiz-adv-x="568" d="M180 -240q-96 0 -182 72l38 57q72 -62 147 -62q64 0 105 40.5t59 114.5l26 111q-87 -88 -180 -88q-68 0 -109.5 47.5t-41.5 135.5q0 93 39.5 173t102.5 126t133 46q40 0 73 -21t52 -57h3l20 65h68l-109 -545q-21 -103 -84 -159t-160 -56zM219 74q39 0 82 23.5t79 67.5 l46 222q-45 77 -106 77q-49 0 -94 -37t-72.5 -98.5t-27.5 -128.5q0 -62 24.5 -94t68.5 -32z" />
<glyph unicode="h" horiz-adv-x="555" d="M33 0l152 762h83l-52 -252l-17 -65h4q50 43 92.5 65.5t86.5 22.5q123 0 123 -130q0 -33 -9 -71l-66 -332h-81l64 321q9 45 9 61q0 80 -77 80q-63 0 -157 -94l-74 -368h-81z" />
<glyph unicode="i" horiz-adv-x="253" d="M33 0l104 520h82l-105 -520h-81zM207 628q-15 0 -26.5 5.5t-19 16.5t-7.5 26q0 26 18.5 44t43.5 18q22 0 37.5 -13t15.5 -36q0 -26 -18.5 -43.5t-43.5 -17.5z" />
<glyph unicode="j" horiz-adv-x="254" d="M-52 -232q-43 0 -81 20l27 61q23 -14 49 -14q54 0 76 99l119 586h82l-118 -585q-34 -167 -154 -167zM207 628q-22 0 -37 13t-15 35q0 27 18 44.5t44 17.5q21 0 36.5 -13.5t15.5 -35.5q0 -26 -18.5 -43.5t-43.5 -17.5z" />
<glyph unicode="k" horiz-adv-x="509" d="M33 0l152 762h83l-103 -517h2l266 275h95l-208 -217l125 -303h-83l-100 254l-120 -122l-28 -132h-81z" />
<glyph unicode="l" horiz-adv-x="265" d="M117 -13q-35 0 -52.5 17.5t-17.5 50.5q0 17 7 45l131 662h83l-134 -667q-2 -10 -2 -20q0 -19 18 -19q7 0 17 3l1 -63q-22 -9 -51 -9z" />
<glyph unicode="m" horiz-adv-x="854" d="M33 0l103 520h67l-7 -78h4q97 91 171 91q107 0 120 -102q107 102 184 102q123 0 123 -130q0 -25 -8 -71l-67 -332h-82l65 321q9 45 9 61q0 80 -76 80q-25 0 -64 -24t-83 -70l-74 -368h-81l64 321q9 45 9 61q0 80 -75 80q-25 0 -64 -24t-83 -70l-74 -368h-81z" />
<glyph unicode="n" horiz-adv-x="561" d="M33 0l103 520h67l-7 -78h4q50 44 93.5 67.5t88.5 23.5q123 0 123 -130q0 -33 -9 -71l-66 -332h-81l64 321q9 45 9 61q0 80 -77 80q-63 0 -157 -94l-74 -368h-81z" />
<glyph unicode="o" horiz-adv-x="551" d="M227 -13q-85 0 -135 56t-50 153q0 57 15.5 110t42.5 93.5t62 71t76.5 46.5t83.5 16q85 0 135.5 -56t50.5 -153q0 -71 -24 -135t-63 -107.5t-90 -69t-104 -25.5zM235 56q74 0 132 78t58 185q0 47 -13 79.5t-38 49.5t-60 17q-73 0 -131.5 -78.5t-58.5 -185.5 q0 -47 13 -79.5t38 -49t60 -16.5z" />
<glyph unicode="p" horiz-adv-x="572" d="M123 62l-19 -111l-33 -170h-82l148 739h67l-6 -68h3q97 81 180 81q69 0 109.5 -49.5t40.5 -138.5q0 -98 -40 -181t-104.5 -130t-136.5 -47q-20 0 -38.5 5.5t-34 15.5t-29 23.5t-23.5 30.5h-2zM351 464q-37 0 -80.5 -23t-80.5 -62l-49 -248q41 -75 106 -75q51 0 97 38.5 t74 103t28 135.5q0 64 -25 97.5t-70 33.5z" />
<glyph unicode="q" horiz-adv-x="574" d="M345 -49l32 127h-3q-40 -41 -87.5 -66t-94.5 -25q-70 0 -110 49t-40 139q0 98 40 181t104.5 130t136.5 47q41 0 73.5 -21t51.5 -57h5l20 65h66l-147 -739h-83zM221 56q39 0 82.5 25.5t81.5 73.5l47 232q-42 77 -106 77q-51 0 -97 -38.5t-74.5 -102.5t-28.5 -135 q0 -65 25.5 -98.5t69.5 -33.5z" />
<glyph unicode="r" horiz-adv-x="365" d="M33 0l103 520h67l-11 -99h4q74 112 161 112q27 0 50 -10l-29 -73q-17 9 -45 9q-39 0 -80 -34t-73 -97l-66 -328h-81z" />
<glyph unicode="s" horiz-adv-x="430" d="M174 -13q-51 0 -101 28.5t-77 70.5l51 40q54 -76 134 -76q45 0 77.5 26t32.5 61q0 28 -20 48t-75 50q-62 34 -90.5 67t-28.5 76q0 67 52 111t127 44q87 0 153 -70l-47 -46q-50 52 -108 52q-28 0 -50.5 -11.5t-35.5 -30t-13 -40.5q0 -12 6 -24t12 -19t22.5 -18t23 -15 t28.5 -16q69 -37 95.5 -70.5t26.5 -76.5q0 -73 -54.5 -117t-140.5 -44z" />
<glyph unicode="t" horiz-adv-x="347" d="M198 -13q-44 0 -72.5 16t-40 41t-11.5 59q0 9 5 57l61 294h-76l12 61l81 5l39 143h69l-29 -143h132l-13 -66h-134l-61 -298q-3 -19 -3 -38q0 -33 15.5 -48.5t51.5 -15.5q20 0 54 16l18 -59q-51 -24 -98 -24z" />
<glyph unicode="u" horiz-adv-x="564" d="M530 520l-104 -520h-68l9 79h-4q-104 -92 -180 -92q-123 0 -123 130q0 34 8 71l67 332h82l-65 -321q-9 -44 -9 -61q0 -80 77 -80q63 0 154 94l74 368h82z" />
<glyph unicode="v" horiz-adv-x="479" d="M139 0l-76 520h81l39 -301q3 -25 7.5 -77.5t7.5 -77.5h4q44 91 77 155l153 301h83l-277 -520h-99z" />
<glyph unicode="w" horiz-adv-x="756" d="M112 0l-37 520h81l17 -306q1 -47 4 -146h4q9 22 29.5 71t32.5 75l137 306h80l18 -306q1 -24 3 -72.5t3 -73.5h4q6 16 26.5 67t33.5 79l136 306h77l-237 -520h-101l-15 285q-1 23 -4 153h-4q-6 -16 -28.5 -70.5t-34.5 -82.5l-126 -285h-99z" />
<glyph unicode="x" horiz-adv-x="459" d="M-47 0l233 276l-97 244h83l45 -116q5 -13 10.5 -28t11 -31.5t9.5 -27.5h5q8 11 31 41t35 46l91 116h89l-214 -262l106 -258h-85l-47 122q-30 79 -38 96h-4q-19 -28 -74 -95l-100 -123h-90z" />
<glyph unicode="y" horiz-adv-x="479" d="M-6 -224q-32 0 -60 15l26 61q20 -9 39 -9q38 0 73.5 31.5t62.5 86.5l19 38l-89 521h82l40 -292q8 -50 17 -155h5q9 18 24 48.5t28 57.5t25 49l149 292h82l-306 -564q-46 -86 -97 -133t-120 -47z" />
<glyph unicode="z" horiz-adv-x="438" d="M-11 0l9 47l345 407h-236l14 66h339l-8 -48l-346 -406h272l-13 -66h-376z" />
<glyph unicode="{" horiz-adv-x="310" d="M144 -163q-49 0 -71.5 20.5t-22.5 65.5q0 42 29.5 150.5t29.5 137.5q0 60 -75 60l12 53q87 0 105 85q5 27 10.5 64t11 73t11.5 67q16 83 47.5 114t95.5 31h50l-11 -49h-28q-41 0 -60 -23t-30 -77q-5 -29 -15 -94t-17 -99q-10 -53 -31.5 -81.5t-58.5 -38.5v-4 q47 -16 47 -65q0 -39 -27.5 -147.5t-27.5 -141.5q0 -28 12.5 -40t46.5 -12h25l-10 -49h-48z" />
<glyph unicode="|" horiz-adv-x="247" d="M102 -268v1070h55v-1070h-55z" />
<glyph unicode="}" horiz-adv-x="313" d="M-56 -163l10 49h28q41 0 60.5 22.5t29.5 76.5q6 33 16.5 99t15.5 94q11 54 32 82.5t58 38.5v4q-47 16 -47 65q0 38 27.5 146.5t27.5 141.5q0 19 -5 30t-17.5 17t-35.5 6h-26l10 49h47q50 0 73 -21t23 -65q0 -42 -29.5 -151t-29.5 -139q0 -58 75 -58l-12 -53 q-89 0 -105 -85q-6 -30 -15.5 -98.5t-17.5 -107.5q-17 -82 -48.5 -112.5t-94.5 -30.5h-50z" />
<glyph unicode="~" d="M355 278q-18 0 -36.5 7t-32.5 17t-29.5 22t-28 22.5t-27 17t-28.5 6.5q-45 0 -79 -65l-46 30q26 48 59.5 71.5t67.5 23.5q19 0 37 -6.5t32.5 -17t30 -22.5t28 -22t27 -17t27.5 -7q46 0 80 65l46 -30q-26 -47 -59.5 -71t-68.5 -24z" />
<glyph unicode="&#xa1;" horiz-adv-x="301" d="M22 -198l21 98l92 410h58l-72 -410l-16 -98h-83zM183 404q-15 0 -26 7.5t-16.5 19.5t-5.5 28q0 29 20 51.5t49 22.5q23 0 37 -15t14 -39q0 -28 -21 -51.5t-51 -23.5z" />
<glyph unicode="&#xa2;" d="M165 321q0 -61 22.5 -100.5t66.5 -51.5l73 369q-66 -12 -114 -72t-48 -145zM217 -15l23 113q-74 11 -115.5 65.5t-41.5 143.5q0 64 23 120t60 93t82.5 60t92.5 28l22 109h52l-21 -110q64 -9 117 -71l-50 -48q-40 45 -81 51l-74 -373q57 4 117 46l29 -56q-84 -54 -159 -59 l-22 -112h-54z" />
<glyph unicode="&#xa3;" d="M4 0l10 49q75 37 114.5 102t39.5 143v9h-103l12 58l87 5q-7 68 -7 97q0 108 61 172t158 64q94 0 149 -89l-55 -44q-40 65 -99 65q-60 0 -98.5 -47t-38.5 -126q0 -28 7 -92h166l-13 -63h-150q-1 -73 -23.5 -127.5t-70.5 -100.5l-1 -4h277l-13 -71h-409z" />
<glyph unicode="&#xa5;" d="M162 0l35 172h-167l10 45h167l12 74h-165l9 46h146l-98 346h84l44 -189q10 -50 32 -145h3q11 18 30 48t33.5 53.5t28.5 43.5l116 189h82l-231 -346h145l-10 -46h-166l-14 -74h167l-11 -45h-167l-34 -172h-81z" />
<glyph unicode="&#xa7;" horiz-adv-x="510" d="M133 368q0 -20 9 -38t23.5 -30.5t34.5 -26t39.5 -23.5t41.5 -24t38 -27q39 14 58 38t19 65q0 29 -20 54.5t-44.5 41t-61.5 38.5t-57 39q-80 -35 -80 -107zM195 -64q-99 0 -179 80l44 54q66 -70 139 -70q40 0 67.5 24t27.5 61q0 26 -17 48t-43.5 37t-56.5 33.5t-56 37 t-43.5 48.5t-17.5 67q0 56 31 96.5t84 63.5q-17 29 -17 62q0 34 12.5 63t34 49t51 31t64.5 11q89 0 162 -78l-47 -48q-54 62 -116 62q-35 0 -60 -21.5t-25 -58.5q0 -23 17.5 -44.5t43.5 -36.5t56.5 -35t56.5 -40t43.5 -51t17.5 -69q0 -58 -28.5 -94.5t-85.5 -62.5 q14 -28 14 -59q0 -69 -49 -114.5t-125 -45.5z" />
<glyph unicode="&#xa8;" horiz-adv-x="553" d="M260 630q-19 0 -31 11.5t-12 31.5q0 24 16 41.5t39 17.5q19 0 31.5 -12t12.5 -33q0 -24 -16.5 -40.5t-39.5 -16.5zM459 630q-19 0 -31 11.5t-12 31.5q0 24 16 41.5t39 17.5q19 0 31 -12t12 -33q0 -24 -16 -40.5t-39 -16.5z" />
<glyph unicode="&#xa9;" horiz-adv-x="711" d="M319 -12q-124 0 -202 83t-78 214q0 79 28 153.5t77.5 132.5t123 93t158.5 35q124 0 202.5 -82.5t78.5 -213.5q0 -79 -28.5 -153.5t-78 -132.5t-123.5 -93.5t-158 -35.5zM322 32q73 0 137 32t108 83.5t69 117t25 133.5q0 115 -64 186.5t-174 71.5q-73 0 -137 -32 t-107.5 -83.5t-68.5 -117t-25 -133.5q0 -115 63.5 -186.5t173.5 -71.5zM349 134q-71 0 -113.5 42t-42.5 119q0 57 20 105.5t52.5 80t71.5 49.5t78 18q62 0 105 -55l-40 -36q-31 37 -72 37q-55 0 -103.5 -55t-48.5 -134q0 -57 27.5 -87t77.5 -30q18 0 37.5 7t31.5 13.5 t35 21.5l27 -42q-74 -54 -143 -54z" />
<glyph unicode="&#xaa;" horiz-adv-x="378" d="M91 540q0 97 57.5 166t131.5 69q54 0 80 -51h4l15 42h48l-67 -343h-51l7 50h-5q-55 -59 -119 -59q-46 0 -73.5 33t-27.5 93zM212 465q26 0 55 18t53 49l28 143q-27 48 -66 48q-31 0 -61 -24t-48.5 -65t-18.5 -86q0 -21 4.5 -37t12 -26t18 -15t23.5 -5z" />
<glyph unicode="&#xab;" horiz-adv-x="440" d="M153 72l-110 169l12 66l166 158l30 -31l-151 -166l90 -173zM324 72l-110 169l12 66l167 158l30 -31l-152 -166l91 -173z" />
<glyph unicode="&#xac;" d="M426 110v213h-375v61h439v-274h-64z" />
<glyph unicode="&#xad;" horiz-adv-x="319" d="M37 238l13 63h235l-14 -63h-234z" />
<glyph unicode="&#xae;" horiz-adv-x="434" d="M251 346q-72 0 -122.5 51t-50.5 129q0 92 61.5 163t151.5 71q72 0 123 -51.5t51 -129.5q0 -93 -62 -163t-152 -70zM255 382q71 0 121 57t50 136q0 64 -38 105.5t-100 41.5q-72 0 -121 -56.5t-49 -134.5q0 -65 37 -107t100 -42zM181 446l44 216h70q32 0 50 -16t18 -46 q0 -24 -14.5 -42.5t-38.5 -26.5l30 -85h-43l-23 75h-36l-17 -75h-40zM244 553h24q23 0 37.5 12t14.5 31q0 32 -35 32h-27z" />
<glyph unicode="&#xaf;" horiz-adv-x="553" d="M221 643l11 58h272l-10 -58h-273z" />
<glyph unicode="&#xb0;" horiz-adv-x="334" d="M223 462q-51 0 -83 33t-32 86q0 62 41.5 107t98.5 45q50 0 82 -33t32 -86q0 -62 -41.5 -107t-97.5 -45zM226 509q37 0 61 31t24 72q0 32 -18 53.5t-49 21.5q-37 0 -61.5 -31.5t-24.5 -72.5q0 -31 18.5 -52.5t49.5 -21.5z" />
<glyph unicode="&#xb1;" d="M238 139v198h-187v62h188v194h64v-194h187v-62h-188v-198h-64zM51 0v62h439v-62h-439z" />
<glyph unicode="&#xb4;" horiz-adv-x="553" d="M325 620l-37 48l180 163l50 -64z" />
<glyph unicode="&#xb5;" horiz-adv-x="562" d="M216 520l-65 -321q-9 -44 -9 -61q0 -80 77 -80q62 0 154 94l74 368h81l-103 -520h-68l9 79h-4q-89 -89 -155 -89q-71 0 -91 55l-14 -89l-31 -160h-82l145 724h82z" />
<glyph unicode="&#xb6;" horiz-adv-x="572" d="M321 -86l156 788h83l-158 -788h-81zM314 243q-101 0 -168.5 50t-67.5 138q0 67 24.5 120t66 85t93 49t109.5 17h52l-93 -459h-16z" />
<glyph unicode="&#xb7;" horiz-adv-x="258" d="M135 287q-23 0 -36.5 15t-13.5 38q0 29 21 52t50 23q23 0 36 -15.5t13 -38.5q0 -29 -20.5 -51.5t-49.5 -22.5z" />
<glyph unicode="&#xb8;" horiz-adv-x="553" d="M90 -242l-2 42q122 4 127 58q0 20 -17 31t-57 15l64 99h58l-44 -73q38 -9 52 -24.5t11 -42.5q-3 -50 -54 -76.5t-138 -28.5z" />
<glyph unicode="&#xba;" horiz-adv-x="372" d="M189 414q-57 0 -91.5 36.5t-34.5 101.5q0 97 58 160t133 63q57 0 92 -37t35 -101q0 -97 -58 -160t-134 -63zM195 464q50 0 87 50.5t37 118.5q0 44 -18 67.5t-52 23.5q-50 0 -87.5 -50t-37.5 -119q0 -21 4.5 -38t13.5 -28.5t22.5 -18t30.5 -6.5z" />
<glyph unicode="&#xbb;" horiz-adv-x="440" d="M55 72l-30 31l150 167l-90 172l38 23l110 -169l-12 -66zM226 72l-30 31l151 167l-91 172l38 23l110 -169l-11 -66z" />
<glyph unicode="&#xbf;" horiz-adv-x="437" d="M158 -209q-75 0 -118.5 40t-43.5 109q0 48 21 88.5t52.5 71.5t63 60.5t56 68.5t28.5 83l71 -6q-3 -50 -26 -92.5t-53.5 -72.5t-60.5 -58t-51 -61t-21 -69q0 -43 24 -68t67 -25q63 0 113 55l43 -49q-31 -34 -74.5 -54.5t-90.5 -20.5zM271 406q-24 0 -37 15t-13 39 q0 29 20 51.5t50 22.5q23 0 37 -15t14 -39q0 -17 -9 -34.5t-26 -28.5t-36 -11z" />
<glyph unicode="&#xc0;" horiz-adv-x="545" d="M243 403l-62 -119h208l-10 119q-17 197 -19 229h-5q-46 -99 -112 -229zM-57 0l381 702h97l81 -702h-87l-19 219h-248l-113 -219h-92zM397 742l-143 135l60 54l130 -150z" />
<glyph unicode="&#xc1;" horiz-adv-x="545" d="M243 403l-62 -119h208l-10 119q-17 197 -19 229h-5q-46 -99 -112 -229zM-57 0l381 702h97l81 -702h-87l-19 219h-248l-113 -219h-92zM351 752l-32 47l176 124l40 -64z" />
<glyph unicode="&#xc2;" horiz-adv-x="545" d="M243 403l-62 -119h208l-10 119q-17 197 -19 229h-5q-46 -99 -112 -229zM-57 0l381 702h97l81 -702h-87l-19 219h-248l-113 -219h-92zM253 747l-36 30l133 119h93l90 -121l-42 -27l-96 99h-4z" />
<glyph unicode="&#xc3;" horiz-adv-x="545" d="M243 403l-62 -119h208l-10 119q-17 197 -19 229h-5q-46 -99 -112 -229zM-57 0l381 702h97l81 -702h-87l-19 219h-248l-113 -219h-92zM449 759q-24 0 -45.5 12t-33.5 26.5t-28.5 26.5t-32.5 12q-20 0 -37 -19t-27 -53l-58 4q9 41 28 71t45.5 45.5t58.5 15.5q20 0 37.5 -8 t30 -19.5t23.5 -22.5t23.5 -19t25.5 -8q42 0 65 72l57 -5q-13 -62 -48 -96.5t-84 -34.5z" />
<glyph unicode="&#xc4;" horiz-adv-x="545" d="M243 403l-62 -119h208l-10 119q-17 197 -19 229h-5q-46 -99 -112 -229zM-57 0l381 702h97l81 -702h-87l-19 219h-248l-113 -219h-92zM275 765q-19 0 -31 11.5t-12 31.5q0 23 16 41t39 18q18 0 30.5 -12t12.5 -32q0 -23 -16.5 -40.5t-38.5 -17.5zM474 765q-19 0 -31 11.5 t-12 31.5q0 23 16.5 41t38.5 18q18 0 30 -12t12 -32q0 -23 -16 -40.5t-38 -17.5z" />
<glyph unicode="&#xc5;" horiz-adv-x="545" d="M243 403l-62 -119h208l-10 119q-17 197 -19 229h-5q-46 -99 -112 -229zM-57 0l381 702h97l81 -702h-87l-19 219h-248l-113 -219h-92zM377 749q-41 0 -68 21.5t-27 63.5q0 43 33.5 74t80.5 31q25 0 46 -9t34.5 -28.5t13.5 -46.5q0 -45 -33 -75.5t-80 -30.5zM379 788 q16 0 30 8t23 22.5t9 32.5q0 22 -12.5 36t-34.5 14q-25 0 -43.5 -19t-18.5 -45q0 -15 5.5 -26t16 -17t25.5 -6z" />
<glyph unicode="&#xc6;" horiz-adv-x="859" d="M335 407l-90 -133h180l73 365h-4q-31 -46 -88 -129t-71 -103zM-35 0l491 702h430l-15 -70h-292l-45 -228h245l-14 -70h-244l-54 -263h301l-14 -71h-384l42 208h-212l-140 -208h-95z" />
<glyph unicode="&#xc7;" horiz-adv-x="588" d="M159 -242l-2 42q123 4 128 58q0 20 -17.5 31t-56.5 15l55 86q-98 15 -151.5 90t-53.5 191q0 82 26.5 162t73 142.5t115.5 101t148 38.5q57 0 101 -28t71 -76l-58 -44q-47 76 -119 76q-60 0 -112.5 -33t-86.5 -85.5t-53.5 -117t-19.5 -129.5q0 -66 17.5 -113.5t58.5 -76.5 t102 -29q74 0 149 63l37 -54q-87 -75 -188 -81l-34 -57q37 -9 51 -24.5t12 -42.5q-4 -50 -55 -76.5t-138 -28.5z" />
<glyph unicode="&#xc8;" horiz-adv-x="538" d="M37 0l141 702h387l-14 -70h-305l-45 -228h258l-15 -70h-256l-54 -263h314l-15 -71h-396zM410 742l-144 135l60 54l131 -150z" />
<glyph unicode="&#xc9;" horiz-adv-x="538" d="M37 0l141 702h387l-14 -70h-305l-45 -228h258l-15 -70h-256l-54 -263h314l-15 -71h-396zM364 752l-32 47l176 124l40 -64z" />
<glyph unicode="&#xca;" horiz-adv-x="538" d="M37 0l141 702h387l-14 -70h-305l-45 -228h258l-15 -70h-256l-54 -263h314l-15 -71h-396zM265 747l-35 30l133 119h93l90 -121l-42 -27l-96 99h-5z" />
<glyph unicode="&#xcb;" horiz-adv-x="538" d="M37 0l141 702h387l-14 -70h-305l-45 -228h258l-15 -70h-256l-54 -263h314l-15 -71h-396zM288 765q-19 0 -31 11.5t-12 31.5q0 23 16 41t39 18q18 0 30 -12t12 -32q0 -23 -16 -40.5t-38 -17.5zM487 765q-19 0 -31 11.5t-12 31.5q0 23 16 41t39 18q18 0 29.5 -12t11.5 -32 q0 -23 -15.5 -40.5t-37.5 -17.5z" />
<glyph unicode="&#xcc;" horiz-adv-x="269" d="M37 0l141 702h83l-140 -702h-84zM249 742l-143 135l60 54l130 -150z" />
<glyph unicode="&#xcd;" horiz-adv-x="269" d="M37 0l141 702h83l-140 -702h-84zM203 752l-32 47l177 124l39 -64z" />
<glyph unicode="&#xce;" horiz-adv-x="269" d="M37 0l141 702h83l-140 -702h-84zM105 747l-35 30l132 119h93l90 -121l-42 -27l-96 99h-4z" />
<glyph unicode="&#xcf;" horiz-adv-x="269" d="M37 0l141 702h83l-140 -702h-84zM127 765q-19 0 -30.5 11.5t-11.5 31.5q0 23 16 41t38 18q12 0 21.5 -5t15.5 -15.5t6 -23.5q0 -23 -16 -40.5t-39 -17.5zM326 765q-18 0 -30 11.5t-12 31.5q0 23 16 41t38 18q18 0 30 -12t12 -32q0 -23 -16 -40.5t-38 -17.5z" />
<glyph unicode="&#xd0;" horiz-adv-x="652" d="M50 347l10 44l75 3l62 308h130q145 0 221.5 -71.5t76.5 -202.5q0 -193 -102 -310.5t-278 -117.5h-188l69 347h-76zM153 68h92q135 0 215 98t80 257q0 100 -55.5 156t-160.5 56h-58l-48 -241h161l-11 -47h-159z" />
<glyph unicode="&#xd1;" horiz-adv-x="662" d="M37 0l141 702h83l161 -449l45 -147h4q21 168 32 224l74 372h80l-140 -702h-83l-158 448l-46 151h-4q-16 -132 -33 -221l-75 -378h-81zM505 759q-24 0 -45.5 12t-34 26.5t-28.5 26.5t-32 12q-20 0 -37 -19t-27 -53l-58 4q8 41 27.5 71t46 45.5t57.5 15.5q25 0 46.5 -12 t34 -26.5t28.5 -26.5t32 -12q42 0 65 72l57 -5q-9 -41 -28 -71t-45.5 -45t-58.5 -15z" />
<glyph unicode="&#xd2;" horiz-adv-x="677" d="M307 -13q-77 0 -132.5 36.5t-83 102.5t-27.5 155q0 80 25.5 158t69.5 139t109 99t138 38q116 0 179 -79.5t63 -213.5q0 -65 -15.5 -128t-46.5 -118t-72 -97.5t-94.5 -67t-112.5 -24.5zM311 59q55 0 103 32.5t80.5 84t51 114t18.5 124.5q0 107 -41 168t-122 61 q-72 0 -131.5 -55t-90 -135.5t-30.5 -164.5q0 -107 40.5 -168t121.5 -61zM460 742l-143 135l60 54l130 -150z" />
<glyph unicode="&#xd3;" horiz-adv-x="677" d="M307 -13q-77 0 -132.5 36.5t-83 102.5t-27.5 155q0 80 25.5 158t69.5 139t109 99t138 38q116 0 179 -79.5t63 -213.5q0 -65 -15.5 -128t-46.5 -118t-72 -97.5t-94.5 -67t-112.5 -24.5zM311 59q55 0 103 32.5t80.5 84t51 114t18.5 124.5q0 107 -41 168t-122 61 q-72 0 -131.5 -55t-90 -135.5t-30.5 -164.5q0 -107 40.5 -168t121.5 -61zM414 752l-32 47l177 124l39 -64z" />
<glyph unicode="&#xd4;" horiz-adv-x="677" d="M307 -13q-77 0 -132.5 36.5t-83 102.5t-27.5 155q0 80 25.5 158t69.5 139t109 99t138 38q116 0 179 -79.5t63 -213.5q0 -65 -15.5 -128t-46.5 -118t-72 -97.5t-94.5 -67t-112.5 -24.5zM311 59q55 0 103 32.5t80.5 84t51 114t18.5 124.5q0 107 -41 168t-122 61 q-72 0 -131.5 -55t-90 -135.5t-30.5 -164.5q0 -107 40.5 -168t121.5 -61zM316 747l-36 30l133 119h93l90 -121l-42 -27l-96 99h-4z" />
<glyph unicode="&#xd5;" horiz-adv-x="677" d="M307 -13q-77 0 -132.5 36.5t-83 102.5t-27.5 155q0 80 25.5 158t69.5 139t109 99t138 38q116 0 179 -79.5t63 -213.5q0 -65 -15.5 -128t-46.5 -118t-72 -97.5t-94.5 -67t-112.5 -24.5zM311 59q55 0 103 32.5t80.5 84t51 114t18.5 124.5q0 107 -41 168t-122 61 q-72 0 -131.5 -55t-90 -135.5t-30.5 -164.5q0 -107 40.5 -168t121.5 -61zM513 759q-25 0 -46 12t-33.5 26.5t-29 26.5t-32.5 12q-20 0 -36.5 -19t-27.5 -53l-58 4q9 41 28 71t45.5 45.5t58.5 15.5q25 0 46 -12t33.5 -26.5t28.5 -26.5t32 -12q43 0 65 72l57 -5 q-13 -62 -48 -96.5t-83 -34.5z" />
<glyph unicode="&#xd6;" horiz-adv-x="677" d="M307 -13q-77 0 -132.5 36.5t-83 102.5t-27.5 155q0 80 25.5 158t69.5 139t109 99t138 38q116 0 179 -79.5t63 -213.5q0 -65 -15.5 -128t-46.5 -118t-72 -97.5t-94.5 -67t-112.5 -24.5zM311 59q55 0 103 32.5t80.5 84t51 114t18.5 124.5q0 107 -41 168t-122 61 q-72 0 -131.5 -55t-90 -135.5t-30.5 -164.5q0 -107 40.5 -168t121.5 -61zM338 765q-19 0 -31 11.5t-12 31.5q0 23 16.5 41t38.5 18q18 0 30.5 -12t12.5 -32q0 -23 -16.5 -40.5t-38.5 -17.5zM537 765q-19 0 -31 11.5t-12 31.5q0 15 7.5 28.5t20 22t27.5 8.5q18 0 30 -12 t12 -32q0 -23 -16 -40.5t-38 -17.5z" />
<glyph unicode="&#xd8;" horiz-adv-x="677" d="M307 -13q-114 0 -178 77l-89 -96l-43 37l101 108q-34 71 -34 168q0 80 25.5 158t69.5 139t109 99t138 38q117 0 180 -82l96 102l38 -37l-104 -112q32 -69 32 -164q0 -65 -15.5 -128t-46.5 -118t-72 -97.5t-94.5 -67t-112.5 -24.5zM149 288q0 -61 13 -107l368 391 q-42 71 -129 71q-72 0 -131.5 -55t-90 -135.5t-30.5 -164.5zM311 59q55 0 103 32.5t80.5 84t51 114t18.5 124.5q0 56 -12 103l-366 -392q43 -66 125 -66z" />
<glyph unicode="&#xd9;" horiz-adv-x="659" d="M95 308l79 394h84l-80 -401q-10 -48 -10 -85q0 -157 142 -157q64 0 110.5 51.5t68.5 161.5l87 430h81l-88 -433q-28 -146 -96 -214t-167 -68q-107 0 -164 56.5t-57 165.5q0 40 10 99zM450 742l-143 135l60 54l131 -150z" />
<glyph unicode="&#xda;" horiz-adv-x="659" d="M95 308l79 394h84l-80 -401q-10 -48 -10 -85q0 -157 142 -157q64 0 110.5 51.5t68.5 161.5l87 430h81l-88 -433q-28 -146 -96 -214t-167 -68q-107 0 -164 56.5t-57 165.5q0 40 10 99zM404 752l-32 47l177 124l39 -64z" />
<glyph unicode="&#xdb;" horiz-adv-x="659" d="M95 308l79 394h84l-80 -401q-10 -48 -10 -85q0 -157 142 -157q64 0 110.5 51.5t68.5 161.5l87 430h81l-88 -433q-28 -146 -96 -214t-167 -68q-107 0 -164 56.5t-57 165.5q0 40 10 99zM306 747l-35 30l132 119h93l90 -121l-41 -27l-97 99h-4z" />
<glyph unicode="&#xdc;" horiz-adv-x="659" d="M95 308l79 394h84l-80 -401q-10 -48 -10 -85q0 -157 142 -157q64 0 110.5 51.5t68.5 161.5l87 430h81l-88 -433q-28 -146 -96 -214t-167 -68q-107 0 -164 56.5t-57 165.5q0 40 10 99zM328 765q-12 0 -21.5 5t-15 15t-5.5 23q0 23 16 41t38 18q19 0 31 -12t12 -32 q0 -23 -16 -40.5t-39 -17.5zM528 765q-19 0 -31 11.5t-12 31.5q0 15 7 28.5t20 22t27 8.5q18 0 30 -12t12 -32q0 -23 -15.5 -40.5t-37.5 -17.5z" />
<glyph unicode="&#xdd;" horiz-adv-x="493" d="M149 0l54 274l-114 428h85l49 -202q7 -28 18 -79t17 -73h4q64 105 96 153l133 201h89l-293 -428l-56 -274h-82zM312 752l-32 47l177 124l39 -64z" />
<glyph unicode="&#xde;" horiz-adv-x="601" d="M37 0l141 706h83l-25 -123h124q65 0 111.5 -17t73.5 -56t27 -98q0 -84 -40 -141t-107.5 -82.5t-159.5 -25.5h-113l-32 -163h-83zM167 230h101q109 0 165.5 43.5t56.5 126.5q0 116 -155 116h-112z" />
<glyph unicode="&#xdf;" horiz-adv-x="593" d="M363 -13q-84 0 -150 54l37 54q55 -44 113 -44q42 0 71 26.5t29 66.5q0 28 -16.5 52t-40 42t-47 36.5t-40 43.5t-16.5 55q0 31 14.5 58t35.5 47.5t42 40.5t35.5 47.5t14.5 58.5q0 25 -7.5 43t-25.5 29t-45 11q-52 0 -90 -46.5t-53 -119.5l-110 -542h-81l113 562 q19 92 78 152.5t146 60.5q68 0 111 -36.5t43 -105.5q0 -36 -14.5 -67t-35 -52t-41.5 -40t-35.5 -41t-14.5 -45t16 -43.5t39.5 -37.5t46.5 -36.5t39 -49t16 -66.5q0 -70 -51 -119t-126 -49z" />
<glyph unicode="&#xe0;" horiz-adv-x="574" d="M192 -13q-70 0 -110 49t-40 139q0 98 40 181t104.5 130t136.5 47q41 0 73.5 -21t51.5 -57h5l20 65h66l-104 -520h-67l9 77h-5q-39 -41 -86 -65.5t-94 -24.5zM221 56q88 0 164 99l47 232q-42 77 -106 77q-51 0 -97 -38.5t-74.5 -102.5t-28.5 -135q0 -65 25.5 -98.5 t69.5 -33.5zM388 610l-141 175l71 53l122 -190z" />
<glyph unicode="&#xe1;" horiz-adv-x="574" d="M192 -13q-70 0 -110 49t-40 139q0 98 40 181t104.5 130t136.5 47q41 0 73.5 -21t51.5 -57h5l20 65h66l-104 -520h-67l9 77h-5q-39 -41 -86 -65.5t-94 -24.5zM221 56q88 0 164 99l47 232q-42 77 -106 77q-51 0 -97 -38.5t-74.5 -102.5t-28.5 -135q0 -65 25.5 -98.5 t69.5 -33.5zM323 620l-37 48l179 163l51 -64z" />
<glyph unicode="&#xe2;" horiz-adv-x="574" d="M192 -13q-70 0 -110 49t-40 139q0 98 40 181t104.5 130t136.5 47q41 0 73.5 -21t51.5 -57h5l20 65h66l-104 -520h-67l9 77h-5q-39 -41 -86 -65.5t-94 -24.5zM221 56q88 0 164 99l47 232q-42 77 -106 77q-51 0 -97 -38.5t-74.5 -102.5t-28.5 -135q0 -65 25.5 -98.5 t69.5 -33.5zM224 608l-34 36l148 148h89l95 -151l-42 -33l-100 124h-4z" />
<glyph unicode="&#xe3;" horiz-adv-x="574" d="M192 -13q-70 0 -110 49t-40 139q0 98 40 181t104.5 130t136.5 47q41 0 73.5 -21t51.5 -57h5l20 65h66l-104 -520h-67l9 77h-5q-39 -41 -86 -65.5t-94 -24.5zM221 56q88 0 164 99l47 232q-42 77 -106 77q-51 0 -97 -38.5t-74.5 -102.5t-28.5 -135q0 -65 25.5 -98.5 t69.5 -33.5zM437 617q-25 0 -45 14.5t-31 31.5t-27.5 31t-34.5 14q-46 0 -64 -85l-58 3q8 44 24.5 75.5t43 50.5t60.5 19q25 0 45 -14t31 -31t27.5 -31t34.5 -14q45 0 63 85l59 -4q-13 -66 -45.5 -105.5t-82.5 -39.5z" />
<glyph unicode="&#xe4;" horiz-adv-x="574" d="M192 -13q-70 0 -110 49t-40 139q0 98 40 181t104.5 130t136.5 47q41 0 73.5 -21t51.5 -57h5l20 65h66l-104 -520h-67l9 77h-5q-39 -41 -86 -65.5t-94 -24.5zM221 56q88 0 164 99l47 232q-42 77 -106 77q-51 0 -97 -38.5t-74.5 -102.5t-28.5 -135q0 -65 25.5 -98.5 t69.5 -33.5zM258 630q-12 0 -22 5t-15.5 15t-5.5 23q0 24 16 41.5t39 17.5q19 0 31.5 -12t12.5 -33q0 -24 -16.5 -40.5t-39.5 -16.5zM457 630q-19 0 -31 11.5t-12 31.5q0 24 16 41.5t39 17.5q19 0 30.5 -12t11.5 -33q0 -24 -15.5 -40.5t-38.5 -16.5z" />
<glyph unicode="&#xe5;" horiz-adv-x="574" d="M192 -13q-70 0 -110 49t-40 139q0 98 40 181t104.5 130t136.5 47q41 0 73.5 -21t51.5 -57h5l20 65h66l-104 -520h-67l9 77h-5q-39 -41 -86 -65.5t-94 -24.5zM221 56q88 0 164 99l47 232q-42 77 -106 77q-51 0 -97 -38.5t-74.5 -102.5t-28.5 -135q0 -65 25.5 -98.5 t69.5 -33.5zM355 596q-45 0 -73 23t-28 65q0 49 35.5 83.5t90.5 34.5q45 0 74 -23t29 -64q0 -49 -36.5 -84t-91.5 -35zM361 635q26 0 46 22.5t20 54.5q0 11 -3.5 20.5t-10 16.5t-16.5 11t-23 4q-26 0 -45.5 -23t-19.5 -54q0 -24 13.5 -38t38.5 -14z" />
<glyph unicode="&#xe6;" horiz-adv-x="814" d="M34 113q0 198 340 209q6 24 6 47q0 49 -21.5 73.5t-68.5 24.5q-62 0 -146 -48l-22 60q97 54 185 54q54 0 88.5 -25.5t43.5 -76.5q36 48 83 75t95 27q84 0 123 -51.5t39 -136.5q0 -53 -19 -102h-325q-13 -85 23.5 -138t104.5 -53q58 0 116 45l33 -54q-76 -56 -165 -56 q-55 0 -100 29t-64 74q-110 -103 -215 -103q-57 0 -95.5 34t-38.5 92zM444 299h259q5 32 5 53q0 50 -24 83t-76 33q-51 0 -98 -47t-66 -122zM364 268q-119 -4 -184.5 -38.5t-65.5 -98.5q0 -37 23.5 -58t60.5 -21q34 0 77.5 24t86.5 68q-8 64 2 124z" />
<glyph unicode="&#xe7;" horiz-adv-x="465" d="M79 -242l-2 42q122 4 127 58q0 20 -17 31t-56 15l56 87q-68 14 -107.5 67t-39.5 138q0 71 24 134t64 107t93 70t109 26q79 0 134 -63l-48 -52q-21 25 -41.5 36t-50.5 11q-78 0 -139.5 -79t-61.5 -185q0 -145 123 -145q56 0 116 46l36 -54q-73 -57 -155 -61l-34 -57 q37 -9 51 -24.5t12 -42.5q-4 -50 -55 -76.5t-138 -28.5z" />
<glyph unicode="&#xe8;" horiz-adv-x="514" d="M40 204q0 48 11 92.5t30.5 80t46 65.5t57.5 49.5t65 30.5t68 11q83 0 121.5 -51t38.5 -137q0 -48 -18 -102h-338q-7 -49 1 -86t28.5 -59.5t48.5 -34t63 -11.5q56 0 117 45l32 -54q-78 -56 -168 -56q-62 0 -107.5 25t-71 74.5t-25.5 117.5zM131 299h272q6 28 6 53 q0 32 -9 56.5t-32.5 42t-59.5 17.5q-58 0 -108 -47t-69 -122zM371 610l-141 175l71 53l122 -190z" />
<glyph unicode="&#xe9;" horiz-adv-x="514" d="M40 204q0 48 11 92.5t30.5 80t46 65.5t57.5 49.5t65 30.5t68 11q83 0 121.5 -51t38.5 -137q0 -48 -18 -102h-338q-7 -49 1 -86t28.5 -59.5t48.5 -34t63 -11.5q56 0 117 45l32 -54q-78 -56 -168 -56q-62 0 -107.5 25t-71 74.5t-25.5 117.5zM131 299h272q6 28 6 53 q0 32 -9 56.5t-32.5 42t-59.5 17.5q-58 0 -108 -47t-69 -122zM306 620l-37 48l179 163l51 -64z" />
<glyph unicode="&#xea;" horiz-adv-x="514" d="M40 204q0 48 11 92.5t30.5 80t46 65.5t57.5 49.5t65 30.5t68 11q83 0 121.5 -51t38.5 -137q0 -48 -18 -102h-338q-7 -49 1 -86t28.5 -59.5t48.5 -34t63 -11.5q56 0 117 45l32 -54q-78 -56 -168 -56q-62 0 -107.5 25t-71 74.5t-25.5 117.5zM131 299h272q6 28 6 53 q0 32 -9 56.5t-32.5 42t-59.5 17.5q-58 0 -108 -47t-69 -122zM207 608l-34 36l148 148h89l95 -151l-42 -33l-100 124h-5z" />
<glyph unicode="&#xeb;" horiz-adv-x="514" d="M40 204q0 48 11 92.5t30.5 80t46 65.5t57.5 49.5t65 30.5t68 11q83 0 121.5 -51t38.5 -137q0 -48 -18 -102h-338q-7 -49 1 -86t28.5 -59.5t48.5 -34t63 -11.5q56 0 117 45l32 -54q-78 -56 -168 -56q-62 0 -107.5 25t-71 74.5t-25.5 117.5zM131 299h272q6 28 6 53 q0 32 -9 56.5t-32.5 42t-59.5 17.5q-58 0 -108 -47t-69 -122zM241 630q-19 0 -31 11.5t-12 31.5q0 16 7.5 29.5t20 21.5t27.5 8q19 0 31 -12t12 -33q0 -24 -16.5 -40.5t-38.5 -16.5zM440 630q-19 0 -31 11.5t-12 31.5q0 24 16 41.5t39 17.5q19 0 30.5 -12t11.5 -33 q0 -24 -16 -40.5t-38 -16.5z" />
<glyph unicode="&#xec;" horiz-adv-x="253" d="M33 0l104 520h82l-105 -520h-81zM234 610l-141 175l71 53l122 -190z" />
<glyph unicode="&#xed;" horiz-adv-x="253" d="M33 0l104 520h82l-105 -520h-81zM169 620l-37 48l179 163l51 -64z" />
<glyph unicode="&#xee;" horiz-adv-x="253" d="M33 0l104 520h82l-105 -520h-81zM70 608l-34 36l148 148h89l95 -151l-42 -33l-100 124h-5z" />
<glyph unicode="&#xef;" horiz-adv-x="253" d="M33 0l104 520h82l-105 -520h-81zM104 630q-19 0 -31 11.5t-12 31.5q0 24 16 41.5t39 17.5q19 0 31 -12t12 -33q0 -24 -16 -40.5t-39 -16.5zM303 630q-19 0 -31 11.5t-12 31.5q0 24 16 41.5t39 17.5q19 0 30.5 -12t11.5 -33q0 -24 -16 -40.5t-38 -16.5z" />
<glyph unicode="&#xf0;" horiz-adv-x="560" d="M231 -13q-52 0 -94.5 25.5t-66.5 70.5t-24 101t17.5 108.5t48.5 94t78.5 66.5t102.5 25q38 0 72 -20t58 -56q-8 124 -66 207l-157 -65l-17 43l144 60q-39 45 -101 85l38 49q79 -46 131 -106l155 64l17 -43l-142 -59q77 -113 77 -266q0 -103 -31.5 -189.5t-94 -140.5 t-145.5 -54zM241 56q75 0 124.5 79t57.5 196q-54 82 -122 82q-80 0 -130 -67t-50 -154q0 -58 32 -97t88 -39z" />
<glyph unicode="&#xf1;" horiz-adv-x="561" d="M33 0l103 520h67l-7 -78h4q50 44 93.5 67.5t88.5 23.5q123 0 123 -130q0 -33 -9 -71l-66 -332h-81l64 321q9 45 9 61q0 80 -77 80q-63 0 -157 -94l-74 -368h-81zM453 617q-25 0 -45 14.5t-31 31.5t-27.5 31t-34.5 14q-46 0 -64 -85l-58 3q8 44 24.5 75.5t43 50.5t60.5 19 q25 0 45 -14t31 -31t27.5 -31t34.5 -14q45 0 63 85l59 -4q-6 -32 -17 -57.5t-26.5 -45.5t-37.5 -31t-47 -11z" />
<glyph unicode="&#xf2;" horiz-adv-x="551" d="M227 -13q-85 0 -135 56t-50 153q0 57 15.5 110t42.5 93.5t62 71t76.5 46.5t83.5 16q85 0 135.5 -56t50.5 -153q0 -71 -24 -135t-63 -107.5t-90 -69t-104 -25.5zM235 56q74 0 132 78t58 185q0 47 -13 79.5t-38 49.5t-60 17q-73 0 -131.5 -78.5t-58.5 -185.5 q0 -47 13 -79.5t38 -49t60 -16.5zM391 610l-142 175l71 53l122 -190z" />
<glyph unicode="&#xf3;" horiz-adv-x="551" d="M227 -13q-85 0 -135 56t-50 153q0 57 15.5 110t42.5 93.5t62 71t76.5 46.5t83.5 16q85 0 135.5 -56t50.5 -153q0 -71 -24 -135t-63 -107.5t-90 -69t-104 -25.5zM235 56q74 0 132 78t58 185q0 47 -13 79.5t-38 49.5t-60 17q-73 0 -131.5 -78.5t-58.5 -185.5 q0 -47 13 -79.5t38 -49t60 -16.5zM325 620l-37 48l180 163l50 -64z" />
<glyph unicode="&#xf4;" horiz-adv-x="551" d="M227 -13q-85 0 -135 56t-50 153q0 57 15.5 110t42.5 93.5t62 71t76.5 46.5t83.5 16q85 0 135.5 -56t50.5 -153q0 -71 -24 -135t-63 -107.5t-90 -69t-104 -25.5zM235 56q74 0 132 78t58 185q0 47 -13 79.5t-38 49.5t-60 17q-73 0 -131.5 -78.5t-58.5 -185.5 q0 -47 13 -79.5t38 -49t60 -16.5zM226 608l-33 36l147 148h89l95 -151l-41 -33l-101 124h-4z" />
<glyph unicode="&#xf5;" horiz-adv-x="551" d="M227 -13q-85 0 -135 56t-50 153q0 57 15.5 110t42.5 93.5t62 71t76.5 46.5t83.5 16q85 0 135.5 -56t50.5 -153q0 -71 -24 -135t-63 -107.5t-90 -69t-104 -25.5zM235 56q74 0 132 78t58 185q0 47 -13 79.5t-38 49.5t-60 17q-73 0 -131.5 -78.5t-58.5 -185.5 q0 -47 13 -79.5t38 -49t60 -16.5zM439 617q-25 0 -45 14.5t-31 31.5t-27.5 31t-34.5 14q-46 0 -63 -85l-59 3q13 67 45 106t83 39q25 0 45 -14t31.5 -31t27.5 -31t34 -14q45 0 63 85l59 -4q-6 -32 -17 -57.5t-26.5 -45.5t-37 -31t-47.5 -11z" />
<glyph unicode="&#xf6;" horiz-adv-x="551" d="M227 -13q-85 0 -135 56t-50 153q0 57 15.5 110t42.5 93.5t62 71t76.5 46.5t83.5 16q85 0 135.5 -56t50.5 -153q0 -71 -24 -135t-63 -107.5t-90 -69t-104 -25.5zM235 56q74 0 132 78t58 185q0 47 -13 79.5t-38 49.5t-60 17q-73 0 -131.5 -78.5t-58.5 -185.5 q0 -47 13 -79.5t38 -49t60 -16.5zM260 630q-19 0 -31 11.5t-12 31.5q0 24 16 41.5t39 17.5q19 0 31.5 -12t12.5 -33q0 -24 -16.5 -40.5t-39.5 -16.5zM459 630q-19 0 -31 11.5t-12 31.5q0 24 16 41.5t39 17.5q19 0 31 -12t12 -33q0 -24 -16 -40.5t-39 -16.5z" />
<glyph unicode="&#xf7;" d="M51 323v61h439v-61h-439zM270.5 104q-23.5 0 -39 15.5t-15.5 38.5t16 38.5t39 15.5q15 0 27.5 -7t19.5 -19.5t7 -27.5q0 -23 -15.5 -38.5t-39 -15.5zM271 492q-23 0 -39 16t-16 40q0 22 16 37.5t39 15.5q15 0 27.5 -7t19.5 -19t7 -27t-7 -28t-19.5 -20.5t-27.5 -7.5z" />
<glyph unicode="&#xf8;" horiz-adv-x="551" d="M227 -13q-83 0 -133 54l-63 -66l-31 30l68 71q-26 50 -26 120q0 57 15.5 110t42.5 93.5t62 71t76.5 46.5t83.5 16q86 0 136 -57l65 68l32 -30l-71 -74q24 -49 24 -116q0 -72 -24 -135.5t-63 -107t-90 -69t-104 -25.5zM120 201q0 -39 7 -64l277 285q-29 45 -88 45 q-52 0 -97.5 -38.5t-72 -99.5t-26.5 -128zM233 54q39 0 76 22t63 58.5t42 85t16 98.5q0 34 -6 60l-277 -284q29 -40 86 -40z" />
<glyph unicode="&#xf9;" horiz-adv-x="564" d="M530 520l-104 -520h-68l9 79h-4q-104 -92 -180 -92q-123 0 -123 130q0 34 8 71l67 332h82l-65 -321q-9 -44 -9 -61q0 -80 77 -80q63 0 154 94l74 368h82zM383 610l-141 175l70 53l122 -190z" />
<glyph unicode="&#xfa;" horiz-adv-x="564" d="M530 520l-104 -520h-68l9 79h-4q-104 -92 -180 -92q-123 0 -123 130q0 34 8 71l67 332h82l-65 -321q-9 -44 -9 -61q0 -80 77 -80q63 0 154 94l74 368h82zM318 620l-38 48l180 163l50 -64z" />
<glyph unicode="&#xfb;" horiz-adv-x="564" d="M530 520l-104 -520h-68l9 79h-4q-104 -92 -180 -92q-123 0 -123 130q0 34 8 71l67 332h82l-65 -321q-9 -44 -9 -61q0 -80 77 -80q63 0 154 94l74 368h82zM218 608l-33 36l148 148h89l95 -151l-42 -33l-101 124h-4z" />
<glyph unicode="&#xfc;" horiz-adv-x="564" d="M530 520l-104 -520h-68l9 79h-4q-104 -92 -180 -92q-123 0 -123 130q0 34 8 71l67 332h82l-65 -321q-9 -44 -9 -61q0 -80 77 -80q63 0 154 94l74 368h82zM253 630q-19 0 -31 11.5t-12 31.5q0 24 16 41.5t38 17.5q20 0 32 -12t12 -33q0 -24 -16.5 -40.5t-38.5 -16.5z M452 630q-13 0 -22.5 5t-15 15t-5.5 23q0 24 16 41.5t38 17.5q20 0 31.5 -12t11.5 -33q0 -24 -16 -40.5t-38 -16.5z" />
<glyph unicode="&#xfd;" horiz-adv-x="479" d="M-6 -224q-32 0 -60 15l26 61q20 -9 39 -9q38 0 73.5 31.5t62.5 86.5l19 38l-89 521h82l40 -292q8 -50 17 -155h5q9 18 24 48.5t28 57.5t25 49l149 292h82l-306 -564q-46 -86 -97 -133t-120 -47zM268 620l-38 48l180 163l50 -64z" />
<glyph unicode="&#xfe;" horiz-adv-x="572" d="M-11 -219l196 981h83l-42 -203l-24 -103h2q95 77 177 77q69 0 109.5 -49.5t40.5 -138.5q0 -98 -40 -181t-104.5 -130t-136.5 -47q-77 0 -125 75h-2l-19 -111l-33 -170h-82zM247 56q51 0 97 38.5t74 103t28 135.5q0 64 -25 97.5t-70 33.5q-37 0 -80.5 -22.5t-80.5 -61.5 l-49 -249q41 -75 106 -75z" />
<glyph unicode="&#xff;" horiz-adv-x="479" d="M-6 -224q-32 0 -60 15l26 61q20 -9 39 -9q38 0 73.5 31.5t62.5 86.5l19 38l-89 521h82l40 -292q8 -50 17 -155h5q9 18 24 48.5t28 57.5t25 49l149 292h82l-306 -564q-46 -86 -97 -133t-120 -47zM202 630q-19 0 -31 11.5t-12 31.5q0 24 16.5 41.5t38.5 17.5q20 0 32 -12 t12 -33q0 -24 -16.5 -40.5t-39.5 -16.5zM401 630q-19 0 -31 11.5t-12 31.5q0 24 16.5 41.5t38.5 17.5q19 0 31 -12t12 -33q0 -24 -16 -40.5t-39 -16.5z" />
<glyph unicode="&#x100;" horiz-adv-x="545" d="M243 403l-62 -119h208l-10 119q-17 197 -19 229h-5q-46 -99 -112 -229zM-57 0l381 702h97l81 -702h-87l-19 219h-248l-113 -219h-92zM235 780l12 58h274l-12 -58h-274z" />
<glyph unicode="&#x101;" horiz-adv-x="574" d="M192 -13q-70 0 -110 49t-40 139q0 98 40 181t104.5 130t136.5 47q41 0 73.5 -21t51.5 -57h5l20 65h66l-104 -520h-67l9 77h-5q-39 -41 -86 -65.5t-94 -24.5zM221 56q88 0 164 99l47 232q-42 77 -106 77q-51 0 -97 -38.5t-74.5 -102.5t-28.5 -135q0 -65 25.5 -98.5 t69.5 -33.5zM219 643l11 58h272l-10 -58h-273z" />
<glyph unicode="&#x102;" horiz-adv-x="545" d="M243 403l-62 -119h208l-10 119q-17 197 -19 229h-5q-46 -99 -112 -229zM-57 0l381 702h97l81 -702h-87l-19 219h-248l-113 -219h-92zM368 754q-70 0 -102 39t-28 99l55 9q-2 -40 20 -65t66 -25q43 0 73 24.5t46 65.5l52 -9q-17 -60 -63.5 -99t-118.5 -39z" />
<glyph unicode="&#x103;" horiz-adv-x="574" d="M192 -13q-70 0 -110 49t-40 139q0 98 40 181t104.5 130t136.5 47q41 0 73.5 -21t51.5 -57h5l20 65h66l-104 -520h-67l9 77h-5q-39 -41 -86 -65.5t-94 -24.5zM221 56q88 0 164 99l47 232q-42 77 -106 77q-51 0 -97 -38.5t-74.5 -102.5t-28.5 -135q0 -65 25.5 -98.5 t69.5 -33.5zM351 611q-40 0 -69.5 14t-44.5 37.5t-20.5 51t-2.5 59.5l57 8q-3 -45 20 -78t72 -33q33 0 60.5 17t44 40.5t26.5 53.5l54 -8q-16 -68 -66.5 -115t-130.5 -47z" />
<glyph unicode="&#x104;" horiz-adv-x="545" d="M411 -226q-37 0 -60.5 19.5t-23.5 54.5q0 42 30.5 83t71.5 69h-14l-19 219h-248l-113 -219h-92l381 702h97l81 -702q-51 -28 -78 -61.5t-27 -65.5q0 -19 11 -30t27 -11q20 0 39 12l18 -45q-38 -25 -81 -25zM243 403l-62 -119h208l-10 119q-17 197 -19 229h-5 q-46 -99 -112 -229z" />
<glyph unicode="&#x105;" horiz-adv-x="574" d="M333 -220q-37 0 -58.5 18.5t-21.5 52.5q0 45 34.5 87t81.5 68l8 72h-3q-40 -41 -87.5 -66t-94.5 -25q-70 0 -110 49t-40 139q0 98 40 181t104.5 130t136.5 47q41 0 75 -22t52 -58h3l20 67h66l-104 -520q-55 -25 -86 -58t-31 -68q0 -18 11 -29t27 -11q20 0 41 13l17 -41 q-44 -26 -81 -26zM221 56q39 0 83 25.5t81 73.5l47 233q-41 76 -106 76q-51 0 -97 -38.5t-74.5 -102.5t-28.5 -135q0 -65 25.5 -98.5t69.5 -33.5z" />
<glyph unicode="&#x106;" horiz-adv-x="588" d="M310 -13q-78 0 -135 36t-85.5 99.5t-28.5 148.5q0 82 26.5 162t73 142.5t115.5 101t148 38.5q57 0 101 -28t71 -76l-58 -44q-47 76 -119 76q-60 0 -112.5 -33t-86.5 -85.5t-53.5 -117t-19.5 -129.5q0 -66 17.5 -113.5t58.5 -76.5t102 -29q74 0 149 63l37 -54 q-92 -81 -201 -81zM421 752l-33 47l177 124l40 -64z" />
<glyph unicode="&#x107;" horiz-adv-x="465" d="M231 -13q-86 0 -138.5 55.5t-52.5 153.5q0 71 24 134t64 107t93 70t109 26q79 0 134 -63l-48 -52q-21 25 -41.5 36t-50.5 11q-78 0 -139.5 -79t-61.5 -185q0 -145 123 -145q56 0 116 46l36 -54q-79 -61 -167 -61zM310 620l-37 48l180 163l50 -64z" />
<glyph unicode="&#x108;" horiz-adv-x="588" d="M310 -13q-78 0 -135 36t-85.5 99.5t-28.5 148.5q0 82 26.5 162t73 142.5t115.5 101t148 38.5q57 0 101 -28t71 -76l-58 -44q-47 76 -119 76q-60 0 -112.5 -33t-86.5 -85.5t-53.5 -117t-19.5 -129.5q0 -66 17.5 -113.5t58.5 -76.5t102 -29q74 0 149 63l37 -54 q-92 -81 -201 -81zM322 747l-35 30l132 119h94l89 -121l-41 -27l-97 99h-4z" />
<glyph unicode="&#x109;" horiz-adv-x="465" d="M231 -13q-86 0 -138.5 55.5t-52.5 153.5q0 71 24 134t64 107t93 70t109 26q79 0 134 -63l-48 -52q-21 25 -41.5 36t-50.5 11q-78 0 -139.5 -79t-61.5 -185q0 -145 123 -145q56 0 116 46l36 -54q-79 -61 -167 -61zM211 608l-33 36l147 148h89l95 -151l-41 -33l-101 124h-4 z" />
<glyph unicode="&#x10a;" horiz-adv-x="588" d="M310 -13q-78 0 -135 36t-85.5 99.5t-28.5 148.5q0 82 26.5 162t73 142.5t115.5 101t148 38.5q57 0 101 -28t71 -76l-58 -44q-47 76 -119 76q-60 0 -112.5 -33t-86.5 -85.5t-53.5 -117t-19.5 -129.5q0 -66 17.5 -113.5t58.5 -76.5t102 -29q74 0 149 63l37 -54 q-92 -81 -201 -81zM445 766q-22 0 -37 13t-15 35q0 26 18.5 44t43.5 18q22 0 37 -13t15 -36q0 -26 -18.5 -43.5t-43.5 -17.5z" />
<glyph unicode="&#x10b;" horiz-adv-x="465" d="M231 -13q-86 0 -138.5 55.5t-52.5 153.5q0 71 24 134t64 107t93 70t109 26q79 0 134 -63l-48 -52q-21 25 -41.5 36t-50.5 11q-78 0 -139.5 -79t-61.5 -185q0 -145 123 -145q56 0 116 46l36 -54q-79 -61 -167 -61zM345 628q-22 0 -37.5 13t-15.5 35q0 26 18.5 44t43.5 18 q22 0 37.5 -13t15.5 -36q0 -26 -18.5 -43.5t-43.5 -17.5z" />
<glyph unicode="&#x10c;" horiz-adv-x="588" d="M310 -13q-78 0 -135 36t-85.5 99.5t-28.5 148.5q0 82 26.5 162t73 142.5t115.5 101t148 38.5q57 0 101 -28t71 -76l-58 -44q-47 76 -119 76q-60 0 -112.5 -33t-86.5 -85.5t-53.5 -117t-19.5 -129.5q0 -66 17.5 -113.5t58.5 -76.5t102 -29q74 0 149 63l37 -54 q-92 -81 -201 -81zM389 755l-89 121l41 27l97 -99h4l138 100l35 -30l-132 -119h-94z" />
<glyph unicode="&#x10d;" horiz-adv-x="465" d="M231 -13q-86 0 -138.5 55.5t-52.5 153.5q0 71 24 134t64 107t93 70t109 26q79 0 134 -63l-48 -52q-21 25 -41.5 36t-50.5 11q-78 0 -139.5 -79t-61.5 -185q0 -145 123 -145q56 0 116 46l36 -54q-79 -61 -167 -61zM288 615l-95 151l40 33l102 -124h4l151 124l34 -36 l-147 -148h-89z" />
<glyph unicode="&#x10e;" horiz-adv-x="633" d="M37 0l141 702h130q145 0 221.5 -71.5t76.5 -202.5q0 -193 -102 -310.5t-278 -117.5h-189zM134 68h92q135 0 215 98t80 257q0 100 -55.5 156t-160.5 56h-58zM350 755l-90 121l42 27l96 -99h4l138 100l36 -30l-133 -119h-93z" />
<glyph unicode="&#x10f;" horiz-adv-x="579" d="M449 457l18 102l40 203h83l-155 -762h-67l9 77h-5q-39 -41 -86 -65.5t-94 -24.5q-70 0 -110 49t-40 139q0 98 40 181t104.5 130t136.5 47q81 0 123 -76h3zM221 56q87 0 164 99l47 232q-42 77 -106 77q-51 0 -97 -38.5t-74.5 -102.5t-28.5 -135q0 -65 25.5 -98.5 t69.5 -33.5zM606 586l42 227h58l-12 -61l-47 -166h-41z" />
<glyph unicode="&#x110;" horiz-adv-x="652" d="M50 347l10 44l75 3l62 308h130q145 0 221.5 -71.5t76.5 -202.5q0 -193 -102 -310.5t-278 -117.5h-188l69 347h-76zM153 68h92q135 0 215 98t80 257q0 100 -55.5 156t-160.5 56h-58l-48 -241h161l-11 -47h-159z" />
<glyph unicode="&#x111;" horiz-adv-x="572" d="M192 -13q-70 0 -110 49t-40 139q0 87 39.5 165.5t104 124.5t135.5 46q82 0 121 -76h3l17 102l15 75h-166l9 48h167l20 102h83l-21 -102h76l-10 -43l-75 -5l-125 -612h-67l9 77h-5q-39 -41 -86 -65.5t-94 -24.5zM221 56q87 0 164 99l43 211q-39 77 -104 77 q-50 0 -96.5 -38t-74 -97t-27.5 -120q0 -65 25.5 -98.5t69.5 -33.5z" />
<glyph unicode="&#x112;" horiz-adv-x="538" d="M37 0l141 702h387l-14 -70h-305l-45 -228h258l-15 -70h-256l-54 -263h314l-15 -71h-396zM248 780l12 58h274l-12 -58h-274z" />
<glyph unicode="&#x113;" horiz-adv-x="514" d="M40 204q0 48 11 92.5t30.5 80t46 65.5t57.5 49.5t65 30.5t68 11q83 0 121.5 -51t38.5 -137q0 -48 -18 -102h-338q-7 -49 1 -86t28.5 -59.5t48.5 -34t63 -11.5q56 0 117 45l32 -54q-78 -56 -168 -56q-62 0 -107.5 25t-71 74.5t-25.5 117.5zM131 299h272q6 28 6 53 q0 32 -9 56.5t-32.5 42t-59.5 17.5q-58 0 -108 -47t-69 -122zM202 643l11 58h272l-10 -58h-273z" />
<glyph unicode="&#x116;" horiz-adv-x="538" d="M37 0l141 702h387l-14 -70h-305l-45 -228h258l-15 -70h-256l-54 -263h314l-15 -71h-396zM388 766q-22 0 -37 13t-15 35q0 26 18.5 44t43.5 18q22 0 37 -13t15 -36q0 -26 -18 -43.5t-44 -17.5z" />
<glyph unicode="&#x117;" horiz-adv-x="514" d="M40 204q0 48 11 92.5t30.5 80t46 65.5t57.5 49.5t65 30.5t68 11q83 0 121.5 -51t38.5 -137q0 -48 -18 -102h-338q-7 -49 1 -86t28.5 -59.5t48.5 -34t63 -11.5q56 0 117 45l32 -54q-78 -56 -168 -56q-62 0 -107.5 25t-71 74.5t-25.5 117.5zM131 299h272q6 28 6 53 q0 32 -9 56.5t-32.5 42t-59.5 17.5q-58 0 -108 -47t-69 -122zM340 628q-22 0 -37 13t-15 35q0 26 18.5 44t43.5 18q22 0 37 -13t15 -36q0 -17 -8.5 -31t-22.5 -22t-31 -8z" />
<glyph unicode="&#x118;" horiz-adv-x="538" d="M37 0l141 702h387l-14 -70h-305l-45 -228h258l-15 -70h-256l-54 -263h314l-15 -71q-46 -5 -82.5 -48t-36.5 -79q0 -19 11 -30t28 -11q18 0 38 12l18 -45q-39 -25 -82 -25q-37 0 -60 19.5t-23 54.5q0 42 31.5 84t69.5 68h-308z" />
<glyph unicode="&#x119;" horiz-adv-x="514" d="M192 -149q0 70 85 140q-16 -4 -33 -4q-62 0 -107.5 25t-71 74.5t-25.5 117.5q0 48 11 92.5t30.5 80t46 65.5t57.5 49.5t65 30.5t68 11q83 0 121.5 -51t38.5 -137q0 -48 -18 -102h-338q-7 -49 1 -86t28.5 -59.5t48.5 -34t63 -11.5q56 0 117 45l32 -54q-155 -92 -155 -169 q0 -18 11 -29t27 -11q20 0 41 13l17 -41q-44 -26 -82 -26q-36 0 -57.5 18.5t-21.5 52.5zM131 299h272q6 28 6 53q0 32 -9 56.5t-32.5 42t-59.5 17.5q-58 0 -108 -47t-69 -122z" />
<glyph unicode="&#x11a;" horiz-adv-x="538" d="M37 0l141 702h387l-14 -70h-305l-45 -228h258l-15 -70h-256l-54 -263h314l-15 -71h-396zM333 755l-90 121l42 27l96 -99h4l138 100l36 -30l-133 -119h-93z" />
<glyph unicode="&#x11b;" horiz-adv-x="514" d="M40 204q0 48 11 92.5t30.5 80t46 65.5t57.5 49.5t65 30.5t68 11q83 0 121.5 -51t38.5 -137q0 -48 -18 -102h-338q-7 -49 1 -86t28.5 -59.5t48.5 -34t63 -11.5q56 0 117 45l32 -54q-78 -56 -168 -56q-62 0 -107.5 25t-71 74.5t-25.5 117.5zM131 299h272q6 28 6 53 q0 32 -9 56.5t-32.5 42t-59.5 17.5q-58 0 -108 -47t-69 -122zM284 615l-96 151l41 33l102 -124h4l151 124l34 -36l-148 -148h-88z" />
<glyph unicode="&#x11c;" horiz-adv-x="629" d="M321 -13q-125 0 -192.5 76.5t-67.5 207.5q0 84 26.5 163.5t73.5 142t118.5 100.5t154.5 38q116 0 177 -104l-59 -44q-45 76 -122 76q-64 0 -118.5 -33t-90 -86t-55 -117t-19.5 -129q0 -100 45 -160t141 -60q69 0 120 43l39 193h-145l14 69h220l-61 -304q-86 -72 -199 -72 zM320 747l-35 30l132 119h93l90 -121l-41 -27l-97 99h-4z" />
<glyph unicode="&#x11d;" horiz-adv-x="568" d="M180 -240q-96 0 -182 72l38 57q72 -62 147 -62q64 0 105 40.5t59 114.5l26 111q-87 -88 -180 -88q-68 0 -109.5 47.5t-41.5 135.5q0 93 39.5 173t102.5 126t133 46q40 0 73 -21t52 -57h3l20 65h68l-109 -545q-21 -103 -84 -159t-160 -56zM219 74q39 0 82 23.5t79 67.5 l46 222q-45 77 -106 77q-49 0 -94 -37t-72.5 -98.5t-27.5 -128.5q0 -62 24.5 -94t68.5 -32zM218 608l-33 36l148 148h89l95 -151l-42 -33l-101 124h-4z" />
<glyph unicode="&#x11e;" horiz-adv-x="629" d="M321 -13q-125 0 -192.5 76.5t-67.5 207.5q0 84 26.5 163.5t73.5 142t118.5 100.5t154.5 38q116 0 177 -104l-59 -44q-45 76 -122 76q-64 0 -118.5 -33t-90 -86t-55 -117t-19.5 -129q0 -100 45 -160t141 -60q69 0 120 43l39 193h-145l14 69h220l-61 -304q-86 -72 -199 -72 zM435 754q-69 0 -101.5 39t-28.5 99l56 9q-2 -40 19.5 -65t65.5 -25t73.5 24.5t45.5 65.5l52 -9q-17 -60 -63.5 -99t-118.5 -39z" />
<glyph unicode="&#x11f;" horiz-adv-x="568" d="M180 -240q-96 0 -182 72l38 57q72 -62 147 -62q64 0 105 40.5t59 114.5l26 111q-87 -88 -180 -88q-68 0 -109.5 47.5t-41.5 135.5q0 93 39.5 173t102.5 126t133 46q40 0 73 -21t52 -57h3l20 65h68l-109 -545q-21 -103 -84 -159t-160 -56zM219 74q39 0 82 23.5t79 67.5 l46 222q-45 77 -106 77q-49 0 -94 -37t-72.5 -98.5t-27.5 -128.5q0 -62 24.5 -94t68.5 -32zM346 611q-41 0 -70 14t-44 37.5t-20.5 51t-2.5 59.5l56 8q-1 -21 3.5 -40.5t15 -35.5t29.5 -25.5t44 -9.5q49 0 82 32t50 79l53 -8q-16 -68 -66 -115t-130 -47z" />
<glyph unicode="&#x120;" horiz-adv-x="629" d="M321 -13q-125 0 -192.5 76.5t-67.5 207.5q0 84 26.5 163.5t73.5 142t118.5 100.5t154.5 38q116 0 177 -104l-59 -44q-45 76 -122 76q-64 0 -118.5 -33t-90 -86t-55 -117t-19.5 -129q0 -100 45 -160t141 -60q69 0 120 43l39 193h-145l14 69h220l-61 -304q-86 -72 -199 -72 zM443 766q-22 0 -37 13t-15 35q0 13 5 24.5t13.5 19.5t19.5 13t24 5q21 0 36.5 -13t15.5 -36q0 -26 -18.5 -43.5t-43.5 -17.5z" />
<glyph unicode="&#x121;" horiz-adv-x="568" d="M180 -240q-96 0 -182 72l38 57q72 -62 147 -62q64 0 105 40.5t59 114.5l26 111q-87 -88 -180 -88q-68 0 -109.5 47.5t-41.5 135.5q0 93 39.5 173t102.5 126t133 46q40 0 73 -21t52 -57h3l20 65h68l-109 -545q-21 -103 -84 -159t-160 -56zM219 74q39 0 82 23.5t79 67.5 l46 222q-45 77 -106 77q-49 0 -94 -37t-72.5 -98.5t-27.5 -128.5q0 -62 24.5 -94t68.5 -32zM352 628q-14 0 -26 5.5t-19 16.5t-7 26q0 13 5 24.5t13.5 20t19.5 13t24 4.5q21 0 36.5 -13t15.5 -36q0 -26 -18.5 -43.5t-43.5 -17.5z" />
<glyph unicode="&#x122;" horiz-adv-x="629" d="M321 -13q-125 0 -192.5 76.5t-67.5 207.5q0 84 26.5 163.5t73.5 142t118.5 100.5t154.5 38q116 0 177 -104l-59 -44q-45 76 -122 76q-64 0 -118.5 -33t-90 -86t-55 -117t-19.5 -129q0 -100 45 -160t141 -60q69 0 120 43l39 193h-145l14 69h220l-61 -304q-86 -72 -199 -72 zM184 -233v41q62 3 93.5 18t31.5 39q0 39 -67 42l24 39q66 -5 89.5 -22t23.5 -48q0 -51 -53.5 -79.5t-141.5 -29.5z" />
<glyph unicode="&#x123;" horiz-adv-x="568" d="M180 -240q-96 0 -182 72l38 57q72 -62 147 -62q64 0 105 40.5t59 114.5l26 111q-87 -88 -180 -88q-68 0 -109.5 47.5t-41.5 135.5q0 93 39.5 173t102.5 126t133 46q40 0 73 -21t52 -57h3l20 65h68l-109 -545q-21 -103 -84 -159t-160 -56zM219 74q39 0 82 23.5t79 67.5 l46 222q-45 77 -106 77q-49 0 -94 -37t-72.5 -98.5t-27.5 -128.5q0 -62 24.5 -94t68.5 -32zM393 616q-28 3 -47.5 7.5t-32 10.5t-20 14.5t-10.5 17.5t-3 22q0 51 53 79t142 30v-43q-62 -1 -93.5 -16t-31.5 -39q0 -38 67 -43z" />
<glyph unicode="&#x124;" horiz-adv-x="665" d="M37 0l141 702h83l-60 -296h317l60 296h82l-140 -702h-83l67 334h-317l-66 -334h-84zM299 747l-36 30l133 119h93l90 -121l-42 -27l-96 99h-4z" />
<glyph unicode="&#x125;" horiz-adv-x="555" d="M33 0l152 762h83l-52 -252l-17 -65h4q50 43 92.5 65.5t86.5 22.5q123 0 123 -130q0 -33 -9 -71l-66 -332h-81l64 321q9 45 9 61q0 80 -77 80q-63 0 -157 -94l-74 -368h-81zM114 798l-35 30l133 119h93l90 -121l-42 -27l-96 100h-4z" />
<glyph unicode="&#x126;" horiz-adv-x="688" d="M81 528l10 43l71 4l25 127h84l-26 -127h317l25 127h83l-26 -127h90l-10 -47h-89l-105 -528h-84l68 334h-317l-66 -334h-84l105 528h-71zM211 406h317l24 122h-317z" />
<glyph unicode="&#x127;" horiz-adv-x="555" d="M33 0l122 612h-75l8 43l77 5l20 102h83l-21 -102h187l-10 -48h-188l-24 -123l-17 -65h4q50 42 92.5 64.5t86.5 22.5q123 0 123 -129q0 -33 -9 -72l-62 -310h-81l60 300q8 44 8 61q0 80 -77 80q-62 0 -156 -94l-70 -347h-81z" />
<glyph unicode="&#x12a;" horiz-adv-x="269" d="M37 0l141 702h83l-140 -702h-84zM88 780l12 58h273l-11 -58h-274z" />
<glyph unicode="&#x12b;" horiz-adv-x="253" d="M33 0l104 520h82l-105 -520h-81zM65 643l11 58h272l-10 -58h-273z" />
<glyph unicode="&#x12e;" horiz-adv-x="269" d="M40 -226q-37 0 -59.5 19.5t-22.5 54.5q0 42 30 83.5t66 68.5h-17l141 702h83l-140 -702q-41 -25 -67 -60.5t-26 -66.5q0 -19 11 -30t27 -11q20 0 38 12l19 -43q-16 -12 -40 -19.5t-43 -7.5z" />
<glyph unicode="&#x12f;" horiz-adv-x="253" d="M35 -220q-35 0 -57.5 18.5t-22.5 52.5q0 42 30 82.5t67 66.5h-19l104 520h82l-105 -520q-94 -61 -94 -126q0 -18 11.5 -29t28.5 -11q20 0 40 13l17 -41q-42 -26 -82 -26zM207 628q-15 0 -26.5 5.5t-19 16.5t-7.5 26q0 26 18.5 44t43.5 18q22 0 37.5 -13t15.5 -36 q0 -26 -18.5 -43.5t-43.5 -17.5z" />
<glyph unicode="&#x130;" horiz-adv-x="269" d="M37 0l141 702h83l-140 -702h-84zM228 766q-22 0 -37.5 13t-15.5 35q0 17 9 31.5t23 22.5t31 8q21 0 36.5 -13t15.5 -36q0 -26 -18.5 -43.5t-43.5 -17.5z" />
<glyph unicode="&#x131;" horiz-adv-x="253" d="M33 0l104 520h82l-105 -520h-81z" />
<glyph unicode="&#x134;" horiz-adv-x="487" d="M170 -13q-61 0 -105 29t-67 79l54 46q33 -82 120 -82q52 0 86 39t48 111l98 493h84l-101 -505q-18 -95 -73.5 -152.5t-143.5 -57.5zM331 747l-36 30l133 119h93l90 -121l-42 -27l-96 99h-4z" />
<glyph unicode="&#x135;" horiz-adv-x="254" d="M-52 -232q-43 0 -81 20l27 61q23 -14 49 -14q54 0 76 99l119 586h82l-118 -585q-34 -167 -154 -167zM65 608l-33 36l148 148h89l95 -151l-42 -33l-101 124h-4z" />
<glyph unicode="&#x136;" horiz-adv-x="598" d="M37 0l141 702h83l-69 -347h3l352 347h94l-263 -270l159 -432h-87l-134 379l-147 -144l-48 -235h-84zM158 -233v41q63 3 94.5 18t31.5 39q0 39 -68 42l25 39q65 -5 88.5 -22t23.5 -48q0 -51 -53 -79.5t-142 -29.5z" />
<glyph unicode="&#x137;" horiz-adv-x="509" d="M33 0l152 762h83l-103 -517h2l266 275h95l-208 -217l125 -303h-83l-100 254l-120 -122l-28 -132h-81zM98 -233v41q63 3 94.5 18t31.5 39q0 39 -68 42l25 39q65 -5 88.5 -22t23.5 -48q0 -51 -53 -79.5t-142 -29.5z" />
<glyph unicode="&#x139;" horiz-adv-x="494" d="M37 0l141 702h83l-126 -631h295l-14 -71h-379zM211 752l-32 47l176 124l40 -64z" />
<glyph unicode="&#x13a;" horiz-adv-x="265" d="M117 -13q-35 0 -52.5 17.5t-17.5 50.5q0 17 7 45l131 662h83l-134 -667q-2 -10 -2 -20q0 -19 18 -19q7 0 17 3l1 -63q-22 -9 -51 -9zM217 808l-32 47l177 124l39 -64z" />
<glyph unicode="&#x13b;" horiz-adv-x="494" d="M37 0l141 702h83l-126 -631h295l-14 -71h-379zM106 -233v41q62 3 93.5 18t31.5 39q0 39 -67 42l24 39q65 -5 89 -22t24 -48q0 -51 -53.5 -79.5t-141.5 -29.5z" />
<glyph unicode="&#x13c;" horiz-adv-x="265" d="M117 -13q-35 0 -52.5 17.5t-17.5 50.5q0 17 7 45l131 662h83l-134 -667q-2 -10 -2 -20q0 -19 18 -19q7 0 17 3l1 -63q-22 -9 -51 -9zM-60 -233v41q62 3 93.5 18t31.5 39q0 39 -67 42l24 39q66 -5 89.5 -22t23.5 -48q0 -51 -53.5 -79.5t-141.5 -29.5z" />
<glyph unicode="&#x13d;" horiz-adv-x="494" d="M37 0l141 702h83l-126 -631h295l-14 -71h-379zM396 548l43 227h57l-11 -61l-47 -166h-42z" />
<glyph unicode="&#x13e;" horiz-adv-x="258" d="M117 -13q-35 0 -52.5 17.5t-17.5 50.5q0 17 7 45l131 662h83l-134 -667q-2 -10 -2 -20q0 -19 18 -19q7 0 17 3l1 -63q-22 -9 -51 -9zM285 586l42 227h58l-12 -61l-47 -166h-41z" />
<glyph unicode="&#x13f;" horiz-adv-x="494" d="M37 0l141 702h83l-126 -631h295l-14 -71h-379zM392 287q-23 0 -37 15t-14 38q0 29 21 52t51 23q23 0 36 -15.5t13 -38.5q0 -29 -20.5 -51.5t-49.5 -22.5z" />
<glyph unicode="&#x140;" horiz-adv-x="354" d="M117 -13q-35 0 -52.5 17.5t-17.5 50.5q0 17 7 45l131 662h83l-134 -667q-2 -10 -2 -20q0 -19 18 -19q7 0 17 3l1 -63q-22 -9 -51 -9zM311 290q-23 0 -36.5 15t-13.5 38q0 29 21 52t51 23q23 0 36 -15t13 -39q0 -29 -20.5 -51.5t-50.5 -22.5z" />
<glyph unicode="&#x141;" horiz-adv-x="494" d="M12 216l-22 57l113 53l75 376h83l-66 -334l192 95l23 -56l-230 -111l-45 -225h295l-14 -71h-379l51 254z" />
<glyph unicode="&#x142;" horiz-adv-x="269" d="M121 -13q-34 0 -52 17.5t-18 50.5q0 17 7 45l51 261l-62 -37l-20 52l96 54l66 332h83l-58 -290l71 43l21 -52l-107 -62l-61 -306q-2 -10 -2 -20q0 -19 18 -19q8 0 17 3l1 -63q-22 -9 -51 -9z" />
<glyph unicode="&#x143;" horiz-adv-x="662" d="M37 0l141 702h83l161 -449l45 -147h4q21 168 32 224l74 372h80l-140 -702h-83l-158 448l-46 151h-4q-16 -132 -33 -221l-75 -378h-81zM407 752l-33 47l177 124l40 -64z" />
<glyph unicode="&#x144;" horiz-adv-x="561" d="M33 0l103 520h67l-7 -78h4q50 44 93.5 67.5t88.5 23.5q123 0 123 -130q0 -33 -9 -71l-66 -332h-81l64 321q9 45 9 61q0 80 -77 80q-63 0 -157 -94l-74 -368h-81zM339 620l-37 48l180 163l50 -64z" />
<glyph unicode="&#x145;" horiz-adv-x="662" d="M37 0l141 702h83l161 -449l45 -147h4q21 168 32 224l74 372h80l-140 -702h-83l-158 448l-46 151h-4q-16 -132 -33 -221l-75 -378h-81zM158 -242v42q63 2 94.5 17t31.5 40q0 38 -68 41l25 40q65 -5 88.5 -22t23.5 -49q0 -51 -53 -79t-142 -30z" />
<glyph unicode="&#x146;" horiz-adv-x="561" d="M33 0l103 520h67l-7 -78h4q50 44 93.5 67.5t88.5 23.5q123 0 123 -130q0 -33 -9 -71l-66 -332h-81l64 321q9 45 9 61q0 80 -77 80q-63 0 -157 -94l-74 -368h-81zM107 -233v41q62 3 93.5 18t31.5 39q0 39 -67 42l24 39q65 -5 89 -22t24 -48q0 -51 -53.5 -79.5 t-141.5 -29.5z" />
<glyph unicode="&#x147;" horiz-adv-x="662" d="M37 0l141 702h83l161 -449l45 -147h4q21 168 32 224l74 372h80l-140 -702h-83l-158 448l-46 151h-4q-16 -132 -33 -221l-75 -378h-81zM376 755l-90 121l41 27l97 -99h4l138 100l35 -30l-132 -119h-93z" />
<glyph unicode="&#x148;" horiz-adv-x="561" d="M33 0l103 520h67l-7 -78h4q50 44 93.5 67.5t88.5 23.5q123 0 123 -130q0 -33 -9 -71l-66 -332h-81l64 321q9 45 9 61q0 80 -77 80q-63 0 -157 -94l-74 -368h-81zM317 615l-96 151l41 33l102 -124h4l151 124l34 -36l-147 -148h-89z" />
<glyph unicode="&#x150;" horiz-adv-x="677" d="M307 -13q-77 0 -132.5 36.5t-83 102.5t-27.5 155q0 80 25.5 158t69.5 139t109 99t138 38q116 0 179 -79.5t63 -213.5q0 -65 -15.5 -128t-46.5 -118t-72 -97.5t-94.5 -67t-112.5 -24.5zM311 59q55 0 103 32.5t80.5 84t51 114t18.5 124.5q0 107 -41 168t-122 61 q-72 0 -131.5 -55t-90 -135.5t-30.5 -164.5q0 -107 40.5 -168t121.5 -61zM373 755l-41 27l127 152l54 -38zM545 755l-42 27l127 152l54 -38z" />
<glyph unicode="&#x151;" horiz-adv-x="551" d="M227 -13q-85 0 -135 56t-50 153q0 57 15.5 110t42.5 93.5t62 71t76.5 46.5t83.5 16q85 0 135.5 -56t50.5 -153q0 -71 -24 -135t-63 -107.5t-90 -69t-104 -25.5zM235 56q74 0 132 78t58 185q0 47 -13 79.5t-38 49.5t-60 17q-73 0 -131.5 -78.5t-58.5 -185.5 q0 -47 13 -79.5t38 -49t60 -16.5zM300 611l-44 27l125 174l56 -36zM461 611l-45 27l126 174l56 -36z" />
<glyph unicode="&#x152;" horiz-adv-x="873" d="M362 0q-145 0 -221.5 71.5t-76.5 202.5q0 128 45 224.5t131.5 150t203.5 53.5h456l-15 -70h-284l-46 -228h239l-15 -70h-237l-54 -263h295l-15 -71h-406zM365 68h42l113 567h-76q-135 0 -215 -98.5t-80 -257.5q0 -100 55.5 -155.5t160.5 -55.5z" />
<glyph unicode="&#x153;" horiz-adv-x="868" d="M223 -13q-83 0 -132 56t-49 153q0 57 15 110t42 93.5t61.5 71t75 46.5t82.5 16q129 0 160 -135q34 63 87 99t107 36q84 0 123 -51t39 -137q0 -53 -20 -102h-321q-11 -95 25 -143t100 -48q57 0 117 45l31 -54q-75 -56 -168 -56q-62 0 -104.5 36.5t-58.5 105.5 q-35 -66 -92.5 -104t-119.5 -38zM235 56q72 0 129.5 78t57.5 185q0 47 -13 79.5t-38 49.5t-61 17q-71 0 -128.5 -78.5t-57.5 -185.5q0 -47 13 -79.5t38 -49t60 -16.5zM502 299h256q6 25 6 53q0 32 -9 56.5t-32.5 42t-59.5 17.5q-52 0 -97.5 -46.5t-63.5 -122.5z" />
<glyph unicode="&#x154;" horiz-adv-x="593" d="M37 0l141 702h192q103 0 161.5 -39.5t58.5 -124.5q0 -94 -57 -154.5t-150 -78.5l123 -305h-89l-115 297h-122l-59 -297h-84zM194 365h106q99 0 153 43.5t54 119.5q0 56 -39 82t-118 26h-103zM371 752l-32 47l177 124l39 -64z" />
<glyph unicode="&#x155;" horiz-adv-x="365" d="M33 0l103 520h67l-11 -99h4q74 112 161 112q27 0 50 -10l-29 -73q-17 9 -45 9q-39 0 -80 -34t-73 -97l-66 -328h-81zM253 620l-38 48l180 163l50 -64z" />
<glyph unicode="&#x158;" horiz-adv-x="593" d="M37 0l141 702h192q103 0 161.5 -39.5t58.5 -124.5q0 -94 -57 -154.5t-150 -78.5l123 -305h-89l-115 297h-122l-59 -297h-84zM194 365h106q99 0 153 43.5t54 119.5q0 56 -39 82t-118 26h-103zM340 755l-90 121l42 27l96 -99h5l138 100l35 -30l-133 -119h-93z" />
<glyph unicode="&#x159;" horiz-adv-x="365" d="M33 0l103 520h67l-11 -99h4q74 112 161 112q27 0 50 -10l-29 -73q-17 9 -45 9q-39 0 -80 -34t-73 -97l-66 -328h-81zM230 615l-95 151l40 33l102 -124h4l151 124l35 -36l-148 -148h-89z" />
<glyph unicode="&#x15a;" horiz-adv-x="541" d="M247 -13q-150 0 -234 124l61 46q67 -99 181 -99q65 0 108 36.5t43 95.5q0 36 -22.5 62.5t-65.5 53.5l-82 49q-108 66 -108 165q0 81 62.5 138t156.5 57q60 0 112 -27t87 -72l-55 -49q-64 76 -151 76q-38 0 -67.5 -16.5t-44.5 -42t-15 -54.5q0 -38 22.5 -62.5t68.5 -52.5 l81 -48q35 -21 58 -43t35.5 -53t12.5 -69q0 -94 -68.5 -154.5t-175.5 -60.5zM354 754l-32 47l177 125l39 -65z" />
<glyph unicode="&#x15b;" horiz-adv-x="430" d="M174 -13q-51 0 -101 28.5t-77 70.5l51 40q54 -76 134 -76q45 0 77.5 26t32.5 61q0 28 -20 48t-75 50q-62 34 -90.5 67t-28.5 76q0 67 52 111t127 44q87 0 153 -70l-47 -46q-50 52 -108 52q-28 0 -50.5 -11.5t-35.5 -30t-13 -40.5q0 -12 6 -24t12 -19t22.5 -18t23 -15 t28.5 -16q69 -37 95.5 -70.5t26.5 -76.5q0 -73 -54.5 -117t-140.5 -44zM259 620l-38 48l180 163l51 -64z" />
<glyph unicode="&#x15c;" horiz-adv-x="541" d="M247 -13q-150 0 -234 124l61 46q67 -99 181 -99q65 0 108 36.5t43 95.5q0 36 -22.5 62.5t-65.5 53.5l-82 49q-108 66 -108 165q0 81 62.5 138t156.5 57q60 0 112 -27t87 -72l-55 -49q-64 76 -151 76q-38 0 -67.5 -16.5t-44.5 -42t-15 -54.5q0 -38 22.5 -62.5t68.5 -52.5 l81 -48q35 -21 58 -43t35.5 -53t12.5 -69q0 -94 -68.5 -154.5t-175.5 -60.5zM256 750l-36 30l133 119h93l90 -121l-42 -27l-96 100h-4z" />
<glyph unicode="&#x15d;" horiz-adv-x="430" d="M174 -13q-51 0 -101 28.5t-77 70.5l51 40q54 -76 134 -76q45 0 77.5 26t32.5 61q0 28 -20 48t-75 50q-62 34 -90.5 67t-28.5 76q0 67 52 111t127 44q87 0 153 -70l-47 -46q-50 52 -108 52q-28 0 -50.5 -11.5t-35.5 -30t-13 -40.5q0 -12 6 -24t12 -19t22.5 -18t23 -15 t28.5 -16q69 -37 95.5 -70.5t26.5 -76.5q0 -73 -54.5 -117t-140.5 -44zM159 608l-33 36l148 148h89l95 -151l-42 -33l-100 124h-5z" />
<glyph unicode="&#x15e;" horiz-adv-x="541" d="M105 -242l-2 42q122 4 127 58q0 20 -17 31t-57 15l56 85q-126 14 -199 122l61 46q67 -99 181 -99q65 0 108 36.5t43 95.5q0 36 -22.5 62.5t-65.5 53.5l-82 49q-108 66 -108 165q0 81 62.5 138t156.5 57q60 0 112 -27t87 -72l-55 -49q-64 76 -151 76q-38 0 -67.5 -16.5 t-44.5 -42t-15 -54.5q0 -38 22.5 -62.5t68.5 -52.5l81 -48q35 -21 58 -43t35.5 -53t12.5 -69q0 -89 -62 -148t-160 -66l-35 -58q38 -9 52 -24.5t11 -42.5q-2 -33 -26.5 -56.5t-66.5 -35.5t-99 -13z" />
<glyph unicode="&#x15f;" horiz-adv-x="430" d="M44 -242l-2 42q122 4 127 58q0 20 -17 31t-57 15l55 85q-46 7 -88.5 33.5t-65.5 63.5l51 40q54 -76 134 -76q45 0 77.5 26t32.5 61q0 28 -20 48t-75 50q-62 34 -90.5 67t-28.5 76q0 67 52 111t127 44q87 0 153 -70l-47 -46q-50 52 -108 52q-28 0 -50.5 -11.5t-35.5 -30 t-13 -40.5q0 -12 6 -24t12 -19t22.5 -18t23 -15t28.5 -16q69 -37 95.5 -70.5t26.5 -76.5q0 -64 -44.5 -107t-115.5 -52l-36 -59q38 -9 52 -24.5t11 -42.5q-2 -33 -26.5 -56.5t-66.5 -35.5t-99 -13z" />
<glyph unicode="&#x160;" horiz-adv-x="541" d="M247 -13q-150 0 -234 124l61 46q67 -99 181 -99q65 0 108 36.5t43 95.5q0 36 -22.5 62.5t-65.5 53.5l-82 49q-108 66 -108 165q0 81 62.5 138t156.5 57q60 0 112 -27t87 -72l-55 -49q-64 76 -151 76q-38 0 -67.5 -16.5t-44.5 -42t-15 -54.5q0 -38 22.5 -62.5t68.5 -52.5 l81 -48q35 -21 58 -43t35.5 -53t12.5 -69q0 -94 -68.5 -154.5t-175.5 -60.5zM323 758l-90 120l42 27l96 -99h5l138 100l35 -30l-133 -118h-93z" />
<glyph unicode="&#x161;" horiz-adv-x="430" d="M174 -13q-51 0 -101 28.5t-77 70.5l51 40q54 -76 134 -76q45 0 77.5 26t32.5 61q0 28 -20 48t-75 50q-62 34 -90.5 67t-28.5 76q0 67 52 111t127 44q87 0 153 -70l-47 -46q-50 52 -108 52q-28 0 -50.5 -11.5t-35.5 -30t-13 -40.5q0 -12 6 -24t12 -19t22.5 -18t23 -15 t28.5 -16q69 -37 95.5 -70.5t26.5 -76.5q0 -73 -54.5 -117t-140.5 -44zM236 615l-95 151l41 33l102 -124h4l151 124l34 -36l-148 -148h-89z" />
<glyph unicode="&#x162;" horiz-adv-x="545" d="M178 0l125 630h-203l13 72h492l-14 -72h-205l-125 -630h-17l-42 -70q37 -9 51.5 -24.5t11.5 -42.5q-4 -50 -54.5 -76.5t-137.5 -28.5l-2 42q122 4 127 58q0 20 -17 31t-57 15l62 96h-8z" />
<glyph unicode="&#x163;" horiz-adv-x="347" d="M45 -242l-2 42q122 4 127 58q0 20 -17 31t-57 15l57 89q-79 19 -79 110q0 9 5 57l61 294h-76l12 61l81 5l39 143h69l-29 -143h132l-13 -66h-134l-61 -298q-3 -19 -3 -38q0 -33 15.5 -48.5t51.5 -15.5q20 0 54 16l18 -59q-47 -21 -87 -24l-35 -57q38 -9 52 -24.5t12 -42.5 q-3 -33 -27.5 -56.5t-66.5 -35.5t-99 -13z" />
<glyph unicode="&#x164;" horiz-adv-x="545" d="M178 0l125 630h-203l13 72h492l-14 -72h-205l-125 -630h-83zM309 755l-90 121l42 27l96 -99h5l138 100l35 -30l-133 -119h-93z" />
<glyph unicode="&#x165;" horiz-adv-x="347" d="M198 -13q-44 0 -72.5 16t-40 41t-11.5 59q0 9 5 57l61 294h-76l12 61l81 5l39 143h69l-29 -143h132l-13 -66h-134l-61 -298q-3 -19 -3 -38q0 -33 15.5 -48.5t51.5 -15.5q20 0 54 16l18 -59q-51 -24 -98 -24zM336 586l43 227h58l-12 -61l-47 -166h-42z" />
<glyph unicode="&#x16a;" horiz-adv-x="659" d="M95 308l79 394h84l-80 -401q-10 -48 -10 -85q0 -157 142 -157q64 0 110.5 51.5t68.5 161.5l87 430h81l-88 -433q-28 -146 -96 -214t-167 -68q-107 0 -164 56.5t-57 165.5q0 40 10 99zM289 780l12 58h274l-12 -58h-274z" />
<glyph unicode="&#x16b;" horiz-adv-x="564" d="M530 520l-104 -520h-68l9 79h-4q-104 -92 -180 -92q-123 0 -123 130q0 34 8 71l67 332h82l-65 -321q-9 -44 -9 -61q0 -80 77 -80q63 0 154 94l74 368h82zM214 643l11 58h271l-9 -58h-273z" />
<glyph unicode="&#x16c;" horiz-adv-x="659" d="M95 308l79 394h84l-80 -401q-10 -48 -10 -85q0 -157 142 -157q64 0 110.5 51.5t68.5 161.5l87 430h81l-88 -433q-28 -146 -96 -214t-167 -68q-107 0 -164 56.5t-57 165.5q0 40 10 99zM422 754q-70 0 -102 39t-29 99l56 9q-2 -40 19.5 -65t65.5 -25t74 24.5t45 65.5l52 -9 q-17 -60 -63.5 -99t-117.5 -39z" />
<glyph unicode="&#x16d;" horiz-adv-x="564" d="M530 520l-104 -520h-68l9 79h-4q-104 -92 -180 -92q-123 0 -123 130q0 34 8 71l67 332h82l-65 -321q-9 -44 -9 -61q0 -80 77 -80q63 0 154 94l74 368h82zM346 611q-41 0 -70 14t-44 37.5t-20.5 51t-2.5 59.5l56 8q-1 -21 3.5 -40.5t15 -35.5t29.5 -25.5t44 -9.5 q49 0 82 32t50 79l53 -8q-16 -68 -66 -115t-130 -47z" />
<glyph unicode="&#x16e;" horiz-adv-x="659" d="M95 308l79 394h84l-80 -401q-10 -48 -10 -85q0 -157 142 -157q64 0 110.5 51.5t68.5 161.5l87 430h81l-88 -433q-28 -146 -96 -214t-167 -68q-107 0 -164 56.5t-57 165.5q0 40 10 99zM430 749q-40 0 -67 21.5t-27 63.5q0 43 33 74t80 31q26 0 47 -9t34.5 -28.5 t13.5 -46.5q0 -45 -33 -75.5t-81 -30.5zM432 788q16 0 30.5 8t23 22.5t8.5 32.5q0 22 -12.5 36t-34.5 14q-25 0 -43.5 -19t-18.5 -45q0 -15 5.5 -26t16.5 -17t25 -6z" />
<glyph unicode="&#x16f;" horiz-adv-x="564" d="M530 520l-104 -520h-68l9 79h-4q-104 -92 -180 -92q-123 0 -123 130q0 34 8 71l67 332h82l-65 -321q-9 -44 -9 -61q0 -80 77 -80q63 0 154 94l74 368h82zM350 596q-45 0 -73.5 23t-28.5 65q0 49 36 83.5t90 34.5q45 0 74 -23t29 -64q0 -49 -36.5 -84t-90.5 -35zM355 635 q27 0 47 22.5t20 54.5q0 11 -4 20.5t-10.5 16.5t-16.5 11t-22 4q-26 0 -45.5 -23t-19.5 -54q0 -24 13.5 -38t37.5 -14z" />
<glyph unicode="&#x170;" horiz-adv-x="659" d="M95 308l79 394h84l-80 -401q-10 -48 -10 -85q0 -157 142 -157q64 0 110.5 51.5t68.5 161.5l87 430h81l-88 -433q-28 -146 -96 -214t-167 -68q-107 0 -164 56.5t-57 165.5q0 40 10 99zM364 755l-42 27l127 152l54 -38zM535 755l-42 27l128 152l53 -38z" />
<glyph unicode="&#x171;" horiz-adv-x="564" d="M530 520l-104 -520h-68l9 79h-4q-104 -92 -180 -92q-123 0 -123 130q0 34 8 71l67 332h82l-65 -321q-9 -44 -9 -61q0 -80 77 -80q63 0 154 94l74 368h82zM292 611l-44 27l125 174l56 -36zM454 611l-45 27l126 174l56 -36z" />
<glyph unicode="&#x172;" horiz-adv-x="659" d="M657 702l-88 -433q-23 -123 -72 -185t-134 -91q-57 -20 -87 -54t-30 -66q0 -19 11 -30t28 -11q19 0 38 12l18 -45q-40 -25 -81 -25q-19 0 -34 5t-26 14t-17 23t-6 32q0 36 26.5 75.5t62.5 65.5q-88 12 -134.5 67.5t-46.5 152.5q0 40 10 99l79 394h84l-80 -401 q-10 -48 -10 -85q0 -157 142 -157q64 0 110.5 51.5t68.5 161.5l87 430h81z" />
<glyph unicode="&#x173;" horiz-adv-x="564" d="M323 -220q-36 0 -58 18.5t-22 52.5q0 45 35 87t83 68l6 73h-4q-104 -92 -180 -92q-123 0 -123 130q0 34 8 71l67 332h82l-65 -321q-9 -44 -9 -61q0 -80 77 -80q63 0 154 94l74 368h82l-104 -520q-55 -25 -86.5 -58.5t-31.5 -67.5q0 -12 5.5 -21t14 -14t20.5 -5 q20 0 39 13l17 -41q-42 -26 -81 -26z" />
<glyph unicode="&#x178;" horiz-adv-x="493" d="M149 0l54 274l-114 428h85l49 -202q7 -28 18 -79t17 -73h4q64 105 96 153l133 201h89l-293 -428l-56 -274h-82zM236 765q-18 0 -30 11.5t-12 31.5q0 23 16 41t38 18q19 0 31 -12t12 -32q0 -23 -16 -40.5t-39 -17.5zM435 765q-12 0 -21.5 5t-15 15t-5.5 23q0 23 16 41 t38 18q18 0 30 -12t12 -32q0 -23 -15.5 -40.5t-38.5 -17.5z" />
<glyph unicode="&#x179;" horiz-adv-x="547" d="M-1 0l11 50l454 582h-321l15 70h421l-11 -49l-451 -582h354l-16 -71h-456zM352 752l-32 47l176 124l40 -64z" />
<glyph unicode="&#x17a;" horiz-adv-x="438" d="M-11 0l9 47l345 407h-236l14 66h339l-8 -48l-346 -406h272l-13 -66h-376zM273 620l-38 48l180 163l50 -64z" />
<glyph unicode="&#x17b;" horiz-adv-x="547" d="M-1 0l11 50l454 582h-321l15 70h421l-11 -49l-451 -582h354l-16 -71h-456zM377 766q-22 0 -37.5 13t-15.5 35q0 17 8.5 31.5t23 22.5t30.5 8q14 0 26 -5.5t19.5 -17t7.5 -26.5q0 -26 -18.5 -43.5t-43.5 -17.5z" />
<glyph unicode="&#x17c;" horiz-adv-x="438" d="M-11 0l9 47l345 407h-236l14 66h339l-8 -48l-346 -406h272l-13 -66h-376zM307 628q-22 0 -37 13t-15 35q0 26 18 44t44 18q22 0 37 -13t15 -36q0 -26 -18.5 -43.5t-43.5 -17.5z" />
<glyph unicode="&#x17d;" horiz-adv-x="547" d="M-1 0l11 50l454 582h-321l15 70h421l-11 -49l-451 -582h354l-16 -71h-456zM321 755l-90 121l42 27l96 -99h4l138 100l36 -30l-133 -119h-93z" />
<glyph unicode="&#x17e;" horiz-adv-x="438" d="M-11 0l9 47l345 407h-236l14 66h339l-8 -48l-346 -406h272l-13 -66h-376zM250 615l-95 151l41 33l101 -124h5l151 124l34 -36l-148 -148h-89z" />
<glyph unicode="&#x192;" d="M33 -104q-49 0 -84 24l26 60q27 -16 55 -16q41 0 71 40t54 120l76 248h-91l13 59l72 3h24l25 80q61 204 198 204q43 0 87 -24l-27 -62q-31 19 -61 19q-39 0 -69 -40t-48 -100l-23 -77h127l-13 -62h-134l-84 -274q-15 -46 -32 -81t-40 -63t-53.5 -43t-68.5 -15z" />
<glyph unicode="&#x218;" horiz-adv-x="541" d="M247 -13q-150 0 -234 124l61 46q67 -99 181 -99q65 0 108 36.5t43 95.5q0 36 -22.5 62.5t-65.5 53.5l-82 49q-108 66 -108 165q0 81 62.5 138t156.5 57q60 0 112 -27t87 -72l-55 -49q-64 76 -151 76q-38 0 -67.5 -16.5t-44.5 -42t-15 -54.5q0 -38 22.5 -62.5t68.5 -52.5 l81 -48q35 -21 58 -43t35.5 -53t12.5 -69q0 -94 -68.5 -154.5t-175.5 -60.5zM104 -242v42q62 2 93.5 17t31.5 40q0 38 -67 41l24 40q65 -5 89 -22t24 -49q0 -51 -53.5 -79t-141.5 -30z" />
<glyph unicode="&#x219;" horiz-adv-x="430" d="M174 -13q-51 0 -101 28.5t-77 70.5l51 40q54 -76 134 -76q45 0 77.5 26t32.5 61q0 28 -20 48t-75 50q-62 34 -90.5 67t-28.5 76q0 67 52 111t127 44q87 0 153 -70l-47 -46q-50 52 -108 52q-28 0 -50.5 -11.5t-35.5 -30t-13 -40.5q0 -12 6 -24t12 -19t22.5 -18t23 -15 t28.5 -16q69 -37 95.5 -70.5t26.5 -76.5q0 -73 -54.5 -117t-140.5 -44zM49 -233v41q62 3 93.5 18t31.5 39q0 39 -67 42l25 39q65 -5 88.5 -22t23.5 -48q0 -51 -53.5 -79.5t-141.5 -29.5z" />
<glyph unicode="&#x21a;" horiz-adv-x="545" d="M178 0l125 630h-203l13 72h492l-14 -72h-205l-125 -630h-83zM86 -233v41q62 3 93.5 18t31.5 39q0 39 -68 42l25 39q65 -5 88.5 -22t23.5 -48q0 -51 -53 -79.5t-141 -29.5z" />
<glyph unicode="&#x21b;" horiz-adv-x="347" d="M198 -13q-44 0 -72.5 16t-40 41t-11.5 59q0 9 5 57l61 294h-76l12 61l81 5l39 143h69l-29 -143h132l-13 -66h-134l-61 -298q-3 -19 -3 -38q0 -33 15.5 -48.5t51.5 -15.5q20 0 54 16l18 -59q-51 -24 -98 -24zM36 -233v41q63 3 94.5 18t31.5 39q0 39 -68 42l25 39 q65 -5 88.5 -22t23.5 -48q0 -51 -53 -79.5t-142 -29.5z" />
<glyph unicode="&#x2c6;" horiz-adv-x="553" d="M226 608l-33 36l147 148h89l95 -151l-41 -33l-101 124h-4z" />
<glyph unicode="&#x2c7;" horiz-adv-x="553" d="M303 615l-95 151l40 33l102 -124h4l151 124l34 -36l-147 -148h-89z" />
<glyph unicode="&#x2d8;" horiz-adv-x="553" d="M353 611q-40 0 -69.5 14t-44.5 37.5t-20.5 51t-2.5 59.5l57 8q-3 -45 20 -78t72 -33q48 0 81.5 32t49.5 79l54 -8q-16 -68 -66.5 -115t-130.5 -47z" />
<glyph unicode="&#x2d9;" horiz-adv-x="553" d="M360 628q-22 0 -37.5 13t-15.5 35q0 26 18.5 44t43.5 18q22 0 37.5 -13t15.5 -36q0 -26 -18.5 -43.5t-43.5 -17.5z" />
<glyph unicode="&#x2da;" horiz-adv-x="553" d="M357 595q-44 0 -72.5 23t-28.5 65q0 49 36 83.5t90 34.5q45 0 74 -23t29 -64q0 -49 -36.5 -84t-91.5 -35zM363 633q26 0 46 23t20 54q0 24 -14 38.5t-38 14.5q-9 0 -17.5 -3t-15.5 -8t-13 -12t-10.5 -15.5t-7 -18.5t-2.5 -20q0 -24 13.5 -38.5t38.5 -14.5z" />
<glyph unicode="&#x2db;" horiz-adv-x="553" d="M198 -220q-14 0 -26.5 2.5t-22.5 8.5t-17 14.5t-10.5 20t-3.5 25.5q0 43 31 83.5t71 68.5h57q-94 -65 -94 -129q0 -18 11 -29t27 -11q20 0 41 13l17 -41q-44 -26 -81 -26z" />
<glyph unicode="&#x2dc;" horiz-adv-x="553" d="M439 617q-25 0 -45 14.5t-31 31.5t-27.5 31t-34.5 14q-46 0 -63 -85l-59 3q13 67 45 106t83 39q25 0 45 -14t31.5 -31t27.5 -31t34 -14q45 0 63 85l59 -4q-6 -32 -17 -57.5t-26.5 -45.5t-37 -31t-47.5 -11z" />
<glyph unicode="&#x2dd;" horiz-adv-x="553" d="M300 611l-44 27l125 174l56 -36zM461 611l-45 27l126 174l56 -36z" />
<glyph unicode="&#x3c0;" horiz-adv-x="597" d="M446 -13q-86 0 -86 88q0 12 4.5 41t14 73t18.5 82.5t22 95.5t20 87h-193q-42 -218 -107 -461l-80 7q66 215 112 454h-99l13 61l71 5h461l-14 -66h-87q-26 -102 -52.5 -225.5t-26.5 -137.5q0 -36 38 -36q6 0 29 5l-1 -61q-28 -12 -57 -12z" />
<glyph unicode="&#x2000;" horiz-adv-x="489" />
<glyph unicode="&#x2001;" horiz-adv-x="979" />
<glyph unicode="&#x2002;" horiz-adv-x="489" />
<glyph unicode="&#x2003;" horiz-adv-x="979" />
<glyph unicode="&#x2004;" horiz-adv-x="326" />
<glyph unicode="&#x2005;" horiz-adv-x="244" />
<glyph unicode="&#x2006;" horiz-adv-x="163" />
<glyph unicode="&#x2007;" horiz-adv-x="163" />
<glyph unicode="&#x2008;" horiz-adv-x="122" />
<glyph unicode="&#x2009;" horiz-adv-x="195" />
<glyph unicode="&#x200a;" horiz-adv-x="54" />
<glyph unicode="&#x2010;" horiz-adv-x="319" d="M37 238l13 63h235l-14 -63h-234z" />
<glyph unicode="&#x2011;" horiz-adv-x="319" d="M37 238l13 63h235l-14 -63h-234z" />
<glyph unicode="&#x2012;" horiz-adv-x="319" d="M37 238l13 63h235l-14 -63h-234z" />
<glyph unicode="&#x2013;" horiz-adv-x="495" d="M37 241l12 58h408l-13 -58h-407z" />
<glyph unicode="&#x2014;" horiz-adv-x="822" d="M37 241l12 58h736l-11 -58h-737z" />
<glyph unicode="&#x2018;" horiz-adv-x="258" d="M174.5 464q-25.5 0 -41 19.5t-15.5 53.5q0 71 38.5 123t102.5 79l17 -40q-47 -23 -74.5 -59t-27.5 -68h6q23 0 37.5 -12.5t14.5 -34.5q0 -25 -16 -43t-41.5 -18z" />
<glyph unicode="&#x2019;" horiz-adv-x="258" d="M136 474l-17 40q47 23 74.5 59t27.5 67h-5q-24 0 -38.5 12.5t-14.5 35.5q0 25 16.5 43t41.5 18q17 0 30 -8.5t20 -25t7 -39.5q0 -47 -19 -88t-50.5 -68.5t-72.5 -45.5z" />
<glyph unicode="&#x201a;" horiz-adv-x="258" d="M7 -158l-17 39q48 24 75.5 60t27.5 66h-5q-24 0 -39 13t-15 36q0 25 16.5 43t42.5 18q25 0 41 -19.5t16 -53.5q0 -71 -39.5 -123t-103.5 -79z" />
<glyph unicode="&#x201c;" horiz-adv-x="435" d="M174.5 464q-25.5 0 -41 19.5t-15.5 53.5q0 71 38.5 123t102.5 79l17 -40q-47 -23 -74.5 -59t-27.5 -68h6q23 0 37.5 -12.5t14.5 -34.5q0 -25 -16 -43t-41.5 -18zM351 464q-25 0 -41 19.5t-16 53.5q0 71 39 123t102 79l18 -40q-47 -23 -74.5 -59t-27.5 -68h5 q23 0 38 -12.5t15 -34.5q0 -25 -16.5 -43t-41.5 -18z" />
<glyph unicode="&#x201d;" horiz-adv-x="435" d="M136 474l-17 40q47 23 74.5 59t27.5 67h-5q-24 0 -38.5 12.5t-14.5 35.5q0 25 16.5 43t41.5 18q17 0 30 -8.5t20 -25t7 -39.5q0 -47 -19 -88t-50.5 -68.5t-72.5 -45.5zM312 474l-17 40q48 23 75.5 59t27.5 67h-5q-24 0 -39 12.5t-15 35.5q0 25 16.5 43t42.5 18 q17 0 29.5 -8.5t20 -25t7.5 -39.5q0 -70 -39.5 -122.5t-103.5 -79.5z" />
<glyph unicode="&#x201e;" horiz-adv-x="435" d="M7 -158l-17 39q48 24 75.5 60t27.5 66h-5q-24 0 -39 13t-15 36q0 25 16.5 43t42.5 18q25 0 41 -19.5t16 -53.5q0 -71 -39.5 -123t-103.5 -79zM184 -158l-17 39q47 24 75 60t28 66h-6q-24 0 -38.5 13t-14.5 36q0 25 16.5 43t42.5 18q25 0 40.5 -19.5t15.5 -53.5 q0 -71 -39 -123t-103 -79z" />
<glyph unicode="&#x2020;" horiz-adv-x="465" d="M126 -86l130 617l-148 -6l14 71l143 -5l30 171h71l-39 -171l147 5l-14 -71l-144 6l-119 -617h-71z" />
<glyph unicode="&#x2021;" horiz-adv-x="465" d="M127 -86l38 171l-146 -6l14 71l145 -7l33 195l45 195l-148 -8l13 71l144 -5l30 171h70l-38 -171l147 5l-14 -71l-144 8l-35 -195l-43 -195l147 7l-14 -71l-144 6l-29 -171h-71z" />
<glyph unicode="&#x2022;" horiz-adv-x="315" d="M149 155q-46 0 -75.5 31.5t-29.5 81.5q0 54 36 98t92 44q29 0 53 -14.5t37.5 -40t13.5 -58.5q0 -55 -36 -98.5t-91 -43.5z" />
<glyph unicode="&#x2026;" horiz-adv-x="1026" d="M139 -13q-23 0 -36.5 15t-13.5 39q0 18 9 35t26 28.5t36 11.5q16 0 27 -7.5t17 -19.5t6 -28q0 -28 -20.5 -51t-50.5 -23zM491 -13q-23 0 -36.5 15t-13.5 39q0 13 5.5 26.5t15 24t23 17.5t28.5 7t26 -7.5t17 -19.5t6 -28q0 -28 -20.5 -51t-50.5 -23zM843 -13 q-11 0 -20.5 4t-16 11t-10 17t-3.5 22q0 28 21 51.5t51 23.5q11 0 20.5 -4.5t15.5 -11.5t9.5 -17t3.5 -22q0 -28 -20.5 -51t-50.5 -23z" />
<glyph unicode="&#x202f;" horiz-adv-x="195" />
<glyph unicode="&#x2030;" horiz-adv-x="1224" d="M989 -13q-41 0 -71 21.5t-45.5 58t-15.5 83.5q0 68 22 131.5t68 106.5t105 43q60 0 95.5 -45.5t35.5 -116.5q0 -51 -13 -101t-37 -90.5t-62 -65.5t-82 -25zM994 41q38 0 68 35t44 85t14 102q0 34 -7 59t-24 40.5t-43 15.5q-38 0 -67.5 -35t-44 -85.5t-14.5 -103.5 q0 -25 4.5 -45.5t13 -35.5t23 -23.5t33.5 -8.5zM197 276q-61 0 -96.5 45.5t-35.5 117.5q0 68 22 131.5t68 106.5t105 43q61 0 96.5 -45.5t35.5 -117.5q0 -69 -22.5 -132t-68 -106t-104.5 -43zM202 330q23 0 44 13t35.5 35.5t25.5 51.5t16 60t5 62q0 52 -18 83.5t-55 31.5 q-38 0 -68 -35t-44.5 -85.5t-14.5 -103.5q0 -34 7.5 -58.5t24.5 -39.5t42 -15zM144 -13l518 732h56l-518 -732h-56zM610 -13q-61 0 -96.5 45.5t-35.5 117.5q0 68 22 131.5t68 106.5t105 43q61 0 96.5 -45.5t35.5 -116.5q0 -69 -22.5 -132.5t-68 -106.5t-104.5 -43zM615 41 q29 0 53.5 20t40 52.5t24.5 71.5t9 78q0 52 -18.5 83.5t-55.5 31.5q-38 0 -68 -35t-44.5 -85.5t-14.5 -103.5q0 -52 18.5 -82.5t55.5 -30.5z" />
<glyph unicode="&#x2039;" horiz-adv-x="269" d="M153 72l-110 169l12 66l166 158l30 -31l-151 -166l90 -173z" />
<glyph unicode="&#x203a;" horiz-adv-x="269" d="M55 72l-30 31l150 167l-90 172l38 23l110 -169l-12 -66z" />
<glyph unicode="&#x2044;" horiz-adv-x="89" d="M-226 -13l518 732h56l-518 -732h-56z" />
<glyph unicode="&#x205f;" horiz-adv-x="244" />
<glyph unicode="&#x20ac;" d="M290 -13q-94 0 -147.5 70t-54.5 200h-67l11 43l58 4q3 42 11 76h-55l10 43l56 3q18 61 48 111.5t68 86t83 55.5t92 20q99 0 153 -103l-62 -40q-17 37 -40 56t-58 19q-65 0 -118.5 -56t-82.5 -148h267l-9 -47h-270q-7 -31 -11 -75h225l-11 -48h-216q0 -39 6.5 -71 t18 -56.5t28 -41t37 -24.5t45.5 -8q64 0 127 61l41 -51q-84 -79 -183 -79z" />
<glyph unicode="&#x2122;" horiz-adv-x="653" d="M132 392l55 278h-106l12 53h267l-11 -53h-103l-56 -278h-58zM342 392l67 331h73l24 -123l12 -86h4l43 86l76 123h74l-66 -331h-58l30 149l34 120h-4l-127 -218h-37l-41 218h-4l-12 -120l-31 -149h-57z" />
<glyph unicode="&#x2202;" horiz-adv-x="555" d="M195 -12q-73 0 -121.5 46t-48.5 122q0 68 29.5 130.5t87 104t128.5 41.5q101 0 162 -97q20 74 20 147q0 50 -13 86.5t-40.5 57.5t-68.5 21q-51 0 -105 -44l-36 52q76 59 151 59q94 0 142.5 -59.5t48.5 -164.5q0 -90 -25.5 -179.5t-69 -161t-107 -116.5t-134.5 -45z M207 56q63 0 117 59.5t88 152.5q-51 98 -141 98q-74 0 -121.5 -61.5t-47.5 -138.5q1 -45 29 -77.5t76 -32.5z" />
<glyph unicode="&#x2206;" horiz-adv-x="604" d="M-20 0l9 48l356 654h96l82 -654l-9 -48h-534zM262 403l-177 -332h349l-36 332q-2 24 -4.5 55.5t-4.5 57t-4.5 57.5t-4.5 59h-4q-37 -79 -114 -229z" />
<glyph unicode="&#x220f;" horiz-adv-x="691" d="M104 -128v811h505v-811h-81v738h-343v-738h-81z" />
<glyph unicode="&#x2211;" horiz-adv-x="518" d="M34 -128v53l247 363l-235 340v55h449v-71h-352l1 -4l222 -329l-228 -333l1 -4h385v-70h-490z" />
<glyph unicode="&#x221a;" horiz-adv-x="574" d="M217 -104l-63 460l-82 -34l-7 47l148 62l44 -376l3 -66h4l25 66l347 822h62l-420 -981h-61z" />
<glyph unicode="&#x221e;" horiz-adv-x="804" d="M578 163q-62 0 -110.5 32t-98.5 97h-4q-80 -111 -172 -111q-68 0 -113.5 48.5t-45.5 122.5q0 76 47 124.5t119 48.5q95 0 179 -112h4q47 62 91.5 95t102.5 33q79 0 130 -51t51 -136q0 -82 -51.5 -136.5t-128.5 -54.5zM200 243q73 0 138 103q-72 104 -139 104 q-45 0 -73 -27.5t-28 -73.5t29.5 -76t72.5 -30zM580 239q51 0 82 34t31 85q0 53 -33 87t-86 34q-82 0 -164 -118q44 -63 84 -92.5t86 -29.5z" />
<glyph unicode="&#x222b;" horiz-adv-x="343" d="M19 -169q-33 0 -47 7l17 61q17 -4 36 -4q42 0 65 43t41 136q16 79 31.5 264t31.5 262q11 57 24 97.5t34 76t52.5 53t74.5 17.5q36 0 50 -6l-17 -62q-15 4 -39 4q-27 0 -47.5 -23t-33.5 -60t-23 -96q-16 -80 -32.5 -265t-31.5 -262q-12 -58 -25 -98t-34 -75t-52.5 -52.5 t-74.5 -17.5z" />
<glyph unicode="&#x2248;" d="M355 392q-18 0 -36.5 6.5t-32.5 17t-29.5 22.5t-28 22t-27 17t-28.5 7q-45 0 -79 -66l-46 30q26 48 59.5 72t67.5 24q22 0 43.5 -9.5t39 -23t33.5 -27.5t33.5 -23t32.5 -9q46 0 80 65l46 -30q-18 -32 -39.5 -54t-43.5 -31.5t-45 -9.5zM355 164q-21 0 -42.5 9.5t-39 23 t-34 27t-33.5 23t-33 9.5q-45 0 -79 -66l-46 30q26 48 59.5 72t67.5 24q22 0 43.5 -9.5t39 -23t33.5 -27t33.5 -23t32.5 -9.5q46 0 80 65l46 -30q-18 -32 -39.5 -54t-43.5 -31.5t-45 -9.5z" />
<glyph unicode="&#x2260;" d="M76 73l82 135h-107v62h139l101 167h-240v62h272l84 134h58l-82 -134h107v-62h-139l-101 -167h240v-62h-272l-83 -135h-59z" />
<glyph unicode="&#x2264;" d="M490 166l-441 164v69l441 164v-70l-216 -80l-135 -47v-4l135 -46l216 -80v-70zM51 0v62h439v-62h-439z" />
<glyph unicode="&#x2265;" d="M51 166v70l218 80l134 46v4l-134 47l-218 80v70l441 -164v-69zM51 0v62h439v-62h-439z" />
<glyph unicode="&#x25ca;" horiz-adv-x="533" d="M244 -11l-169 364l169 364h76l169 -364l-169 -364h-76zM279 58h5l65 142l67 153l-67 151l-65 144h-5l-64 -144l-67 -151l67 -153z" />
<glyph unicode="&#x25fc;" horiz-adv-x="518" d="M0 519h519v-519h-519v519z" />
<glyph unicode="&#xfb01;" horiz-adv-x="555" d="M70 454l11 61l70 5l17 87q11 53 32.5 90t55.5 57.5t77 20.5q48 0 92 -26l-29 -59q-28 18 -58 18q-68 0 -88 -99l-18 -89h105l-13 -66h-106l-91 -454h-81l91 454h-67zM335 0l104 520h82l-105 -520h-81zM508 628q-22 0 -37 13t-15 35q0 26 18.5 44t43.5 18q22 0 37 -13 t15 -36q0 -26 -18 -43.5t-44 -17.5z" />
<glyph unicode="&#xfb02;" horiz-adv-x="567" d="M70 454l11 61l70 5l17 87q11 53 32.5 90t55.5 57.5t77 20.5q48 0 92 -26l-29 -59q-28 18 -58 18q-68 0 -88 -99l-18 -89h105l-13 -66h-106l-91 -454h-81l91 454h-67zM418 -13q-34 0 -51.5 17.5t-17.5 50.5q0 17 6 45l132 662h82l-134 -667q-2 -10 -2 -20q0 -19 19 -19 q7 0 17 3l1 -63q-23 -9 -52 -9z" />
</font>
</defs>
</svg>
