<?xml version="1.0" standalone="no"?>
<!DOCTYPE svg PUBLIC "-//W3C//DTD SVG 1.1//EN" "http://www.w3.org/Graphics/SVG/1.1/DTD/svg11.dtd" >
<svg xmlns="http://www.w3.org/2000/svg" xmlns:xlink="http://www.w3.org/1999/xlink" version="1.1">
<metadata></metadata>
<defs>
<font id="source_sans_prosemibold" horiz-adv-x="543" >
<font-face units-per-em="1000" ascent="750" descent="-250" />
<missing-glyph horiz-adv-x="212" />
<glyph horiz-adv-x="0" />
<glyph horiz-adv-x="333" />
<glyph unicode=" "  horiz-adv-x="212" />
<glyph unicode="&#x09;" horiz-adv-x="212" />
<glyph unicode="&#xa0;" horiz-adv-x="212" />
<glyph unicode="!" horiz-adv-x="333" d="M126 228l-17 361l-3 121h123l-4 -121l-17 -361h-82zM167.5 -13q-33.5 0 -56.5 23.5t-23 59t23 59.5t56.5 24t56 -23.5t22.5 -59.5t-22.5 -59.5t-56 -23.5z" />
<glyph unicode="&#x22;" horiz-adv-x="510" d="M110 416l-23 194l-4 119h125l-3 -119l-25 -194h-70zM330 416l-24 194l-4 119h125l-3 -119l-24 -194h-70z" />
<glyph unicode="#" d="M93 0l26 207h-82v80h90l17 137h-86v81h97l23 184h73l-22 -184h124l24 184h72l-22 -184h85v-81h-94l-17 -137h90v-80h-100l-24 -207h-74l24 207h-124l-26 -207h-74zM201 287h125l17 137h-125z" />
<glyph unicode="$" d="M231 -117v106q-49 5 -98.5 26.5t-84.5 54.5l55 83q83 -66 157 -66q51 0 77 23.5t26 67.5q0 28 -16 51t-41.5 39t-56.5 31.5t-61.5 33t-56 38.5t-41.5 53.5t-16 72.5q0 74 42.5 123.5t114.5 62.5v108h85v-106q85 -11 154 -83l-63 -71q-32 29 -59.5 42.5t-63.5 13.5 q-43 0 -67.5 -22t-24.5 -63q0 -25 16 -45.5t41.5 -35t56 -29t61.5 -32t56 -39.5t41 -56.5t16 -77.5q0 -51 -19 -91t-56 -67t-89 -36v-110h-85z" />
<glyph unicode="%" horiz-adv-x="891" d="M197 267q-74 0 -119.5 58.5t-45.5 162.5q0 102 45.5 160t120 58t120 -58t45.5 -160q0 -69 -21.5 -119.5t-58.5 -76t-86 -25.5zM197 338q35 0 56.5 37.5t21.5 112.5q0 50 -10.5 83.5t-27.5 48.5t-40 15q-17 0 -31 -8.5t-24.5 -26t-16 -46t-5.5 -66.5q0 -75 21 -112.5 t56 -37.5zM219 -13l379 719h74l-377 -719h-76zM694.5 -13q-74.5 0 -120 59t-45.5 162q0 102 45.5 160t120 58t120 -58t45.5 -160q0 -103 -45.5 -162t-120 -59zM694 58q35 0 56.5 37.5t21.5 112.5q0 74 -21 110.5t-56.5 36.5t-56.5 -36.5t-21 -110.5q0 -38 5.5 -67t16 -47 t24.5 -27t31 -9z" />
<glyph unicode="&#x26;" horiz-adv-x="677" d="M251 -13q-101 0 -161 55.5t-60 139.5q0 66 35 111.5t97 87.5q-44 82 -44 152q0 48 21 87t61.5 62.5t92.5 23.5q70 0 111 -40.5t41 -106.5q0 -33 -11.5 -62t-36.5 -54.5t-46 -43t-56 -42.5q64 -87 158 -159q60 81 88 185h112q-40 -135 -119 -241q75 -45 125 -55l-30 -100 q-86 21 -169 74q-90 -74 -209 -74zM219 534q0 -43 28 -102q51 32 77 60.5t26 65.5q0 29 -14 47t-42 18q-33 0 -54 -24.5t-21 -64.5zM266 82q55 0 111 41q-99 84 -164 175q-67 -54 -67 -108q0 -32 15.5 -57t43 -38t61.5 -13z" />
<glyph unicode="'" horiz-adv-x="291" d="M110 416l-23 194l-4 119h125l-3 -119l-25 -194h-70z" />
<glyph unicode="(" horiz-adv-x="343" d="M222 -189q-140 230 -140 484t140 483l76 -34q-117 -199 -117 -449.5t117 -449.5z" />
<glyph unicode=")" horiz-adv-x="343" d="M122 -189l-76 34q116 199 116 449.5t-116 449.5l76 34q140 -229 140 -483t-140 -484z" />
<glyph unicode="*" horiz-adv-x="464" d="M152 407l-54 39l61 104l-108 48l20 63l116 -26l11 120h67l12 -120l116 26l20 -63l-109 -48l62 -104l-54 -39l-80 92z" />
<glyph unicode="+" d="M226 105v200h-190v89h190v201h92v-201h190v-89h-190v-200h-92z" />
<glyph unicode="," horiz-adv-x="291" d="M76 -193l-26 67q51 20 79.5 54t27.5 74h-10q-32 0 -55 20.5t-23 54.5t23.5 55t58.5 21q42 0 66.5 -33.5t24.5 -91.5q0 -78 -43.5 -136t-122.5 -85z" />
<glyph unicode="-" horiz-adv-x="341" d="M45 223v89h252v-89h-252z" />
<glyph unicode="." horiz-adv-x="291" d="M146.5 -13q-33.5 0 -56.5 23.5t-23 59t23 59.5t56.5 24t56 -23.5t22.5 -59.5t-22.5 -59.5t-56 -23.5z" />
<glyph unicode="/" horiz-adv-x="364" d="M13 -170l247 923h82l-247 -923h-82z" />
<glyph unicode="0" d="M271.5 -13q-106.5 0 -168 92.5t-61.5 260.5q0 112 28.5 190.5t79.5 117.5t121 39q107 0 168 -89.5t61 -257.5t-61 -260.5t-167.5 -92.5zM271.5 83q112.5 0 112.5 257q0 251 -112.5 251t-112.5 -251q0 -257 112.5 -257z" />
<glyph unicode="1" d="M78 0v100h151v443h-124v76q94 18 156 55h91v-574h132v-100h-406z" />
<glyph unicode="2" d="M40 0v71q56 53 89 86.5t73 75t62 70t43 60.5t30 59t9 52q0 35 -13 61.5t-38 40.5t-61 14q-64 0 -131 -75l-68 68q49 52 99 78t116 26q97 0 155 -56.5t58 -150.5q0 -25 -7 -52t-17.5 -51.5t-30 -54t-37.5 -53.5t-46.5 -56.5t-50.5 -56.5t-56 -60q82 8 113 8h165v-104h-456 z" />
<glyph unicode="3" d="M254 -13q-143 0 -229 96l59 78q72 -74 160 -74q55 0 89.5 27.5t34.5 74.5q0 56 -44.5 85t-153.5 29v89q176 0 176 108q0 42 -27 66t-73 24q-67 0 -136 -63l-62 75q95 85 202 85q99 0 159 -47t60 -131q0 -109 -118 -155v-4q63 -17 101.5 -60.5t38.5 -107.5q0 -89 -68 -142 t-169 -53z" />
<glyph unicode="4" d="M317 0v174h-298v83l267 417h145v-406h85v-94h-85v-174h-114zM140 268h177v153q0 42 5 140h-4q-5 -10 -55 -105z" />
<glyph unicode="5" d="M255 -13q-136 0 -230 94l57 78q76 -72 158 -72q57 0 93.5 34.5t36.5 94.5t-34 93t-90 33q-31 0 -53.5 -8t-54.5 -30l-58 37l20 333h360v-103h-254l-14 -163q46 22 89 22q92 0 152 -53.5t60 -157.5q0 -106 -70 -169t-168 -63z" />
<glyph unicode="6" d="M292 -13q-51 0 -94.5 20t-77.5 59.5t-53.5 103.5t-19.5 147q0 95 21.5 168t59 116t84 64.5t100.5 21.5q107 0 180 -76l-66 -75q-18 23 -47.5 37t-59.5 14q-69 0 -112 -58.5t-47 -190.5q12 15 26 27.5t28.5 22t30.5 16.5t31.5 10.5t29.5 3.5q60 0 103.5 -22.5t69 -70 t25.5 -116.5q0 -99 -61.5 -160.5t-150.5 -61.5zM289 81q44 0 72.5 34t28.5 94q0 59 -27.5 89.5t-78.5 30.5q-68 0 -121 -78q9 -87 42 -128.5t84 -41.5z" />
<glyph unicode="7" d="M178 0q9 182 50 309.5t138 261.5h-319v103h452v-74q-47 -59 -80 -113.5t-54 -106t-34 -113.5t-19 -121.5t-10 -145.5h-124z" />
<glyph unicode="8" d="M272 -13q-99 0 -164 52t-65 134q0 108 122 173v4q-93 66 -93 158q0 80 57.5 129.5t146.5 49.5q59 0 104 -23t69.5 -64t24.5 -95q0 -47 -26.5 -87.5t-63.5 -67.5v-4q54 -31 85 -72t31 -103q0 -79 -63 -131.5t-165 -52.5zM317 381q56 56 56 116q0 46 -26.5 74.5t-73.5 28.5 q-40 0 -66 -25t-26 -67q0 -46 34 -73.5t102 -53.5zM275 74q49 0 80 27.5t31 73.5q0 21 -8.5 38t-19.5 28.5t-35 25t-40.5 20.5t-50.5 21q-6 2 -8 4q-73 -53 -73 -126q0 -50 35.5 -81t88.5 -31z" />
<glyph unicode="9" d="M259 346q31 0 63.5 19.5t56.5 58.5q-9 86 -42 128t-85 42q-43 0 -71.5 -34t-28.5 -93.5t27.5 -90t79.5 -30.5zM230 -13q-108 0 -180 77l66 74q12 -15 29.5 -26.5t37.5 -18t41 -6.5q69 0 112 58.5t47 190.5q-29 -36 -69.5 -57t-78.5 -21q-90 0 -143 53t-53 155 q0 99 61.5 160t150.5 61q51 0 94 -20t77 -59t53.5 -103t19.5 -147q0 -95 -21.5 -168t-59 -116t-84 -65t-100.5 -22z" />
<glyph unicode=":" horiz-adv-x="291" d="M146 350q-33 0 -56 23.5t-23 59t23 59t56.5 23.5t56 -23.5t22.5 -59.5q0 -23 -10.5 -42t-28.5 -29.5t-40 -10.5zM146.5 -13q-33.5 0 -56.5 23.5t-23 59t23 59.5t56.5 24t56 -23.5t22.5 -59.5t-22.5 -59.5t-56 -23.5z" />
<glyph unicode=";" horiz-adv-x="291" d="M146 350q-33 0 -56 23.5t-23 59t23 59t56.5 23.5t56 -23.5t22.5 -59.5q0 -23 -10.5 -42t-28.5 -29.5t-40 -10.5zM76 -193l-26 67q51 20 79.5 54t27.5 74h-10q-32 0 -55 20.5t-23 54.5t23.5 55t58.5 21q42 0 66.5 -33.5t24.5 -91.5q0 -78 -43.5 -136t-122.5 -85z" />
<glyph unicode="&#x3c;" d="M508 124l-472 183v89l472 184v-103l-205 -72l-143 -51v-4l143 -51l205 -72v-103z" />
<glyph unicode="=" d="M36 424v89h472v-89h-472zM36 187v89h472v-89h-472z" />
<glyph unicode="&#x3e;" d="M36 124v103l205 72l143 51v4l-143 51l-205 72v103l472 -184v-89z" />
<glyph unicode="?" horiz-adv-x="470" d="M166 228q-5 36 3 70t23.5 58t35 49t37 45t29 43.5t11.5 44.5q0 39 -22.5 62t-63.5 23q-59 0 -109 -55l-68 63q80 92 192 92q86 0 138 -46t52 -130q0 -37 -17 -71t-40.5 -61t-46.5 -54t-37 -61t-10 -72h-107zM220.5 -13q-33.5 0 -56 23.5t-22.5 59.5q0 12 3 23t7.5 20 t12 16.5t16 12.5t18.5 8t21 3q34 0 57 -24t23 -59.5t-23 -59t-56.5 -23.5z" />
<glyph unicode="@" horiz-adv-x="927" d="M441 -174q-80 0 -149.5 25t-123 72.5t-84.5 123t-31 169.5q0 107 37 198t99.5 152.5t146.5 96t177 34.5q165 0 264 -100.5t99 -263.5q0 -68 -21 -124.5t-54 -90.5t-72.5 -52.5t-79.5 -18.5q-23 0 -42.5 5t-35 15t-25.5 25.5t-14 34.5h-2q-24 -32 -59 -52t-69 -20 q-59 0 -96.5 42t-37.5 113q0 61 26 119t75 96t108 38q55 0 83 -52h2l14 44h77l-46 -224q-26 -107 53 -107q53 0 94 57t41 148q0 61 -17.5 113.5t-52.5 92.5t-91.5 63t-129.5 23q-70 0 -136 -29t-117 -80t-82 -127t-31 -165q0 -51 11 -95.5t31.5 -79t49 -61.5t63.5 -44.5 t74.5 -26.5t82.5 -9q87 0 167 43l29 -68q-94 -53 -205 -53zM427 135q39 0 84 55l27 156q-23 37 -58 37q-51 0 -84 -53.5t-33 -112.5q0 -82 64 -82z" />
<glyph unicode="A" horiz-adv-x="591" d="M230 369l-24 -85h177l-25 85q-16 52 -62 229h-4q-36 -142 -62 -229zM-2 0l226 693h144l226 -693h-130l-54 188h-233l-54 -188h-125z" />
<glyph unicode="B" horiz-adv-x="632" d="M88 0v693h222q248 0 248 -170q0 -51 -26.5 -93t-70.5 -58v-4q60 -14 96.5 -55.5t36.5 -108.5q0 -101 -73 -152.5t-193 -51.5h-240zM211 407h88q70 0 104 25.5t34 72.5q0 49 -33.5 71t-102.5 22h-90v-191zM211 95h104q159 0 159 115q0 105 -159 105h-104v-220z" />
<glyph unicode="C" horiz-adv-x="610" d="M365 -13q-136 0 -224.5 95t-88.5 262q0 84 25 152.5t68 114t100.5 70.5t123.5 25q61 0 112.5 -24.5t87.5 -63.5l-65 -80q-61 61 -132 61q-86 0 -140 -68t-54 -183q0 -59 13.5 -106.5t38 -80t60 -50t79.5 -17.5q83 0 148 71l66 -77q-87 -101 -218 -101z" />
<glyph unicode="D" horiz-adv-x="662" d="M88 0v693h185q162 0 250 -87t88 -256q0 -170 -87.5 -260t-243.5 -90h-192zM211 100h54q107 0 163 62t56 188q0 244 -219 244h-54v-494z" />
<glyph unicode="E" horiz-adv-x="570" d="M88 0v693h418v-104h-295v-177h249v-104h-249v-204h305v-104h-428z" />
<glyph unicode="F" horiz-adv-x="540" d="M88 0v693h419v-104h-296v-196h252v-104h-252v-289h-123z" />
<glyph unicode="G" horiz-adv-x="665" d="M378 -13q-144 0 -235 94.5t-91 262.5q0 84 25 152.5t69.5 114t104 70.5t128.5 25q124 0 210 -88l-65 -80q-63 61 -140 61q-93 0 -149.5 -67.5t-56.5 -183.5q0 -120 54.5 -187t157.5 -67q66 0 100 31v150h-132v100h242v-305q-37 -37 -95.5 -60t-126.5 -23z" />
<glyph unicode="H" horiz-adv-x="702" d="M88 0v693h123v-279h281v279h123v-693h-123v307h-281v-307h-123z" />
<glyph unicode="I" horiz-adv-x="298" d="M88 0v693h123v-693h-123z" />
<glyph unicode="J" horiz-adv-x="523" d="M232 -13q-140 0 -207 118l85 62q40 -73 108 -73q50 0 74 31t24 103v465h123v-476q0 -101 -51.5 -165.5t-155.5 -64.5z" />
<glyph unicode="K" horiz-adv-x="632" d="M88 0v693h123v-315h3l247 315h137l-213 -270l249 -423h-136l-187 326l-100 -124v-202h-123z" />
<glyph unicode="L" horiz-adv-x="532" d="M88 0v693h123v-589h288v-104h-411z" />
<glyph unicode="M" horiz-adv-x="789" d="M88 0v693h139l123 -339q7 -22 44 -136h5q5 16 20 63.5t23 72.5l120 339h140v-693h-114v317q0 61 16 220h-4l-56 -161l-114 -311h-73l-114 311l-55 161h-5q1 -10 6 -64.5t7.5 -90.5t2.5 -65v-317h-111z" />
<glyph unicode="N" horiz-adv-x="695" d="M88 0v693h126l216 -390l71 -147h5q-2 19 -5 55t-5.5 61.5t-4 59t-1.5 60.5v301h117v-693h-126l-216 390l-71 147h-4q1 -21 5.5 -70.5t7.5 -89t3 -74.5v-303h-118z" />
<glyph unicode="O" horiz-adv-x="714" d="M357 -13q-137 0 -221 98t-84 265q0 165 84 260.5t221 95.5q138 0 222.5 -95.5t84.5 -260.5q0 -167 -84.5 -265t-222.5 -98zM357 94q54 0 95 31.5t62.5 89.5t21.5 135q0 115 -48.5 182t-130.5 67t-130.5 -67t-48.5 -182q0 -117 48.5 -186.5t130.5 -69.5z" />
<glyph unicode="P" horiz-adv-x="616" d="M88 0v693h218q269 0 269 -214q0 -111 -73 -168t-191 -57h-100v-254h-123zM211 353h90q153 0 153 126q0 63 -38.5 89.5t-118.5 26.5h-86v-242z" />
<glyph unicode="Q" horiz-adv-x="714" d="M357 88q82 0 130.5 70.5t48.5 191.5q0 115 -48.5 182t-130.5 67t-130.5 -67t-48.5 -182q0 -121 48.5 -191.5t130.5 -70.5zM578 -184q-51 0 -95.5 13t-79 36.5t-60.5 55.5t-43 72q-114 20 -181 114.5t-67 242.5q0 165 84 260.5t221 95.5q138 0 222.5 -95.5t84.5 -260.5 q0 -143 -63 -236.5t-171 -117.5q16 -27 41.5 -45t55.5 -26.5t64 -8.5q42 0 76 11l22 -91q-44 -20 -111 -20z" />
<glyph unicode="R" horiz-adv-x="627" d="M88 0v693h234q255 0 255 -205q0 -77 -36.5 -126.5t-101.5 -72.5l165 -289h-138l-149 271h-106v-271h-123zM211 369h99q47 0 79.5 13t49.5 40t17 66t-17.5 63t-49 34t-79.5 10h-99v-226z" />
<glyph unicode="S" horiz-adv-x="577" d="M290 -13q-70 0 -135 27t-115 75l72 84q39 -36 86.5 -57.5t94.5 -21.5q57 0 88.5 24t31.5 65q0 17 -5.5 30.5t-13 22.5t-24.5 19t-27.5 14.5t-36.5 15.5l-95 41q-140 60 -140 185q0 83 66 139t167 56q40 0 79 -11t73 -30.5t61 -46.5l-62 -78q-71 59 -151 59 q-33 0 -57.5 -10t-38 -28.5t-13.5 -43.5q0 -15 7 -28.5t14.5 -22t26 -18.5t28.5 -14t34 -14l95 -39q67 -29 103.5 -73t36.5 -115q0 -87 -68 -146.5t-182 -59.5z" />
<glyph unicode="T" horiz-adv-x="578" d="M228 0v589h-200v104h523v-104h-200v-589h-123z" />
<glyph unicode="U" horiz-adv-x="694" d="M348 -13q-263 0 -263 317v389h123v-398q0 -73 18 -118.5t48 -64t74 -18.5q144 0 144 201v398h118v-389q0 -317 -262 -317z" />
<glyph unicode="V" horiz-adv-x="568" d="M212 0l-216 693h130l98 -349q9 -31 19.5 -72t21 -80t20.5 -73h4q14 46 35 127.5t26 97.5l96 349h126l-215 -693h-145z" />
<glyph unicode="W" horiz-adv-x="848" d="M157 0l-138 693h126l61 -350q23 -148 34 -221h4q36 178 45 221l85 350h107l85 -350q9 -40 24.5 -116t22.5 -105h4q6 40 17 114t16 107l60 350h118l-133 -693h-152l-86 365q-20 92 -31 160h-4q-14 -77 -32 -160l-84 -365h-149z" />
<glyph unicode="X" horiz-adv-x="573" d="M14 0l197 357l-185 336h137l77 -153q7 -14 15.5 -31.5t18.5 -38t19 -36.5h4q29 70 46 106l74 153h130l-184 -341l197 -352h-137l-85 163q-8 17 -26.5 54.5t-29.5 59.5h-4q-24 -55 -51 -114l-83 -163h-130z" />
<glyph unicode="Y" horiz-adv-x="531" d="M204 0v258l-208 435h131l75 -177q32 -81 62 -152h4q58 136 64 152l75 177h128l-209 -435v-258h-122z" />
<glyph unicode="Z" horiz-adv-x="572" d="M42 0v74l335 515h-304v104h457v-74l-336 -515h338v-104h-490z" />
<glyph unicode="[" horiz-adv-x="343" d="M95 -161v911h208v-66h-115v-778h115v-67h-208z" />
<glyph unicode="\" horiz-adv-x="364" d="M270 -170l-248 923h83l248 -923h-83z" />
<glyph unicode="]" horiz-adv-x="343" d="M40 -161v67h116v778h-116v66h208v-911h-208z" />
<glyph unicode="^" d="M58 296l162 414h102l163 -414h-102l-59 160l-51 143h-4l-50 -143l-58 -160h-103z" />
<glyph unicode="_" horiz-adv-x="530" d="M13 -141v73h504v-73h-504z" />
<glyph unicode="`" horiz-adv-x="581" d="M293 607l-181 165l85 80l156 -184z" />
<glyph unicode="a" horiz-adv-x="546" d="M204 -13q-69 0 -111.5 42.5t-42.5 110.5q0 83 73 129t233 64q-4 102 -95 102q-60 0 -147 -51l-44 81q108 68 214 68q96 0 145 -57.5t49 -167.5v-308h-101l-8 57h-4q-84 -70 -161 -70zM243 83q30 0 55.5 13.5t57.5 43.5v117q-102 -13 -145.5 -39.5t-43.5 -68.5 q0 -33 20.5 -49.5t55.5 -16.5z" />
<glyph unicode="b" horiz-adv-x="596" d="M330 -13q-75 0 -142 68h-4l-10 -55h-97v748h122v-193l-3 -86q74 64 151 64q96 0 150.5 -71t54.5 -193q0 -129 -65.5 -205.5t-156.5 -76.5zM304 88q54 0 88 47t34 132q0 165 -112 165q-55 0 -115 -58v-243q51 -43 105 -43z" />
<glyph unicode="c" horiz-adv-x="489" d="M295 -13q-72 0 -128.5 31.5t-90 94t-33.5 147.5q0 125 76 199t185 74q85 0 153 -58l-59 -80q-44 39 -87 39q-64 0 -103 -48t-39 -126q0 -52 17.5 -91t49 -60.5t71.5 -21.5q53 0 107 44l50 -80q-73 -64 -169 -64z" />
<glyph unicode="d" horiz-adv-x="597" d="M260 -13q-65 0 -113.5 32t-74.5 94t-26 147q0 122 65.5 197.5t154.5 75.5q42 0 72.5 -14t64.5 -43l-4 84v188h121v-748h-100l-9 56h-4q-69 -69 -147 -69zM289 88q59 0 110 58v243q-50 43 -106 43q-52 0 -86.5 -46t-34.5 -125q0 -84 30.5 -128.5t86.5 -44.5z" />
<glyph unicode="e" horiz-adv-x="537" d="M300 -13q-111 0 -184 73.5t-73 199.5q0 41 9.5 78.5t26 67.5t39 54t49 40t56.5 24.5t60 8.5q69 0 118 -31.5t73 -86.5t24 -129q0 -38 -5 -59h-331q8 -69 49 -107t105 -38q61 0 121 38l41 -77q-85 -56 -178 -56zM161 310h231q0 24 -4 44t-12.5 36t-21 26.5t-30 16.5 t-38.5 6q-48 0 -82.5 -34.5t-42.5 -94.5z" />
<glyph unicode="f" horiz-adv-x="336" d="M99 0v424h-70v91l70 5v55q0 55 17 96t56.5 65.5t98.5 24.5q52 0 96 -18l-24 -91q-28 13 -57 13q-66 0 -66 -88v-57h102v-96h-102v-424h-121z" />
<glyph unicode="g" horiz-adv-x="551" d="M259 -230q-97 0 -157 35t-60 101q0 65 75 111v4q-47 30 -47 87q0 28 16.5 53.5t40.5 43.5v4q-29 22 -48.5 58t-19.5 80q0 86 60 136t146 50q40 0 76 -13h187v-90h-96q30 -35 30 -88q0 -83 -55.5 -130t-141.5 -47q-37 0 -71 14q-25 -22 -25 -50q0 -47 84 -47h93 q95 0 142.5 -31t47.5 -98q0 -78 -76.5 -130.5t-200.5 -52.5zM265 242q15 0 28.5 4.5t24.5 13t19.5 21t13 29.5t4.5 37q0 47 -25.5 74.5t-64.5 27.5q-40 0 -65.5 -27.5t-25.5 -74.5q0 -49 26 -77t65 -28zM278 -151q61 0 101 25t40 59q0 29 -23 40.5t-70 11.5h-71q-42 0 -71 8 q-40 -31 -40 -69q0 -18 9.5 -31.5t26.5 -23t42 -15t56 -5.5z" />
<glyph unicode="h" horiz-adv-x="591" d="M77 0v748h122v-193l-4 -100q83 78 166 78q161 0 161 -207v-326h-122v311q0 43 -9 68.5t-26.5 37t-46.5 11.5q-32 0 -57.5 -15t-61.5 -49v-364h-122z" />
<glyph unicode="i" horiz-adv-x="277" d="M77 0v520h122v-520h-122zM139 612q-16 0 -30 5t-24 14t-15.5 22t-5.5 28q0 30 21 49.5t54 19.5t54 -19.5t21 -49.5q0 -31 -21 -50t-54 -19z" />
<glyph unicode="j" horiz-adv-x="278" d="M36 -218q-47 0 -85 13l24 92q27 -9 44 -9q34 0 46.5 22.5t12.5 70.5v549h123v-546q0 -192 -165 -192zM140 612q-16 0 -30 5t-24 14t-15.5 22t-5.5 28q0 30 21.5 49.5t53.5 19.5q33 0 54.5 -19.5t21.5 -49.5q0 -31 -21.5 -50t-54.5 -19z" />
<glyph unicode="k" horiz-adv-x="553" d="M77 0v748h120v-467h3l193 239h134l-178 -212l196 -308h-133l-133 226l-82 -94v-132h-120z" />
<glyph unicode="l" horiz-adv-x="287" d="M196 -13q-119 0 -119 147v614h122v-621q0 -14 4 -23.5t10 -13t13 -3.5q9 0 19 2l16 -91q-25 -11 -65 -11z" />
<glyph unicode="m" horiz-adv-x="893" d="M77 0v520h101l9 -71h4q78 84 159 84q105 0 144 -93q42 45 82 69t85 24q162 0 162 -207v-326h-123v311q0 63 -19.5 90t-60.5 27q-49 0 -109 -64v-364h-122v311q0 63 -19 90t-62 27q-49 0 -109 -64v-364h-122z" />
<glyph unicode="n" horiz-adv-x="593" d="M77 0v520h101l9 -70h4q84 83 170 83q161 0 161 -207v-326h-122v311q0 43 -9 68.5t-26.5 37t-46.5 11.5q-32 0 -57.5 -15t-61.5 -49v-364h-122z" />
<glyph unicode="o" horiz-adv-x="581" d="M290 -13q-102 0 -174.5 74t-72.5 199t72.5 199t174.5 74q103 0 175.5 -74t72.5 -199t-72.5 -199t-175.5 -74zM290.5 87q56.5 0 89.5 47t33 126q0 52 -14.5 91t-42.5 61t-66 22q-56 0 -88.5 -47.5t-32.5 -126.5t32.5 -126t89 -47z" />
<glyph unicode="p" horiz-adv-x="597" d="M77 -206v726h101l9 -55h4q79 68 157 68q96 0 150 -71.5t54 -193.5q0 -128 -65.5 -204.5t-156.5 -76.5q-67 0 -134 58l3 -87v-164h-122zM304 88q54 0 88 47t34 132q0 165 -112 165q-55 0 -115 -58v-243q52 -43 105 -43z" />
<glyph unicode="q" horiz-adv-x="597" d="M399 -206v171l4 87q-67 -65 -143 -65q-65 0 -113.5 32t-74.5 94t-26 147q0 122 65.5 197.5t154.5 75.5q80 0 144 -62h3l11 49h96v-726h-121zM289 88q59 0 110 58v243q-50 43 -106 43q-52 0 -86.5 -46t-34.5 -125q0 -84 30.5 -128.5t86.5 -44.5z" />
<glyph unicode="r" horiz-adv-x="395" d="M77 0v520h101l9 -92h4q27 50 66 77.5t81 27.5q37 0 60 -10l-22 -106q-29 8 -54 8q-22 0 -43 -10t-43 -35t-37 -62v-318h-122z" />
<glyph unicode="s" horiz-adv-x="456" d="M223 -13q-52 0 -105 20t-93 52l58 79q75 -58 144 -58q40 0 61.5 17t21.5 45q0 12 -6.5 22.5t-14.5 17.5t-24 15.5t-26.5 13t-31.5 11.5q-6 3 -9 4q-30 11 -52.5 22.5t-45.5 29.5t-35.5 43t-12.5 56q0 70 51.5 113t138.5 43q92 0 172 -62l-56 -75q-60 45 -114 45 q-25 0 -42.5 -7.5t-26 -20t-8.5 -29.5q0 -12 6 -21.5t13.5 -16t23 -14t25.5 -11.5t31 -11q6 -2 10 -4q21 -8 35.5 -14t34 -16.5t32 -22t24.5 -26.5t17.5 -35t5.5 -44q0 -69 -53.5 -115t-148.5 -46z" />
<glyph unicode="t" horiz-adv-x="382" d="M261 -13q-166 0 -166 189v248h-74v91l81 5l15 142h101v-142h133v-96h-133v-248q0 -91 74 -91q26 0 54 11l21 -90q-57 -19 -106 -19z" />
<glyph unicode="u" horiz-adv-x="589" d="M232 -13q-160 0 -160 207v326h122v-310q0 -64 19 -91t62 -27q33 0 59 16.5t56 55.5v356h122v-520h-100l-9 76h-3q-75 -89 -168 -89z" />
<glyph unicode="v" horiz-adv-x="524" d="M194 0l-181 520h124l82 -270q6 -19 21 -73t23 -84h4q30 106 45 157l82 270h118l-177 -520h-141z" />
<glyph unicode="w" horiz-adv-x="792" d="M163 0l-138 520h123l63 -270q6 -29 15.5 -83.5t11.5 -65.5h5q15 83 33 149l67 270h112l69 -270q7 -28 35 -149h4q4 20 9 48t9.5 54t8.5 47l63 270h114l-132 -520h-145l-61 243q-7 28 -18 84.5t-13 66.5h-5q-15 -87 -30 -152l-60 -242h-140z" />
<glyph unicode="x" horiz-adv-x="509" d="M15 0l165 271l-155 249h132l58 -98q17 -32 48 -88h4q6 14 20 44t20 44l50 98h126l-153 -262l165 -258h-131l-64 103q-30 54 -53 92h-4l-46 -92l-55 -103h-127z" />
<glyph unicode="y" horiz-adv-x="524" d="M112 -214q-36 0 -67 10l22 96q22 -8 37 -8q75 0 104 90l9 32l-204 514h124l90 -255q7 -22 22 -71.5t23 -74.5h5q29 111 39 146l78 255h118l-189 -543q-17 -47 -35.5 -80t-43 -59.5t-57.5 -39t-75 -12.5z" />
<glyph unicode="z" horiz-adv-x="469" d="M36 0v66l246 358h-218v96h371v-64l-245 -358h253v-98h-407z" />
<glyph unicode="{" horiz-adv-x="343" d="M246 -161q-69 0 -99.5 32t-30.5 114q0 39 4.5 98.5t4.5 93.5t-21 57t-70 24v74q33 0 54.5 12.5t29 29t7.5 37.5q0 34 -4.5 94t-4.5 99q0 82 30.5 114t99.5 32h57v-66h-24q-38 0 -51.5 -18.5t-13.5 -66.5q0 -29 2.5 -88.5t2.5 -93.5q0 -56 -16.5 -83.5t-54.5 -36.5v-4 q38 -10 54.5 -37.5t16.5 -82.5q0 -35 -2.5 -94t-2.5 -89q0 -48 13.5 -66t51.5 -18h24v-67h-57z" />
<glyph unicode="|" horiz-adv-x="270" d="M94 -265v1060h82v-1060h-82z" />
<glyph unicode="}" horiz-adv-x="343" d="M40 -161v67h25q37 0 50.5 18t13.5 66q0 30 -2.5 89t-2.5 94q0 55 16.5 82.5t54.5 37.5v4q-38 9 -54.5 36.5t-16.5 83.5q0 34 2.5 93.5t2.5 88.5q0 48 -13.5 66.5t-50.5 18.5h-25v66h58q69 0 99.5 -32t30.5 -114q0 -39 -5 -99t-5 -94q0 -33 21.5 -55.5t70.5 -23.5v-74 q-49 -1 -70.5 -24t-21.5 -57t5 -93.5t5 -98.5q0 -82 -30.5 -114t-99.5 -32h-58z" />
<glyph unicode="~" d="M364 263q-29 0 -57 13t-46 29t-40.5 29.5t-42.5 13.5q-44 0 -78 -63l-66 49q64 103 146 103q29 0 57 -13.5t46 -29.5t40.5 -29t42.5 -13q44 0 78 62l65 -49q-63 -102 -145 -102z" />
<glyph unicode="&#xa1;" horiz-adv-x="333" d="M106 -190l3 121l17 362h82l17 -362l4 -121h-123zM167.5 368q-33.5 0 -56.5 23.5t-23 60.5q0 34 23 57.5t56.5 23.5t56 -23.5t22.5 -57.5q0 -37 -22.5 -60.5t-56 -23.5z" />
<glyph unicode="&#xa2;" d="M183 326q0 -58 27 -99t75 -55v310q-48 -16 -75 -56.5t-27 -99.5zM285 -39v105q-101 13 -160.5 81t-59.5 179q0 108 61 176t159 84v107h70v-104q80 -4 136 -60l-57 -75q-38 32 -79 37v-327q46 4 93 44l51 -78q-61 -55 -144 -65v-104h-70z" />
<glyph unicode="&#xa3;" d="M54 0v75q52 26 82 72.5t30 103.5q0 14 -4 44h-106v73l71 5h13q-22 71 -22 108q0 63 26.5 110t74.5 71.5t111 24.5q105 0 174 -83l-68 -67q-43 50 -96 50q-49 0 -77 -29.5t-28 -82.5q0 -38 18 -102h164v-78h-146q4 -21 4 -45q0 -46 -13.5 -78.5t-43.5 -63.5v-4h287v-104 h-451z" />
<glyph unicode="&#xa5;" d="M210 0v161h-167v64h167v62h-167v63h139l-163 324h126l68 -160q50 -123 58 -141h5q20 48 58 141l68 160h123l-165 -324h140v-63h-167v-62h167v-64h-167v-161h-123z" />
<glyph unicode="&#xa7;" d="M148 363q0 -23 12 -41t34.5 -32t45 -24.5t54.5 -24.5t53 -26q48 25 48 77q0 22 -11.5 40.5t-34 32.5t-44 24.5t-54.5 25t-53 25.5q-50 -30 -50 -77zM252 -78q-58 0 -109.5 21t-85.5 61l72 64q55 -55 123 -55q37 0 57 16.5t20 42.5q0 18 -12.5 33.5t-32.5 26t-45.5 22.5 t-52.5 23t-52.5 28t-45.5 36t-32.5 48.5t-12.5 64.5q0 42 24 77.5t64 59.5q-31 35 -31 87q0 66 46 108t127 42q95 0 179 -64l-58 -78q-57 50 -114 50q-35 0 -52.5 -14.5t-17.5 -38.5q0 -17 12.5 -31.5t33 -25.5t46.5 -23.5t53 -24t53.5 -28.5t46.5 -36.5t32.5 -48.5 t12.5 -64q0 -86 -88 -139q28 -36 28 -85q0 -68 -51 -111.5t-137 -43.5z" />
<glyph unicode="&#xa8;" horiz-adv-x="581" d="M181 613q-27 0 -45.5 18.5t-18.5 46t18.5 46t45.5 18.5q29 0 47 -18.5t18 -46t-18 -46t-47 -18.5zM400 613q-29 0 -47 18.5t-18 46t18 46t47 18.5q18 0 33 -8.5t23 -23.5t8 -33q0 -27 -18.5 -45.5t-45.5 -18.5z" />
<glyph unicode="&#xa9;" horiz-adv-x="791" d="M396 -11q-69 0 -132 25.5t-110.5 70.5t-75.5 112t-28 146q0 106 48 187t126 122t172 41t172 -41t126 -122t48 -186.5t-48 -187.5t-126 -124.5t-172 -42.5zM396 45q121 0 203 83t82 215t-82 214t-203 82q-59 0 -111 -21t-90.5 -59t-61 -94t-22.5 -122q0 -87 38.5 -156 t103 -105.5t143.5 -36.5zM407 134q-87 0 -143 56.5t-56 151.5q0 90 59 146.5t141 56.5q75 0 137 -62l-48 -53q-41 40 -83 40q-53 0 -84 -36t-31 -92q0 -61 30 -97t81 -36q46 0 97 41l41 -59q-68 -57 -141 -57z" />
<glyph unicode="&#xaa;" horiz-adv-x="373" d="M141 400q-32 0 -56 13t-37 36.5t-13 52.5q0 56 48.5 86t156.5 41q-4 62 -60 62q-41 0 -100 -34l-32 59q75 45 147 45q65 0 99 -38t34 -111v-204h-71l-9 37h-4q-50 -45 -103 -45zM170 467q33 0 70 35v75q-119 -14 -119 -67q0 -43 49 -43z" />
<glyph unicode="&#xab;" horiz-adv-x="482" d="M193 65l-143 158v89l143 158l49 -40l-122 -163l122 -164zM377 65l-143 158v89l143 158l49 -40l-122 -163l122 -164z" />
<glyph unicode="&#xac;" d="M416 105v200h-380v89h472v-289h-92z" />
<glyph unicode="&#xad;" horiz-adv-x="341" d="M45 223v89h252v-89h-252z" />
<glyph unicode="&#xae;" horiz-adv-x="469" d="M234 334q-85 0 -144.5 59.5t-59.5 151.5t59.5 152t144.5 60q87 0 146 -60t59 -152t-59 -151.5t-146 -59.5zM234.5 379q67.5 0 111 46.5t43.5 119.5q0 74 -43.5 120.5t-111 46.5t-111 -46.5t-43.5 -120.5q0 -73 43.5 -119.5t111 -46.5zM153 442v211h88q24 0 42.5 -6.5 t30 -22.5t11.5 -40q0 -12 -4 -23.5t-13 -20.5t-22 -14l47 -84h-56l-35 69h-36v-69h-53zM206 549h24q9 0 16.5 2.5t12.5 6.5t7.5 10t2.5 13q0 14 -9.5 23t-28.5 9h-25v-64z" />
<glyph unicode="&#xaf;" horiz-adv-x="581" d="M142 632v80h297v-80h-297z" />
<glyph unicode="&#xb0;" horiz-adv-x="368" d="M185.5 438q-60.5 0 -102 40.5t-41.5 103.5t41.5 103.5t102 40.5t102 -40.5t41.5 -103.5t-41.5 -103.5t-102 -40.5zM185.5 500q33.5 0 54.5 23t21 59q0 37 -21 60t-54.5 23t-54.5 -23t-21 -60q0 -36 21 -59t54.5 -23z" />
<glyph unicode="&#xb1;" d="M226 152v165h-190v88h190v190h92v-190h190v-88h-190v-165h-92zM36 0v88h472v-88h-472z" />
<glyph unicode="&#xb4;" horiz-adv-x="581" d="M288 607l-60 61l156 184l85 -80z" />
<glyph unicode="&#xb5;" horiz-adv-x="612" d="M77 -189v709h122v-310q0 -62 19 -90t61 -28q33 0 59.5 18t53.5 66v344h123q-8 -347 -8 -390t42 -43q16 0 32 6l16 -91q-34 -15 -78 -15q-97 0 -114 94h-4q-46 -89 -126 -89q-59 0 -83 36q1 -134 9 -217h-124z" />
<glyph unicode="&#xb6;" horiz-adv-x="634" d="M410 -85v778h123v-778h-123zM313 225q-78 0 -138 25t-96.5 79.5t-36.5 132.5q0 63 20 108.5t57 72t83 38.5t103 12h47v-468h-39z" />
<glyph unicode="&#xb7;" horiz-adv-x="291" d="M146.5 258q-33.5 0 -56.5 23.5t-23 59t23 59t56.5 23.5t56 -23.5t22.5 -59t-22.5 -59t-56 -23.5z" />
<glyph unicode="&#xb8;" horiz-adv-x="581" d="M195 -247l-11 53q64 4 88.5 15t24.5 35q0 19 -18 30t-64 18l49 99h74l-31 -69q40 -10 60 -28t20 -49q0 -96 -192 -104z" />
<glyph unicode="&#xba;" horiz-adv-x="391" d="M195 400q-70 0 -118 49t-48 131q0 83 48 132t118 49t118 -49t48 -132q0 -55 -23 -96.5t-60.5 -62.5t-82.5 -21zM195 471q37 0 56.5 29t19.5 80q0 33 -8.5 58t-26 39t-41.5 14q-37 0 -56.5 -30t-19.5 -81t19.5 -80t56.5 -29z" />
<glyph unicode="&#xbb;" horiz-adv-x="482" d="M105 65l-48 38l121 164l-121 163l48 40l144 -158v-89zM289 65l-47 38l121 164l-121 163l47 40l145 -158v-89z" />
<glyph unicode="&#xbf;" horiz-adv-x="470" d="M237 -202q-86 0 -137.5 45.5t-51.5 130.5q0 36 16.5 70.5t40 61t46.5 53.5t36.5 61.5t9.5 72.5h108q6 -43 -6 -82t-34 -68t-44.5 -54.5t-39 -53t-16.5 -53.5q0 -25 10.5 -44t30 -30t46.5 -11q57 0 108 55l69 -62q-83 -92 -192 -92zM250.5 368q-33.5 0 -56 23.5 t-22.5 60.5q0 34 22.5 57.5t56 23.5t56 -23.5t22.5 -57.5q0 -37 -22.5 -60.5t-56 -23.5z" />
<glyph unicode="&#xc0;" horiz-adv-x="591" d="M230 369l-24 -85h177l-25 85q-16 52 -62 229h-4q-36 -142 -62 -229zM-2 0l226 693h144l226 -693h-130l-54 188h-233l-54 -188h-125zM308 729l-178 124l66 81l167 -143z" />
<glyph unicode="&#xc1;" horiz-adv-x="591" d="M230 369l-24 -85h177l-25 85q-16 52 -62 229h-4q-36 -142 -62 -229zM-2 0l226 693h144l226 -693h-130l-54 188h-233l-54 -188h-125zM279 729l-54 62l166 143l66 -81z" />
<glyph unicode="&#xc2;" horiz-adv-x="591" d="M230 369l-24 -85h177l-25 85q-16 52 -62 229h-4q-36 -142 -62 -229zM-2 0l226 693h144l226 -693h-130l-54 188h-233l-54 -188h-125zM125 768l103 118h131l103 -118l-53 -34l-113 93h-4l-114 -93z" />
<glyph unicode="&#xc3;" horiz-adv-x="591" d="M230 369l-24 -85h177l-25 85q-16 52 -62 229h-4q-36 -142 -62 -229zM-2 0l226 693h144l226 -693h-130l-54 188h-233l-54 -188h-125zM371 742q-26 0 -50 10.5t-39 23.5t-32 23.5t-31 10.5q-38 0 -44 -61l-81 7q4 69 36.5 105t85.5 36q26 0 50.5 -10.5t39 -23.5t31.5 -23.5 t31 -10.5q37 0 44 61l81 -6q-3 -46 -19 -78.5t-42 -48t-61 -15.5z" />
<glyph unicode="&#xc4;" horiz-adv-x="591" d="M230 369l-24 -85h177l-25 85q-16 52 -62 229h-4q-36 -142 -62 -229zM-2 0l226 693h144l226 -693h-130l-54 188h-233l-54 -188h-125zM180.5 750q-27.5 0 -45 18t-17.5 45q0 28 17 46t45 18t46 -18t18 -46q0 -27 -18 -45t-45.5 -18zM407 750q-28 0 -46 18t-18 45 q0 28 18 46t46 18t45.5 -18t17.5 -46q0 -27 -17.5 -45t-45.5 -18z" />
<glyph unicode="&#xc5;" horiz-adv-x="591" d="M230 369l-24 -85h177l-25 85q-16 52 -62 229h-4q-36 -142 -62 -229zM-2 0l226 693h144l226 -693h-130l-54 188h-233l-54 -188h-125zM294 740q-50 0 -81.5 27.5t-31.5 72.5t31.5 72.5t81.5 27.5q49 0 80.5 -27.5t31.5 -72.5q0 -30 -14.5 -53t-40 -35t-57.5 -12zM294 789 q20 0 34 13.5t14 37t-14 37.5t-34 14q-22 0 -36 -14t-14 -37.5t14 -37t36 -13.5z" />
<glyph unicode="&#xc6;" horiz-adv-x="884" d="M315 388l-54 -111h157v322h-5q-15 -33 -48 -104t-50 -107zM-3 0l346 693h476v-104h-278v-177h234v-104h-234v-204h289v-104h-412v180h-204l-88 -180h-129z" />
<glyph unicode="&#xc7;" horiz-adv-x="610" d="M267 -247l-10 53q63 4 87.5 15t24.5 35q0 19 -18 30t-64 18l42 85q-123 13 -200 106.5t-77 248.5q0 84 25 152.5t68 114t100.5 70.5t123.5 25q61 0 112.5 -24.5t87.5 -63.5l-65 -80q-61 61 -132 61q-86 0 -140 -68t-54 -183q0 -59 13.5 -106.5t38 -80t60 -50t79.5 -17.5 q83 0 148 71l66 -77q-73 -85 -179 -99l-25 -55q40 -10 60 -28t20 -49q0 -96 -192 -104z" />
<glyph unicode="&#xc8;" horiz-adv-x="570" d="M88 0v693h418v-104h-295v-177h249v-104h-249v-204h305v-104h-428zM318 729l-178 124l66 81l166 -143z" />
<glyph unicode="&#xc9;" horiz-adv-x="570" d="M88 0v693h418v-104h-295v-177h249v-104h-249v-204h305v-104h-428zM288 729l-54 62l167 143l65 -81z" />
<glyph unicode="&#xca;" horiz-adv-x="570" d="M88 0v693h418v-104h-295v-177h249v-104h-249v-204h305v-104h-428zM135 768l102 118h132l103 -118l-53 -34l-114 93h-4l-113 -93z" />
<glyph unicode="&#xcb;" horiz-adv-x="570" d="M88 0v693h418v-104h-295v-177h249v-104h-249v-204h305v-104h-428zM190 750q-19 0 -33 8.5t-22 22.5t-8 32q0 28 17.5 46t45.5 18t45.5 -18t17.5 -46q0 -27 -18 -45t-45 -18zM416.5 750q-27.5 0 -45.5 18t-18 45q0 28 18 46t45.5 18t45 -18t17.5 -46q0 -27 -17.5 -45 t-45 -18z" />
<glyph unicode="&#xcc;" horiz-adv-x="298" d="M88 0v693h123v-693h-123zM164 729l-178 124l66 81l166 -143z" />
<glyph unicode="&#xcd;" horiz-adv-x="298" d="M88 0v693h123v-693h-123zM135 729l-54 62l166 143l66 -81z" />
<glyph unicode="&#xce;" horiz-adv-x="298" d="M88 0v693h123v-693h-123zM-19 768l103 118h131l103 -118l-53 -34l-113 93h-5l-113 -93z" />
<glyph unicode="&#xcf;" horiz-adv-x="298" d="M88 0v693h123v-693h-123zM36 750q-28 0 -45 18t-17 45q0 28 17 46t45 18t46 -18t18 -46q0 -27 -18 -45t-46 -18zM263 750q-28 0 -46 18t-18 45q0 28 18 46t46 18t45 -18t17 -46q0 -13 -4.5 -25t-12.5 -20t-19.5 -13t-25.5 -5z" />
<glyph unicode="&#xd0;" horiz-adv-x="687" d="M32 330v58l81 4v301h186q161 0 249 -87t88 -256q0 -170 -87 -260t-244 -90h-192v330h-81zM236 100h54q107 0 163.5 62t56.5 188q0 244 -220 244h-54v-202h146v-62h-146v-230z" />
<glyph unicode="&#xd1;" horiz-adv-x="695" d="M88 0v693h126l216 -390l71 -147h5q-2 19 -5 55t-5.5 61.5t-4 59t-1.5 60.5v301h117v-693h-126l-216 390l-71 147h-4q1 -21 5.5 -70.5t7.5 -89t3 -74.5v-303h-118zM427 742q-26 0 -50 10.5t-39 23.5t-32 23.5t-30 10.5q-39 0 -45 -61l-80 7q3 69 35.5 105t85.5 36 q27 0 51 -10.5t38.5 -23.5t31.5 -23.5t31 -10.5q37 0 45 61l80 -6q-4 -69 -36.5 -105.5t-85.5 -36.5z" />
<glyph unicode="&#xd2;" horiz-adv-x="714" d="M357 -13q-137 0 -221 98t-84 265q0 165 84 260.5t221 95.5q138 0 222.5 -95.5t84.5 -260.5q0 -167 -84.5 -265t-222.5 -98zM357 94q54 0 95 31.5t62.5 89.5t21.5 135q0 115 -48.5 182t-130.5 67t-130.5 -67t-48.5 -182q0 -117 48.5 -186.5t130.5 -69.5zM372 729l-178 124 l66 81l166 -143z" />
<glyph unicode="&#xd3;" horiz-adv-x="714" d="M357 -13q-137 0 -221 98t-84 265q0 165 84 260.5t221 95.5q138 0 222.5 -95.5t84.5 -260.5q0 -167 -84.5 -265t-222.5 -98zM357 94q54 0 95 31.5t62.5 89.5t21.5 135q0 115 -48.5 182t-130.5 67t-130.5 -67t-48.5 -182q0 -117 48.5 -186.5t130.5 -69.5zM342 729l-54 62 l167 143l65 -81z" />
<glyph unicode="&#xd4;" horiz-adv-x="714" d="M357 -13q-137 0 -221 98t-84 265q0 165 84 260.5t221 95.5q138 0 222.5 -95.5t84.5 -260.5q0 -167 -84.5 -265t-222.5 -98zM357 94q54 0 95 31.5t62.5 89.5t21.5 135q0 115 -48.5 182t-130.5 67t-130.5 -67t-48.5 -182q0 -117 48.5 -186.5t130.5 -69.5zM189 768l103 118 h131l103 -118l-53 -34l-114 93h-4l-113 -93z" />
<glyph unicode="&#xd5;" horiz-adv-x="714" d="M357 -13q-137 0 -221 98t-84 265q0 165 84 260.5t221 95.5q138 0 222.5 -95.5t84.5 -260.5q0 -167 -84.5 -265t-222.5 -98zM357 94q54 0 95 31.5t62.5 89.5t21.5 135q0 115 -48.5 182t-130.5 67t-130.5 -67t-48.5 -182q0 -117 48.5 -186.5t130.5 -69.5zM435 742 q-27 0 -51 10.5t-38.5 23.5t-31.5 23.5t-31 10.5q-38 0 -45 -61l-80 7q4 69 36.5 105t85.5 36q26 0 50 -10.5t39 -23.5t32 -23.5t30 -10.5q37 0 45 61l80 -6q-3 -69 -35.5 -105.5t-85.5 -36.5z" />
<glyph unicode="&#xd6;" horiz-adv-x="714" d="M357 -13q-137 0 -221 98t-84 265q0 165 84 260.5t221 95.5q138 0 222.5 -95.5t84.5 -260.5q0 -167 -84.5 -265t-222.5 -98zM357 94q54 0 95 31.5t62.5 89.5t21.5 135q0 115 -48.5 182t-130.5 67t-130.5 -67t-48.5 -182q0 -117 48.5 -186.5t130.5 -69.5zM244 750 q-28 0 -45.5 18t-17.5 45q0 28 17.5 46t45.5 18t45.5 -18t17.5 -46q0 -27 -17.5 -45t-45.5 -18zM471 750q-28 0 -46 18t-18 45q0 28 18 46t45.5 18t45 -18t17.5 -46q0 -13 -4.5 -25t-12.5 -20t-20 -13t-25 -5z" />
<glyph unicode="&#xd8;" horiz-adv-x="714" d="M359 -13q-106 0 -180 60l-67 -85l-64 51l74 94q-68 94 -68 243q0 165 84 260.5t221 95.5q109 0 186 -60l68 85l65 -50l-76 -97q64 -94 64 -234q0 -167 -84.5 -265t-222.5 -98zM180 350q0 -79 24 -139l269 342q-46 46 -114 46q-82 0 -130.5 -67t-48.5 -182zM359 94 q82 0 130.5 69.5t48.5 186.5q0 72 -20 127l-267 -339q44 -44 108 -44z" />
<glyph unicode="&#xd9;" horiz-adv-x="694" d="M348 -13q-263 0 -263 317v389h123v-398q0 -73 18 -118.5t48 -64t74 -18.5q144 0 144 201v398h118v-389q0 -317 -262 -317zM363 729l-179 124l66 81l167 -143z" />
<glyph unicode="&#xda;" horiz-adv-x="694" d="M348 -13q-263 0 -263 317v389h123v-398q0 -73 18 -118.5t48 -64t74 -18.5q144 0 144 201v398h118v-389q0 -317 -262 -317zM333 729l-54 62l166 143l66 -81z" />
<glyph unicode="&#xdb;" horiz-adv-x="694" d="M348 -13q-263 0 -263 317v389h123v-398q0 -73 18 -118.5t48 -64t74 -18.5q144 0 144 201v398h118v-389q0 -317 -262 -317zM179 768l103 118h131l103 -118l-53 -34l-113 93h-4l-114 -93z" />
<glyph unicode="&#xdc;" horiz-adv-x="694" d="M348 -13q-263 0 -263 317v389h123v-398q0 -73 18 -118.5t48 -64t74 -18.5q144 0 144 201v398h118v-389q0 -317 -262 -317zM234.5 750q-27.5 0 -45 18t-17.5 45q0 28 17.5 46t45 18t45.5 -18t18 -46q0 -27 -18 -45t-45.5 -18zM461 750q-28 0 -45.5 18t-17.5 45 q0 28 17.5 46t45.5 18t45.5 -18t17.5 -46q0 -13 -5 -25t-13 -20t-19.5 -13t-25.5 -5z" />
<glyph unicode="&#xdd;" horiz-adv-x="531" d="M204 0v258l-208 435h131l75 -177q32 -81 62 -152h4q58 136 64 152l75 177h128l-209 -435v-258h-122zM250 729l-54 62l167 143l65 -81z" />
<glyph unicode="&#xde;" horiz-adv-x="636" d="M88 0v693h123v-110h110q264 0 264 -214q0 -75 -35.5 -126.5t-93.5 -75t-135 -23.5h-110v-144h-123zM211 243h101q152 0 152 126q0 62 -37 88.5t-115 26.5h-101v-241z" />
<glyph unicode="&#xdf;" horiz-adv-x="640" d="M428 -13q-77 0 -155 50l45 84q54 -41 107 -41q34 0 53.5 19t19.5 48q0 24 -14.5 42.5t-36.5 30.5t-47.5 27t-47.5 30t-36.5 41.5t-14.5 59.5q0 30 13 57.5t29 45.5t29 44.5t13 54.5q0 37 -20.5 59.5t-57.5 22.5q-52 0 -80.5 -38.5t-28.5 -110.5v-513h-121v531 q0 104 60 166t170 62q92 0 143.5 -48t51.5 -117q0 -25 -6.5 -47t-16.5 -37.5t-21.5 -31t-21 -28t-16.5 -27.5t-7 -30q0 -20 15 -36t37 -27t47.5 -26.5t47.5 -33t37 -48t15 -69.5q0 -72 -49.5 -119t-134.5 -47z" />
<glyph unicode="&#xe0;" horiz-adv-x="546" d="M204 -13q-69 0 -111.5 42.5t-42.5 110.5q0 83 73 129t233 64q-4 102 -95 102q-60 0 -147 -51l-44 81q108 68 214 68q96 0 145 -57.5t49 -167.5v-308h-101l-8 57h-4q-84 -70 -161 -70zM243 83q30 0 55.5 13.5t57.5 43.5v117q-102 -13 -145.5 -39.5t-43.5 -68.5 q0 -33 20.5 -49.5t55.5 -16.5zM287 607l-180 165l85 80l156 -184z" />
<glyph unicode="&#xe1;" horiz-adv-x="546" d="M204 -13q-69 0 -111.5 42.5t-42.5 110.5q0 83 73 129t233 64q-4 102 -95 102q-60 0 -147 -51l-44 81q108 68 214 68q96 0 145 -57.5t49 -167.5v-308h-101l-8 57h-4q-84 -70 -161 -70zM243 83q30 0 55.5 13.5t57.5 43.5v117q-102 -13 -145.5 -39.5t-43.5 -68.5 q0 -33 20.5 -49.5t55.5 -16.5zM283 607l-60 61l155 184l85 -80z" />
<glyph unicode="&#xe2;" horiz-adv-x="546" d="M204 -13q-69 0 -111.5 42.5t-42.5 110.5q0 83 73 129t233 64q-4 102 -95 102q-60 0 -147 -51l-44 81q108 68 214 68q96 0 145 -57.5t49 -167.5v-308h-101l-8 57h-4q-84 -70 -161 -70zM243 83q30 0 55.5 13.5t57.5 43.5v117q-102 -13 -145.5 -39.5t-43.5 -68.5 q0 -33 20.5 -49.5t55.5 -16.5zM106 643l118 144h123l117 -144l-47 -45l-130 109h-4l-129 -109z" />
<glyph unicode="&#xe3;" horiz-adv-x="546" d="M204 -13q-69 0 -111.5 42.5t-42.5 110.5q0 83 73 129t233 64q-4 102 -95 102q-60 0 -147 -51l-44 81q108 68 214 68q96 0 145 -57.5t49 -167.5v-308h-101l-8 57h-4q-84 -70 -161 -70zM243 83q30 0 55.5 13.5t57.5 43.5v117q-102 -13 -145.5 -39.5t-43.5 -68.5 q0 -33 20.5 -49.5t55.5 -16.5zM358 610q-24 0 -46.5 12t-36.5 26.5t-30.5 27t-30.5 12.5q-37 0 -43 -71l-79 4q3 74 33 113.5t87 39.5q24 0 46.5 -12.5t37 -27t31 -27t30.5 -12.5q36 0 43 71l78 -4q-1 -36 -9 -64t-23 -48t-37 -30t-51 -10z" />
<glyph unicode="&#xe4;" horiz-adv-x="546" d="M204 -13q-69 0 -111.5 42.5t-42.5 110.5q0 83 73 129t233 64q-4 102 -95 102q-60 0 -147 -51l-44 81q108 68 214 68q96 0 145 -57.5t49 -167.5v-308h-101l-8 57h-4q-84 -70 -161 -70zM243 83q30 0 55.5 13.5t57.5 43.5v117q-102 -13 -145.5 -39.5t-43.5 -68.5 q0 -33 20.5 -49.5t55.5 -16.5zM176 613q-28 0 -46.5 18.5t-18.5 46t18.5 46t46.5 18.5t46.5 -18.5t18.5 -46t-18.5 -46t-46.5 -18.5zM394 613q-28 0 -46 18.5t-18 45.5q0 14 4.5 26t13 20.5t20.5 13.5t26 5q19 0 33.5 -8.5t23 -23.5t8.5 -33q0 -27 -18.5 -45.5t-46.5 -18.5z " />
<glyph unicode="&#xe5;" horiz-adv-x="546" d="M204 -13q-69 0 -111.5 42.5t-42.5 110.5q0 83 73 129t233 64q-4 102 -95 102q-60 0 -147 -51l-44 81q108 68 214 68q96 0 145 -57.5t49 -167.5v-308h-101l-8 57h-4q-84 -70 -161 -70zM243 83q30 0 55.5 13.5t57.5 43.5v117q-102 -13 -145.5 -39.5t-43.5 -68.5 q0 -33 20.5 -49.5t55.5 -16.5zM285 593q-59 0 -93.5 30t-34.5 77q0 31 15 55t44 38.5t69 14.5q60 0 94 -30.5t34 -77.5q0 -23 -8.5 -42.5t-24.5 -34t-40.5 -22.5t-54.5 -8zM285 641q23 0 38 16.5t15 42.5t-15 42.5t-38 16.5q-15 0 -27 -7t-19 -21t-7 -31q0 -13 4 -24 t11.5 -18.5t17 -12t20.5 -4.5z" />
<glyph unicode="&#xe6;" horiz-adv-x="832" d="M210 -13q-69 0 -112 42.5t-43 110.5q0 84 72.5 130t230.5 63q-4 102 -93 102q-60 0 -144 -51l-45 81q108 68 205 68q104 0 147 -94q68 94 162 94q97 0 150 -68.5t53 -180.5q0 -36 -5 -57h-318q4 -44 23.5 -76.5t50.5 -49t69 -16.5q54 0 117 40l44 -82q-85 -56 -177 -56 q-108 0 -181 89q-105 -89 -206 -89zM248 83q66 0 127 61q-15 35 -17 88l-2 25q-96 -14 -139 -40t-43 -68q0 -33 20 -49.5t54 -16.5zM470 304h218q0 42 -11 72t-34 46.5t-57 16.5q-45 0 -77 -36t-39 -99z" />
<glyph unicode="&#xe7;" horiz-adv-x="489" d="M194 -247l-11 53q43 3 67.5 9t35 15.5t10.5 25.5q0 19 -18.5 30t-63.5 18l43 85q-96 14 -155 85t-59 186q0 125 76 199t185 74q85 0 153 -58l-59 -80q-44 39 -87 39q-64 0 -103 -48t-39 -126q0 -52 17.5 -91t49 -60.5t71.5 -21.5q53 0 107 44l50 -80q-58 -50 -133 -61 l-25 -56q40 -10 60 -28t20 -49q0 -96 -192 -104z" />
<glyph unicode="&#xe8;" horiz-adv-x="537" d="M300 -13q-111 0 -184 73.5t-73 199.5q0 41 9.5 78.5t26 67.5t39 54t49 40t56.5 24.5t60 8.5q69 0 118 -31.5t73 -86.5t24 -129q0 -38 -5 -59h-331q8 -69 49 -107t105 -38q61 0 121 38l41 -77q-85 -56 -178 -56zM161 310h231q0 24 -4 44t-12.5 36t-21 26.5t-30 16.5 t-38.5 6q-48 0 -82.5 -34.5t-42.5 -94.5zM285 607l-180 165l85 80l156 -184z" />
<glyph unicode="&#xe9;" horiz-adv-x="537" d="M300 -13q-111 0 -184 73.5t-73 199.5q0 41 9.5 78.5t26 67.5t39 54t49 40t56.5 24.5t60 8.5q69 0 118 -31.5t73 -86.5t24 -129q0 -38 -5 -59h-331q8 -69 49 -107t105 -38q61 0 121 38l41 -77q-85 -56 -178 -56zM161 310h231q0 24 -4 44t-12.5 36t-21 26.5t-30 16.5 t-38.5 6q-48 0 -82.5 -34.5t-42.5 -94.5zM281 607l-61 61l156 184l85 -80z" />
<glyph unicode="&#xea;" horiz-adv-x="537" d="M300 -13q-111 0 -184 73.5t-73 199.5q0 41 9.5 78.5t26 67.5t39 54t49 40t56.5 24.5t60 8.5q69 0 118 -31.5t73 -86.5t24 -129q0 -38 -5 -59h-331q8 -69 49 -107t105 -38q61 0 121 38l41 -77q-85 -56 -178 -56zM161 310h231q0 24 -4 44t-12.5 36t-21 26.5t-30 16.5 t-38.5 6q-48 0 -82.5 -34.5t-42.5 -94.5zM104 643l118 144h122l118 -144l-48 -45l-129 109h-4l-129 -109z" />
<glyph unicode="&#xeb;" horiz-adv-x="537" d="M300 -13q-111 0 -184 73.5t-73 199.5q0 41 9.5 78.5t26 67.5t39 54t49 40t56.5 24.5t60 8.5q69 0 118 -31.5t73 -86.5t24 -129q0 -38 -5 -59h-331q8 -69 49 -107t105 -38q61 0 121 38l41 -77q-85 -56 -178 -56zM161 310h231q0 24 -4 44t-12.5 36t-21 26.5t-30 16.5 t-38.5 6q-48 0 -82.5 -34.5t-42.5 -94.5zM174 613q-28 0 -46.5 18.5t-18.5 46t18.5 46t46.5 18.5t46 -18.5t18 -46t-18 -46t-46 -18.5zM392 613q-28 0 -46 18.5t-18 46t18 46t46 18.5q18 0 33 -8.5t23.5 -23.5t8.5 -33q0 -27 -18.5 -45.5t-46.5 -18.5z" />
<glyph unicode="&#xec;" horiz-adv-x="277" d="M77 0v520h122v-520h-122zM141 607l-180 165l85 80l155 -184z" />
<glyph unicode="&#xed;" horiz-adv-x="277" d="M77 0v520h122v-520h-122zM137 607l-61 61l156 184l85 -80z" />
<glyph unicode="&#xee;" horiz-adv-x="277" d="M77 0v520h122v-520h-122zM-40 643l117 144h123l118 -144l-48 -45l-129 109h-4l-130 -109z" />
<glyph unicode="&#xef;" horiz-adv-x="277" d="M77 0v520h122v-520h-122zM30 613q-28 0 -46.5 18.5t-18.5 46t18.5 46t46.5 18.5q18 0 33 -8.5t23 -23.5t8 -33q0 -27 -18 -45.5t-46 -18.5zM248 613q-28 0 -46.5 18.5t-18.5 46t18.5 46t46.5 18.5q18 0 33 -8.5t23.5 -23.5t8.5 -33q0 -27 -18.5 -45.5t-46.5 -18.5z" />
<glyph unicode="&#xf0;" horiz-adv-x="585" d="M287 -13q-98 0 -167 69.5t-69 181.5q0 72 30 127.5t78.5 84t107.5 28.5q81 0 127 -57q-27 98 -101 172l-151 -77l-33 56l129 66q-40 30 -107 66l55 75q87 -46 146 -93l151 77l33 -57l-131 -67q143 -145 143 -361q0 -130 -65.5 -210.5t-175.5 -80.5zM290 87 q39 0 66.5 21.5t41.5 63t14 99.5q0 19 -2 53q-49 62 -121 62q-58 0 -92 -39.5t-34 -108.5q0 -68 37 -109.5t90 -41.5z" />
<glyph unicode="&#xf1;" horiz-adv-x="593" d="M77 0v520h101l9 -70h4q84 83 170 83q161 0 161 -207v-326h-122v311q0 43 -9 68.5t-26.5 37t-46.5 11.5q-32 0 -57.5 -15t-61.5 -49v-364h-122zM391 610q-24 0 -46.5 12t-36.5 26.5t-31 27t-30 12.5q-37 0 -43 -71l-79 4q3 74 33 113.5t87 39.5q24 0 46.5 -12.5t37 -27 t31 -27t30.5 -12.5q36 0 42 71l79 -4q-3 -73 -33 -112.5t-87 -39.5z" />
<glyph unicode="&#xf2;" horiz-adv-x="581" d="M290 -13q-102 0 -174.5 74t-72.5 199t72.5 199t174.5 74q103 0 175.5 -74t72.5 -199t-72.5 -199t-175.5 -74zM290.5 87q56.5 0 89.5 47t33 126q0 52 -14.5 91t-42.5 61t-66 22q-56 0 -88.5 -47.5t-32.5 -126.5t32.5 -126t89 -47zM293 607l-181 165l85 80l156 -184z" />
<glyph unicode="&#xf3;" horiz-adv-x="581" d="M290 -13q-102 0 -174.5 74t-72.5 199t72.5 199t174.5 74q103 0 175.5 -74t72.5 -199t-72.5 -199t-175.5 -74zM290.5 87q56.5 0 89.5 47t33 126q0 52 -14.5 91t-42.5 61t-66 22q-56 0 -88.5 -47.5t-32.5 -126.5t32.5 -126t89 -47zM288 607l-60 61l156 184l85 -80z" />
<glyph unicode="&#xf4;" horiz-adv-x="581" d="M290 -13q-102 0 -174.5 74t-72.5 199t72.5 199t174.5 74q103 0 175.5 -74t72.5 -199t-72.5 -199t-175.5 -74zM290.5 87q56.5 0 89.5 47t33 126q0 52 -14.5 91t-42.5 61t-66 22q-56 0 -88.5 -47.5t-32.5 -126.5t32.5 -126t89 -47zM111 643l118 144h123l118 -144l-48 -45 l-129 109h-5l-129 -109z" />
<glyph unicode="&#xf5;" horiz-adv-x="581" d="M290 -13q-102 0 -174.5 74t-72.5 199t72.5 199t174.5 74q103 0 175.5 -74t72.5 -199t-72.5 -199t-175.5 -74zM290.5 87q56.5 0 89.5 47t33 126q0 52 -14.5 91t-42.5 61t-66 22q-56 0 -88.5 -47.5t-32.5 -126.5t32.5 -126t89 -47zM364 610q-24 0 -47 12t-37 26.5t-30.5 27 t-30.5 12.5q-36 0 -43 -71l-78 4q2 74 32 113.5t87 39.5q24 0 47 -12.5t37 -27t31 -27t31 -12.5q35 0 42 71l78 -4q-2 -73 -32 -112.5t-87 -39.5z" />
<glyph unicode="&#xf6;" horiz-adv-x="581" d="M290 -13q-102 0 -174.5 74t-72.5 199t72.5 199t174.5 74q103 0 175.5 -74t72.5 -199t-72.5 -199t-175.5 -74zM290.5 87q56.5 0 89.5 47t33 126q0 52 -14.5 91t-42.5 61t-66 22q-56 0 -88.5 -47.5t-32.5 -126.5t32.5 -126t89 -47zM181 613q-27 0 -45.5 18.5t-18.5 46 t18.5 46t45.5 18.5q29 0 47 -18.5t18 -46t-18 -46t-47 -18.5zM400 613q-29 0 -47 18.5t-18 46t18 46t47 18.5q18 0 33 -8.5t23 -23.5t8 -33q0 -27 -18.5 -45.5t-45.5 -18.5z" />
<glyph unicode="&#xf7;" d="M36 305v89h472v-89h-472zM271 89q-15 0 -28 5t-22.5 14.5t-15.5 22.5t-6 28q0 12 3.5 22.5t10.5 19t15.5 14.5t19.5 9.5t23 3.5q32 0 52 -19.5t20 -49.5q0 -31 -20 -50.5t-52 -19.5zM271 471q-8 0 -16 1.5t-15.5 5t-13.5 8t-11 10.5t-8.5 13t-5.5 15t-2 17q0 30 21 49.5 t51 19.5q32 0 52 -19.5t20 -49.5q0 -31 -20 -50.5t-52 -19.5z" />
<glyph unicode="&#xf8;" horiz-adv-x="581" d="M290 -13q-81 0 -144 47l-48 -59l-49 38l53 64q-59 74 -59 183q0 125 72.5 199t174.5 74q82 0 145 -46l49 60l49 -38l-53 -66q58 -74 58 -183q0 -125 -72.5 -199t-175.5 -74zM162 266q0 -55 15 -96l193 237q-32 31 -80 31q-57 0 -92.5 -48t-35.5 -124zM290 83q58 0 94 47 t36 123q0 57 -15 98l-194 -237q32 -31 79 -31z" />
<glyph unicode="&#xf9;" horiz-adv-x="589" d="M232 -13q-160 0 -160 207v326h122v-310q0 -64 19 -91t62 -27q33 0 59 16.5t56 55.5v356h122v-520h-100l-9 76h-3q-75 -89 -168 -89zM298 607l-180 165l84 80l156 -184z" />
<glyph unicode="&#xfa;" horiz-adv-x="589" d="M232 -13q-160 0 -160 207v326h122v-310q0 -64 19 -91t62 -27q33 0 59 16.5t56 55.5v356h122v-520h-100l-9 76h-3q-75 -89 -168 -89zM294 607l-61 61l156 184l85 -80z" />
<glyph unicode="&#xfb;" horiz-adv-x="589" d="M232 -13q-160 0 -160 207v326h122v-310q0 -64 19 -91t62 -27q33 0 59 16.5t56 55.5v356h122v-520h-100l-9 76h-3q-75 -89 -168 -89zM117 643l117 144h123l118 -144l-48 -45l-129 109h-4l-130 -109z" />
<glyph unicode="&#xfc;" horiz-adv-x="589" d="M232 -13q-160 0 -160 207v326h122v-310q0 -64 19 -91t62 -27q33 0 59 16.5t56 55.5v356h122v-520h-100l-9 76h-3q-75 -89 -168 -89zM187 613q-28 0 -46.5 18.5t-18.5 45.5q0 18 8.5 33t23 23.5t33.5 8.5q28 0 46 -18.5t18 -46t-18 -46t-46 -18.5zM405 613 q-28 0 -46.5 18.5t-18.5 45.5q0 14 5 26t13.5 20.5t20.5 13.5t26 5q18 0 33 -8.5t23.5 -23.5t8.5 -33q0 -27 -18.5 -45.5t-46.5 -18.5z" />
<glyph unicode="&#xfd;" horiz-adv-x="524" d="M112 -214q-36 0 -67 10l22 96q22 -8 37 -8q75 0 104 90l9 32l-204 514h124l90 -255q7 -22 22 -71.5t23 -74.5h5q29 111 39 146l78 255h118l-189 -543q-17 -47 -35.5 -80t-43 -59.5t-57.5 -39t-75 -12.5zM268 607l-60 61l156 184l84 -80z" />
<glyph unicode="&#xfe;" horiz-adv-x="597" d="M77 -206v954h122v-193l-2 -81q73 59 144 59q100 0 155.5 -71.5t55.5 -193.5q0 -128 -65.5 -204.5t-156.5 -76.5q-68 0 -133 53l2 -82v-164h-122zM304 88q54 0 88 47t34 132q0 165 -112 165q-55 0 -115 -58v-243q52 -43 105 -43z" />
<glyph unicode="&#xff;" horiz-adv-x="524" d="M112 -214q-36 0 -67 10l22 96q22 -8 37 -8q75 0 104 90l9 32l-204 514h124l90 -255q7 -22 22 -71.5t23 -74.5h5q29 111 39 146l78 255h118l-189 -543q-17 -47 -35.5 -80t-43 -59.5t-57.5 -39t-75 -12.5zM161 613q-18 0 -33 8.5t-23.5 23.5t-8.5 32q0 28 18.5 46.5 t46.5 18.5t46.5 -18.5t18.5 -46t-18.5 -46t-46.5 -18.5zM379 613q-28 0 -46 18.5t-18 45.5q0 14 4.5 26t13 20.5t20.5 13.5t26 5q28 0 46.5 -18.5t18.5 -46t-18.5 -46t-46.5 -18.5z" />
<glyph unicode="&#x100;" horiz-adv-x="591" d="M230 369l-24 -85h177l-25 85q-16 52 -62 229h-4q-36 -142 -62 -229zM-2 0l226 693h144l226 -693h-130l-54 188h-233l-54 -188h-125zM142 772v80h303v-80h-303z" />
<glyph unicode="&#x101;" horiz-adv-x="546" d="M204 -13q-69 0 -111.5 42.5t-42.5 110.5q0 83 73 129t233 64q-4 102 -95 102q-60 0 -147 -51l-44 81q108 68 214 68q96 0 145 -57.5t49 -167.5v-308h-101l-8 57h-4q-84 -70 -161 -70zM243 83q30 0 55.5 13.5t57.5 43.5v117q-102 -13 -145.5 -39.5t-43.5 -68.5 q0 -33 20.5 -49.5t55.5 -16.5zM137 632v80h297v-80h-297z" />
<glyph unicode="&#x102;" horiz-adv-x="591" d="M230 369l-24 -85h177l-25 85q-16 52 -62 229h-4q-36 -142 -62 -229zM-2 0l226 693h144l226 -693h-130l-54 188h-233l-54 -188h-125zM294 743q-50 0 -86 18t-55 49t-24 74l70 12q5 -24 16.5 -41.5t31.5 -28t47 -10.5q39 0 63 21.5t31 58.5l70 -12q-7 -66 -48.5 -103.5 t-115.5 -37.5z" />
<glyph unicode="&#x103;" horiz-adv-x="546" d="M204 -13q-69 0 -111.5 42.5t-42.5 110.5q0 83 73 129t233 64q-4 102 -95 102q-60 0 -147 -51l-44 81q108 68 214 68q96 0 145 -57.5t49 -167.5v-308h-101l-8 57h-4q-84 -70 -161 -70zM243 83q30 0 55.5 13.5t57.5 43.5v117q-102 -13 -145.5 -39.5t-43.5 -68.5 q0 -33 20.5 -49.5t55.5 -16.5zM285 605q-42 0 -75 13.5t-53.5 36.5t-31.5 52t-13 63l72 11q7 -41 32 -69t69 -28q23 0 41 8t30 22t19.5 31t10.5 36l72 -11q-4 -72 -47 -118.5t-126 -46.5z" />
<glyph unicode="&#x104;" horiz-adv-x="591" d="M524 -231q-48 0 -80 25.5t-32 70.5q0 42 25.5 78.5t57.5 56.5h-31l-54 188h-233l-54 -188h-125l226 693h144l226 -693q-26 -6 -47 -23t-32 -38.5t-11 -42.5t13 -32.5t32 -11.5q24 0 42 14l30 -63q-18 -15 -45.5 -24.5t-51.5 -9.5zM230 369l-24 -85h177l-25 85 q-16 52 -62 229h-4q-36 -142 -62 -229z" />
<glyph unicode="&#x105;" horiz-adv-x="546" d="M405 -220q-46 0 -75.5 24t-29.5 69q0 40 24 74t55 54l-10 56h-4q-84 -70 -161 -70q-69 0 -111.5 42.5t-42.5 110.5q0 83 73 129t233 64q-4 102 -95 102q-60 0 -147 -51l-44 81q108 68 214 68q96 0 145 -57.5t49 -167.5v-308q-45 -15 -68.5 -43t-23.5 -58 q0 -21 13.5 -32.5t32.5 -11.5q22 0 41 14l27 -58q-9 -7 -21 -13t-24.5 -10t-25.5 -6t-24 -2zM243 83q30 0 55.5 13.5t57.5 43.5v117q-102 -13 -145.5 -39.5t-43.5 -68.5q0 -33 20.5 -49.5t55.5 -16.5z" />
<glyph unicode="&#x106;" horiz-adv-x="610" d="M365 -13q-136 0 -224.5 95t-88.5 262q0 84 25 152.5t68 114t100.5 70.5t123.5 25q61 0 112.5 -24.5t87.5 -63.5l-65 -80q-61 61 -132 61q-86 0 -140 -68t-54 -183q0 -59 13.5 -106.5t38 -80t60 -50t79.5 -17.5q83 0 148 71l66 -77q-87 -101 -218 -101zM342 729l-54 62 l167 143l65 -81z" />
<glyph unicode="&#x107;" horiz-adv-x="489" d="M295 -13q-72 0 -128.5 31.5t-90 94t-33.5 147.5q0 125 76 199t185 74q85 0 153 -58l-59 -80q-44 39 -87 39q-64 0 -103 -48t-39 -126q0 -52 17.5 -91t49 -60.5t71.5 -21.5q53 0 107 44l50 -80q-73 -64 -169 -64zM300 607l-60 61l155 184l85 -80z" />
<glyph unicode="&#x108;" horiz-adv-x="610" d="M365 -13q-136 0 -224.5 95t-88.5 262q0 84 25 152.5t68 114t100.5 70.5t123.5 25q61 0 112.5 -24.5t87.5 -63.5l-65 -80q-61 61 -132 61q-86 0 -140 -68t-54 -183q0 -59 13.5 -106.5t38 -80t60 -50t79.5 -17.5q83 0 148 71l66 -77q-87 -101 -218 -101zM189 768l103 118 h131l103 -118l-53 -34l-114 93h-4l-113 -93z" />
<glyph unicode="&#x109;" horiz-adv-x="489" d="M295 -13q-72 0 -128.5 31.5t-90 94t-33.5 147.5q0 125 76 199t185 74q85 0 153 -58l-59 -80q-44 39 -87 39q-64 0 -103 -48t-39 -126q0 -52 17.5 -91t49 -60.5t71.5 -21.5q53 0 107 44l50 -80q-73 -64 -169 -64zM123 643l118 144h123l117 -144l-47 -45l-130 109h-4 l-129 -109z" />
<glyph unicode="&#x10a;" horiz-adv-x="610" d="M365 -13q-136 0 -224.5 95t-88.5 262q0 84 25 152.5t68 114t100.5 70.5t123.5 25q61 0 112.5 -24.5t87.5 -63.5l-65 -80q-61 61 -132 61q-86 0 -140 -68t-54 -183q0 -59 13.5 -106.5t38 -80t60 -50t79.5 -17.5q83 0 148 71l66 -77q-87 -101 -218 -101zM357 749 q-16 0 -30 5.5t-24 14.5t-15.5 22t-5.5 28q0 31 21.5 50t53.5 19q22 0 39 -8.5t26.5 -24.5t9.5 -36q0 -30 -21 -50t-54 -20z" />
<glyph unicode="&#x10b;" horiz-adv-x="489" d="M295 -13q-72 0 -128.5 31.5t-90 94t-33.5 147.5q0 125 76 199t185 74q85 0 153 -58l-59 -80q-44 39 -87 39q-64 0 -103 -48t-39 -126q0 -52 17.5 -91t49 -60.5t71.5 -21.5q53 0 107 44l50 -80q-73 -64 -169 -64zM302 612q-32 0 -52 19.5t-20 50.5q0 30 20 49t52 19 t52 -19t20 -49q0 -31 -20 -50.5t-52 -19.5z" />
<glyph unicode="&#x10c;" horiz-adv-x="610" d="M365 -13q-136 0 -224.5 95t-88.5 262q0 84 25 152.5t68 114t100.5 70.5t123.5 25q61 0 112.5 -24.5t87.5 -63.5l-65 -80q-61 61 -132 61q-86 0 -140 -68t-54 -183q0 -59 13.5 -106.5t38 -80t60 -50t79.5 -17.5q83 0 148 71l66 -77q-87 -101 -218 -101zM292 746l-103 119 l53 34l113 -93h4l114 93l53 -34l-103 -119h-131z" />
<glyph unicode="&#x10d;" horiz-adv-x="489" d="M295 -13q-72 0 -128.5 31.5t-90 94t-33.5 147.5q0 125 76 199t185 74q85 0 153 -58l-59 -80q-44 39 -87 39q-64 0 -103 -48t-39 -126q0 -52 17.5 -91t49 -60.5t71.5 -21.5q53 0 107 44l50 -80q-73 -64 -169 -64zM241 611l-118 143l48 44l129 -108h4l130 108l47 -44 l-117 -143h-123z" />
<glyph unicode="&#x10e;" horiz-adv-x="662" d="M88 0v693h185q162 0 250 -87t88 -256q0 -170 -87.5 -260t-243.5 -90h-192zM211 100h54q107 0 163 62t56 188q0 244 -219 244h-54v-494zM266 746l-103 119l53 34l114 -93h4l113 93l53 -34l-102 -119h-132z" />
<glyph unicode="&#x10f;" horiz-adv-x="629" d="M260 -13q-65 0 -113.5 32t-74.5 94t-26 147q0 122 65.5 197.5t154.5 75.5q42 0 72.5 -14t64.5 -43l-4 84v188h121v-748h-100l-9 56h-4q-69 -69 -147 -69zM289 88q59 0 110 58v243q-50 43 -106 43q-52 0 -86.5 -46t-34.5 -125q0 -84 30.5 -128.5t86.5 -44.5zM573 581 l-5 230h82l-1 -67l-20 -163h-56z" />
<glyph unicode="&#x110;" horiz-adv-x="687" d="M32 330v58l81 4v301h186q161 0 249 -87t88 -256q0 -170 -87 -260t-244 -90h-192v330h-81zM236 100h54q107 0 163.5 62t56.5 188q0 244 -220 244h-54v-202h146v-62h-146v-230z" />
<glyph unicode="&#x111;" horiz-adv-x="597" d="M260 -13q-65 0 -113.5 30t-74.5 87t-26 133q0 110 65.5 180t154.5 70q42 0 72.5 -14.5t64.5 -43.5l-4 84v85h-166v62h166v88h121v-88h75v-57l-75 -5v-598h-102l-9 53h-3q-66 -66 -146 -66zM289 88q59 0 110 58v196q-50 44 -106 44q-52 0 -86.5 -40.5t-34.5 -105.5 q0 -72 30.5 -112t86.5 -40z" />
<glyph unicode="&#x112;" horiz-adv-x="570" d="M88 0v693h418v-104h-295v-177h249v-104h-249v-204h305v-104h-428zM152 772v80h303v-80h-303z" />
<glyph unicode="&#x113;" horiz-adv-x="537" d="M300 -13q-111 0 -184 73.5t-73 199.5q0 41 9.5 78.5t26 67.5t39 54t49 40t56.5 24.5t60 8.5q69 0 118 -31.5t73 -86.5t24 -129q0 -38 -5 -59h-331q8 -69 49 -107t105 -38q61 0 121 38l41 -77q-85 -56 -178 -56zM161 310h231q0 24 -4 44t-12.5 36t-21 26.5t-30 16.5 t-38.5 6q-48 0 -82.5 -34.5t-42.5 -94.5zM135 632v80h296v-80h-296z" />
<glyph unicode="&#x116;" horiz-adv-x="570" d="M88 0v693h418v-104h-295v-177h249v-104h-249v-204h305v-104h-428zM303 749q-21 0 -38.5 9t-27 25t-9.5 36q0 31 21 50t54 19q16 0 30 -5t24 -14t15.5 -22t5.5 -28q0 -30 -21 -50t-54 -20z" />
<glyph unicode="&#x117;" horiz-adv-x="537" d="M300 -13q-111 0 -184 73.5t-73 199.5q0 41 9.5 78.5t26 67.5t39 54t49 40t56.5 24.5t60 8.5q69 0 118 -31.5t73 -86.5t24 -129q0 -38 -5 -59h-331q8 -69 49 -107t105 -38q61 0 121 38l41 -77q-85 -56 -178 -56zM161 310h231q0 24 -4 44t-12.5 36t-21 26.5t-30 16.5 t-38.5 6q-48 0 -82.5 -34.5t-42.5 -94.5zM283 612q-32 0 -52 19.5t-20 50.5q0 19 9 35t25.5 24.5t37.5 8.5q32 0 52 -19t20 -49q0 -31 -20 -50.5t-52 -19.5z" />
<glyph unicode="&#x118;" horiz-adv-x="570" d="M437 -231q-48 0 -80 25.5t-32 70.5q0 43 24.5 79t57.5 56h-319v693h418v-104h-295v-177h249v-104h-249v-204h305v-104h-5q-24 -2 -45.5 -17t-34.5 -38.5t-13 -48.5q0 -22 13.5 -33t32.5 -11q20 0 41 14l30 -63q-18 -15 -46 -24.5t-52 -9.5z" />
<glyph unicode="&#x119;" horiz-adv-x="537" d="M382 -220q-46 0 -74.5 24t-28.5 69q0 65 61 120q-20 -6 -40 -6q-111 0 -184 73.5t-73 199.5q0 41 9.5 78.5t26 67.5t39 54t49 40t56.5 24.5t60 8.5q69 0 118 -31.5t73 -86.5t24 -129q0 -38 -5 -59h-331q8 -69 49 -107t105 -38q61 0 121 38l41 -77q-67 -46 -91 -78 t-24 -66q0 -21 13 -32.5t34 -11.5q20 0 39 14l28 -58q-17 -14 -44.5 -22.5t-50.5 -8.5zM161 310h231q0 24 -4 44t-12.5 36t-21 26.5t-30 16.5t-38.5 6q-48 0 -82.5 -34.5t-42.5 -94.5z" />
<glyph unicode="&#x11a;" horiz-adv-x="570" d="M88 0v693h418v-104h-295v-177h249v-104h-249v-204h305v-104h-428zM237 746l-102 119l53 34l113 -93h4l114 93l53 -34l-103 -119h-132z" />
<glyph unicode="&#x11b;" horiz-adv-x="537" d="M300 -13q-111 0 -184 73.5t-73 199.5q0 41 9.5 78.5t26 67.5t39 54t49 40t56.5 24.5t60 8.5q69 0 118 -31.5t73 -86.5t24 -129q0 -38 -5 -59h-331q8 -69 49 -107t105 -38q61 0 121 38l41 -77q-85 -56 -178 -56zM161 310h231q0 24 -4 44t-12.5 36t-21 26.5t-30 16.5 t-38.5 6q-48 0 -82.5 -34.5t-42.5 -94.5zM222 611l-118 143l48 44l129 -108h4l129 108l48 -44l-118 -143h-122z" />
<glyph unicode="&#x11c;" horiz-adv-x="665" d="M378 -13q-144 0 -235 94.5t-91 262.5q0 84 25 152.5t69.5 114t104 70.5t128.5 25q124 0 210 -88l-65 -80q-63 61 -140 61q-93 0 -149.5 -67.5t-56.5 -183.5q0 -120 54.5 -187t157.5 -67q66 0 100 31v150h-132v100h242v-305q-37 -37 -95.5 -60t-126.5 -23zM213 768 l103 118h131l103 -118l-53 -34l-113 93h-5l-113 -93z" />
<glyph unicode="&#x11d;" horiz-adv-x="551" d="M259 -230q-97 0 -157 35t-60 101q0 65 75 111v4q-47 30 -47 87q0 28 16.5 53.5t40.5 43.5v4q-29 22 -48.5 58t-19.5 80q0 86 60 136t146 50q40 0 76 -13h187v-90h-96q30 -35 30 -88q0 -83 -55.5 -130t-141.5 -47q-37 0 -71 14q-25 -22 -25 -50q0 -47 84 -47h93 q95 0 142.5 -31t47.5 -98q0 -78 -76.5 -130.5t-200.5 -52.5zM265 242q15 0 28.5 4.5t24.5 13t19.5 21t13 29.5t4.5 37q0 47 -25.5 74.5t-64.5 27.5q-40 0 -65.5 -27.5t-25.5 -74.5q0 -49 26 -77t65 -28zM278 -151q61 0 101 25t40 59q0 29 -23 40.5t-70 11.5h-71q-42 0 -71 8 q-40 -31 -40 -69q0 -18 9.5 -31.5t26.5 -23t42 -15t56 -5.5zM111 643l118 144h123l118 -144l-48 -45l-129 109h-5l-129 -109z" />
<glyph unicode="&#x11e;" horiz-adv-x="665" d="M378 -13q-144 0 -235 94.5t-91 262.5q0 84 25 152.5t69.5 114t104 70.5t128.5 25q124 0 210 -88l-65 -80q-63 61 -140 61q-93 0 -149.5 -67.5t-56.5 -183.5q0 -120 54.5 -187t157.5 -67q66 0 100 31v150h-132v100h242v-305q-37 -37 -95.5 -60t-126.5 -23zM382 743 q-50 0 -86 18t-55 49t-24 74l70 12q7 -37 31 -58.5t64 -21.5q26 0 46 10.5t32 28t16 41.5l70 -12q-8 -66 -49 -103.5t-115 -37.5z" />
<glyph unicode="&#x11f;" horiz-adv-x="551" d="M259 -230q-97 0 -157 35t-60 101q0 65 75 111v4q-47 30 -47 87q0 28 16.5 53.5t40.5 43.5v4q-29 22 -48.5 58t-19.5 80q0 86 60 136t146 50q40 0 76 -13h187v-90h-96q30 -35 30 -88q0 -83 -55.5 -130t-141.5 -47q-37 0 -71 14q-25 -22 -25 -50q0 -47 84 -47h93 q95 0 142.5 -31t47.5 -98q0 -78 -76.5 -130.5t-200.5 -52.5zM265 242q15 0 28.5 4.5t24.5 13t19.5 21t13 29.5t4.5 37q0 47 -25.5 74.5t-64.5 27.5q-40 0 -65.5 -27.5t-25.5 -74.5q0 -49 26 -77t65 -28zM278 -151q61 0 101 25t40 59q0 29 -23 40.5t-70 11.5h-71q-42 0 -71 8 q-40 -31 -40 -69q0 -18 9.5 -31.5t26.5 -23t42 -15t56 -5.5zM290 605q-21 0 -40.5 3.5t-35 10t-29 15.5t-23.5 20.5t-18 24.5t-13.5 28t-8.5 30.5t-4 32.5l72 11q6 -41 31.5 -69t69 -28t69 28t31.5 69l72 -11q-4 -72 -47 -118.5t-126 -46.5z" />
<glyph unicode="&#x120;" horiz-adv-x="665" d="M378 -13q-144 0 -235 94.5t-91 262.5q0 84 25 152.5t69.5 114t104 70.5t128.5 25q124 0 210 -88l-65 -80q-63 61 -140 61q-93 0 -149.5 -67.5t-56.5 -183.5q0 -120 54.5 -187t157.5 -67q66 0 100 31v150h-132v100h242v-305q-37 -37 -95.5 -60t-126.5 -23zM382 749 q-17 0 -30.5 5.5t-23.5 14.5t-16 22t-6 28q0 31 21.5 50t54.5 19q21 0 38 -8.5t27 -24.5t10 -36q0 -30 -21.5 -50t-53.5 -20z" />
<glyph unicode="&#x121;" horiz-adv-x="551" d="M259 -230q-97 0 -157 35t-60 101q0 65 75 111v4q-47 30 -47 87q0 28 16.5 53.5t40.5 43.5v4q-29 22 -48.5 58t-19.5 80q0 86 60 136t146 50q40 0 76 -13h187v-90h-96q30 -35 30 -88q0 -83 -55.5 -130t-141.5 -47q-37 0 -71 14q-25 -22 -25 -50q0 -47 84 -47h93 q95 0 142.5 -31t47.5 -98q0 -78 -76.5 -130.5t-200.5 -52.5zM265 242q15 0 28.5 4.5t24.5 13t19.5 21t13 29.5t4.5 37q0 47 -25.5 74.5t-64.5 27.5q-40 0 -65.5 -27.5t-25.5 -74.5q0 -49 26 -77t65 -28zM278 -151q61 0 101 25t40 59q0 29 -23 40.5t-70 11.5h-71q-42 0 -71 8 q-40 -31 -40 -69q0 -18 9.5 -31.5t26.5 -23t42 -15t56 -5.5zM290 612q-31 0 -51.5 19.5t-20.5 50.5q0 30 20.5 49t52 19t52 -19t20.5 -49q0 -21 -9.5 -37t-26 -24.5t-37.5 -8.5z" />
<glyph unicode="&#x122;" horiz-adv-x="665" d="M378 -13q-144 0 -235 94.5t-91 262.5q0 84 25 152.5t69.5 114t104 70.5t128.5 25q124 0 210 -88l-65 -80q-63 61 -140 61q-93 0 -149.5 -67.5t-56.5 -183.5q0 -120 54.5 -187t157.5 -67q66 0 100 31v150h-132v100h242v-305q-37 -37 -95.5 -60t-126.5 -23zM278 -247 l-11 53q43 3 67.5 8.5t34.5 14.5t10 23q0 35 -72 41l26 49q75 -7 106 -27t31 -58q0 -96 -192 -104z" />
<glyph unicode="&#x123;" horiz-adv-x="551" d="M259 -230q-97 0 -157 35t-60 101q0 65 75 111v4q-47 30 -47 87q0 28 16.5 53.5t40.5 43.5v4q-29 22 -48.5 58t-19.5 80q0 86 60 136t146 50q40 0 76 -13h187v-90h-96q30 -35 30 -88q0 -83 -55.5 -130t-141.5 -47q-37 0 -71 14q-25 -22 -25 -50q0 -47 84 -47h93 q95 0 142.5 -31t47.5 -98q0 -78 -76.5 -130.5t-200.5 -52.5zM265 242q15 0 28.5 4.5t24.5 13t19.5 21t13 29.5t4.5 37q0 47 -25.5 74.5t-64.5 27.5q-40 0 -65.5 -27.5t-25.5 -74.5q0 -49 26 -77t65 -28zM278 -151q61 0 101 25t40 59q0 29 -23 40.5t-70 11.5h-71q-42 0 -71 8 q-40 -31 -40 -69q0 -18 9.5 -31.5t26.5 -23t42 -15t56 -5.5zM335 606q-76 7 -106.5 27t-30.5 58q0 96 192 104l11 -53q-43 -3 -67.5 -8.5t-35 -14.5t-10.5 -24q0 -34 72 -40z" />
<glyph unicode="&#x124;" horiz-adv-x="702" d="M88 0v693h123v-279h281v279h123v-693h-123v307h-281v-307h-123zM182 768l103 118h132l102 -118l-53 -34l-113 93h-4l-114 -93z" />
<glyph unicode="&#x125;" horiz-adv-x="591" d="M77 0v748h122v-193l-4 -100q83 78 166 78q161 0 161 -207v-326h-122v311q0 43 -9 68.5t-26.5 37t-46.5 11.5q-32 0 -57.5 -15t-61.5 -49v-364h-122zM-31 816l103 118h132l102 -118l-53 -35l-113 93h-4l-114 -93z" />
<glyph unicode="&#x126;" horiz-adv-x="742" d="M30 518v58l79 5v112h123v-112h281v112h123v-112h75v-63h-75v-518h-123v307h-281v-307h-123v518h-79zM232 414h281v104h-281v-104z" />
<glyph unicode="&#x127;" horiz-adv-x="591" d="M77 0v598h-75v57l75 5v88h122v-88h187v-62h-187v-89l-4 -101q83 79 166 79q161 0 161 -207v-280h-122v264q0 64 -19.5 91t-62.5 27q-32 0 -57.5 -15t-61.5 -50v-317h-122z" />
<glyph unicode="&#x12a;" horiz-adv-x="298" d="M88 0v693h123v-693h-123zM-2 772v80h303v-80h-303z" />
<glyph unicode="&#x12b;" horiz-adv-x="277" d="M77 0v520h122v-520h-122zM-10 632v80h297v-80h-297z" />
<glyph unicode="&#x12e;" horiz-adv-x="298" d="M157 -231q-48 0 -79.5 25.5t-31.5 70.5q0 73 74 135h-32v693h123v-693q-74 -43 -74 -104q0 -21 14 -32.5t32 -11.5q23 0 42 14l29 -63q-17 -15 -45 -24.5t-52 -9.5z" />
<glyph unicode="&#x12f;" horiz-adv-x="277" d="M146 -220q-29 0 -52.5 10t-37.5 31.5t-14 51.5q0 64 68 127h-33v520h122v-520q-35 -18 -53.5 -45t-18.5 -56q0 -21 14 -32.5t34 -11.5q18 0 39 14l28 -58q-17 -14 -45 -22.5t-51 -8.5zM138 612q-21 0 -38.5 8.5t-27 24.5t-9.5 36q0 30 21.5 49.5t53.5 19.5 q33 0 54.5 -19.5t21.5 -49.5q0 -31 -21.5 -50t-54.5 -19z" />
<glyph unicode="&#x130;" horiz-adv-x="298" d="M88 0v693h123v-693h-123zM149 749q-21 0 -38 9t-27 25t-10 36q0 31 21.5 50t54 19t54 -19t21.5 -50q0 -30 -21.5 -50t-54.5 -20z" />
<glyph unicode="&#x131;" horiz-adv-x="277" d="M77 0v520h122v-520h-122z" />
<glyph unicode="&#x134;" horiz-adv-x="523" d="M232 -13q-140 0 -207 118l85 62q40 -73 108 -73q50 0 74 31t24 103v465h123v-476q0 -101 -51.5 -165.5t-155.5 -64.5zM207 768l103 118h131l103 -118l-53 -34l-114 93h-4l-113 -93z" />
<glyph unicode="&#x135;" horiz-adv-x="278" d="M36 -218q-47 0 -85 13l24 92q27 -9 44 -9q34 0 46.5 22.5t12.5 70.5v549h123v-546q0 -192 -165 -192zM-39 643l117 144h123l118 -144l-48 -45l-129 109h-4l-130 -109z" />
<glyph unicode="&#x136;" horiz-adv-x="632" d="M88 0v693h123v-315h3l247 315h137l-213 -270l249 -423h-136l-187 326l-100 -124v-202h-123zM249 -247l-11 53q63 4 88 14.5t25 31.5q0 35 -72 41l25 49q76 -7 106.5 -27t30.5 -58q0 -96 -192 -104z" />
<glyph unicode="&#x137;" horiz-adv-x="553" d="M77 0v748h120v-467h3l193 239h134l-178 -212l196 -308h-133l-133 226l-82 -94v-132h-120zM200 -247l-10 53q62 4 87 14.5t25 31.5q0 35 -72 41l25 49q76 -7 106.5 -27t30.5 -58q0 -96 -192 -104z" />
<glyph unicode="&#x139;" horiz-adv-x="532" d="M88 0v693h123v-589h288v-104h-411zM138 729l-54 62l166 143l66 -81z" />
<glyph unicode="&#x13a;" horiz-adv-x="287" d="M196 -13q-119 0 -119 147v614h122v-621q0 -14 4 -23.5t10 -13t13 -3.5q9 0 19 2l16 -91q-25 -11 -65 -11zM123 787l-54 61l166 143l66 -80z" />
<glyph unicode="&#x13b;" horiz-adv-x="532" d="M88 0v693h123v-589h288v-104h-411zM207 -247l-11 53q63 4 87.5 14.5t24.5 31.5q0 35 -72 41l26 49q75 -7 106 -27t31 -58q0 -96 -192 -104z" />
<glyph unicode="&#x13c;" horiz-adv-x="287" d="M196 -13q-119 0 -119 147v614h122v-621q0 -14 4 -23.5t10 -13t13 -3.5q9 0 19 2l16 -91q-25 -11 -65 -11zM83 -247l-11 53q63 4 87.5 14.5t24.5 31.5q0 35 -72 41l26 49q75 -7 106 -27t31 -58q0 -96 -192 -104z" />
<glyph unicode="&#x13d;" horiz-adv-x="532" d="M88 0v693h123v-589h288v-104h-411zM364 543l-6 230h82l-1 -67l-20 -163h-55z" />
<glyph unicode="&#x13e;" horiz-adv-x="312" d="M196 -13q-119 0 -119 147v614h122v-621q0 -14 4 -23.5t10 -13t13 -3.5q9 0 19 2l16 -91q-25 -11 -65 -11zM253 581l-5 230h82l-1 -67l-21 -163h-55z" />
<glyph unicode="&#x13f;" horiz-adv-x="532" d="M88 0v693h123v-589h288v-104h-411zM417.5 264q-33.5 0 -56.5 23.5t-23 59.5q0 23 10.5 42t29 29.5t40.5 10.5t40 -10.5t28 -29.5t10 -42q0 -36 -22.5 -59.5t-56 -23.5z" />
<glyph unicode="&#x140;" horiz-adv-x="432" d="M196 -13q-119 0 -119 147v614h122v-621q0 -14 4 -23.5t10 -13t13 -3.5q9 0 19 2l16 -91q-25 -11 -65 -11zM355 264q-34 0 -56.5 23.5t-22.5 59.5q0 23 10.5 42t28.5 29.5t40 10.5q34 0 56.5 -23.5t22.5 -59t-22.5 -59t-56.5 -23.5z" />
<glyph unicode="&#x141;" horiz-adv-x="537" d="M28 199l-44 74l110 62v358h123v-303l177 98l43 -76l-220 -118v-190h289v-104h-412v238z" />
<glyph unicode="&#x142;" horiz-adv-x="299" d="M204 -13q-119 0 -119 147v187l-54 -33l-43 77l97 57v326h122v-265l54 32l43 -76l-97 -57v-255q0 -20 7.5 -30t18.5 -10q10 0 19 2l16 -91q-25 -11 -64 -11z" />
<glyph unicode="&#x143;" horiz-adv-x="695" d="M88 0v693h126l216 -390l71 -147h5q-2 19 -5 55t-5.5 61.5t-4 59t-1.5 60.5v301h117v-693h-126l-216 390l-71 147h-4q1 -21 5.5 -70.5t7.5 -89t3 -74.5v-303h-118zM335 729l-54 62l166 143l66 -81z" />
<glyph unicode="&#x144;" horiz-adv-x="593" d="M77 0v520h101l9 -70h4q84 83 170 83q161 0 161 -207v-326h-122v311q0 43 -9 68.5t-26.5 37t-46.5 11.5q-32 0 -57.5 -15t-61.5 -49v-364h-122zM316 607l-61 61l156 184l85 -80z" />
<glyph unicode="&#x145;" horiz-adv-x="695" d="M88 0v693h126l216 -390l71 -147h5q-2 19 -5 55t-5.5 61.5t-4 59t-1.5 60.5v301h117v-693h-126l-216 390l-71 147h-4q1 -21 5.5 -70.5t7.5 -89t3 -74.5v-303h-118zM257 -247l-11 53q63 4 87.5 14.5t24.5 31.5q0 35 -72 41l26 49q75 -7 105.5 -27t30.5 -58q0 -96 -191 -104 z" />
<glyph unicode="&#x146;" horiz-adv-x="593" d="M77 0v520h101l9 -70h4q84 83 170 83q161 0 161 -207v-326h-122v311q0 43 -9 68.5t-26.5 37t-46.5 11.5q-32 0 -57.5 -15t-61.5 -49v-364h-122zM202 -247l-10 53q63 4 87.5 14.5t24.5 31.5q0 35 -72 41l26 49q75 -7 105.5 -27t30.5 -58q0 -96 -192 -104z" />
<glyph unicode="&#x147;" horiz-adv-x="695" d="M88 0v693h126l216 -390l71 -147h5q-2 19 -5 55t-5.5 61.5t-4 59t-1.5 60.5v301h117v-693h-126l-216 390l-71 147h-4q1 -21 5.5 -70.5t7.5 -89t3 -74.5v-303h-118zM284 746l-103 119l53 34l114 -93h4l113 93l53 -34l-102 -119h-132z" />
<glyph unicode="&#x148;" horiz-adv-x="593" d="M77 0v520h101l9 -70h4q84 83 170 83q161 0 161 -207v-326h-122v311q0 43 -9 68.5t-26.5 37t-46.5 11.5q-32 0 -57.5 -15t-61.5 -49v-364h-122zM257 611l-118 143l48 44l129 -108h4l129 108l48 -44l-118 -143h-122z" />
<glyph unicode="&#x150;" horiz-adv-x="714" d="M357 -13q-137 0 -221 98t-84 265q0 165 84 260.5t221 95.5q138 0 222.5 -95.5t84.5 -260.5q0 -167 -84.5 -265t-222.5 -98zM357 94q54 0 95 31.5t62.5 89.5t21.5 135q0 115 -48.5 182t-130.5 67t-130.5 -67t-48.5 -182q0 -117 48.5 -186.5t130.5 -69.5zM231 770l103 166 l79 -46l-120 -150zM416 770l102 166l80 -46l-121 -150z" />
<glyph unicode="&#x151;" horiz-adv-x="581" d="M290 -13q-102 0 -174.5 74t-72.5 199t72.5 199t174.5 74q103 0 175.5 -74t72.5 -199t-72.5 -199t-175.5 -74zM290.5 87q56.5 0 89.5 47t33 126q0 52 -14.5 91t-42.5 61t-66 22q-56 0 -88.5 -47.5t-32.5 -126.5t32.5 -126t89 -47zM236 600l-65 30l92 187l84 -38zM411 600 l-65 30l92 187l84 -38z" />
<glyph unicode="&#x152;" horiz-adv-x="910" d="M393 0q-156 0 -248.5 90.5t-92.5 259.5q0 168 93 255.5t255 87.5h446v-104h-278v-177h233v-104h-233v-204h288v-104h-463zM407 100h38v494h-38q-229 0 -229 -244q0 -126 59.5 -188t169.5 -62z" />
<glyph unicode="&#x153;" horiz-adv-x="879" d="M282 -13q-101 0 -170 73.5t-69 199.5q0 125 70 199t171 74q38 0 71.5 -13t60.5 -37.5t46 -59.5q21 34 48 59t59.5 38t66.5 13q98 0 152 -68.5t54 -180.5q0 -25 -6 -57h-321q6 -66 46 -104t98 -38q56 0 119 40l44 -82q-86 -56 -180 -56q-53 0 -100.5 29.5t-77.5 81.5 q-65 -111 -182 -111zM284 87q53 0 85.5 47.5t32.5 125.5t-32.5 126t-85.5 48q-52 0 -84.5 -48t-32.5 -126t32.5 -125.5t84.5 -47.5zM515 304h221q0 42 -12 72t-35 46.5t-56 16.5q-46 0 -78.5 -36t-39.5 -99z" />
<glyph unicode="&#x154;" horiz-adv-x="627" d="M88 0v693h234q255 0 255 -205q0 -77 -36.5 -126.5t-101.5 -72.5l165 -289h-138l-149 271h-106v-271h-123zM211 369h99q47 0 79.5 13t49.5 40t17 66t-17.5 63t-49 34t-79.5 10h-99v-226zM301 729l-54 62l166 143l66 -81z" />
<glyph unicode="&#x155;" horiz-adv-x="395" d="M77 0v520h101l9 -92h4q27 50 66 77.5t81 27.5q37 0 60 -10l-22 -106q-29 8 -54 8q-22 0 -43 -10t-43 -35t-37 -62v-318h-122zM244 607l-61 61l156 184l85 -80z" />
<glyph unicode="&#x158;" horiz-adv-x="627" d="M88 0v693h234q255 0 255 -205q0 -77 -36.5 -126.5t-101.5 -72.5l165 -289h-138l-149 271h-106v-271h-123zM211 369h99q47 0 79.5 13t49.5 40t17 66t-17.5 63t-49 34t-79.5 10h-99v-226zM250 746l-103 119l53 34l114 -93h4l113 93l53 -34l-102 -119h-132z" />
<glyph unicode="&#x159;" horiz-adv-x="395" d="M77 0v520h101l9 -92h4q27 50 66 77.5t81 27.5q37 0 60 -10l-22 -106q-29 8 -54 8q-22 0 -43 -10t-43 -35t-37 -62v-318h-122zM184 611l-117 143l47 44l130 -108h4l129 108l48 -44l-118 -143h-123z" />
<glyph unicode="&#x15a;" horiz-adv-x="577" d="M290 -13q-70 0 -135 27t-115 75l72 84q39 -36 86.5 -57.5t94.5 -21.5q57 0 88.5 24t31.5 65q0 17 -5.5 30.5t-13 22.5t-24.5 19t-27.5 14.5t-36.5 15.5l-95 41q-140 60 -140 185q0 83 66 139t167 56q40 0 79 -11t73 -30.5t61 -46.5l-62 -78q-71 59 -151 59 q-33 0 -57.5 -10t-38 -28.5t-13.5 -43.5q0 -15 7 -28.5t14.5 -22t26 -18.5t28.5 -14t34 -14l95 -39q67 -29 103.5 -73t36.5 -115q0 -87 -68 -146.5t-182 -59.5zM287 729l-54 62l167 143l65 -81z" />
<glyph unicode="&#x15b;" horiz-adv-x="456" d="M223 -13q-52 0 -105 20t-93 52l58 79q75 -58 144 -58q40 0 61.5 17t21.5 45q0 12 -6.5 22.5t-14.5 17.5t-24 15.5t-26.5 13t-31.5 11.5q-6 3 -9 4q-30 11 -52.5 22.5t-45.5 29.5t-35.5 43t-12.5 56q0 70 51.5 113t138.5 43q92 0 172 -62l-56 -75q-60 45 -114 45 q-25 0 -42.5 -7.5t-26 -20t-8.5 -29.5q0 -12 6 -21.5t13.5 -16t23 -14t25.5 -11.5t31 -11q6 -2 10 -4q21 -8 35.5 -14t34 -16.5t32 -22t24.5 -26.5t17.5 -35t5.5 -44q0 -69 -53.5 -115t-148.5 -46zM240 607l-61 61l156 184l85 -80z" />
<glyph unicode="&#x15c;" horiz-adv-x="577" d="M290 -13q-70 0 -135 27t-115 75l72 84q39 -36 86.5 -57.5t94.5 -21.5q57 0 88.5 24t31.5 65q0 17 -5.5 30.5t-13 22.5t-24.5 19t-27.5 14.5t-36.5 15.5l-95 41q-140 60 -140 185q0 83 66 139t167 56q40 0 79 -11t73 -30.5t61 -46.5l-62 -78q-71 59 -151 59 q-33 0 -57.5 -10t-38 -28.5t-13.5 -43.5q0 -15 7 -28.5t14.5 -22t26 -18.5t28.5 -14t34 -14l95 -39q67 -29 103.5 -73t36.5 -115q0 -87 -68 -146.5t-182 -59.5zM134 768l102 118h132l103 -118l-53 -34l-114 93h-4l-113 -93z" />
<glyph unicode="&#x15d;" horiz-adv-x="456" d="M223 -13q-52 0 -105 20t-93 52l58 79q75 -58 144 -58q40 0 61.5 17t21.5 45q0 12 -6.5 22.5t-14.5 17.5t-24 15.5t-26.5 13t-31.5 11.5q-6 3 -9 4q-30 11 -52.5 22.5t-45.5 29.5t-35.5 43t-12.5 56q0 70 51.5 113t138.5 43q92 0 172 -62l-56 -75q-60 45 -114 45 q-25 0 -42.5 -7.5t-26 -20t-8.5 -29.5q0 -12 6 -21.5t13.5 -16t23 -14t25.5 -11.5t31 -11q6 -2 10 -4q21 -8 35.5 -14t34 -16.5t32 -22t24.5 -26.5t17.5 -35t5.5 -44q0 -69 -53.5 -115t-148.5 -46zM63 643l117 144h123l118 -144l-48 -45l-129 109h-4l-130 -109z" />
<glyph unicode="&#x15e;" horiz-adv-x="577" d="M193 -247l-11 53q64 4 88.5 15t24.5 35q0 19 -18.5 30t-63.5 18l41 85q-124 12 -214 100l72 84q39 -36 86.5 -57.5t94.5 -21.5q57 0 88.5 24t31.5 65q0 17 -5.5 30.5t-13 22.5t-24.5 19t-27.5 14.5t-36.5 15.5l-95 41q-140 60 -140 185q0 83 66 139t167 56q40 0 79 -11 t73 -30.5t61 -46.5l-62 -78q-71 59 -151 59q-33 0 -57.5 -10t-38 -28.5t-13.5 -43.5q0 -15 7 -28.5t14.5 -22t26 -18.5t28.5 -14t34 -14l95 -39q67 -29 103.5 -73t36.5 -115q0 -79 -56.5 -136t-153.5 -68l-25 -55q40 -10 60 -28t20 -49q0 -96 -192 -104z" />
<glyph unicode="&#x15f;" horiz-adv-x="456" d="M144 -247l-10 53q63 4 87.5 15t24.5 35q0 19 -18 30t-64 18l42 84q-49 3 -97 22.5t-84 48.5l58 79q75 -58 144 -58q40 0 61.5 17t21.5 45q0 12 -6.5 22.5t-14.5 17.5t-24 15.5t-26.5 13t-31.5 11.5q-6 3 -9 4q-30 11 -52.5 22.5t-45.5 29.5t-35.5 43t-12.5 56 q0 70 51.5 113t138.5 43q92 0 172 -62l-56 -75q-60 45 -114 45q-25 0 -42.5 -7.5t-26 -20t-8.5 -29.5q0 -12 6 -21.5t13.5 -16t23 -14t25.5 -11.5t31 -11q6 -2 10 -4q21 -8 35.5 -14t34 -16.5t32 -22t24.5 -26.5t17.5 -35t5.5 -44q0 -57 -37 -99t-105 -56l-26 -59 q40 -10 59.5 -28t19.5 -49q0 -96 -192 -104z" />
<glyph unicode="&#x160;" horiz-adv-x="577" d="M290 -13q-70 0 -135 27t-115 75l72 84q39 -36 86.5 -57.5t94.5 -21.5q57 0 88.5 24t31.5 65q0 17 -5.5 30.5t-13 22.5t-24.5 19t-27.5 14.5t-36.5 15.5l-95 41q-140 60 -140 185q0 83 66 139t167 56q40 0 79 -11t73 -30.5t61 -46.5l-62 -78q-71 59 -151 59 q-33 0 -57.5 -10t-38 -28.5t-13.5 -43.5q0 -15 7 -28.5t14.5 -22t26 -18.5t28.5 -14t34 -14l95 -39q67 -29 103.5 -73t36.5 -115q0 -87 -68 -146.5t-182 -59.5zM236 746l-102 119l53 34l113 -93h4l114 93l53 -34l-103 -119h-132z" />
<glyph unicode="&#x161;" horiz-adv-x="456" d="M223 -13q-52 0 -105 20t-93 52l58 79q75 -58 144 -58q40 0 61.5 17t21.5 45q0 12 -6.5 22.5t-14.5 17.5t-24 15.5t-26.5 13t-31.5 11.5q-6 3 -9 4q-30 11 -52.5 22.5t-45.5 29.5t-35.5 43t-12.5 56q0 70 51.5 113t138.5 43q92 0 172 -62l-56 -75q-60 45 -114 45 q-25 0 -42.5 -7.5t-26 -20t-8.5 -29.5q0 -12 6 -21.5t13.5 -16t23 -14t25.5 -11.5t31 -11q6 -2 10 -4q21 -8 35.5 -14t34 -16.5t32 -22t24.5 -26.5t17.5 -35t5.5 -44q0 -69 -53.5 -115t-148.5 -46zM180 611l-117 143l47 44l130 -108h4l129 108l48 -44l-118 -143h-123z" />
<glyph unicode="&#x162;" horiz-adv-x="578" d="M228 0v589h-200v104h523v-104h-200v-589h-20l-30 -66q40 -10 60 -28t20 -49q0 -96 -192 -104l-11 53q43 3 67.5 9t34.5 15.5t10 25.5q0 19 -18 30t-63 18l48 96h-29z" />
<glyph unicode="&#x163;" horiz-adv-x="382" d="M143 -247l-11 53q64 4 88.5 15t24.5 35q0 19 -18 30t-64 18l44 90q-112 27 -112 182v248h-74v91l81 5l15 142h101v-142h133v-96h-133v-248q0 -91 74 -91q26 0 54 11l21 -90q-44 -15 -87 -18l-25 -54q40 -10 60 -28t20 -49q0 -96 -192 -104z" />
<glyph unicode="&#x164;" horiz-adv-x="578" d="M228 0v589h-200v104h523v-104h-200v-589h-123zM224 746l-103 119l53 34l113 -93h5l113 93l53 -34l-103 -119h-131z" />
<glyph unicode="&#x165;" horiz-adv-x="382" d="M261 -13q-166 0 -166 189v248h-74v91l81 5l15 142h101v-142h133v-96h-133v-248q0 -91 74 -91q26 0 54 11l21 -90q-57 -19 -106 -19zM284 581l-5 230h81l-1 -67l-20 -163h-55z" />
<glyph unicode="&#x16a;" horiz-adv-x="694" d="M348 -13q-263 0 -263 317v389h123v-398q0 -73 18 -118.5t48 -64t74 -18.5q144 0 144 201v398h118v-389q0 -317 -262 -317zM196 772v80h303v-80h-303z" />
<glyph unicode="&#x16b;" horiz-adv-x="589" d="M232 -13q-160 0 -160 207v326h122v-310q0 -64 19 -91t62 -27q33 0 59 16.5t56 55.5v356h122v-520h-100l-9 76h-3q-75 -89 -168 -89zM145 632v80h297v-80h-297z" />
<glyph unicode="&#x16c;" horiz-adv-x="694" d="M348 -13q-263 0 -263 317v389h123v-398q0 -73 18 -118.5t48 -64t74 -18.5q144 0 144 201v398h118v-389q0 -317 -262 -317zM348 743q-50 0 -86 18t-55 49t-24 74l70 12q7 -37 31 -58.5t64 -21.5q20 0 36 6t28 16.5t19.5 25t10.5 32.5l70 -12q-7 -66 -48.5 -103.5 t-115.5 -37.5z" />
<glyph unicode="&#x16d;" horiz-adv-x="589" d="M232 -13q-160 0 -160 207v326h122v-310q0 -64 19 -91t62 -27q33 0 59 16.5t56 55.5v356h122v-520h-100l-9 76h-3q-75 -89 -168 -89zM296 605q-35 0 -63 9t-47.5 24t-33 36t-20.5 45t-9 51l72 11q6 -41 31.5 -69t69.5 -28t69 28t31 69l73 -11q-5 -72 -47.5 -118.5 t-125.5 -46.5z" />
<glyph unicode="&#x16e;" horiz-adv-x="694" d="M348 -13q-263 0 -263 317v389h123v-398q0 -73 18 -118.5t48 -64t74 -18.5q144 0 144 201v398h118v-389q0 -317 -262 -317zM348 740q-33 0 -58.5 12t-40 35t-14.5 53t14.5 53t40 35t58.5 12q49 0 80.5 -27.5t31.5 -72.5q0 -30 -14.5 -53t-40 -35t-57.5 -12zM348 789 q20 0 34 13.5t14 37t-14 37.5t-34 14q-22 0 -36 -14t-14 -37.5t14 -37t36 -13.5z" />
<glyph unicode="&#x16f;" horiz-adv-x="589" d="M232 -13q-160 0 -160 207v326h122v-310q0 -64 19 -91t62 -27q33 0 59 16.5t56 55.5v356h122v-520h-100l-9 76h-3q-75 -89 -168 -89zM296 593q-60 0 -94.5 30t-34.5 77q0 31 15 55t44.5 38.5t69.5 14.5q59 0 93.5 -30.5t34.5 -77.5q0 -31 -15 -55t-44 -38t-69 -14z M295.5 641q22.5 0 38 16.5t15.5 42.5t-15.5 42.5t-38 16.5t-37.5 -16.5t-15 -42.5t15 -42.5t37.5 -16.5z" />
<glyph unicode="&#x170;" horiz-adv-x="694" d="M348 -13q-263 0 -263 317v389h123v-398q0 -73 18 -118.5t48 -64t74 -18.5q144 0 144 201v398h118v-389q0 -317 -262 -317zM222 770l102 166l80 -46l-121 -150zM406 770l103 166l79 -46l-121 -150z" />
<glyph unicode="&#x171;" horiz-adv-x="589" d="M232 -13q-160 0 -160 207v326h122v-310q0 -64 19 -91t62 -27q33 0 59 16.5t56 55.5v356h122v-520h-100l-9 76h-3q-75 -89 -168 -89zM242 600l-66 30l92 187l84 -38zM417 600l-66 30l92 187l84 -38z" />
<glyph unicode="&#x172;" horiz-adv-x="694" d="M375 -231q-49 0 -80.5 25.5t-31.5 70.5q0 18 5.5 36t10.5 28t19 25.5t16.5 18t16.5 15.5q-246 12 -246 316v389h123v-398q0 -73 18 -118.5t48 -64t74 -18.5q144 0 144 201v398h118v-389q0 -71 -11 -121.5t-35 -86t-54 -58.5t-75 -44q-39 -18 -59.5 -45t-20.5 -53 q0 -22 14 -33t34 -11t40 14l30 -63q-9 -7 -21 -13.5t-25 -11t-26.5 -7t-25.5 -2.5z" />
<glyph unicode="&#x173;" horiz-adv-x="589" d="M439 -220q-30 0 -53 10t-37 31.5t-14 51.5q0 70 78 128l-10 75h-3q-75 -89 -168 -89q-160 0 -160 207v326h122v-310q0 -64 19 -91t62 -27q33 0 59 16.5t56 55.5v356h122v-520q-47 -18 -69.5 -44.5t-22.5 -56.5q0 -10 4 -19t10.5 -14.5t14.5 -8t17 -2.5q23 0 41 14l27 -58 q-17 -14 -44.5 -22.5t-50.5 -8.5z" />
<glyph unicode="&#x178;" horiz-adv-x="531" d="M204 0v258l-208 435h131l75 -177q32 -81 62 -152h4q58 136 64 152l75 177h128l-209 -435v-258h-122zM152 750q-19 0 -33 8.5t-22 22.5t-8 32q0 28 17.5 46t45 18t45.5 -18t18 -46q0 -27 -18 -45t-45 -18zM378.5 750q-27.5 0 -45.5 18t-18 45q0 28 18 46t45.5 18t45 -18 t17.5 -46q0 -27 -17.5 -45t-45 -18z" />
<glyph unicode="&#x179;" horiz-adv-x="572" d="M42 0v74l335 515h-304v104h457v-74l-336 -515h338v-104h-490zM284 729l-54 62l166 143l66 -81z" />
<glyph unicode="&#x17a;" horiz-adv-x="469" d="M36 0v66l246 358h-218v96h371v-64l-245 -358h253v-98h-407zM249 607l-60 61l155 184l85 -80z" />
<glyph unicode="&#x17b;" horiz-adv-x="572" d="M42 0v74l335 515h-304v104h457v-74l-336 -515h338v-104h-490zM299 749q-22 0 -39 9t-26.5 25t-9.5 36q0 31 21 50t54 19t54 -19t21 -50q0 -30 -21 -50t-54 -20z" />
<glyph unicode="&#x17c;" horiz-adv-x="469" d="M36 0v66l246 358h-218v96h371v-64l-245 -358h253v-98h-407zM251 612q-32 0 -52 19.5t-20 50.5q0 30 20 49t52 19t52 -19t20 -49q0 -31 -20 -50.5t-52 -19.5z" />
<glyph unicode="&#x17d;" horiz-adv-x="572" d="M42 0v74l335 515h-304v104h457v-74l-336 -515h338v-104h-490zM233 746l-103 119l53 34l114 -93h4l113 93l53 -34l-102 -119h-132z" />
<glyph unicode="&#x17e;" horiz-adv-x="469" d="M36 0v66l246 358h-218v96h371v-64l-245 -358h253v-98h-407zM190 611l-118 143l48 44l129 -108h4l130 108l47 -44l-117 -143h-123z" />
<glyph unicode="&#x192;" d="M110 -103q-57 2 -85 17l20 90q22 -9 48 -9q30 0 47.5 16t28 49.5t17.5 92.5l21 193h-86v84l76 6h20l6 52q13 113 58.5 165.5t138.5 52.5q46 0 87 -19l-25 -92q-33 12 -54 12q-73 0 -87 -109l-7 -62h121v-90h-132l-25 -226q-6 -51 -17.5 -89t-32.5 -69.5t-55.5 -48 t-82.5 -16.5z" />
<glyph unicode="&#x218;" horiz-adv-x="577" d="M290 -13q-70 0 -135 27t-115 75l72 84q39 -36 86.5 -57.5t94.5 -21.5q57 0 88.5 24t31.5 65q0 17 -5.5 30.5t-13 22.5t-24.5 19t-27.5 14.5t-36.5 15.5l-95 41q-140 60 -140 185q0 83 66 139t167 56q40 0 79 -11t73 -30.5t61 -46.5l-62 -78q-71 59 -151 59 q-33 0 -57.5 -10t-38 -28.5t-13.5 -43.5q0 -15 7 -28.5t14.5 -22t26 -18.5t28.5 -14t34 -14l95 -39q67 -29 103.5 -73t36.5 -115q0 -87 -68 -146.5t-182 -59.5zM193 -247l-11 53q63 4 88 14.5t25 31.5q0 35 -72 41l25 49q76 -7 106.5 -27t30.5 -58q0 -96 -192 -104z" />
<glyph unicode="&#x219;" horiz-adv-x="456" d="M223 -13q-52 0 -105 20t-93 52l58 79q75 -58 144 -58q40 0 61.5 17t21.5 45q0 12 -6.5 22.5t-14.5 17.5t-24 15.5t-26.5 13t-31.5 11.5q-6 3 -9 4q-30 11 -52.5 22.5t-45.5 29.5t-35.5 43t-12.5 56q0 70 51.5 113t138.5 43q92 0 172 -62l-56 -75q-60 45 -114 45 q-25 0 -42.5 -7.5t-26 -20t-8.5 -29.5q0 -12 6 -21.5t13.5 -16t23 -14t25.5 -11.5t31 -11q6 -2 10 -4q21 -8 35.5 -14t34 -16.5t32 -22t24.5 -26.5t17.5 -35t5.5 -44q0 -69 -53.5 -115t-148.5 -46zM142 -247l-11 53q63 4 88 14.5t25 31.5q0 35 -72 41l25 49q76 -7 106.5 -27 t30.5 -58q0 -96 -192 -104z" />
<glyph unicode="&#x21a;" horiz-adv-x="578" d="M228 0v589h-200v104h523v-104h-200v-589h-123zM191 -247l-11 53q63 4 88 14.5t25 31.5q0 35 -73 41l26 49q75 -7 106 -27t31 -58q0 -96 -192 -104z" />
<glyph unicode="&#x21b;" horiz-adv-x="382" d="M261 -13q-166 0 -166 189v248h-74v91l81 5l15 142h101v-142h133v-96h-133v-248q0 -91 74 -91q26 0 54 11l21 -90q-57 -19 -106 -19zM138 -247l-11 53q63 4 88 14.5t25 31.5q0 35 -73 41l26 49q75 -7 106 -27t31 -58q0 -96 -192 -104z" />
<glyph unicode="&#x2c6;" horiz-adv-x="581" d="M111 643l118 144h123l118 -144l-48 -45l-129 109h-5l-129 -109z" />
<glyph unicode="&#x2c7;" horiz-adv-x="581" d="M229 611l-118 143l48 44l129 -108h5l129 108l48 -44l-118 -143h-123z" />
<glyph unicode="&#x2d8;" horiz-adv-x="581" d="M290 605q-21 0 -40.5 3.5t-35 10t-29 15.5t-23.5 20.5t-18 24.5t-13.5 28t-8.5 30.5t-4 32.5l72 11q6 -41 31.5 -69t69 -28t69 28t31.5 69l72 -11q-4 -72 -47 -118.5t-126 -46.5z" />
<glyph unicode="&#x2d9;" horiz-adv-x="581" d="M290 612q-31 0 -51.5 19.5t-20.5 50.5q0 30 20.5 49t52 19t52 -19t20.5 -49q0 -21 -9.5 -37t-26 -24.5t-37.5 -8.5z" />
<glyph unicode="&#x2da;" horiz-adv-x="581" d="M290.5 593q-59.5 0 -94 30t-34.5 77t34.5 77.5t94 30.5t94 -30.5t34.5 -77.5t-34.5 -77t-94 -30zM290.5 641q22.5 0 37.5 16.5t15 42.5t-15 42.5t-37.5 16.5t-38 -16.5t-15.5 -42.5t15.5 -42.5t38 -16.5z" />
<glyph unicode="&#x2db;" horiz-adv-x="581" d="M314 -220q-30 0 -53 10t-37 31.5t-14 51.5q0 40 22.5 74t51.5 56h75q-64 -50 -64 -104q0 -21 13.5 -32.5t32.5 -11.5q23 0 41 14l27 -58q-17 -14 -44.5 -22.5t-50.5 -8.5z" />
<glyph unicode="&#x2dc;" horiz-adv-x="581" d="M364 610q-24 0 -47 12t-37 26.5t-30.5 27t-30.5 12.5q-36 0 -43 -71l-78 4q2 74 32 113.5t87 39.5q24 0 47 -12.5t37 -27t31 -27t31 -12.5q35 0 42 71l78 -4q-2 -73 -32 -112.5t-87 -39.5z" />
<glyph unicode="&#x2dd;" horiz-adv-x="581" d="M236 600l-65 30l92 187l84 -38zM411 600l-65 30l92 187l84 -38z" />
<glyph unicode="&#x374;" horiz-adv-x="291" d="M87 443l21 286h122l-20 -116l-44 -170h-79z" />
<glyph unicode="&#x375;" horiz-adv-x="291" d="M61 0l21 117l43 169h80l-22 -286h-122z" />
<glyph unicode="&#x37a;" horiz-adv-x="581" d="M347 -220q-100 0 -100 116v43h90q-2 -17 -2 -50q0 -34 36 -34q8 0 20 3l13 -69q-22 -9 -57 -9z" />
<glyph unicode="&#x37e;" horiz-adv-x="291" d="M146 350q-33 0 -56 23.5t-23 59t23 59t56.5 23.5t56 -23.5t22.5 -59.5q0 -23 -10.5 -42t-28.5 -29.5t-40 -10.5zM76 -193l-26 67q51 20 79.5 54t27.5 74h-10q-32 0 -55 20.5t-23 54.5t23.5 55t58.5 21q42 0 66.5 -33.5t24.5 -91.5q0 -78 -43.5 -136t-122.5 -85z" />
<glyph unicode="&#x386;" horiz-adv-x="629" d="M268 369l-24 -85h177l-25 85q-16 52 -62 229h-4q-35 -142 -62 -229zM36 0l226 693h144l226 -693h-130l-54 188h-233l-54 -188h-125zM0 494l31 216l107 -15l-58 -216z" />
<glyph unicode="&#x388;" horiz-adv-x="667" d="M186 0v693h417v-104h-295v-177h250v-104h-250v-204h306v-104h-428zM-17 494l31 216l107 -15l-58 -216z" />
<glyph unicode="&#x389;" horiz-adv-x="800" d="M186 0v693h122v-279h281v279h123v-693h-123v307h-281v-307h-122zM-17 494l31 216l107 -15l-58 -216z" />
<glyph unicode="&#x38a;" horiz-adv-x="396" d="M186 0v693h122v-693h-122zM-17 494l31 216l107 -15l-58 -216z" />
<glyph unicode="&#x38c;" horiz-adv-x="788" d="M431 -13q-89 0 -158 43.5t-108 126t-39 193.5q0 165 84 260.5t221 95.5q138 0 222.5 -95.5t84.5 -260.5q0 -167 -84.5 -265t-222.5 -98zM431.5 94q81.5 0 130.5 69.5t49 186.5q0 76 -22 132.5t-62.5 86.5t-95 30t-95 -30t-62.5 -86.5t-22 -132.5q0 -117 49 -186.5 t130.5 -69.5zM-17 494l31 216l107 -15l-58 -216z" />
<glyph unicode="&#x38e;" horiz-adv-x="692" d="M365 0v258l-208 435h131l76 -177q31 -81 61 -152h4q58 136 64 152l75 177h128l-208 -435v-258h-123zM-17 494l31 216l107 -15l-58 -216z" />
<glyph unicode="&#x38f;" horiz-adv-x="809" d="M122 0v100h127v4q-47 47 -79.5 116t-32.5 155q0 147 84.5 239t221.5 92t221 -92t84 -239q0 -86 -32.5 -155t-79.5 -116v-4h127v-100h-265v89q124 107 124 276q0 103 -48 168.5t-131 65.5t-131.5 -65.5t-48.5 -168.5q0 -169 124 -276v-89h-265zM-23 494l30 216l107 -15 l-58 -216z" />
<glyph unicode="&#x390;" horiz-adv-x="298" d="M202 -13q-45 0 -73.5 19t-40 51t-11.5 80v383h124q-8 -347 -8 -390t39 -43q16 0 33 6l15 -91q-34 -15 -78 -15zM90 612l44 223l90 -19l-77 -217zM8 625q-14 0 -26 6.5t-18.5 18.5t-6.5 27q0 24 14.5 38t36.5 14q23 0 37.5 -14t14.5 -37.5t-14.5 -38t-37.5 -14.5zM269 625 q-22 0 -37 14.5t-15 37.5q0 16 7 28t19 18t26 6q15 0 27 -6t18.5 -18t6.5 -27.5t-6.5 -27.5t-18.5 -18.5t-27 -6.5z" />
<glyph unicode="&#x391;" horiz-adv-x="591" d="M230 369l-24 -85h177l-25 85q-16 52 -62 229h-4q-36 -142 -62 -229zM-2 0l226 693h144l226 -693h-130l-54 188h-233l-54 -188h-125z" />
<glyph unicode="&#x392;" horiz-adv-x="632" d="M88 0v693h222q248 0 248 -170q0 -51 -26.5 -93t-70.5 -58v-4q60 -14 96.5 -55.5t36.5 -108.5q0 -101 -73 -152.5t-193 -51.5h-240zM211 407h88q70 0 104 25.5t34 72.5q0 49 -33.5 71t-102.5 22h-90v-191zM211 95h104q159 0 159 115q0 105 -159 105h-104v-220z" />
<glyph unicode="&#x393;" horiz-adv-x="540" d="M88 0v693h419v-104h-296v-589h-123z" />
<glyph unicode="&#x394;" horiz-adv-x="650" d="M34 0v74l219 619h146l218 -619v-74h-583zM166 104h316l-90 274l-67 216h-4l-66 -216z" />
<glyph unicode="&#x395;" horiz-adv-x="570" d="M88 0v693h418v-104h-295v-177h249v-104h-249v-204h305v-104h-428z" />
<glyph unicode="&#x396;" horiz-adv-x="572" d="M42 0v74l335 515h-304v104h457v-74l-336 -515h338v-104h-490z" />
<glyph unicode="&#x397;" horiz-adv-x="702" d="M88 0v693h123v-279h281v279h123v-693h-123v307h-281v-307h-123z" />
<glyph unicode="&#x398;" horiz-adv-x="714" d="M246 307v107h223v-107h-223zM357 -13q-137 0 -221 98t-84 265q0 165 84 260.5t221 95.5q138 0 222.5 -95.5t84.5 -260.5q0 -167 -84.5 -265t-222.5 -98zM357 94q54 0 95 31.5t62.5 89.5t21.5 135q0 115 -48.5 182t-130.5 67t-130.5 -67t-48.5 -182q0 -117 48.5 -186.5 t130.5 -69.5z" />
<glyph unicode="&#x399;" horiz-adv-x="298" d="M88 0v693h123v-693h-123z" />
<glyph unicode="&#x39a;" horiz-adv-x="632" d="M88 0v693h123v-315h3l247 315h137l-213 -270l249 -423h-136l-187 326l-100 -124v-202h-123z" />
<glyph unicode="&#x39b;" horiz-adv-x="568" d="M-4 0l215 693h145l216 -693h-130l-98 349q-9 34 -28.5 108t-32.5 118h-4q-14 -47 -35 -128t-26 -98l-96 -349h-126z" />
<glyph unicode="&#x39c;" horiz-adv-x="789" d="M88 0v693h139l123 -339q7 -22 44 -136h5q5 16 20 63.5t23 72.5l120 339h140v-693h-114v317q0 61 16 220h-4l-56 -161l-114 -311h-73l-114 311l-55 161h-5q1 -10 6 -64.5t7.5 -90.5t2.5 -65v-317h-111z" />
<glyph unicode="&#x39d;" horiz-adv-x="695" d="M88 0v693h126l216 -390l71 -147h5q-2 19 -5 55t-5.5 61.5t-4 59t-1.5 60.5v301h117v-693h-126l-216 390l-71 147h-4q1 -21 5.5 -70.5t7.5 -89t3 -74.5v-303h-118z" />
<glyph unicode="&#x39e;" horiz-adv-x="585" d="M54 0v104h478v-104h-478zM129 308v104h327v-104h-327zM65 589v104h457v-104h-457z" />
<glyph unicode="&#x39f;" horiz-adv-x="714" d="M357 -13q-137 0 -221 98t-84 265q0 165 84 260.5t221 95.5q138 0 222.5 -95.5t84.5 -260.5q0 -167 -84.5 -265t-222.5 -98zM357 94q54 0 95 31.5t62.5 89.5t21.5 135q0 115 -48.5 182t-130.5 67t-130.5 -67t-48.5 -182q0 -117 48.5 -186.5t130.5 -69.5z" />
<glyph unicode="&#x3a0;" horiz-adv-x="693" d="M88 0v693h517v-693h-123v589h-271v-589h-123z" />
<glyph unicode="&#x3a1;" horiz-adv-x="616" d="M88 0v693h218q269 0 269 -214q0 -111 -73 -168t-191 -57h-100v-254h-123zM211 353h90q153 0 153 126q0 63 -38.5 89.5t-118.5 26.5h-86v-242z" />
<glyph unicode="&#x3a3;" horiz-adv-x="576" d="M43 0v74l226 277l-222 268v74h462v-104h-308l192 -235l-195 -250h340v-104h-495z" />
<glyph unicode="&#x3a4;" horiz-adv-x="578" d="M228 0v589h-200v104h523v-104h-200v-589h-123z" />
<glyph unicode="&#x3a5;" horiz-adv-x="531" d="M204 0v258l-208 435h131l75 -177q32 -81 62 -152h4q58 136 64 152l75 177h128l-209 -435v-258h-122z" />
<glyph unicode="&#x3a6;" horiz-adv-x="784" d="M169 350q0 -78 45.5 -127.5t122.5 -57.5v364q-78 -8 -123 -55.5t-45 -123.5zM616 350q0 76 -45.5 123.5t-123.5 55.5v-364q51 6 89.5 29.5t59 63.5t20.5 92zM337 -23v95q-131 9 -208.5 82.5t-77.5 195.5t77.5 193t208.5 79v95h110v-95q132 -8 209.5 -79t77.5 -193 t-78 -195.5t-209 -82.5v-95h-110z" />
<glyph unicode="&#x3a7;" horiz-adv-x="573" d="M14 0l197 357l-185 336h137l77 -153q7 -14 15.5 -31.5t18.5 -38t19 -36.5h4q29 70 46 106l74 153h130l-184 -341l197 -352h-137l-85 163q-8 17 -26.5 54.5t-29.5 59.5h-4q-24 -55 -51 -114l-83 -163h-130z" />
<glyph unicode="&#x3a8;" horiz-adv-x="769" d="M326 0v246q-265 15 -265 277v170h120v-164q0 -92 36 -136t109 -50v350h116v-350q73 6 109 50t36 136v164h121v-170q0 -262 -266 -277v-246h-116z" />
<glyph unicode="&#x3a9;" horiz-adv-x="736" d="M48 0v100h127v4q-47 47 -79.5 116t-32.5 155q0 147 84 239t222 92q137 0 221 -92t84 -239q0 -86 -32.5 -155t-79.5 -116v-4h127v-100h-265v89q124 107 124 276q0 103 -48 168.5t-131 65.5q-55 0 -96.5 -30.5t-62.5 -83t-21 -120.5q0 -169 124 -276v-89h-265z" />
<glyph unicode="&#x3aa;" horiz-adv-x="298" d="M88 0v693h123v-693h-123zM36 750q-28 0 -45 18t-17 45q0 28 17 46t45 18t46 -18t18 -46q0 -27 -18 -45t-46 -18zM263 750q-28 0 -46 18t-18 45q0 28 18 46t46 18t45 -18t17 -46q0 -13 -4.5 -25t-12.5 -20t-19.5 -13t-25.5 -5z" />
<glyph unicode="&#x3ab;" horiz-adv-x="531" d="M204 0v258l-208 435h131l75 -177q32 -81 62 -152h4q58 136 64 152l75 177h128l-209 -435v-258h-122zM152 750q-19 0 -33 8.5t-22 22.5t-8 32q0 28 17.5 46t45 18t45.5 -18t18 -46q0 -27 -18 -45t-45 -18zM378.5 750q-27.5 0 -45.5 18t-18 45q0 28 18 46t45.5 18t45 -18 t17.5 -46q0 -27 -17.5 -45t-45 -18z" />
<glyph unicode="&#x3ac;" horiz-adv-x="612" d="M248 -13q-61 0 -107 31.5t-72 92t-26 143.5q0 127 67.5 203t161.5 76q50 0 89.5 -29t62.5 -91h4l19 107h121q-2 -11 -14 -64.5t-16 -74t-13 -66t-13 -70.5t-7.5 -55.5t-3.5 -51.5q0 -25 14.5 -38t36.5 -13q15 0 35 7l16 -91q-32 -16 -79 -16q-107 0 -119 96h-4 q-56 -96 -153 -96zM276 88q43 0 78 40.5t39 96.5l8 93q-34 114 -112 114q-49 0 -84.5 -46t-35.5 -131q0 -81 28 -124t79 -43zM260 605l40 224l122 -21l-80 -219z" />
<glyph unicode="&#x3ad;" horiz-adv-x="487" d="M276 -13q-102 0 -167.5 42t-65.5 117q0 99 104 126v5q-38 13 -59 44.5t-21 67.5q0 71 60.5 107.5t151.5 36.5q95 0 174 -55l-46 -79q-58 40 -123 40q-28 0 -50 -8t-34 -23t-12 -35q0 -63 95 -63q18 0 69 4v-90q-45 3 -85 3q-104 0 -104 -69q0 -36 32.5 -56t91.5 -20 q70 0 131 46l48 -78q-47 -35 -91.5 -49t-98.5 -14zM223 605l40 224l122 -21l-80 -219z" />
<glyph unicode="&#x3ae;" horiz-adv-x="585" d="M390 -189q2 93 4 174.5t3.5 171.5t1.5 154t-17 90.5t-57 26.5q-34 0 -62 -21.5t-64 -73.5v-333h-122v369q0 88 -9 151h110l9 -98h4q39 55 80.5 83t94.5 28q77 0 112 -52.5t35 -154.5v-515h-123zM269 605l41 224l121 -21l-79 -219z" />
<glyph unicode="&#x3af;" horiz-adv-x="298" d="M202 -13q-45 0 -73.5 19t-40 51t-11.5 80v383h124q-8 -347 -8 -390t39 -43q16 0 33 6l15 -91q-34 -15 -78 -15zM92 605l40 224l122 -21l-79 -219z" />
<glyph unicode="&#x3b0;" horiz-adv-x="552" d="M269 -13q-103 0 -156 56t-53 158q0 29 2.5 84.5t2.5 83.5q0 89 -11 151h119q8 -41 8 -125q0 -23 -3 -95t-3 -107q0 -36 13 -60.5t34 -35t48 -10.5q51 0 79 43.5t28 131.5q0 122 -38 245l119 26q42 -139 42 -266q0 -133 -61 -206.5t-170 -73.5zM220 612l44 223l90 -19 l-76 -217zM139 625q-15 0 -26.5 6.5t-18.5 18.5t-7 27q0 24 14.5 38t37.5 14q22 0 37 -14t15 -38q0 -15 -7 -27t-19 -18.5t-26 -6.5zM400 625q-22 0 -37 14.5t-15 37.5q0 16 7 28t18.5 18t26.5 6q14 0 26 -6t19 -18t7 -27.5t-7 -27.5t-19 -18.5t-26 -6.5z" />
<glyph unicode="&#x3b1;" horiz-adv-x="612" d="M248 -13q-61 0 -107 31.5t-72 92t-26 143.5q0 127 67.5 203t161.5 76q50 0 89.5 -29t62.5 -91h4l19 107h121q-2 -11 -14 -64.5t-16 -74t-13 -66t-13 -70.5t-7.5 -55.5t-3.5 -51.5q0 -25 14.5 -38t36.5 -13q15 0 35 7l16 -91q-32 -16 -79 -16q-107 0 -119 96h-4 q-56 -96 -153 -96zM276 88q43 0 78 40.5t39 96.5l8 93q-34 114 -112 114q-49 0 -84.5 -46t-35.5 -131q0 -81 28 -124t79 -43z" />
<glyph unicode="&#x3b2;" horiz-adv-x="617" d="M76 -189v696q0 114 58 184t171 70q57 0 103.5 -19.5t77.5 -63t31 -105.5q0 -107 -95 -167v-4q69 -12 112 -64.5t43 -129.5q0 -70 -31 -121.5t-77 -75.5t-99 -24q-110 0 -179 74q6 -176 8 -250h-123zM337 88q51 0 85 34t34 94q0 54 -31.5 87.5t-89.5 33.5q-25 0 -48 -6 l-16 91q67 12 98 50.5t31 90.5q0 48 -27.5 75t-67.5 27q-52 0 -80.5 -44.5t-30.5 -124.5q-3 -168 -3 -336q55 -72 146 -72z" />
<glyph unicode="&#x3b3;" horiz-adv-x="539" d="M201 -189q7 55 7 137q0 113 -61.5 279.5t-144.5 278.5l124 27q44 -61 87.5 -170t68.5 -223h4q98 196 113 380h120q-22 -138 -65 -248.5t-138 -261.5q12 -78 12 -199h-127z" />
<glyph unicode="&#x3b4;" horiz-adv-x="572" d="M287 -13q-99 0 -168.5 65t-69.5 173q0 83 49.5 142t129.5 89q-59 41 -92.5 84.5t-33.5 98.5q0 34 18.5 60.5t60.5 44t102 17.5q104 0 228 -41l-29 -94q-122 44 -200 44q-22 0 -37 -6t-22 -15t-7 -20q0 -9 3.5 -17.5t8.5 -16.5t14.5 -17t18.5 -16.5t23 -18t25.5 -18.5 t29 -20.5t29.5 -21.5q25 -18 43.5 -33t37.5 -34t32 -38t23.5 -41t16 -48t5.5 -55q0 -112 -64 -179.5t-175 -67.5zM289 87q57 0 87.5 38.5t30.5 108.5q0 26 -7 49.5t-21 43.5t-30 36.5t-38 34.5q-69 -18 -107.5 -61.5t-38.5 -109.5q0 -64 36.5 -102t87.5 -38z" />
<glyph unicode="&#x3b5;" horiz-adv-x="487" d="M276 -13q-102 0 -167.5 42t-65.5 117q0 99 104 126v5q-38 13 -59 44.5t-21 67.5q0 71 60.5 107.5t151.5 36.5q95 0 174 -55l-46 -79q-58 40 -123 40q-28 0 -50 -8t-34 -23t-12 -35q0 -63 95 -63q18 0 69 4v-90q-45 3 -85 3q-104 0 -104 -69q0 -36 32.5 -56t91.5 -20 q70 0 131 46l48 -78q-47 -35 -91.5 -49t-98.5 -14z" />
<glyph unicode="&#x3b6;" horiz-adv-x="471" d="M396 -197l-95 35q21 28 28.5 38.5t14.5 25.5t7 28q0 23 -21.5 35t-87.5 27q-42 8 -74 23.5t-61 42.5t-44.5 73t-15.5 107q0 68 38.5 148t98.5 149.5t131 123.5q-13 0 -104.5 -2.5t-129.5 -4.5v96h369v-96h-5q-104 -67 -188 -191t-84 -216q0 -75 32.5 -109t107.5 -48 q79 -16 112.5 -43.5t33.5 -82.5q0 -29 -15.5 -72t-47.5 -87z" />
<glyph unicode="&#x3b7;" horiz-adv-x="585" d="M390 -189q2 93 4 174.5t3.5 171.5t1.5 154t-17 90.5t-57 26.5q-34 0 -62 -21.5t-64 -73.5v-333h-122v369q0 88 -9 151h110l9 -98h4q39 55 80.5 83t94.5 28q77 0 112 -52.5t35 -154.5v-515h-123z" />
<glyph unicode="&#x3b8;" horiz-adv-x="568" d="M284.5 -13q-106.5 0 -167 98t-60.5 292q0 188 60.5 286t166.5 98q70 0 120.5 -42.5t78.5 -129.5t28 -212q0 -194 -60 -292t-166.5 -98zM284 661q-100 0 -107 -241h214q-7 241 -107 241zM284 87q100 0 107 249h-214q7 -249 107 -249z" />
<glyph unicode="&#x3b9;" horiz-adv-x="298" d="M202 -13q-45 0 -73.5 19t-40 51t-11.5 80v383h124q-8 -347 -8 -390t39 -43q16 0 33 6l15 -91q-34 -15 -78 -15z" />
<glyph unicode="&#x3ba;" horiz-adv-x="551" d="M420 -11q-73 88 -152 240q-8 -11 -27 -34q-48 -55 -48 -166v-29h-116v369q0 95 -10 151h121q9 -39 9 -125v-129h4q65 107 142 179t159 88l11 -114q-81 -22 -167 -107q39 -79 97.5 -165.5t112.5 -146.5z" />
<glyph unicode="&#x3bb;" horiz-adv-x="555" d="M146 -11l-131 11l226 527l-6 19q-31 112 -108 112q-33 0 -71 -17l-27 100q51 20 112 20q82 0 132 -53t85 -168l191 -540h-130l-122 390h-4z" />
<glyph unicode="&#x3bc;" horiz-adv-x="612" d="M77 -189v709h122v-310q0 -62 19 -90t61 -28q33 0 59.5 18t53.5 66v344h123q-8 -347 -8 -390t42 -43q16 0 32 6l16 -91q-34 -15 -78 -15q-97 0 -114 94h-4q-46 -89 -126 -89q-59 0 -83 36q1 -134 9 -217h-124z" />
<glyph unicode="&#x3bd;" horiz-adv-x="528" d="M199 0q-25 141 -77.5 273t-119.5 233l124 27q46 -74 88 -191.5t63 -216.5h4q89 194 107 395h121q-22 -138 -66.5 -259.5t-126.5 -260.5h-117z" />
<glyph unicode="&#x3be;" horiz-adv-x="477" d="M403 -197l-97 35q22 28 29 38.5t14 25.5t7 28q0 23 -22 35.5t-87 26.5q-44 9 -77.5 22.5t-62 36.5t-43.5 59.5t-15 85.5q0 70 43 124t107 74v5q-23 9 -41.5 23.5t-32 33t-20.5 41.5t-7 48q0 36 16.5 66t45.5 48q-82 -3 -137 -7v96h433v-96h-123q-48 0 -80.5 -30 t-32.5 -80q0 -46 33.5 -79.5t78.5 -33.5q40 0 73 8v-98q-35 8 -81 8q-62 0 -106 -37t-44 -96q0 -61 35.5 -86.5t114.5 -39.5q81 -16 110.5 -43t29.5 -83q0 -28 -15.5 -71.5t-45.5 -87.5z" />
<glyph unicode="&#x3bf;" horiz-adv-x="576" d="M288 -13q-49 0 -93.5 18.5t-78 52.5t-53.5 86.5t-20 115.5q0 126 71 199.5t174.5 73.5t174 -73.5t70.5 -199.5q0 -125 -71 -199t-174 -74zM288.5 87q57.5 0 88.5 46t31 126.5t-31 127.5t-89 47q-29 0 -51.5 -12.5t-37.5 -35.5t-22.5 -55t-7.5 -71q0 -81 31 -127t88.5 -46 z" />
<glyph unicode="&#x3c0;" horiz-adv-x="647" d="M534 -13q-72 0 -103.5 39.5t-31.5 115.5q0 20 2 124t3 157h-152q0 -138 -28 -430l-123 7q37 218 37 423h-117v92l77 5h524v-97h-100q-8 -123 -8 -287q0 -27 11.5 -38t36.5 -11q10 0 40 5l15 -91q-36 -14 -83 -14z" />
<glyph unicode="&#x3c1;" horiz-adv-x="592" d="M73 -189v447q0 135 66.5 205t173.5 70q111 0 172.5 -70t61.5 -195q0 -127 -64 -204t-151 -77t-143 66q1 -40 3.5 -118.5t4.5 -123.5h-124zM305 88q50 0 83.5 47t33.5 132q0 165 -114 165q-52 0 -85.5 -44.5t-33.5 -123.5v-120q48 -56 116 -56z" />
<glyph unicode="&#x3c2;" horiz-adv-x="465" d="M353 -194l-98 34q29 37 42 59t13 42q0 17 -6 29.5t-21 22.5t-40 18q-34 11 -58.5 23t-53 33.5t-46.5 47.5t-30 66t-12 90q0 121 71.5 191.5t174.5 70.5q87 0 153 -58l-59 -80q-43 39 -86 39q-58 0 -93 -44.5t-35 -118.5q0 -37 8.5 -64.5t27 -45.5t39 -29.5t51.5 -21.5 q71 -24 97 -52.5t26 -87.5q0 -29 -17 -74t-48 -90z" />
<glyph unicode="&#x3c3;" horiz-adv-x="593" d="M284 -13q-103 0 -172 71t-69 196q0 66 20.5 118t55.5 84t78.5 48t91.5 16h292v-101q-106 9 -156 10v-4q44 -25 67.5 -74t23.5 -115q0 -114 -65 -181.5t-167 -67.5zM285 87q35 0 60.5 19t40 55.5t14.5 86.5q0 72 -31 122.5t-83 50.5q-54 0 -85.5 -42t-31.5 -125 q0 -77 32 -122t84 -45z" />
<glyph unicode="&#x3c4;" horiz-adv-x="504" d="M318 -13q-69 0 -98 39.5t-29 115.5v282h-163v91l76 5h373v-96h-166q-5 -139 -5 -288q0 -49 42 -49q23 0 55 8l17 -92q-52 -16 -102 -16z" />
<glyph unicode="&#x3c5;" horiz-adv-x="552" d="M269 -13q-103 0 -156 56t-53 158q0 29 2.5 84.5t2.5 83.5q0 89 -11 151h119q8 -41 8 -125q0 -23 -3 -95t-3 -107q0 -36 13 -60.5t34 -35t48 -10.5q51 0 79 43.5t28 131.5q0 122 -38 245l119 26q42 -139 42 -266q0 -133 -61 -206.5t-170 -73.5z" />
<glyph unicode="&#x3c6;" horiz-adv-x="752" d="M169 261q0 -80 42 -127t109 -51v355q-67 -3 -109 -50t-42 -127zM583 261q0 81 -41 127.5t-110 49.5v-355q68 4 109.5 51t41.5 127zM320 -189v179q-74 4 -135.5 35t-101.5 93t-40 143t40 142.5t101.5 92.5t135.5 34v132h112v-132q75 -3 136.5 -34t101 -92.5t39.5 -142.5 t-40 -143t-101.5 -93t-135.5 -35v-179h-112z" />
<glyph unicode="&#x3c7;" horiz-adv-x="534" d="M135 -201l-125 12l201 363l-200 332l120 27l139 -251h5l112 238h127l-181 -343l212 -350l-120 -28l-150 277h-5z" />
<glyph unicode="&#x3c8;" horiz-adv-x="764" d="M324 -189v176q-133 3 -196 72.5t-63 184.5v125q0 88 -10 151h119q8 -48 8 -125q0 -26 -1 -84.5t-1 -75.5q0 -33 8.5 -59.5t25 -47.5t45 -32t65.5 -11v577h112v-577q50 1 83 22t50.5 65t17.5 113q0 103 -38 222l118 26q43 -124 43 -243q0 -144 -71 -222t-203 -81v-176 h-112z" />
<glyph unicode="&#x3c9;" horiz-adv-x="767" d="M241 -13q-58 0 -101 30t-67 91t-24 147q0 72 24 144.5t64 133.5l113 -45q-44 -68 -65 -127t-21 -129q0 -45 10 -77.5t28.5 -50t44.5 -17.5q37 0 59 28t22 85q0 42 -11 139h130q-10 -97 -10 -139q0 -113 77 -113q37 0 59.5 42.5t22.5 121.5q0 48 -7.5 86.5t-23.5 73.5 t-43 80l111 42q42 -66 64 -130t22 -144q0 -132 -49.5 -202t-139.5 -70q-48 0 -87 24t-58 73h-4q-39 -97 -140 -97z" />
<glyph unicode="&#x3ca;" horiz-adv-x="298" d="M202 -13q-45 0 -73.5 19t-40 51t-11.5 80v383h124q-8 -347 -8 -390t39 -43q16 0 33 6l15 -91q-34 -15 -78 -15zM30 613q-28 0 -46.5 18.5t-18.5 46t18.5 46t46.5 18.5q18 0 33 -8.5t23 -23.5t8 -33q0 -27 -18 -45.5t-46 -18.5zM248 613q-28 0 -46.5 18.5t-18.5 46 t18.5 46t46.5 18.5q18 0 33 -8.5t23.5 -23.5t8.5 -33q0 -27 -18.5 -45.5t-46.5 -18.5z" />
<glyph unicode="&#x3cb;" horiz-adv-x="552" d="M269 -13q-103 0 -156 56t-53 158q0 29 2.5 84.5t2.5 83.5q0 89 -11 151h119q8 -41 8 -125q0 -23 -3 -95t-3 -107q0 -36 13 -60.5t34 -35t48 -10.5q51 0 79 43.5t28 131.5q0 122 -38 245l119 26q42 -139 42 -266q0 -133 -61 -206.5t-170 -73.5zM160 613q-28 0 -46.5 18.5 t-18.5 45.5q0 18 8.5 33t23.5 23.5t33 8.5q28 0 46.5 -18.5t18.5 -46t-18.5 -46t-46.5 -18.5zM378 613q-28 0 -46 18.5t-18 45.5q0 14 4.5 26t13 20.5t20.5 13.5t26 5q19 0 33.5 -8.5t23 -23.5t8.5 -33q0 -27 -18.5 -45.5t-46.5 -18.5z" />
<glyph unicode="&#x3cc;" horiz-adv-x="576" d="M288 -13q-49 0 -93.5 18.5t-78 52.5t-53.5 86.5t-20 115.5q0 126 71 199.5t174.5 73.5t174 -73.5t70.5 -199.5q0 -125 -71 -199t-174 -74zM288.5 87q57.5 0 88.5 46t31 126.5t-31 127.5t-89 47q-29 0 -51.5 -12.5t-37.5 -35.5t-22.5 -55t-7.5 -71q0 -81 31 -127t88.5 -46 zM244 605l40 224l122 -21l-80 -219z" />
<glyph unicode="&#x3cd;" horiz-adv-x="552" d="M269 -13q-103 0 -156 56t-53 158q0 29 2.5 84.5t2.5 83.5q0 89 -11 151h119q8 -41 8 -125q0 -23 -3 -95t-3 -107q0 -36 13 -60.5t34 -35t48 -10.5q51 0 79 43.5t28 131.5q0 122 -38 245l119 26q42 -139 42 -266q0 -133 -61 -206.5t-170 -73.5zM223 605l40 224l122 -21 l-80 -219z" />
<glyph unicode="&#x3ce;" horiz-adv-x="767" d="M241 -13q-58 0 -101 30t-67 91t-24 147q0 72 24 144.5t64 133.5l113 -45q-44 -68 -65 -127t-21 -129q0 -45 10 -77.5t28.5 -50t44.5 -17.5q37 0 59 28t22 85q0 42 -11 139h130q-10 -97 -10 -139q0 -113 77 -113q37 0 59.5 42.5t22.5 121.5q0 48 -7.5 86.5t-23.5 73.5 t-43 80l111 42q42 -66 64 -130t22 -144q0 -132 -49.5 -202t-139.5 -70q-48 0 -87 24t-58 73h-4q-39 -97 -140 -97zM337 605l40 224l122 -21l-79 -219z" />
<glyph unicode="&#x3d0;" horiz-adv-x="610" d="M331 -13q-48 0 -92 14.5t-81.5 44t-60 82t-22.5 121.5v258q0 114 56.5 183t166.5 69q56 0 102.5 -19t77.5 -62t31 -105q0 -116 -113 -167v-4q52 -6 91.5 -33t60.5 -69.5t21 -93.5q0 -104 -67.5 -161.5t-170.5 -57.5zM193 496q-1 -17 -1.5 -49t-0.5 -47q112 24 156 64 t44 98q0 49 -24.5 74t-63.5 25q-34 0 -58 -19t-37 -56t-15 -90zM326 93q54 0 88 32.5t34 87.5t-32 91t-96 36q-31 0 -130 -29v-49q0 -47 13 -81.5t34.5 -52.5t43.5 -26.5t45 -8.5z" />
<glyph unicode="&#x3d1;" horiz-adv-x="568" d="M175 558q0 -31 9.5 -55.5t32 -45.5t67 -29t107.5 -1q-3 86 -20.5 139.5t-44 75t-63.5 19.5q-20 0 -36.5 -7.5t-27.5 -21.5t-17.5 -33t-6.5 -41zM282 -13q-98 0 -147 51t-49 144q0 87 -9 122h115q9 -21 9 -105q0 -61 22.5 -86.5t63.5 -25.5q24 0 41.5 11t32 39t22.5 80.5 t9 131.5q-66 -6 -116 -2t-87 21t-61.5 38.5t-39 49.5t-21 53.5t-6.5 52.5q0 56 26 102t71 71.5t100 25.5q123 0 188 -98t65 -284q0 -204 -58 -298t-171 -94z" />
<glyph unicode="&#x3d5;" horiz-adv-x="752" d="M321 -189v179q-76 3 -137.5 34t-101 93.5t-39.5 147.5q0 72 30.5 143.5t81.5 131.5l100 -71q-45 -55 -66.5 -105t-21.5 -111q0 -75 40.5 -120.5t113.5 -49.5v211q0 121 49 180t130 59q96 0 152.5 -69t56.5 -189q0 -64 -22.5 -117.5t-61 -89t-88 -55.5t-103.5 -23 q1 -61 5 -179h-118zM430 306q0 -148 1 -223q71 5 111.5 52t40.5 132q0 80 -24 122.5t-63 42.5q-30 0 -48 -31.5t-18 -94.5z" />
<glyph unicode="&#x3d7;" horiz-adv-x="551" d="M416 -198l-144 9q89 94 146 181q-78 97 -150 237q-8 -11 -27 -34q-48 -55 -48 -166v-29h-116v369q0 95 -10 151h121q9 -39 9 -125v-129h4q65 107 142 179t159 88l11 -114q-81 -22 -167 -107q39 -79 97.5 -165.5t112.5 -146.5q-74 -118 -140 -198z" />
<glyph unicode="&#x3d9;" horiz-adv-x="576" d="M288 82q58 0 89 47t31 131q0 80 -31 127t-89 47q-29 0 -51.5 -12.5t-37.5 -35.5t-22.5 -55t-7.5 -71q0 -84 30.5 -131t88.5 -47zM232 -189v183q-83 19 -136 89t-53 177q0 126 71 199.5t174.5 73.5t174 -73.5t70.5 -199.5q0 -105 -51.5 -175t-132.5 -90q1 -33 3.5 -92.5 t3.5 -91.5h-124z" />
<glyph unicode="&#x3db;" horiz-adv-x="506" d="M389 -197l-96 35q27 34 38.5 54t11.5 37q0 22 -16.5 36.5t-66.5 27.5q-45 11 -82 30t-68 50t-49 77t-18 104q0 131 75 198.5t194 67.5h167v-101q-47 2 -159 2q-71 0 -111 -41.5t-40 -125.5q0 -34 9 -60.5t28.5 -46t46.5 -32.5t64 -23q77 -19 106 -48t29 -82 q0 -28 -17 -72.5t-46 -86.5z" />
<glyph unicode="&#x3dd;" horiz-adv-x="448" d="M77 -189v709h344v-96h-230l2 -199h207v-83h-205q0 -149 6 -331h-124z" />
<glyph unicode="&#x3e1;" horiz-adv-x="548" d="M509 -191l-120 15q19 94 19 196q0 52 -6 101q-118 -55 -247 -122l-50 103l278 124q-17 60 -40 112q-128 -57 -279 -136l-50 102l281 125q-84 133 -222 218l79 90q181 -118 278.5 -306.5t97.5 -411.5q0 -103 -19 -210z" />
<glyph unicode="&#x4d8;" horiz-adv-x="707" d="M352 -13q-137 0 -216 94.5t-79 261.5q0 7 1.5 22t1.5 18h472q-13 222 -189 222q-86 0 -161 -67l-57 84q91 84 231 84q68 0 123 -23.5t94.5 -68t60.5 -112.5t21 -154q0 -172 -82 -266.5t-221 -94.5zM352 88q75 0 121.5 51.5t56.5 152.5h-347q5 -100 49.5 -152t119.5 -52z " />
<glyph unicode="&#x2000;" horiz-adv-x="495" />
<glyph unicode="&#x2001;" horiz-adv-x="991" />
<glyph unicode="&#x2002;" horiz-adv-x="495" />
<glyph unicode="&#x2003;" horiz-adv-x="991" />
<glyph unicode="&#x2004;" horiz-adv-x="330" />
<glyph unicode="&#x2005;" horiz-adv-x="247" />
<glyph unicode="&#x2006;" horiz-adv-x="165" />
<glyph unicode="&#x2007;" horiz-adv-x="165" />
<glyph unicode="&#x2008;" horiz-adv-x="123" />
<glyph unicode="&#x2009;" horiz-adv-x="198" />
<glyph unicode="&#x200a;" horiz-adv-x="55" />
<glyph unicode="&#x2010;" horiz-adv-x="341" d="M45 223v89h252v-89h-252z" />
<glyph unicode="&#x2011;" horiz-adv-x="341" d="M45 223v89h252v-89h-252z" />
<glyph unicode="&#x2012;" horiz-adv-x="341" d="M45 223v89h252v-89h-252z" />
<glyph unicode="&#x2013;" horiz-adv-x="508" d="M45 227v80h419v-80h-419z" />
<glyph unicode="&#x2014;" horiz-adv-x="848" d="M45 227v80h758v-80h-758z" />
<glyph unicode="&#x2018;" horiz-adv-x="291" d="M142 405q-26 0 -44.5 14t-28.5 40.5t-10 63.5q0 138 132 207l29 -54q-22 -13 -38 -26.5t-27.5 -29.5t-17 -35t-5.5 -42q4 1 10 1q30 0 50 -18t20 -48q0 -33 -19.5 -53t-50.5 -20z" />
<glyph unicode="&#x2019;" horiz-adv-x="291" d="M101 414l-30 55q45 26 66.5 57t21.5 76q-3 -1 -10 -1q-29 0 -48.5 18t-19.5 48q0 16 5 30t14 23t21.5 14.5t27.5 5.5q41 0 62.5 -31t21.5 -87q0 -139 -132 -208z" />
<glyph unicode="&#x201a;" horiz-adv-x="291" d="M101 -166l-30 54q45 26 66.5 57t21.5 76q-3 -1 -10 -1q-29 0 -48.5 18t-19.5 48q0 22 8.5 38.5t24 25.5t35.5 9q41 0 62.5 -31t21.5 -87q0 -139 -132 -207z" />
<glyph unicode="&#x201c;" horiz-adv-x="510" d="M142 405q-26 0 -44.5 14t-28.5 40.5t-10 63.5q0 138 132 207l29 -54q-22 -13 -38 -26.5t-27.5 -29.5t-17 -35t-5.5 -42q4 1 10 1q30 0 50 -18t20 -48q0 -33 -19.5 -53t-50.5 -20zM361 405q-39 0 -60.5 31t-21.5 87q0 138 131 207l30 -54q-45 -26 -66.5 -57t-21.5 -76 q3 1 9 1q30 0 50 -18t20 -48q0 -33 -19.5 -53t-50.5 -20z" />
<glyph unicode="&#x201d;" horiz-adv-x="510" d="M101 414l-30 55q45 26 66.5 57t21.5 76q-3 -1 -10 -1q-29 0 -48.5 18t-19.5 48q0 16 5 30t14 23t21.5 14.5t27.5 5.5q41 0 62.5 -31t21.5 -87q0 -139 -132 -208zM320 414l-30 55q46 26 67 57t21 76q-3 -1 -9 -1q-29 0 -49 18t-20 48q0 22 9 38.5t24.5 25.5t35.5 9 q40 0 62 -31t22 -87q0 -139 -133 -208z" />
<glyph unicode="&#x201e;" horiz-adv-x="510" d="M101 -166l-30 54q45 26 66.5 57t21.5 76q-3 -1 -10 -1q-29 0 -48.5 18t-19.5 48q0 22 8.5 38.5t24 25.5t35.5 9q41 0 62.5 -31t21.5 -87q0 -139 -132 -207zM320 -166l-30 54q46 26 67 57t21 76q-3 -1 -9 -1q-29 0 -49 18t-20 48q0 33 19 53t50 20q40 0 62 -31t22 -87 q0 -139 -133 -207z" />
<glyph unicode="&#x2020;" horiz-adv-x="510" d="M206 -85l7 577l-161 -7v100l161 -7l-7 177h99l-6 -177l161 7v-100l-161 7l6 -577h-99z" />
<glyph unicode="&#x2021;" horiz-adv-x="510" d="M206 -85l7 177l-161 -7v99l161 -9l-7 160l7 160l-161 -10v100l161 -7l-7 177h99l-6 -177l161 7v-100l-161 10l6 -160l-6 -160l161 9v-99l-161 7l6 -177h-99z" />
<glyph unicode="&#x2022;" horiz-adv-x="344" d="M172 141q-54 0 -92 39t-38 99q0 39 17.5 70.5t47.5 49.5t65 18q54 0 92 -39.5t38 -98.5q0 -60 -37.5 -99t-92.5 -39z" />
<glyph unicode="&#x2026;" horiz-adv-x="1021" d="M170 -13q-22 0 -40.5 11t-29 30t-10.5 42q0 35 23 59t56.5 24t56 -23.5t22.5 -59.5t-22.5 -59.5t-55.5 -23.5zM523 -13q-22 0 -40.5 11t-29 30t-10.5 42q0 35 23 59t56.5 24t56 -23.5t22.5 -59.5q0 -24 -10.5 -42.5t-28 -29.5t-39.5 -11zM875.5 -13q-33.5 0 -56.5 23.5 t-23 59t23 59.5t56.5 24t56 -23.5t22.5 -59.5t-22.5 -59.5t-56 -23.5z" />
<glyph unicode="&#x202f;" horiz-adv-x="198" />
<glyph unicode="&#x2030;" horiz-adv-x="1295" d="M217 -13l379 719h74l-377 -719h-76zM197 267q-74 0 -119.5 58.5t-45.5 162.5q0 102 45.5 160t120 58t120 -58t45.5 -160q0 -69 -21.5 -119.5t-58.5 -76t-86 -25.5zM197 338q35 0 56.5 37.5t21.5 112.5q0 50 -10.5 83.5t-27.5 48.5t-40 15q-17 0 -31 -8.5t-24.5 -26 t-16 -46t-5.5 -66.5q0 -75 21 -112.5t56 -37.5zM693.5 -13q-74.5 0 -120 59t-45.5 162q0 68 21 117.5t58 75t86 25.5q75 0 120.5 -58t45.5 -160q0 -103 -45.5 -162t-120 -59zM693 58q35 0 56.5 37.5t21.5 112.5q0 74 -21 110.5t-57 36.5q-23 0 -40 -14.5t-27 -48.5t-10 -84 q0 -75 21 -112.5t56 -37.5zM1098.5 -13q-74.5 0 -120 59t-45.5 162q0 102 45.5 160t120 58t120 -58t45.5 -160q0 -103 -45.5 -162t-120 -59zM1098 58q23 0 40 15.5t27.5 49.5t10.5 85q0 74 -21.5 110.5t-56.5 36.5q-23 0 -40 -14.5t-27 -48.5t-10 -84q0 -75 21 -112.5 t56 -37.5z" />
<glyph unicode="&#x2039;" horiz-adv-x="298" d="M193 65l-143 158v89l143 158l49 -40l-122 -163l122 -164z" />
<glyph unicode="&#x203a;" horiz-adv-x="298" d="M105 65l-48 38l121 164l-121 163l48 40l144 -158v-89z" />
<glyph unicode="&#x2044;" horiz-adv-x="96" d="M-179 -13l378 719h74l-377 -719h-75z" />
<glyph unicode="&#x205f;" horiz-adv-x="247" />
<glyph unicode="&#x20ac;" d="M348 -13q-99 0 -168 66t-90 185h-67v60l61 4q-1 11 -1 33q0 21 1 31h-61v59l67 4q21 122 93 190t177 68q24 0 47.5 -6t44.5 -16.5t40 -26t34 -34.5l-69 -67q-47 54 -100 54q-57 0 -94 -42t-50 -119h248v-64h-254q-1 -9 -1 -27q0 -24 1 -36h212v-65h-205q15 -74 51 -114.5 t90 -40.5q63 0 111 66l69 -63q-77 -99 -187 -99z" />
<glyph unicode="&#x2122;" horiz-adv-x="699" d="M102 386v255h-99v76h281v-76h-100v-255h-82zM332 386v331h96l46 -114l26 -77h5l26 77l45 114h96v-331h-76v123l9 116h-4l-69 -189h-60l-69 189h-4l9 -116v-123h-76z" />
<glyph unicode="&#x2202;" horiz-adv-x="586" d="M247 -13q-83 0 -141.5 57t-58.5 150q0 70 28 124.5t80.5 85t120.5 30.5q84 0 146 -70v28q0 214 -132 214q-62 0 -113 -51l-54 77q81 74 180 74q114 0 174.5 -79.5t60.5 -231.5q0 -183 -80.5 -295.5t-210.5 -112.5zM261 87q55 0 94.5 45.5t56.5 135.5q-52 71 -124 71 q-61 0 -94.5 -36.5t-33.5 -102.5q0 -52 29 -82.5t72 -30.5z" />
<glyph unicode="&#x2206;" horiz-adv-x="650" d="M34 0v74l219 619h146l218 -619v-74h-583zM166 104h316l-90 274l-67 216h-4l-66 -216z" />
<glyph unicode="&#x220f;" horiz-adv-x="733" d="M89 -127v801h555v-801h-124v694h-308v-694h-123z" />
<glyph unicode="&#x2211;" horiz-adv-x="551" d="M25 -127v74l236 326l-224 327v74h479v-103h-329v-4l201 -294l-210 -292v-4h366v-104h-519z" />
<glyph unicode="&#x221a;" horiz-adv-x="607" d="M296 -93l-159 445l-78 -33l-23 60l163 69l114 -339q14 -48 20 -77h4q9 54 15 77l177 760h84l-229 -962h-88z" />
<glyph unicode="&#x221e;" horiz-adv-x="845" d="M610 138q-66 0 -115.5 30.5t-100.5 96.5h-4q-85 -104 -179 -104q-70 0 -120.5 53t-50.5 125q0 93 52 147t136 54q99 0 177 -104h4q91 120 205 120q82 0 137 -56t55 -142q0 -100 -56 -160t-140 -60zM223 252q68 0 125 83q-65 91 -130 91q-39 0 -62.5 -22.5t-23.5 -60.5 t25.5 -64.5t65.5 -26.5zM610 251q47 0 75 30t28 74q0 51 -30 81t-81 30q-79 0 -150 -100q43 -58 78.5 -86.5t79.5 -28.5z" />
<glyph unicode="&#x222b;" horiz-adv-x="383" d="M105 -167q-30 0 -55 7l13 90q12 -4 37 -4q28 0 43 17.5t20.5 49t5.5 88.5q0 78 -21.5 249.5t-21.5 254.5q0 46 4 81.5t15.5 69t30.5 55t50.5 34t73.5 12.5q38 0 55 -7l-13 -90q-12 4 -37 4q-27 0 -42 -18t-20.5 -49.5t-5.5 -87.5q0 -78 21 -249t21 -255q0 -47 -4.5 -82.5 t-15.5 -68.5t-30.5 -54.5t-50.5 -34t-73 -12.5z" />
<glyph unicode="&#x2248;" d="M364 382q-29 0 -57 13t-46 29t-40.5 29t-42.5 13q-44 0 -78 -62l-66 49q64 102 146 102q29 0 57 -13t46 -29t40.5 -29t42.5 -13q44 0 78 62l65 -50q-63 -101 -145 -101zM364 144q-29 0 -57 13.5t-46 29t-40.5 29t-42.5 13.5q-44 0 -78 -63l-66 49q64 103 146 103 q29 0 57 -13t46 -29t40.5 -29.5t42.5 -13.5q44 0 78 63l65 -50q-63 -102 -145 -102z" />
<glyph unicode="&#x2260;" d="M59 55l79 132h-102v89h152l87 148h-239v89h288l79 131h81l-78 -131h102v-89h-152l-87 -148h239v-89h-289l-78 -132h-82z" />
<glyph unicode="&#x2264;" d="M508 162l-472 157v104l472 157v-103l-203 -63l-145 -41v-4l145 -41l203 -63v-103zM36 0v88h472v-88h-472z" />
<glyph unicode="&#x2265;" d="M36 162v103l202 63l146 41v4l-146 41l-202 63v103l472 -157v-104zM36 0v88h472v-88h-472z" />
<glyph unicode="&#x25ca;" horiz-adv-x="564" d="M231 -11l-174 361l174 360h103l174 -360l-174 -361h-103zM280 92h4l62 134l58 124l-58 123l-62 134h-4l-62 -134l-57 -123l57 -124z" />
<glyph unicode="&#x25fc;" horiz-adv-x="519" d="M0 519h519v-519h-519v519z" />
<glyph unicode="&#xfb01;" horiz-adv-x="631" d="M99 0v424h-70v91l70 5v55q0 55 17 96t56.5 65.5t98.5 24.5q52 0 96 -18l-24 -91q-28 13 -57 13q-66 0 -66 -88v-57h102v-96h-102v-424h-121zM432 0v520h122v-520h-122zM494 612q-33 0 -54 19t-21 50q0 30 21 49.5t54 19.5t54 -19.5t21 -49.5q0 -31 -21 -50t-54 -19z" />
<glyph unicode="&#xfb02;" horiz-adv-x="623" d="M99 0v424h-70v91l70 5v55q0 55 17 96t56.5 65.5t98.5 24.5q52 0 96 -18l-24 -91q-28 13 -57 13q-66 0 -66 -88v-57h102v-96h-102v-424h-121zM532 -13q-119 0 -119 147v614h122v-621q0 -20 8 -30t19 -10q9 0 19 2l16 -91q-25 -11 -65 -11z" />
</font>
</defs>
</svg>
