<?xml version="1.0" encoding="utf-8"?>
<svg version="1.1" id="Layer_1" xmlns="http://www.w3.org/2000/svg" xmlns:xlink="http://www.w3.org/1999/xlink" x="0px" y="0px"
	 viewBox="0 0 100 100" style="enable-background:new 0 0 100 100;" xml:space="preserve">
<style type="text/css">
	.st0{fill:url(#SVGID_1_);}
	.st1{fill:url(#SVGID_2_);}
	.st2{fill:url(#SVGID_3_);}
	.st3{fill:#FFFFFF;}
	.st4{fill:#1A73E8;}
</style>
<linearGradient id="SVGID_1_" gradientUnits="userSpaceOnUse" x1="6.69" y1="-139.6069" x2="93.29" y2="-139.6069" gradientTransform="matrix(1 0 0 -1 0 -100.11)">
	<stop  offset="0" style="stop-color:#D93025"/>
	<stop  offset="1" style="stop-color:#EA4335"/>
</linearGradient>
<path class="st0" d="M93.3,25C79.5,1.1,48.9-7.1,25,6.7C17.4,11.1,11.1,17.4,6.7,25l3,54L93.3,25z"/>
<linearGradient id="SVGID_2_" gradientUnits="userSpaceOnUse" x1="68.3717" y1="-189.5034" x2="25.0717" y2="-114.5034" gradientTransform="matrix(1 0 0 -1 0 -100.11)">
	<stop  offset="0" style="stop-color:#1E8E3E"/>
	<stop  offset="1" style="stop-color:#34A853"/>
</linearGradient>
<path class="st1" d="M28.4,62.5L6.7,25C-7.1,48.9,1.1,79.5,25,93.3c7.6,4.4,16.2,6.7,25,6.7l49-50L28.4,62.5z"/>
<linearGradient id="SVGID_3_" gradientUnits="userSpaceOnUse" x1="42.7247" y1="-200.1243" x2="86.0247" y2="-125.2543" gradientTransform="matrix(1 0 0 -1 0 -100.11)">
	<stop  offset="0" style="stop-color:#FCC934"/>
	<stop  offset="1" style="stop-color:#FBBC04"/>
</linearGradient>
<path class="st2" d="M71.7,62.5L50,100c27.6,0,50-22.4,50-50c0-8.8-2.3-17.4-6.7-25H50L71.7,62.5z"/>
<path class="st3" d="M50,75c13.8,0,25-11.2,25-25S63.8,25,50,25S25,36.2,25,50S36.2,75,50,75z"/>
<path class="st4" d="M50,69.8c10.9,0,19.8-8.9,19.8-19.8S60.9,30.2,50,30.2c0,0,0,0,0,0c-10.9,0-19.8,8.9-19.8,19.8
	C30.2,60.9,39.1,69.8,50,69.8z"/>
</svg>