<?xml version="1.0" encoding="utf-8"?>
<svg version="1.1" id="Layer_1" xmlns="http://www.w3.org/2000/svg" xmlns:xlink="http://www.w3.org/1999/xlink" x="0px" y="0px"
	 viewBox="0 0 80 80" style="enable-background:new 0 0 80 80;" xml:space="preserve">
<style type="text/css">
	.st0{fill:url(#SVGID_1_);}
	.st1{fill:url(#SVGID_2_);}
	.st2{fill:url(#SVGID_3_);}
	.st3{fill:url(#SVGID_4_);}
	.st4{fill:url(#SVGID_5_);}
	.st5{fill:url(#SVGID_6_);}
	.st6{fill:url(#SVGID_7_);}
	.st7{fill:url(#SVGID_8_);}
	.st8{fill:url(#SVGID_9_);}
	.st9{fill:url(#SVGID_10_);}
	.st10{fill:url(#SVGID_11_);}
	.st11{fill:url(#SVGID_12_);}
</style>
<linearGradient id="SVGID_1_" gradientUnits="userSpaceOnUse" x1="72.0505" y1="-92.4274" x2="7.7075" y2="-154.5074" gradientTransform="matrix(1 0 0 -1 -1.3 -80.0541)">
	<stop  offset="4.800000e-02" style="stop-color:#FFF44F"/>
	<stop  offset="0.111" style="stop-color:#FFE847"/>
	<stop  offset="0.225" style="stop-color:#FFC830"/>
	<stop  offset="0.368" style="stop-color:#FF980E"/>
	<stop  offset="0.401" style="stop-color:#FF8B16"/>
	<stop  offset="0.462" style="stop-color:#FF672A"/>
	<stop  offset="0.534" style="stop-color:#FF3647"/>
	<stop  offset="0.705" style="stop-color:#E31587"/>
</linearGradient>
<path class="st0" d="M75.9,26.8c-1.7-4.1-5.1-8.4-7.8-9.8c1.9,3.7,3.2,7.7,3.9,11.8l0,0.1C67.7,17.9,60.2,13.5,54.2,3.9
	c-0.3-0.5-0.6-1-0.9-1.5c-0.2-0.3-0.3-0.6-0.4-0.8c-0.3-0.5-0.4-1-0.6-1.5c0-0.1,0-0.1-0.1-0.1c0,0,0,0-0.1,0c0,0,0,0,0,0s0,0,0,0
	l0,0c-9.7,5.7-13,16.2-13.3,21.5c-3.9,0.3-7.6,1.7-10.7,4.1c-0.3-0.3-0.7-0.5-1-0.8c-0.9-3.1-0.9-6.4-0.1-9.5
	c-3.6,1.7-6.8,4.2-9.3,7.2h0c-1.5-1.9-1.4-8.4-1.3-9.7c-0.5,0.2-0.9,0.4-1.3,0.7c-1.4,1-2.6,2.1-3.8,3.2c-1.3,1.3-2.5,2.8-3.6,4.3v0
	v0c-2.5,3.5-4.3,7.5-5.2,11.7l-0.1,0.3c-0.1,0.3-0.3,2-0.4,2.4c0,0,0,0.1,0,0.1c-0.3,1.8-0.5,3.5-0.6,5.3v0.2
	c0,21.4,17.4,38.7,38.8,38.7c18.8,0,34.9-13.6,38.1-32.1c0.1-0.5,0.1-1,0.2-1.5C79.2,39.7,78.3,33,75.9,26.8L75.9,26.8z M31.2,57.2
	c0.2,0.1,0.4,0.2,0.5,0.3l0,0C31.6,57.4,31.4,57.3,31.2,57.2z M72.1,28.9L72.1,28.9L72.1,28.9L72.1,28.9z"/>
<radialGradient id="SVGID_2_" cx="-7905.7275" cy="8434.9502" r="80.8" gradientTransform="matrix(1 0 0 -1 7974 8443.9502)" gradientUnits="userSpaceOnUse">
	<stop  offset="0.129" style="stop-color:#FFBD4F"/>
	<stop  offset="0.186" style="stop-color:#FFAC31"/>
	<stop  offset="0.247" style="stop-color:#FF9D17"/>
	<stop  offset="0.283" style="stop-color:#FF980E"/>
	<stop  offset="0.403" style="stop-color:#FF563B"/>
	<stop  offset="0.467" style="stop-color:#FF3750"/>
	<stop  offset="0.71" style="stop-color:#F5156C"/>
	<stop  offset="0.782" style="stop-color:#EB0878"/>
	<stop  offset="0.86" style="stop-color:#E50080"/>
</radialGradient>
<path class="st1" d="M75.9,26.8c-1.7-4.1-5.1-8.4-7.8-9.8c1.9,3.7,3.2,7.7,3.9,11.8v0l0,0c3,8.5,2.6,17.9-1.2,26.2
	c-4.4,9.5-15.2,19.3-32,18.8c-18.2-0.5-34.2-14-37.2-31.7c-0.5-2.8,0-4.2,0.3-6.5c-0.4,1.8-0.6,3.5-0.6,5.3v0.2
	c0,21.4,17.4,38.7,38.8,38.7c18.8,0,34.9-13.6,38.1-32.1c0.1-0.5,0.1-1,0.2-1.5C79.2,39.7,78.3,33,75.9,26.8L75.9,26.8z"/>
<radialGradient id="SVGID_3_" cx="-7935.7275" cy="8401.9502" r="80.8" gradientTransform="matrix(1 0 0 -1 7974 8443.9502)" gradientUnits="userSpaceOnUse">
	<stop  offset="0.3" style="stop-color:#960E18"/>
	<stop  offset="0.351" style="stop-color:#B11927;stop-opacity:0.74"/>
	<stop  offset="0.435" style="stop-color:#DB293D;stop-opacity:0.343"/>
	<stop  offset="0.497" style="stop-color:#F5334B;stop-opacity:9.400000e-02"/>
	<stop  offset="0.53" style="stop-color:#FF3750;stop-opacity:0"/>
</radialGradient>
<path class="st2" d="M75.9,26.8c-1.7-4.1-5.1-8.4-7.8-9.8c1.9,3.7,3.2,7.7,3.9,11.8v0l0,0c3,8.5,2.6,17.9-1.2,26.2
	c-4.4,9.5-15.2,19.3-32,18.8c-18.2-0.5-34.2-14-37.2-31.7c-0.5-2.8,0-4.2,0.3-6.5c-0.4,1.8-0.6,3.5-0.6,5.3v0.2
	c0,21.4,17.4,38.7,38.8,38.7c18.8,0,34.9-13.6,38.1-32.1c0.1-0.5,0.1-1,0.2-1.5C79.2,39.7,78.3,33,75.9,26.8L75.9,26.8z"/>
<radialGradient id="SVGID_4_" cx="-7925.7275" cy="8452.9502" r="58.53" gradientTransform="matrix(1 0 0 -1 7974 8443.9502)" gradientUnits="userSpaceOnUse">
	<stop  offset="0.132" style="stop-color:#FFF44F"/>
	<stop  offset="0.252" style="stop-color:#FFDC3E"/>
	<stop  offset="0.506" style="stop-color:#FF9D12"/>
	<stop  offset="0.526" style="stop-color:#FF980E"/>
</radialGradient>
<path class="st3" d="M57.1,31.4c0.1,0.1,0.2,0.1,0.2,0.2c-1-1.7-2.2-3.3-3.6-4.7C41.6,14.8,50.5,0.7,52,0l0,0
	c-9.7,5.7-13,16.3-13.3,21.5c0.5,0,0.9-0.1,1.4-0.1C47.1,21.5,53.6,25.3,57.1,31.4L57.1,31.4z"/>
<radialGradient id="SVGID_5_" cx="-7944.7275" cy="8380.9502" r="38.47" gradientTransform="matrix(1 0 0 -1 7974 8443.9502)" gradientUnits="userSpaceOnUse">
	<stop  offset="0.353" style="stop-color:#3A8EE6"/>
	<stop  offset="0.472" style="stop-color:#5C79F0"/>
	<stop  offset="0.669" style="stop-color:#9059FF"/>
	<stop  offset="1" style="stop-color:#C139E6"/>
</radialGradient>
<path class="st4" d="M40.1,33.8c-0.1,1-3.5,4.3-4.7,4.3c-11,0-12.8,6.7-12.8,6.7c0.5,5.6,4.4,10.2,9.1,12.7c0.2,0.1,0.4,0.2,0.7,0.3
	c0.4,0.2,0.8,0.3,1.1,0.5c1.6,0.6,3.3,0.9,5,1c19.3,0.9,23.1-23.1,9.1-30.1c3.3-0.4,6.6,0.4,9.3,2.3c-3.5-6.1-9.9-9.9-17-9.9
	c-0.5,0-0.9,0-1.4,0.1c-3.9,0.3-7.6,1.7-10.7,4.1c0.6,0.5,1.3,1.2,2.7,2.6C33.3,30.8,40.1,33.5,40.1,33.8L40.1,33.8z"/>
<radialGradient id="SVGID_6_" cx="-8050.2598" cy="8438.167" r="20.4" gradientTransform="matrix(0.972 -0.235 -0.275 -1.138 10187.5293 7745.8867)" gradientUnits="userSpaceOnUse">
	<stop  offset="0.206" style="stop-color:#9059FF;stop-opacity:0"/>
	<stop  offset="0.278" style="stop-color:#8C4FF3;stop-opacity:6.400000e-02"/>
	<stop  offset="0.747" style="stop-color:#7716A8;stop-opacity:0.45"/>
	<stop  offset="0.975" style="stop-color:#6E008B;stop-opacity:0.6"/>
</radialGradient>
<path class="st5" d="M40.1,33.8c-0.1,1-3.5,4.3-4.7,4.3c-11,0-12.8,6.7-12.8,6.7c0.5,5.6,4.4,10.2,9.1,12.7c0.2,0.1,0.4,0.2,0.7,0.3
	c0.4,0.2,0.8,0.3,1.1,0.5c1.6,0.6,3.3,0.9,5,1c19.3,0.9,23.1-23.1,9.1-30.1c3.3-0.4,6.6,0.4,9.3,2.3c-3.5-6.1-9.9-9.9-17-9.9
	c-0.5,0-0.9,0-1.4,0.1c-3.9,0.3-7.6,1.7-10.7,4.1c0.6,0.5,1.3,1.2,2.7,2.6C33.3,30.8,40.1,33.5,40.1,33.8L40.1,33.8z"/>
<radialGradient id="SVGID_7_" cx="-7936.7275" cy="8437.9502" r="27.68" gradientTransform="matrix(1 0 0 -1 7974 8443.9502)" gradientUnits="userSpaceOnUse">
	<stop  offset="0" style="stop-color:#FFE226"/>
	<stop  offset="0.121" style="stop-color:#FFDB27"/>
	<stop  offset="0.295" style="stop-color:#FFC82A"/>
	<stop  offset="0.502" style="stop-color:#FFA930"/>
	<stop  offset="0.732" style="stop-color:#FF7E37"/>
	<stop  offset="0.792" style="stop-color:#FF7139"/>
</radialGradient>
<path class="st6" d="M26.2,24.4c0.3,0.2,0.6,0.4,0.8,0.5c-0.9-3.1-0.9-6.4-0.1-9.5c-3.6,1.7-6.8,4.2-9.3,7.2
	C17.8,22.6,23.4,22.5,26.2,24.4z"/>
<radialGradient id="SVGID_8_" cx="-7914.7275" cy="8455.9502" r="118.1" gradientTransform="matrix(1 0 0 -1 7974 8443.9502)" gradientUnits="userSpaceOnUse">
	<stop  offset="0.113" style="stop-color:#FFF44F"/>
	<stop  offset="0.456" style="stop-color:#FF980E"/>
	<stop  offset="0.622" style="stop-color:#FF5634"/>
	<stop  offset="0.716" style="stop-color:#FF3647"/>
	<stop  offset="0.904" style="stop-color:#E31587"/>
</radialGradient>
<path class="st7" d="M1.6,42.2c3,17.7,19,31.2,37.2,31.7c16.8,0.5,27.6-9.3,32-18.8c3.8-8.2,4.2-17.6,1.2-26.2v0c0,0,0,0,0,0l0,0.1
	c1.4,9-3.2,17.7-10.3,23.6l0,0c-13.9,11.3-27.2,6.8-29.9,5c-0.2-0.1-0.4-0.2-0.6-0.3c-8.1-3.9-11.5-11.3-10.7-17.6
	c-3.9,0.1-7.5-2.2-9.2-5.8c4.3-2.7,9.7-2.9,14.3-0.6c4.6,2.1,9.8,2.3,14.6,0.6c0-0.3-6.8-3-9.4-5.6c-1.4-1.4-2.1-2.1-2.7-2.6
	c-0.3-0.3-0.7-0.5-1-0.8c-0.2-0.2-0.5-0.3-0.8-0.5c-2.8-1.8-8.4-1.7-8.6-1.7h0c-1.5-1.9-1.4-8.4-1.3-9.7c-0.5,0.2-0.9,0.4-1.3,0.7
	c-1.4,1-2.6,2.1-3.8,3.2c-1.3,1.3-2.5,2.8-3.6,4.3v0v0C5,24.7,3.3,28.7,2.3,32.9C2.3,33,0.9,39,1.6,42.2L1.6,42.2z"/>
<radialGradient id="SVGID_9_" cx="-7699.5923" cy="9222.917" r="86.5" gradientTransform="matrix(0.105 0.995 0.653 -6.900000e-02 -5164.6509 8292.0234)" gradientUnits="userSpaceOnUse">
	<stop  offset="0" style="stop-color:#FFF44F"/>
	<stop  offset="6.000000e-02" style="stop-color:#FFE847"/>
	<stop  offset="0.168" style="stop-color:#FFC830"/>
	<stop  offset="0.304" style="stop-color:#FF980E"/>
	<stop  offset="0.356" style="stop-color:#FF8B16"/>
	<stop  offset="0.455" style="stop-color:#FF672A"/>
	<stop  offset="0.57" style="stop-color:#FF3647"/>
	<stop  offset="0.737" style="stop-color:#E31587"/>
</radialGradient>
<path class="st8" d="M53.7,26.9c1.4,1.4,2.6,3,3.6,4.7c0.2,0.2,0.4,0.3,0.6,0.5c8.8,8.1,4.2,19.5,3.8,20.4
	c7.1-5.9,11.7-14.6,10.3-23.6C67.7,17.9,60.2,13.5,54.2,3.9c-0.3-0.5-0.6-1-0.9-1.5c-0.2-0.3-0.3-0.6-0.4-0.8
	c-0.3-0.5-0.4-1-0.6-1.5c0-0.1,0-0.1-0.1-0.1c0,0,0,0-0.1,0c0,0,0,0,0,0s0,0,0,0C50.5,0.7,41.6,14.8,53.7,26.9L53.7,26.9z"/>
<radialGradient id="SVGID_10_" cx="-7936.7275" cy="8427.9502" r="73.72" gradientTransform="matrix(1 0 0 -1 7974 8443.9502)" gradientUnits="userSpaceOnUse">
	<stop  offset="0.137" style="stop-color:#FFF44F"/>
	<stop  offset="0.48" style="stop-color:#FF980E"/>
	<stop  offset="0.592" style="stop-color:#FF5634"/>
	<stop  offset="0.655" style="stop-color:#FF3647"/>
	<stop  offset="0.904" style="stop-color:#E31587"/>
</radialGradient>
<path class="st9" d="M57.9,32c-0.2-0.2-0.4-0.3-0.6-0.5c-0.1-0.1-0.2-0.1-0.2-0.2c-2.7-1.9-6.1-2.7-9.3-2.3c13.9,7,10.2,31-9.1,30.1
	c-1.7-0.1-3.4-0.4-5-1c-0.4-0.1-0.8-0.3-1.1-0.5c-0.2-0.1-0.4-0.2-0.7-0.3l0,0c2.7,1.8,16,6.3,29.9-5l0,0
	C62.1,51.6,66.7,40.1,57.9,32L57.9,32z"/>
<radialGradient id="SVGID_11_" cx="-7917.7275" cy="8423.9502" r="80.69" gradientTransform="matrix(1 0 0 -1 7974 8443.9502)" gradientUnits="userSpaceOnUse">
	<stop  offset="9.400000e-02" style="stop-color:#FFF44F"/>
	<stop  offset="0.231" style="stop-color:#FFE141"/>
	<stop  offset="0.509" style="stop-color:#FFAF1E"/>
	<stop  offset="0.626" style="stop-color:#FF980E"/>
</radialGradient>
<path class="st10" d="M22.6,44.7c0,0,1.8-6.7,12.8-6.7c1.2,0,4.6-3.3,4.7-4.3c-4.7,1.7-10,1.5-14.5-0.6c-4.5-2.3-9.9-2.1-14.3,0.6
	c1.7,3.6,5.2,5.8,9.2,5.8c-0.7,6.3,2.6,13.7,10.7,17.6c0.2,0.1,0.4,0.2,0.5,0.3C27,55,23.1,50.4,22.6,44.7L22.6,44.7z"/>
<linearGradient id="SVGID_12_" gradientUnits="userSpaceOnUse" x1="71.2761" y1="-92.1034" x2="16.5361" y2="-146.8534" gradientTransform="matrix(1 0 0 -1 -1.3 -80.0541)">
	<stop  offset="0.167" style="stop-color:#FFF44F;stop-opacity:0.8"/>
	<stop  offset="0.266" style="stop-color:#FFF44F;stop-opacity:0.634"/>
	<stop  offset="0.489" style="stop-color:#FFF44F;stop-opacity:0.217"/>
	<stop  offset="0.6" style="stop-color:#FFF44F;stop-opacity:0"/>
</linearGradient>
<path class="st11" d="M75.9,26.8c-1.7-4.1-5.1-8.4-7.8-9.8c1.9,3.7,3.2,7.7,3.9,11.8l0,0.1C67.7,17.9,60.2,13.5,54.2,3.9
	c-0.3-0.5-0.6-1-0.9-1.5c-0.2-0.3-0.3-0.6-0.4-0.8c-0.3-0.5-0.4-1-0.6-1.5c0-0.1,0-0.1-0.1-0.1c0,0,0,0-0.1,0c0,0,0,0,0,0s0,0,0,0
	l0,0c-9.7,5.7-13,16.2-13.3,21.5c0.5,0,0.9-0.1,1.4-0.1c7,0,13.5,3.8,17,9.9c-2.7-1.9-6.1-2.7-9.3-2.3c13.9,7,10.2,31-9.1,30.1
	c-1.7-0.1-3.4-0.4-5-1c-0.4-0.1-0.8-0.3-1.1-0.5c-0.2-0.1-0.4-0.2-0.7-0.3l0,0c-0.2-0.1-0.4-0.2-0.6-0.3c0.2,0.1,0.4,0.2,0.5,0.3
	c-4.7-2.4-8.6-7.1-9.1-12.7c0,0,1.8-6.7,12.8-6.7c1.2,0,4.6-3.3,4.7-4.3c0-0.3-6.8-3-9.4-5.6c-1.4-1.4-2.1-2.1-2.7-2.6
	c-0.3-0.3-0.7-0.5-1-0.8c-0.9-3.1-0.9-6.4-0.1-9.5c-3.6,1.7-6.8,4.2-9.3,7.2h0c-1.5-1.9-1.4-8.4-1.3-9.7c-0.5,0.2-0.9,0.4-1.3,0.7
	c-1.4,1-2.6,2.1-3.8,3.2c-1.3,1.3-2.5,2.8-3.6,4.3v0v0c-2.5,3.5-4.3,7.5-5.2,11.7l-0.1,0.3c-0.1,0.3-0.4,2.1-0.4,2.4l0,0
	c-0.3,1.8-0.5,3.6-0.6,5.4v0.2c0,21.4,17.4,38.7,38.8,38.7c18.8,0,34.9-13.6,38.1-32.1c0.1-0.5,0.1-1,0.2-1.5
	C79.2,39.7,78.3,33,75.9,26.8L75.9,26.8z M72,28.8L72,28.8L72,28.8z"/>
</svg>