<?xml version="1.0" encoding="utf-8"?>
<svg version="1.1"
	 id="svg8" inkscape:version="0.92.2 (5c3e80d, 2017-08-06)" sodipodi:docname="Safari browser logo.svg" xmlns:cc="http://creativecommons.org/ns#" xmlns:dc="http://purl.org/dc/elements/1.1/" xmlns:inkscape="http://www.inkscape.org/namespaces/inkscape" xmlns:rdf="http://www.w3.org/1999/02/22-rdf-syntax-ns#" xmlns:sodipodi="http://sodipodi.sourceforge.net/DTD/sodipodi-0.dtd" xmlns:svg="http://www.w3.org/2000/svg"
	 xmlns="http://www.w3.org/2000/svg" xmlns:xlink="http://www.w3.org/1999/xlink" x="0px" y="0px" viewBox="0 0 178.5 178.5"
	 style="enable-background:new 0 0 178.5 178.5;" xml:space="preserve">
<style type="text/css">
	.st0{opacity:0.53;enable-background:new    ;}
	.st1{fill:url(#path826_1_);stroke:#CDCDCD;stroke-width:9.301235e-02;stroke-linecap:round;stroke-linejoin:round;}
	.st2{fill:url(#circle828_1_);}
	.st3{fill:#F4F2F3;}
	.st4{opacity:0.409;enable-background:new    ;}
	.st5{fill:#FF5150;}
	.st6{fill:#F1F1F1;}
	.st7{opacity:0.243;enable-background:new    ;}
</style>
<g id="layer1" transform="translate(-318.88562,-180.59501)" inkscape:groupmode="layer" inkscape:label="Capa 1">
	<g id="g2858">
		<path id="path2226" inkscape:connector-curvature="0" class="st0" d="M493.7,276.7c0,45.5-38.3,82.4-85.5,82.4
			s-85.5-36.9-85.5-82.4s38.3-82.4,85.5-82.4C455.4,194.3,493.7,231.2,493.7,276.7z"/>
		
			<linearGradient id="path826_1_" gradientUnits="userSpaceOnUse" x1="728.0142" y1="-245.8773" x2="728.0142" y2="-67.6617" gradientTransform="matrix(0.9965 0 0 -0.9965 -317.3451 113.2167)">
			<stop  offset="0" style="stop-color:#BDBDBD"/>
			<stop  offset="1" style="stop-color:#FFFFFF"/>
		</linearGradient>
		<path id="path826" inkscape:connector-curvature="0" class="st1" d="M496.9,269.4c0,49-39.8,88.8-88.8,88.8l0,0
			c-49,0-88.8-39.8-88.8-88.8s39.8-88.8,88.8-88.8l0,0C457.2,180.6,496.9,220.4,496.9,269.4L496.9,269.4L496.9,269.4z"/>
		
			<radialGradient id="circle828_1_" cx="712.4941" cy="-104.6348" r="82.1254" gradientTransform="matrix(1.0812 0 0 -1.0812 -361.8755 144.3715)" gradientUnits="userSpaceOnUse">
			<stop  offset="0" style="stop-color:#06C2E7"/>
			<stop  offset="0.25" style="stop-color:#0DB8EC"/>
			<stop  offset="0.5" style="stop-color:#12AEF1"/>
			<stop  offset="0.75" style="stop-color:#1F86F9"/>
			<stop  offset="1" style="stop-color:#107DDD"/>
		</radialGradient>
		<path id="circle828" inkscape:connector-curvature="0" class="st2" d="M490,269.4c0,45.2-36.6,81.8-81.8,81.8l0,0
			c-45.2,0-81.8-36.6-81.8-81.8l0,0c0-45.2,36.6-81.8,81.8-81.8l0,0C453.3,187.6,490,224.2,490,269.4L490,269.4z"/>
		<path id="rect830" inkscape:connector-curvature="0" class="st3" d="M408.1,191.9c-0.7,0-1.2,0.5-1.2,1.2v13.8
			c0,0.7,0.5,1.2,1.2,1.2c0.7,0,1.2-0.5,1.2-1.2v-13.8C409.3,192.4,408.8,191.9,408.1,191.9z M400.3,192.4c-0.1,0-0.2,0-0.2,0
			c-0.7,0.1-1.1,0.7-1.1,1.3l0.6,5.8c0.1,0.7,0.7,1.1,1.3,1.1c0.7-0.1,1.1-0.7,1.1-1.3l-0.6-5.8
			C401.3,192.8,400.9,192.4,400.3,192.4z M416,192.4c-0.6,0.1-1,0.5-1.1,1.1l-0.6,5.8c-0.1,0.7,0.4,1.2,1.1,1.3
			c0.7,0.1,1.2-0.4,1.3-1.1l0.6-5.8c0.1-0.7-0.4-1.2-1.1-1.3C416.1,192.4,416.1,192.4,416,192.4L416,192.4z M392.3,193.5
			c-0.1,0-0.2,0-0.2,0c-0.6,0.1-1.1,0.8-0.9,1.4l2.9,13.5c0.1,0.6,0.8,1.1,1.4,0.9c0.6-0.1,1.1-0.8,0.9-1.4l-2.9-13.5
			C393.3,193.9,392.9,193.5,392.3,193.5L392.3,193.5z M424,193.5c-0.6,0-1.1,0.4-1.2,0.9l-2.9,13.5c-0.1,0.6,0.3,1.3,0.9,1.4
			c0.6,0.1,1.3-0.3,1.4-0.9l2.9-13.5c0.1-0.6-0.3-1.3-0.9-1.4C424.2,193.5,424.1,193.5,424,193.5L424,193.5z M384.6,195.7
			c-0.2,0-0.3,0-0.5,0.1c-0.6,0.2-1,0.9-0.8,1.5l1.8,5.5c0.2,0.6,0.9,1,1.5,0.8c0.6-0.2,1-0.9,0.8-1.5l-1.8-5.5
			C385.5,196,385.1,195.7,384.6,195.7L384.6,195.7z M431.6,195.7c-0.5,0-0.9,0.3-1,0.8l-1.8,5.5c-0.2,0.6,0.1,1.3,0.8,1.5
			c0.6,0.2,1.3-0.1,1.5-0.8l1.8-5.5c0.2-0.6-0.1-1.3-0.8-1.5C431.9,195.7,431.8,195.7,431.6,195.7L431.6,195.7z M377.1,198.5
			c-0.2,0-0.3,0-0.5,0.1c-0.6,0.3-0.9,1-0.6,1.6l5.6,12.6c0.3,0.6,1,0.9,1.6,0.6c0.6-0.3,0.9-1,0.6-1.6l-5.6-12.6
			C378,198.7,377.5,198.4,377.1,198.5z M439.3,198.5c-0.5,0-0.9,0.3-1.1,0.7l-5.6,12.6c-0.3,0.6,0,1.3,0.6,1.6
			c0.6,0.3,1.3,0,1.6-0.6l5.6-12.6c0.3-0.6,0-1.3-0.6-1.6C439.6,198.5,439.4,198.5,439.3,198.5z M370.1,202.2c-0.2,0-0.5,0-0.7,0.2
			c-0.6,0.3-0.8,1.1-0.4,1.6l2.9,5c0.3,0.6,1.1,0.8,1.6,0.4c0.6-0.3,0.8-1.1,0.4-1.6l-2.9-5C370.8,202.4,370.4,202.2,370.1,202.2
			L370.1,202.2z M446.2,202.2c-0.4,0-0.7,0.2-0.9,0.6l-2.9,5c-0.3,0.6-0.1,1.3,0.4,1.6c0.6,0.3,1.3,0.1,1.6-0.4l2.9-5
			c0.3-0.6,0.1-1.3-0.4-1.6C446.7,202.2,446.4,202.2,446.2,202.2L446.2,202.2z M363.2,206.4c-0.2,0-0.5,0.1-0.7,0.2
			c-0.5,0.4-0.7,1.1-0.3,1.7l8.1,11.1c0.4,0.5,1.1,0.7,1.7,0.3c0.5-0.4,0.7-1.1,0.3-1.7l-8.1-11.1
			C364,206.6,363.6,206.4,363.2,206.4L363.2,206.4z M453.1,206.5c-0.4,0-0.8,0.2-1,0.5l-8.1,11.1c-0.4,0.5-0.3,1.3,0.3,1.7
			c0.5,0.4,1.3,0.3,1.7-0.3l8.1-11.1c0.4-0.5,0.3-1.3-0.3-1.7C453.6,206.6,453.3,206.5,453.1,206.5L453.1,206.5z M357.1,211.5
			c-0.3,0-0.6,0.1-0.9,0.3c-0.5,0.4-0.5,1.2-0.1,1.7l3.9,4.3c0.4,0.5,1.2,0.5,1.7,0.1c0.5-0.4,0.5-1.2,0.1-1.7l-3.9-4.3
			C357.7,211.7,357.4,211.5,357.1,211.5L357.1,211.5z M459.1,211.5c-0.3,0-0.6,0.1-0.8,0.4l-3.9,4.3c-0.4,0.5-0.4,1.2,0.1,1.7
			c0.5,0.4,1.2,0.4,1.7-0.1l3.9-4.3c0.4-0.5,0.4-1.2-0.1-1.7C459.7,211.6,459.4,211.5,459.1,211.5L459.1,211.5z M351.3,217.1
			c-0.3,0-0.6,0.1-0.8,0.4c-0.4,0.5-0.4,1.2,0.1,1.7l10.2,9.2c0.5,0.4,1.2,0.4,1.7-0.1c0.4-0.5,0.4-1.2-0.1-1.7l-10.2-9.2
			C351.9,217.2,351.6,217.1,351.3,217.1L351.3,217.1z M465,217.2c-0.3,0-0.6,0.1-0.9,0.3l-10.2,9.2c-0.5,0.4-0.5,1.2-0.1,1.7
			c0.4,0.5,1.2,0.5,1.7,0.1l10.2-9.2c0.5-0.4,0.5-1.2,0.1-1.7C465.6,217.3,465.3,217.2,465,217.2z M346.4,223.4
			c-0.4,0-0.8,0.2-1,0.5c-0.4,0.5-0.3,1.3,0.3,1.7l4.7,3.4c0.5,0.4,1.3,0.3,1.7-0.3c0.4-0.5,0.3-1.3-0.3-1.7l-4.7-3.4
			C346.9,223.5,346.7,223.4,346.4,223.4L346.4,223.4z M469.8,223.4c-0.2,0-0.5,0.1-0.7,0.2l-4.7,3.4c-0.5,0.4-0.7,1.1-0.3,1.7
			c0.4,0.5,1.1,0.7,1.7,0.3l4.7-3.4c0.5-0.4,0.7-1.1,0.3-1.7C470.6,223.6,470.2,223.4,469.8,223.4L469.8,223.4z M341.9,230.1
			c-0.4,0-0.7,0.2-0.9,0.6c-0.3,0.6-0.1,1.3,0.4,1.6l11.9,6.9c0.6,0.3,1.3,0.1,1.6-0.4c0.3-0.6,0.1-1.3-0.4-1.6l-11.9-6.9
			C342.4,230.1,342.1,230,341.9,230.1L341.9,230.1z M474.3,230.1c-0.2,0-0.5,0-0.7,0.2l-11.9,6.9c-0.6,0.3-0.8,1.1-0.4,1.6
			c0.3,0.6,1.1,0.8,1.6,0.4l11.9-6.9c0.6-0.3,0.8-1.1,0.4-1.6C475.1,230.3,474.7,230.1,474.3,230.1L474.3,230.1z M338.5,237.2
			c-0.5,0-0.9,0.3-1.1,0.7c-0.3,0.6,0,1.3,0.6,1.6l5.3,2.4c0.6,0.3,1.3,0,1.6-0.6s0-1.3-0.6-1.6l-5.3-2.4
			C338.8,237.2,338.6,237.2,338.5,237.2z M477.8,237.2c-0.2,0-0.3,0-0.5,0.1l-5.3,2.4c-0.6,0.3-0.9,1-0.6,1.6c0.3,0.6,1,0.9,1.6,0.6
			l5.3-2.4c0.6-0.3,0.9-1,0.6-1.6C478.7,237.5,478.3,237.2,477.8,237.2L477.8,237.2z M335.4,244.6c-0.5,0-0.9,0.3-1,0.8
			c-0.2,0.6,0.1,1.3,0.8,1.5l13.1,4.3c0.6,0.2,1.3-0.1,1.5-0.8c0.2-0.6-0.1-1.3-0.8-1.5l-13.1-4.3
			C335.7,244.6,335.6,244.6,335.4,244.6L335.4,244.6z M480.9,244.6c-0.2,0-0.3,0-0.5,0.1l-13.1,4.3c-0.6,0.2-1,0.9-0.8,1.5
			c0.2,0.6,0.9,1,1.5,0.8l13.1-4.3c0.6-0.2,1-0.9,0.8-1.5C481.7,245,481.3,244.7,480.9,244.6L480.9,244.6z M333.5,252.4
			c-0.6,0-1.1,0.4-1.2,0.9c-0.1,0.6,0.3,1.3,0.9,1.4l5.7,1.2c0.6,0.1,1.3-0.3,1.4-0.9c0.1-0.6-0.3-1.3-0.9-1.4l-5.7-1.2
			C333.7,252.4,333.6,252.4,333.5,252.4L333.5,252.4z M482.8,252.4c-0.1,0-0.2,0-0.2,0l-5.7,1.2c-0.6,0.1-1.1,0.8-0.9,1.4
			c0.1,0.6,0.8,1.1,1.4,0.9l5.7-1.2c0.6-0.1,1.1-0.8,0.9-1.4C483.8,252.8,483.3,252.4,482.8,252.4L482.8,252.4z M332.1,260.2
			c-0.6,0.1-1,0.5-1.1,1.1c-0.1,0.7,0.4,1.2,1.1,1.3l13.7,1.4c0.7,0.1,1.2-0.4,1.3-1.1c0.1-0.7-0.4-1.2-1.1-1.3l-13.7-1.4
			C332.2,260.2,332.1,260.2,332.1,260.2L332.1,260.2z M484.2,260.3c-0.1,0-0.2,0-0.2,0l-13.7,1.4c-0.7,0.1-1.1,0.7-1.1,1.3
			c0.1,0.7,0.7,1.1,1.3,1.1l13.7-1.4c0.7-0.1,1.1-0.7,1.1-1.3C485.2,260.8,484.8,260.4,484.2,260.3L484.2,260.3z M331.8,268.2
			c-0.7,0-1.2,0.5-1.2,1.2c0,0.7,0.5,1.2,1.2,1.2h5.8c0.7,0,1.2-0.5,1.2-1.2s-0.5-1.2-1.2-1.2H331.8z M478.6,268.2
			c-0.7,0-1.2,0.5-1.2,1.2c0,0.7,0.5,1.2,1.2,1.2h5.8c0.7,0,1.2-0.5,1.2-1.2s-0.5-1.2-1.2-1.2H478.6z M346,274.8c-0.1,0-0.2,0-0.2,0
			l-13.7,1.4c-0.7,0.1-1.1,0.7-1.1,1.3c0.1,0.7,0.7,1.1,1.3,1.1l13.7-1.4c0.7-0.1,1.1-0.7,1.1-1.3C347,275.2,346.5,274.8,346,274.8
			L346,274.8z M470.3,274.8c-0.6,0.1-1,0.5-1.1,1.1c-0.1,0.7,0.4,1.2,1.1,1.3l13.7,1.4c0.7,0.1,1.2-0.4,1.3-1.1
			c0.1-0.7-0.4-1.2-1.1-1.3l-13.7-1.4C470.4,274.8,470.3,274.8,470.3,274.8L470.3,274.8z M339.1,282.9c-0.1,0-0.2,0-0.2,0l-5.7,1.2
			c-0.6,0.1-1.1,0.8-0.9,1.4c0.1,0.6,0.8,1.1,1.4,0.9l5.7-1.2c0.6-0.1,1.1-0.8,0.9-1.4C340.2,283.3,339.7,282.9,339.1,282.9
			L339.1,282.9z M477.1,282.9c-0.6,0-1.1,0.4-1.2,0.9c-0.1,0.6,0.3,1.3,0.9,1.4l5.7,1.2c0.6,0.1,1.3-0.3,1.4-0.9
			c0.1-0.6-0.3-1.3-0.9-1.4l-5.7-1.2C477.3,282.9,477.2,282.9,477.1,282.9L477.1,282.9z M348.7,287.6c-0.2,0-0.3,0-0.5,0.1
			l-13.1,4.3c-0.6,0.2-1,0.9-0.8,1.5c0.2,0.6,0.9,1,1.5,0.8l13.1-4.3c0.6-0.2,1-0.9,0.8-1.5C349.6,288,349.1,287.6,348.7,287.6
			L348.7,287.6z M467.6,287.6c-0.5,0-0.9,0.3-1,0.8c-0.2,0.6,0.1,1.3,0.8,1.5l13.1,4.3c0.6,0.2,1.3-0.1,1.5-0.8
			c0.2-0.6-0.1-1.3-0.8-1.5l-13.1-4.3C467.9,287.7,467.7,287.6,467.6,287.6L467.6,287.6z M343.7,296.9c-0.2,0-0.3,0-0.5,0.1
			l-5.3,2.4c-0.6,0.3-0.9,1-0.6,1.6c0.3,0.6,1,0.9,1.6,0.6l5.3-2.4c0.6-0.3,0.9-1,0.6-1.6C344.6,297.2,344.1,296.9,343.7,296.9
			L343.7,296.9z M472.5,297c-0.5,0-0.9,0.3-1.1,0.7c-0.3,0.6,0,1.3,0.6,1.6l5.3,2.4c0.6,0.3,1.3,0,1.6-0.6c0.3-0.6,0-1.3-0.6-1.6
			l-5.3-2.4C472.9,297,472.7,297,472.5,297L472.5,297z M354,299.6c-0.2,0-0.5,0-0.7,0.2l-11.9,6.9c-0.6,0.3-0.8,1.1-0.4,1.6
			c0.3,0.6,1.1,0.8,1.6,0.4l11.9-6.9c0.6-0.3,0.8-1.1,0.4-1.6C354.7,299.8,354.4,299.6,354,299.6L354,299.6z M462.3,299.6
			c-0.4,0-0.7,0.2-1,0.6c-0.3,0.6-0.1,1.3,0.4,1.6l11.9,6.9c0.6,0.3,1.3,0.1,1.6-0.4c0.3-0.6,0.1-1.3-0.4-1.6l-11.9-6.9
			C462.7,299.6,462.5,299.5,462.3,299.6L462.3,299.6z M351,309.7c-0.2,0-0.5,0.1-0.7,0.2l-4.7,3.4c-0.5,0.4-0.7,1.1-0.3,1.7
			c0.4,0.5,1.1,0.7,1.7,0.3l4.7-3.4c0.5-0.4,0.7-1.1,0.3-1.7C351.8,309.8,351.4,309.6,351,309.7L351,309.7z M465.2,309.7
			c-0.4,0-0.8,0.2-1,0.5c-0.4,0.5-0.3,1.3,0.3,1.7l4.7,3.4c0.5,0.4,1.3,0.3,1.7-0.3c0.4-0.5,0.3-1.3-0.3-1.7l-4.7-3.4
			C465.7,309.8,465.4,309.7,465.2,309.7L465.2,309.7z M361.6,310.1c-0.3,0-0.6,0.1-0.9,0.3l-10.2,9.2c-0.5,0.4-0.5,1.2-0.1,1.7
			c0.4,0.5,1.2,0.5,1.7,0.1l10.2-9.2c0.5-0.4,0.5-1.2,0.1-1.7C362.2,310.3,361.9,310.1,361.6,310.1z M454.6,310.1
			c-0.3,0-0.6,0.1-0.8,0.4c-0.4,0.5-0.4,1.2,0.1,1.7l10.2,9.2c0.5,0.4,1.2,0.4,1.7-0.1c0.4-0.5,0.4-1.2-0.1-1.7l-10.2-9.2
			C455.2,310.2,454.9,310.1,454.6,310.1L454.6,310.1z M371.3,318.9c-0.4,0-0.8,0.2-1,0.5l-8.1,11.1c-0.4,0.5-0.3,1.3,0.3,1.7
			c0.5,0.4,1.3,0.3,1.7-0.3l8.1-11.1c0.4-0.5,0.3-1.3-0.3-1.7C371.8,319,371.6,318.9,371.3,318.9z M444.8,318.9
			c-0.2,0-0.5,0.1-0.7,0.2c-0.5,0.4-0.7,1.1-0.3,1.7L452,332c0.4,0.5,1.1,0.7,1.7,0.3c0.5-0.4,0.7-1.1,0.3-1.7l-8.1-11.1
			C445.6,319.1,445.2,318.9,444.8,318.9L444.8,318.9z M360.9,320.6c-0.3,0-0.6,0.1-0.8,0.4l-3.9,4.3c-0.4,0.5-0.4,1.2,0.1,1.7
			c0.5,0.4,1.2,0.4,1.7-0.1l3.9-4.3c0.4-0.5,0.4-1.2-0.1-1.7C361.5,320.7,361.2,320.6,360.9,320.6L360.9,320.6z M455.4,320.7
			c-0.3,0-0.6,0.1-0.9,0.3c-0.5,0.4-0.5,1.2-0.1,1.7l3.9,4.3c0.4,0.5,1.2,0.5,1.7,0.1c0.5-0.4,0.5-1.2,0.1-1.7l-3.9-4.3
			C456,320.8,455.7,320.7,455.4,320.7L455.4,320.7z M382.6,325.4c-0.5,0-0.9,0.3-1.1,0.7l-5.6,12.6c-0.3,0.6,0,1.3,0.6,1.6
			c0.6,0.3,1.3,0,1.6-0.6l5.6-12.6c0.3-0.6,0-1.3-0.6-1.6C382.9,325.5,382.8,325.4,382.6,325.4L382.6,325.4z M433.5,325.5
			c-0.2,0-0.3,0-0.5,0.1c-0.6,0.3-0.9,1-0.6,1.6l5.6,12.6c0.3,0.6,1,0.9,1.6,0.6c0.6-0.3,0.9-1,0.6-1.6l-5.6-12.6
			C434.4,325.7,434,325.5,433.5,325.5L433.5,325.5z M372.8,329.3c-0.4,0-0.7,0.2-0.9,0.6l-2.9,5c-0.3,0.6-0.1,1.3,0.4,1.6
			c0.6,0.3,1.3,0.1,1.6-0.4l2.9-5c0.3-0.6,0.1-1.3-0.4-1.6C373.2,329.3,373,329.3,372.8,329.3L372.8,329.3z M443.5,329.3
			c-0.2,0-0.5,0-0.7,0.2c-0.6,0.3-0.8,1.1-0.4,1.6l2.9,5c0.3,0.6,1.1,0.8,1.6,0.4c0.6-0.3,0.8-1.1,0.4-1.6l-2.9-5
			C444.2,329.6,443.8,329.3,443.5,329.3L443.5,329.3z M395.1,329.5c-0.6,0-1.1,0.4-1.2,0.9l-2.9,13.5c-0.1,0.6,0.3,1.3,0.9,1.4
			c0.6,0.1,1.3-0.3,1.4-0.9l2.9-13.5c0.1-0.6-0.3-1.3-0.9-1.4C395.3,329.5,395.2,329.5,395.1,329.5L395.1,329.5z M421.1,329.5
			c-0.1,0-0.2,0-0.2,0c-0.6,0.1-1.1,0.8-0.9,1.4l2.9,13.5c0.1,0.6,0.8,1.1,1.4,0.9c0.6-0.1,1.1-0.8,0.9-1.4l-2.9-13.5
			C422.1,329.9,421.6,329.5,421.1,329.5L421.1,329.5z M408.1,330.9c-0.7,0-1.2,0.5-1.2,1.2v13.8c0,0.7,0.5,1.2,1.2,1.2
			c0.7,0,1.2-0.5,1.2-1.2v-13.8C409.3,331.4,408.8,330.9,408.1,330.9z M386.2,335.3c-0.5,0-0.9,0.3-1,0.8l-1.8,5.5
			c-0.2,0.6,0.1,1.3,0.8,1.5c0.6,0.2,1.3-0.1,1.5-0.8l1.8-5.5c0.2-0.6-0.1-1.3-0.8-1.5C386.5,335.3,386.4,335.3,386.2,335.3
			L386.2,335.3z M430,335.3c-0.2,0-0.3,0-0.5,0.1c-0.6,0.2-1,0.9-0.8,1.5l1.8,5.5c0.2,0.6,0.9,1,1.5,0.8c0.6-0.2,1-0.9,0.8-1.5
			l-1.8-5.5C430.9,335.7,430.5,335.3,430,335.3L430,335.3z M400.6,338.4c-0.6,0.1-1,0.5-1.1,1.1l-0.6,5.8c-0.1,0.7,0.4,1.2,1.1,1.3
			s1.2-0.4,1.3-1.1l0.6-5.8c0.1-0.7-0.4-1.2-1.1-1.3C400.8,338.4,400.7,338.4,400.6,338.4z M415.6,338.4c-0.1,0-0.2,0-0.2,0
			c-0.7,0.1-1.1,0.7-1.1,1.3l0.6,5.8c0.1,0.7,0.7,1.1,1.3,1.1c0.7-0.1,1.1-0.7,1.1-1.3l-0.6-5.8
			C416.6,338.9,416.1,338.4,415.6,338.4L415.6,338.4z"/>
		<path id="path2150" inkscape:connector-curvature="0" sodipodi:nodetypes="ccccc" class="st4" d="M464,221.7l-65.3,37.9l-41.3,65
			l60.4-44.7L464,221.7z"/>
		<g id="g2847">
			
				<path id="path2096" inkscape:flatsided="true" inkscape:randomized="0" inkscape:rounded="1.35308e-016" inkscape:transform-center-y="-13.18648" sodipodi:arg1="1.3089969" sodipodi:arg2="2.3561945" sodipodi:cx="124.97523" sodipodi:cy="142.65184" sodipodi:r1="18.791006" sodipodi:r2="9.395503" sodipodi:sides="3" sodipodi:type="star" class="st5" d="
				M417.5,279.2l-18.7-19.6l66.4-44.7L417.5,279.2z"/>
			
				<path id="path2099" inkscape:flatsided="true" inkscape:randomized="0" inkscape:rounded="1.35308e-016" inkscape:transform-center-y="13.186483" sodipodi:arg1="1.3089969" sodipodi:arg2="2.3561945" sodipodi:cx="124.97523" sodipodi:cy="142.65184" sodipodi:r1="18.791006" sodipodi:r2="9.395503" sodipodi:sides="3" sodipodi:type="star" class="st6" d="
				M417.5,279.2l-18.7-19.6l-47.7,64.2L417.5,279.2z"/>
			<path id="path2112" inkscape:connector-curvature="0" class="st7" d="M351.1,323.9l66.4-44.7l47.7-64.2L351.1,323.9z"/>
		</g>
	</g>
</g>
</svg>